<svg xmlns="http://www.w3.org/2000/svg" xmlns:xlink="http://www.w3.org/1999/xlink" viewBox="0 0 500 700"><defs><style>.cls-1{fill:none;}.cls-2{fill:#9b9c9d;}.cls-3{fill:#1d3e7b;stroke:#1d3e7b;stroke-linecap:round;stroke-linejoin:round;stroke-width:3.15px;}.cls-4{fill:#b3b3b2;}.cls-5{fill:#3860a0;}.cls-6{clip-path:url(#clip-path);}.cls-7{fill:#fff;}.cls-8{fill:#093a83;}.cls-9{fill:#9d9fa1;}.cls-10{fill:#1a0a43;}.cls-11{fill:#bfe1da;}.cls-12{clip-path:url(#clip-path-3);}.cls-13{fill:#bedfd9;}.cls-14{fill:#e6e6e6;}</style><clipPath id="clip-path"><rect class="cls-1" x="47.24" y="109.03" width="399.56" height="526.48" transform="translate(-3.25 2.18) rotate(-0.5)"/></clipPath><clipPath id="clip-path-3"><path class="cls-1" d="M211.47,244.42c8.64-2.56,20.84-4.21,34.39-4.33s25.79,1.33,34.48,3.73c-.88-3.32-16-6.84-34.5-6.68s-33.52,3.94-34.37,7.28M210,236.47c-.11-1.5.08-2.74.43-2.76s.73,1.15.85,2.65-.09,2.73-.45,2.76h0c-.34,0-.72-1.17-.83-2.65m70.39-.71c.1-1.51.45-2.7.8-2.67s.57,1.25.48,2.75-.44,2.66-.79,2.67h0c-.35,0-.57-1.26-.48-2.75m-65.21-2.93c0-1.78.75-3.22,1.72-3.23s1.77,1.42,1.79,3.2S217.93,236,217,236s-1.77-1.42-1.78-3.19m57.74-.51c0-1.78.75-3.22,1.72-3.23s1.78,1.42,1.79,3.2-.75,3.21-1.73,3.22-1.76-1.42-1.78-3.19m-50.07-1a18.06,18.06,0,0,1,2-4.2,16.37,16.37,0,0,1,2.29,3.64,30.27,30.27,0,0,1-2.11,3.85,26.73,26.73,0,0,1-2.18-3.29m41.58-.88a16.25,16.25,0,0,1,2.24-3.69,18.21,18.21,0,0,1,2.06,4.17,26.86,26.86,0,0,1-2.12,3.33,30.24,30.24,0,0,1-2.18-3.81m-32.82-.82a2.87,2.87,0,1,1,2.89,2.93,2.9,2.9,0,0,1-2.89-2.93m22.59-.19a2.88,2.88,0,1,1,2.9,2.92,2.92,2.92,0,0,1-2.9-2.92m-12,2.88c-.16-.87-.25-5.16-.21-6.21a13.86,13.86,0,0,1,3.8-.39,14.4,14.4,0,0,1,3.82.32,55.33,55.33,0,0,1-.12,6.22c-.84.07-2.34.13-3.64.14s-2.8,0-3.65-.08m-31.65-2.74-.65.42.29,1.91s-1.46.48-1.43,3.74c0,4.65,2.36,5.15,2.36,5.15l.23.7c4.64-3.54,19-6.23,34.52-6.36s29.94,2.29,34.63,5.75l.22-.7S283,239.68,283,235c0-3.27-1.5-3.72-1.5-3.72l.25-1.91L281,229c-.1-.07-11-6.58-35.33-6.36s-35.09,6.9-35.21,7m-5.15-8.91c-.64-1-.88-1.92-.55-2.15s1.1.36,1.74,1.3.88,1.93.55,2.16l-.16.05c-.38,0-1-.55-1.58-1.36m79,.63c-.32-.22-.1-1.19.53-2.16s1.4-1.57,1.72-1.34.1,1.19-.52,2.16-1.17,1.39-1.55,1.39Zm-65.09-7.86c.08-1,.2-3.17.38-4.45a18.36,18.36,0,0,1,3.14,3.67,27.19,27.19,0,0,1-.47,4.47,34.42,34.42,0,0,1-3.05-3.69m49.29-1.18a19,19,0,0,1,3.07-3.73c.21,1.28.36,3.41.47,4.45a33.77,33.77,0,0,1-3,3.74,28.17,28.17,0,0,1-.55-4.46m-25,0s-.1-2.44-.11-3.23,0-3.31,0-3.31a16.7,16.7,0,0,1,2.12-.23,17.84,17.84,0,0,1,2.14.19s0,2.53.05,3.32-.05,3.23-.05,3.23-1.31.12-2.08.12-2.07-.09-2.07-.09m-3.64-10.56a6.11,6.11,0,0,0,1.16,3.57,7.82,7.82,0,0,0-2.4-.47c-1.13,0-3.27.9-3.23,5.61s2.48,6.06,4.24,6.05a5.9,5.9,0,0,0,.79-.13s-.68,1.17-3.05,1.19a7.85,7.85,0,0,1-3.62-1.19,5.19,5.19,0,0,1-4.37,2,2.57,2.57,0,0,1-2-.8s3.4.55,3.36-4.41-3.43-6.58-4.36-6.57a5,5,0,0,0-3.26,1.51s.09-1,.08-1.94c0-.67-.19-4.16-3.76-4.13-3.1,0-6,1.74-6,4,0,1.71,2.45,4.72,2.45,4.72a3.08,3.08,0,0,0-.83-.09c-.54,0-2.83-.12-2.8,2.82,0,2.62,2.28,6.3,4.93,6.27a3.62,3.62,0,0,0,2.23-.68S219,221,216.17,221a2.12,2.12,0,0,1-1.92-.75s-.35,2.1-2,2.12-1.72-.49-1.72-.49,3.81-.68,1.59-5c-1.38-2.66-2.31-3.05-3.14-3.05s-2,1.24-2,1.24a13.1,13.1,0,0,0,.4-2.93c0-1.4-.68-3.29-2.65-3.27-2.69,0-6.92,4.34-6.92,4.34s5.19,2.42,6.14,4.09a2,2,0,0,0-.43,1.32c0,1.22.76,4.74,4.49,4.7a29,29,0,0,1,1.45,4.56s10.91-7.06,36.21-7.28S282,227.3,282,227.3a29.44,29.44,0,0,1,1.38-4.59c3.73,0,4.42-3.56,4.41-4.78a2,2,0,0,0-.45-1.31c.9-1.68,6.06-4.2,6.06-4.2s-4.3-4.24-7-4.22c-2,0-2.61,1.92-2.6,3.32a12.56,12.56,0,0,0,.46,2.92s-1.23-1.21-2-1.2-1.77.42-3.09,3.1c-2.15,4.35,1.68,5,1.68,5s-.11.5-1.72.51-2-2.08-2-2.08a2.13,2.13,0,0,1-1.9.79c-2.8,0-3.36-1.9-3.36-1.9a3.6,3.6,0,0,0,2.23.64c2.66,0,4.86-3.73,4.84-6.35,0-2.94-2.32-2.77-2.85-2.77a2.68,2.68,0,0,0-.82.1s2.38-3.05,2.36-4.77c0-2.26-2.94-3.92-6.05-3.9-3.56,0-3.7,3.53-3.7,4.2,0,.95.13,1.94.13,1.94a5,5,0,0,0-3.29-1.46c-.92,0-4.27,1.68-4.22,6.65s3.42,4.35,3.42,4.35a2.62,2.62,0,0,1-2,.84,5.18,5.18,0,0,1-4.39-1.94,7.8,7.8,0,0,1-3.61,1.25c-2.38,0-3.07-1.13-3.07-1.13a5.33,5.33,0,0,0,.8.11c1.75,0,4.16-1.4,4.12-6.12s-2.18-5.56-3.31-5.55a7.83,7.83,0,0,0-2.41.52,6.14,6.14,0,0,0,1.1-3.6c0-2.62-3.09-3.64-5.65-3.62s-5.61,1.1-5.59,3.72m4.11-6.07a2.22,2.22,0,0,1,1.42-3.85,2,2,0,0,1,.95.24,2.21,2.21,0,0,1,1.23,2,2.18,2.18,0,0,1-2.14,2.24,2.11,2.11,0,0,1-1.46-.59m-1.24-7.25a2.63,2.63,0,0,1,3.63-2.54,2.73,2.73,0,0,1,1.64,2.49,2.64,2.64,0,1,1-5.27,0m-4.22-2.76a7.14,7.14,0,0,0,2.61,4.63l-.7,8a8.48,8.48,0,0,1,5-1.48,8.59,8.59,0,0,1,5.05,1.39l-.83-8a7.1,7.1,0,0,0,2.52-4.68,18.08,18.08,0,0,0-13.66.12M193.2,207.53h0a1.93,1.93,0,1,1,3.85,0h0a1.93,1.93,0,1,1-3.85,0m-1.74-5.42h0a2,2,0,1,1,4,0h0a2,2,0,1,1-4,0M209,199.86a2.11,2.11,0,0,1,2-2.17,2,2,0,0,1,.82.17,2.13,2.13,0,0,1,1.29,2,2.08,2.08,0,1,1-4.15,0m-17.39-3.54a2.16,2.16,0,1,1,4.32,0,2.16,2.16,0,1,1-4.32,0m16.62-.65-.18-.16-.19-.14-.16-.21-.14-.17-.08-.15a2.47,2.47,0,0,1-.36-1.27h0a2.52,2.52,0,0,1,2.46-2.58h0a2.56,2.56,0,0,1,0,5.11,2.48,2.48,0,0,1-1.39-.43m9.6-4.35a1.71,1.71,0,0,1-.15-.72,2.05,2.05,0,0,1,2.16-2.27c3.36,0,11.73,3.83,17,4.51-.48.18-1.09.63-5.42.66s-13.61-2.18-13.61-2.18m-23.28-.44a2.32,2.32,0,1,1,2.34,2.37,2.34,2.34,0,0,1-2.34-2.37m37.55-2.09a2,2,0,0,1-1.19-1.82,1.94,1.94,0,0,1,1.9-2,1.9,1.9,0,0,1,.75.15,2,2,0,0,1,1.19,1.8,2,2,0,0,1-1.9,2,1.83,1.83,0,0,1-.75-.15m-32-1.17h0a2.56,2.56,0,1,1,5.12-.05h0a2.56,2.56,0,1,1-5.12,0m7.24-.55a2.59,2.59,0,0,1,2.53-2.65,2.51,2.51,0,0,1,1,.2,2.65,2.65,0,0,1-1,5.07h0a2.61,2.61,0,0,1-2.58-2.62m18-2.49a2.2,2.2,0,0,1,2.13-2.24,2,2,0,0,1,1.31.48,2.2,2.2,0,0,1-1.27,4,2.19,2.19,0,0,1-2.17-2.2m-5.9-1.22-.08-.15,0-.1a2.26,2.26,0,0,1-.16-.82h0a2.35,2.35,0,0,1,2.29-2.41,2.38,2.38,0,0,1,1.31.4l.13.11.21.18.13.15.15.2.07.13.15.27v0a2.45,2.45,0,0,1,.18.9h0a2.34,2.34,0,0,1-2.29,2.39h0a2.29,2.29,0,0,1-2.06-1.28m-6,.88-.11-.1h0a2.56,2.56,0,0,1-.73-1.8h0a2.47,2.47,0,1,1,4.94,0h0a2.51,2.51,0,0,1-2.45,2.58h0a2.42,2.42,0,0,1-1.64-.64m-1-4.57a3.83,3.83,0,0,0-1.05,2.68,3.87,3.87,0,0,0,.21,1.23,3.64,3.64,0,0,0-1.7-.4,3.68,3.68,0,0,0-2.64,1.16,3.87,3.87,0,0,0-1,2,3.81,3.81,0,0,0-.92-1.48,3.65,3.65,0,0,0-2.67-1.12,3.72,3.72,0,0,0-2.65,1.16,3.92,3.92,0,0,0-1.06,2.74V188a3.44,3.44,0,0,0-4.62.35,3.64,3.64,0,0,0-1,2.57,3.73,3.73,0,0,0,.56,2h-.16a3.32,3.32,0,0,0-2.38,1,3.57,3.57,0,0,0-1,2.46,3.51,3.51,0,0,0,1,2.43,2.88,2.88,0,0,0,.54.44,3.07,3.07,0,0,0-.76.58,3.35,3.35,0,0,0,0,4.65,3.08,3.08,0,0,0,1.62.89,3.29,3.29,0,0,0,.1,4.48,3.23,3.23,0,0,0,2.21.93c.45,0,1.91-.48,2.59-.49a1.16,1.16,0,0,1,1.09.44l4.21-2.75c-.77-2.62-2.42-5.31-2.45-8.66,0-4,4.12-5.68,5.32-5.69a5.76,5.76,0,0,0,1.09,2.66,3.66,3.66,0,0,0,1.92,1,3.63,3.63,0,0,0-1.15,2.6,3.41,3.41,0,0,0,1,2.38,3.27,3.27,0,0,0,2.33,1c.92,0,2.19-.54,2.84-.55a10.7,10.7,0,0,1,5.35-1.9c-.21-.89-1.24-5.6-1.24-5.6a44.76,44.76,0,0,0,9.38.93c8.69-.08,12.38-2,12.38-2l.25-3s-2.86-.41-3.65-1.05-.45-1.85-.46-3.17a3.21,3.21,0,0,0-.93-2.24,3,3,0,0,0-2.22-.94,3.06,3.06,0,0,0-1.9.7,3.52,3.52,0,0,0-1-2.35,3.27,3.27,0,0,0-4.75,0l-.1.12v0a3.63,3.63,0,0,0-1.05-2.55,3.46,3.46,0,0,0-2.49-1,3.52,3.52,0,0,0-2.49,1.08,3.35,3.35,0,0,0-.63.95,4,4,0,0,0-.73-1,3.6,3.6,0,0,0-5.21,0m81.68,27h0a2,2,0,0,1,1.9-2,1.86,1.86,0,0,1,.75.15,2,2,0,0,1,1.19,1.81,1.92,1.92,0,1,1-3.84,0m2.44-3.77a2,2,0,0,1,1-3.76,2,2,0,0,1,.88.22,2,2,0,0,1-.84,3.89,1.8,1.8,0,0,1-1.06-.35m-18-2.13a2.13,2.13,0,0,1-.38-.56l-.07-.11a2.22,2.22,0,0,1-.17-.82,2.1,2.1,0,0,1,2.06-2.17,2.21,2.21,0,0,1,.81.16,2.15,2.15,0,0,1,1.28,2,2.1,2.1,0,0,1-2.05,2.15,2,2,0,0,1-1.48-.62m16.53-5.34a2.19,2.19,0,0,1,2.14-2.25h0a2.22,2.22,0,0,1,0,4.44h0a2.18,2.18,0,0,1-2.18-2.19m-14.66-.14a2.55,2.55,0,0,1-1.53-2.33,2.51,2.51,0,0,1,2.46-2.58h0a2.42,2.42,0,0,1,1.35.41l0,0,.1.07a2.58,2.58,0,0,1,1,2h0a2.52,2.52,0,0,1-2.45,2.57,2.44,2.44,0,0,1-1-.2m-26.32-2.59c5.28-.77,13.58-4.76,16.94-4.79a2,2,0,0,1,2.19,2.22,1.63,1.63,0,0,1-.14.72s-9.24,2.39-13.56,2.43-4.95-.4-5.43-.58M291.7,190a2.34,2.34,0,0,1,2.31-2.4,2.3,2.3,0,0,1,.9.18l0,0,.34.18.19.16.16.13.1.12a2.39,2.39,0,0,1,.59,1.56,2.35,2.35,0,0,1-2.29,2.41h0A2.35,2.35,0,0,1,291.7,190m-34.43-1.46a1.89,1.89,0,0,1-1-1l-.06-.09-.08-.36-.08-.41h0a1.94,1.94,0,0,1,1.9-2,1.9,1.9,0,0,1,.75.15,2,2,0,0,1,1.18,1.8,2,2,0,0,1-1.89,2,2,2,0,0,1-.75-.15m29.69.61a2.63,2.63,0,0,1-1.41-2.31,2.55,2.55,0,0,1,4-2.21,2.63,2.63,0,0,1,1.15,2.17,2.59,2.59,0,0,1-2.54,2.65,2.35,2.35,0,0,1-1.18-.3m-8.65-2.73a2.56,2.56,0,1,1,2.59,2.62h0a2.61,2.61,0,0,1-2.58-2.62m-17.23-2.18a2.19,2.19,0,0,1,2.14-2.25,2,2,0,0,1,1.1.36,2.18,2.18,0,1,1-3.24,1.89m6.88-.42,0,0-.09-.08a2.39,2.39,0,0,1-.95-1.88h0a2.37,2.37,0,0,1,2.3-2.42,2.27,2.27,0,0,1,.9.19,2.38,2.38,0,0,1,1.43,2.19,2.33,2.33,0,0,1-2.29,2.39h0a2.19,2.19,0,0,1-1.26-.37m5.22-2a2.52,2.52,0,0,1,2.46-2.57,2.44,2.44,0,0,1,1.35.41,2.56,2.56,0,0,1,1.15,2.12,2.48,2.48,0,1,1-5,0m-.14-2.67a3.54,3.54,0,0,0-.71,1.05,3.57,3.57,0,0,0-.66-.93,3.45,3.45,0,0,0-5,0,3.72,3.72,0,0,0-1,2.58v0l-.09-.12a3.3,3.3,0,0,0-4.75,0,3.48,3.48,0,0,0-1,2.37,3,3,0,0,0-4.11.32,3.14,3.14,0,0,0-.9,2.26c0,1.31.38,2.52-.39,3.17s-3.63,1.12-3.63,1.12l.29,3s3.73,1.81,12.41,1.73a44.7,44.7,0,0,0,9.36-1.09s-.94,4.73-1.13,5.62a10.62,10.62,0,0,1,5.37,1.81c.66,0,1.94.5,2.86.5a3.3,3.3,0,0,0,2.32-1,3.45,3.45,0,0,0,.93-2.39,3.68,3.68,0,0,0-1.2-2.58,3.62,3.62,0,0,0,1.9-1.06,6.08,6.08,0,0,0,1.06-2.68c1.2,0,5.38,1.56,5.41,5.59,0,3.36-1.58,6.08-2.31,8.7l4.26,2.68a1.17,1.17,0,0,1,1.09-.45c.67,0,2.14.45,2.59.43a3.18,3.18,0,0,0,3.1-3.24,3.26,3.26,0,0,0-.89-2.2,3,3,0,0,0,1.61-.92,3.28,3.28,0,0,0,.92-2.33,3.34,3.34,0,0,0-1-2.32,3.38,3.38,0,0,0-.75-.57,5.21,5.21,0,0,0,.52-.45,3.53,3.53,0,0,0-.05-4.89,3.27,3.27,0,0,0-2.38-1H297a3.64,3.64,0,0,0,.54-2,3.72,3.72,0,0,0-1.05-2.56,3.45,3.45,0,0,0-4.62-.27v-.33a3.79,3.79,0,0,0-1.12-2.72,3.67,3.67,0,0,0-2.67-1.12,3.72,3.72,0,0,0-2.65,1.16,4.07,4.07,0,0,0-.88,1.5,3.82,3.82,0,0,0-1-2,3.71,3.71,0,0,0-4.36-.69,3.51,3.51,0,0,0,.19-1.22,3.84,3.84,0,0,0-1.1-2.67,3.59,3.59,0,0,0-5.2,0m-29-11.47a1,1,0,0,0,.22.74,1.41,1.41,0,0,0-.72-.21,1.27,1.27,0,0,0,0,2.53c.41,0,.5-.11.5-.11l0,2.75-2.66,0s.11-.11.1-.53a1.23,1.23,0,1,0-2.45,0,1.47,1.47,0,0,0,.2.73,1,1,0,0,0-.71-.2,1.27,1.27,0,0,0,0,2.53.93.93,0,0,0,.7-.23,1.51,1.51,0,0,0-.19.74,1.23,1.23,0,1,0,2.45,0c0-.42-.11-.51-.11-.51l2.66,0,0,1.83a7,7,0,0,0-5.4,5.31,20.65,20.65,0,0,1,5.06-1.11l.34-3.92c.41,0,.82,0,1.23,0s.83,0,1.23,0l.42,3.92a20.35,20.35,0,0,1,5.08,1,7,7,0,0,0-5.5-5.21l0-1.83,2.67,0s-.11.1-.1.52a1.23,1.23,0,1,0,2.46,0,1.68,1.68,0,0,0-.21-.75.93.93,0,0,0,.72.22,1.27,1.27,0,0,0,0-2.53,1,1,0,0,0-.72.21,1.47,1.47,0,0,0,.2-.73,1.24,1.24,0,1,0-2.47,0c0,.42.12.52.12.52l-2.67,0,0-2.75s.1.1.51.1a1.27,1.27,0,0,0,0-2.53,1.41,1.41,0,0,0-.71.22,1.07,1.07,0,0,0,.19-.74,1.23,1.23,0,1,0-2.46,0"/></clipPath></defs><title>daase_ol</title><g id="skål_illu" data-name="skål illu"><path class="cls-2" d="M390.51,58.62s4.64-1.9,4.6-6.1L395,45.16s1-5.93-17.94-8.26c-111.58-13.74-256.55,2.25-256.55,2.25-18.91,2.27-17.8,8.57-17.8,8.57l.06,7.36c0,4.21,4.7,6,4.7,6Z"/><path class="cls-2" d="M74.12,620s1.13,9.46,18,16.67,19,11.4,19,11.4,6.38,8.36,8.52,12.54,12.7,9.35,138.87,8.25,126.11-8.47,126.11-8.47,5-9.38,9.34-13.75a45.17,45.17,0,0,1,19.87-11.74c16.26-4.87,16.68-17,16.68-17S115.92,591.24,74.12,620Z"/><path class="cls-3" d="M430.33,617.47l-5.2-474.95a37.91,37.91,0,0,0-5-18.38c-6.27-11-18.37-30.67-22.87-37.39-7.95-11.89-8.69-31.47-8.69-31.47-83-16.7-200.7-10.41-282.09.29-.74.1-2.2,18.61-8.14,31.62-3.61,7.92-18.17,30.35-23.82,40.75a25.19,25.19,0,0,0-3.07,12.22l3.16,478.25S251.53,638.57,430.33,617.47Z"/><path class="cls-4" d="M136.24,42a11,11,0,0,0,.09,5.24.94.94,0,0,0,.9.69s36.14-5.82,61.66-4.14a1.75,1.75,0,0,0,1.56-1.28,6.12,6.12,0,0,0-.64-6.16c-1.42-1.74-52.34,2-62.12,4A2,2,0,0,0,136.24,42Z"/><path class="cls-5" d="M412.75,129c-13.73-1.56-27.46-3.06-41.22-4.21s-27.53-2.22-41.3-3c-27.56-1.56-55.14-2.28-82.69-1.62q-20.74.41-41.47,1.09c-13.81.42-27.61,1.05-41.4,1.76s-27.56,1.66-41.29,2.92-27.42,2.82-41,4.91h0a2.5,2.5,0,0,1-.89-4.92c27.32-5.65,55.05-8.59,82.74-10.62,13.85-1,27.72-1.72,41.58-2.34s27.73-1,41.6-1.26,27.83-.25,41.73.18,27.79,1.15,41.65,2.23q41.56,3.14,82.72,9.94a2.5,2.5,0,0,1-.68,5Z"/><g class="cls-6"><g class="cls-6"><path class="cls-7" d="M248.84,579.09A11.7,11.7,0,0,1,259,584.74c1.66,2.72,5.33,4.93,8.1,4.51,75.72-11.57,133.85-90.34,133-185.42-.62-71.22-33.95-133.12-82.87-163.5a14,14,0,0,1-4.62-19.24c3.56-5.89,5.87-12.06,5.81-18.68-.22-26-33-46.72-73.26-46.36s-72.68,21.68-72.45,47.64c.06,6.62,2.47,12.75,6.14,18.57a14,14,0,0,1-4.28,19.32c-48.38,31.23-80.62,93.71-80,164.93.84,95.08,60.34,172.82,136.25,183.06,2.78.37,6.4-1.9,8-4.66a11.74,11.74,0,0,1,10-5.82"/><path class="cls-7" d="M267.06,589.25c75-15.75,133.85-90.34,133-185.42-.62-71.22-33.95-133.12-82.87-163.5a14.05,14.05,0,0,1-6.68-11.85,13.9,13.9,0,0,1,2.06-7.39c3.56-5.89,5.87-12.06,5.81-18.68-.22-26-33-46.72-73.26-46.36s-72.68,21.68-72.45,47.64c.06,6.62,2.47,12.75,6.14,18.57a14,14,0,0,1-4.28,19.32c-48.38,31.23-80.62,93.71-80,164.93.84,95.08,60.34,172.82,136.25,183.06,0,0,22.41,2.59,36.27-.32"/><path class="cls-8" d="M246,243.89c-70.73.62-127.64,73.42-126.86,162.28s59,160.65,129.68,160,127.63-73.42,126.85-162.28S316.68,243.27,246,243.89"/><path class="cls-9" d="M287,247.42l.57.22c53,21.34,91.69,83.16,92.33,156.24.8,91.19-58,165.9-131,166.55s-133.14-73-133.94-164.22c-.64-73.09,37-135.58,89.57-157.85l.57-.22-9.81-30.72,6,27.38c-55,24.11-91.51,89-90.87,161.45.82,93.69,63,169.37,138.51,168.71s136.35-77.43,135.53-171.12C383.75,331.39,346.1,267.16,290.7,244l5.53-27.48Z"/><polygon class="cls-7" points="286.59 369.58 287.4 462.64 337.9 462.2 337.75 445.55 304.69 445.84 304.02 369.42 286.59 369.58"/><path class="cls-7" d="M246.25,285a29.83,29.83,0,0,0-13,2.71c-9.7,4.77-12,15-12,24l.17,18.8,18.47-.16-.18-20.89c0-4.7,2.66-7.76,6.88-7.8a6.64,6.64,0,0,1,4.83,1.84,8.08,8.08,0,0,1,2.2,5.84l.18,20.89,18.47-.17-.16-18.8c-.15-16.82-9.6-26.39-25.92-26.25"/><path class="cls-7" d="M221.83,370.15l.6,68.93c.1,11.46,4.15,19.23,11.82,23a29.86,29.86,0,0,0,13.57,2.71c16.57-.15,25.61-9.45,25.47-26.18l-.61-68.94-18.47.16.62,71a8.05,8.05,0,0,1-2.09,5.87,6.6,6.6,0,0,1-4.8,1.93c-4.22,0-7-3-7-7.68l-.62-71Z"/><polygon class="cls-7" points="193.88 370.39 194.4 429.74 193.51 429.75 175.8 372.28 159.17 372.42 159.98 465.49 174.02 465.37 173.5 406.02 174.39 406.01 192.1 463.48 208.74 463.33 207.92 370.27 193.88 370.39"/><rect class="cls-10" x="306.08" y="369.39" width="3.46" height="74.69" transform="matrix(1, -0.01, 0.01, 1, -3.55, 2.71)"/><polygon class="cls-10" points="337.74 443.82 337.74 443.82 337.74 443.82 337.92 463.93 341.38 463.9 341.2 443.79 337.74 443.82"/><path class="cls-10" d="M244,304a4.49,4.49,0,0,0-1.73,1.83,7.53,7.53,0,0,0-.73,3.51l.18,20.89,3.46,0L245,309.35c0-3,1.18-5.06,3.44-5.77a6.23,6.23,0,0,0-1.73-.25A5.44,5.44,0,0,0,244,304"/><path class="cls-10" d="M249.69,283.2c-.59,0-1.15.05-1.72.08,16.41.55,25.78,11,25.93,27.91l.16,18.8,3.46,0-.16-18.8c-.16-17.5-10.17-28.12-27.67-28"/><path class="cls-10" d="M247.93,447a6.22,6.22,0,0,0,1.55-.23l.18-.06c-2.28-.66-3.52-2.74-3.55-5.7l-.62-71L242,370l.63,71c0,3.65,1.87,6,5.27,6"/><path class="cls-10" d="M274.41,369.68h0l.61,68.94c.07,8.36-2.16,15.3-6.68,20.17-4.24,4.56-10.53,7.28-18.81,7.68.59,0,1.16,0,1.77,0,18.28-.16,27.32-11.21,27.18-27.93l-.61-68.94Z"/><polygon class="cls-10" points="192.59 419.92 192.49 409.32 180.53 370.51 177.07 370.54 192.29 419.93 192.59 419.92"/><polygon class="cls-10" points="175.31 415.83 175.75 465.35 179.21 465.32 178.87 426.4 175.61 415.83 175.31 415.83"/><rect class="cls-10" x="210.06" y="370.23" width="3.46" height="94.8" transform="translate(-3.65 1.87) rotate(-0.5)"/><rect class="cls-10" x="192.54" y="409.32" height="10.6" transform="matrix(1, -0.01, 0.01, 1, -3.63, 1.7)"/><path class="cls-10" d="M175.31,415.83l.44,49.52Z"/><polygon class="cls-9" points="306.4 444.09 305.75 369.41 304.02 369.42 304.69 445.84 337.75 445.55 337.74 443.82 306.4 444.09"/><polygon class="cls-9" points="287.4 462.64 286.59 369.58 284.86 369.59 285.69 464.39 337.92 463.93 337.9 462.2 287.4 462.64"/><path class="cls-9" d="M248,283.28c-.57,0-1.14-.06-1.73,0-9,.07-15.5,2.79-19.84,7.41-4.73,5-6.88,12.32-6.81,21l.17,18.81,1.73,0-.17-18.8c-.08-9,2.26-19.22,12-24a29.7,29.7,0,0,1,13-2.7c16.32-.15,25.77,9.42,25.92,26.24l.16,18.8h1.73l-.16-18.8c-.15-16.9-9.53-27.36-25.94-27.91"/><path class="cls-9" d="M246.65,301.6c-4.22,0-6.92,3.1-6.88,7.8l.18,20.89,1.73,0-.18-20.89a7.41,7.41,0,0,1,.73-3.51A4.49,4.49,0,0,1,244,304a5.34,5.34,0,0,1,2.71-.71,5.82,5.82,0,0,1,1.73.26c2.28.66,3.52,2.73,3.55,5.7l.18,20.89h1.73l-.19-20.89a8,8,0,0,0-2.19-5.84,6.6,6.6,0,0,0-4.83-1.84"/><path class="cls-9" d="M274.41,369.68l-1.73,0,.61,68.94c.14,16.73-8.9,26-25.47,26.18a29.86,29.86,0,0,1-13.57-2.71c-7.67-3.8-11.72-11.57-11.82-23l-.6-68.93H220.1l.6,68.94c.15,17.24,8.86,27.61,27.14,27.44.58,0,1.12-.05,1.68-.07h0c8.28-.4,14.57-3.12,18.81-7.68,4.52-4.87,6.75-11.81,6.68-20.17Z"/><path class="cls-9" d="M247.94,448.69a6.6,6.6,0,0,0,4.8-1.93,8.05,8.05,0,0,0,2.09-5.87l-.62-71-1.73,0,.62,71c0,3-1.18,5.06-3.44,5.76l-.18.06a6.22,6.22,0,0,1-1.55.23h0c-3.4,0-5.24-2.31-5.28-6L242,370H240.3l.62,71c.05,4.7,2.8,7.71,7,7.68"/><polygon class="cls-9" points="193.51 429.75 194.4 429.74 193.88 370.39 192.15 370.4 192.15 370.4 192.59 419.92 192.59 419.92 192.29 419.93 177.07 370.54 157.42 370.71 157.42 370.71 158.25 465.5 158.25 465.5 159.98 465.49 159.17 372.42 175.8 372.28 193.51 429.75"/><polygon class="cls-9" points="207.92 370.27 208.74 463.33 192.1 463.48 174.39 406.01 173.5 406.02 174.02 465.37 175.75 465.35 175.31 415.83 175.61 415.83 190.83 465.22 210.48 465.05 209.65 370.25 207.92 370.27"/><polygon class="cls-10" points="345.16 534.46 342.19 531.86 342.93 531.01 342.4 530.55 340.42 532.82 340.94 533.28 341.69 532.43 344.65 535.03 345.16 534.46"/><path class="cls-10" d="M347.86,531.37a1.44,1.44,0,0,0-.22-2.24l-2.4-2-.49.58,2.38,2c.49.4.56.79.19,1.23s-.75.46-1.24.06l-2.38-2-.49.59,2.41,2a1.41,1.41,0,0,0,2.24-.21"/><path class="cls-10" d="M349.31,526.12a.62.62,0,0,1,1-.12.61.61,0,0,1,.12,1l-.51.65-1.1-.86Zm-1.58-1a.63.63,0,1,1,1,.78l-.39.5-1-.78Zm3.06.29a1,1,0,0,0-1.39,0,1,1,0,0,0-.33-1.09,1.16,1.16,0,0,0-1.81.27l-.94,1.2,3.66,2.86,1-1.25a1.28,1.28,0,0,0-.17-2"/><path class="cls-10" d="M350.55,521.28c.37-.5.95-.57,2,.18s1.13,1.32.75,1.83-.95.57-2-.17-1.13-1.33-.75-1.84m-.56-.41c-.65.88-.42,1.92.86,2.86s2.34.86,3,0,.42-1.91-.87-2.86-2.33-.85-3,0"/><path class="cls-10" d="M353.42,517.37a.63.63,0,0,1,1-.17.62.62,0,0,1,.18,1l-.43.62L353,518Zm2.82,2.87-1.53-1.06.36-.52,2,.36.47-.68-2.24-.38a1.34,1.34,0,0,0-2.46-1l-.86,1.24,3.81,2.65Z"/><path class="cls-10" d="M359.26,515.87c.73-1.11.21-2-1-2.8l-.11-.08-1,1.5.59.39.54-.84c.65.46.73,1,.4,1.45s-.92.63-2-.06-1.2-1.26-.85-1.79a.92.92,0,0,1,1.22-.35l.42-.64a1.66,1.66,0,0,0-2.22.61c-.6.91-.32,1.93,1,2.8s2.38.73,3-.19"/><rect class="cls-10" x="360.24" y="512.36" width="0.8" height="0.86" transform="translate(-265.45 544.93) rotate(-57.82)"/><path class="cls-10" d="M359.46,508c.31-.51.86-.72,1.94-.08s1.15,1.23.84,1.74l-.42.72L359,508.72Zm2.56,3.38.82-1.36c.54-.9.37-1.9-1-2.75s-2.38-.54-2.92.37l-.82,1.36Z"/><polygon class="cls-10" points="364.97 506.39 363.06 505.32 365.73 505.05 366.19 504.23 363.12 504.58 362.05 502.13 361.61 502.9 362.58 505.05 360.92 504.12 360.55 504.78 364.59 507.06 364.97 506.39"/><path class="cls-10" d="M130.74,507.31c.67,1.14,1.71,1.07,3,.33l.12-.07-.91-1.54-.6.35.5.86c-.7.37-1.17.23-1.47-.29s-.15-1.1.93-1.74,1.66-.52,2,0a.93.93,0,0,1-.23,1.25l.39.65a1.63,1.63,0,0,0,.44-2.25c-.56-.95-1.59-1.14-3-.34s-1.71,1.82-1.15,2.76"/><path class="cls-10" d="M136.66,509.34a.7.7,0,0,1-1.18.74l-.4-.64,1.18-.74Zm-3.75,1.45,1.58-1,.33.53-1.12,1.71.44.7,1.23-1.91a1.21,1.21,0,0,0,1.53.07,1.23,1.23,0,0,0,.35-1.94l-.8-1.29-3.94,2.47Z"/><path class="cls-10" d="M135.69,515.27a1.44,1.44,0,0,0,2.2.45l2.6-1.71-.42-.64-2.57,1.69c-.53.35-.92.3-1.23-.18s-.21-.85.32-1.2l2.57-1.69-.42-.64-2.6,1.72a1.41,1.41,0,0,0-.45,2.2"/><polygon class="cls-10" points="139.51 520.75 143.31 518.09 142.9 517.5 139.85 519.62 142.02 516.25 141.42 515.38 137.62 518.03 138.03 518.63 141.08 516.5 138.91 519.88 139.51 520.75"/><path class="cls-10" d="M144.75,521.2c.35.48.34,1.07-.67,1.82s-1.58.6-1.94.13l-.49-.67,2.6-1.94Zm-4.12,1.09,1,1.27c.64.85,1.63,1.07,3,.08s1.4-2,.77-2.85l-1-1.28Z"/><polygon class="cls-10" points="145.26 528.34 145.81 527.91 144.72 526.53 147.82 524.1 147.35 523.5 143.7 526.36 145.26 528.34"/><path class="cls-10" d="M148.25,529.17l2.09-1L149,530.05Zm.17,3,2.71-4-.64-.77-4.41,2,.5.59,1-.49,1,1.17-.66.91Z"/><path class="cls-10" d="M150.36,534.5c.88,1,1.88.73,3-.23l.1-.09-1.19-1.35-.52.47.66.74c-.62.5-1.11.45-1.51,0s-.36-1.06.59-1.89,1.53-.83,1.95-.35a.93.93,0,0,1,0,1.27l.5.58a1.66,1.66,0,0,0,0-2.31c-.73-.82-1.79-.82-3,.24s-1.34,2.1-.61,2.92"/><polygon class="cls-10" points="153.72 538.1 156.61 535.41 157.37 536.24 157.88 535.77 155.83 533.56 155.32 534.03 156.09 534.86 153.2 537.54 153.72 538.1"/><rect class="cls-10" x="156.21" y="539.36" width="4.64" height="0.76" transform="translate(-334.17 268.27) rotate(-44.78)"/><polygon class="cls-10" points="160.35 544.77 161.78 543.25 163 544.39 161.56 545.91 162.12 546.43 165.3 543.05 164.75 542.52 163.47 543.88 162.26 542.74 163.54 541.39 162.98 540.86 159.8 544.25 160.35 544.77"/><polygon class="cls-10" points="165.64 549.56 166.1 549.03 164.68 547.78 165.62 546.71 166.94 547.87 167.41 547.35 166.08 546.18 166.83 545.34 168.2 546.55 168.66 546.02 166.72 544.31 163.64 547.8 165.64 549.56"/><polygon class="cls-10" points="168.88 552.28 169.33 551.74 167.97 550.62 170.5 547.58 169.91 547.09 166.94 550.67 168.88 552.28"/><polygon class="cls-10" points="172.12 554.85 172.55 554.3 171.17 553.22 173.61 550.11 173.01 549.64 170.13 553.29 172.12 554.85"/><polygon class="cls-10" points="175.54 557.4 175.95 556.84 174.43 555.71 175.28 554.57 176.7 555.62 177.11 555.05 175.7 554.01 176.37 553.1 177.84 554.19 178.25 553.63 176.17 552.08 173.4 555.82 175.54 557.4"/><path class="cls-10" d="M180.46,556a.7.7,0,1,1-.8,1.14l-.61-.42.79-1.15Zm-2.87,2.82,1.06-1.53.52.36-.36,2,.68.47.38-2.25a1.2,1.2,0,0,0,1.43-.53,1.23,1.23,0,0,0-.45-1.92l-1.24-.87L177,558.41Z"/><path class="cls-10" d="M182.07,561.92a1.45,1.45,0,0,0,2.2-.48l1.68-2.63-.64-.41-1.67,2.6c-.34.53-.71.64-1.19.33s-.54-.7-.2-1.23l1.66-2.59-.64-.41-1.68,2.62a1.42,1.42,0,0,0,.48,2.2"/><path class="cls-10" d="M188.5,561.17a.7.7,0,0,1-.71,1.2l-.72-.43.72-1.19Zm-2.73,3,.95-1.6.71.43a1.31,1.31,0,0,0,2-.46,1.25,1.25,0,0,0-.55-1.94l-1.36-.81-2.38,4Z"/><polygon class="cls-11" points="188.53 341.77 188.71 362.93 184.09 362.97 183.91 341.81 175.89 341.88 175.86 338.04 196.47 337.86 196.51 341.7 188.53 341.77"/><path class="cls-11" d="M209.46,359.09c3.19,0,5.33-2.24,5.29-6.28l-.13-15.11,4.62,0,.14,15.14c.05,6.51-4.27,10.31-9.88,10.36s-10-3.68-10.06-10.19l-.13-15.13,4.62,0,.14,15.1c0,4,2.24,6.21,5.39,6.19"/><path class="cls-11" d="M224.06,337.62l7.2-.06c5.58-.05,8.51,2.53,8.55,6.53a5.59,5.59,0,0,1-3.45,5.24,6.27,6.27,0,0,1,5.09,6c0,4.41-3.36,7.15-8.78,7.2l-8.39.07Zm7,10.52c2.6,0,4.23-1.2,4.21-3.39s-1.67-3.38-4.27-3.35l-2.4,0,.06,6.74Zm1.29,10.57c2.63,0,4.4-1.41,4.38-3.63s-1.81-3.55-4.45-3.52l-3.59,0,.06,7.15Z"/><path class="cls-11" d="M269.68,349.72a12.77,12.77,0,1,1-12.88-12.8,12.82,12.82,0,0,1,12.88,12.8m-20.92.19a8.27,8.27,0,0,0,8.22,8.55c4.53,0,8.12-3.77,8.08-8.7a8.28,8.28,0,0,0-8.23-8.56c-4.52,0-8.11,3.77-8.07,8.71"/><path class="cls-11" d="M278.44,362.15l-4.63,0-.22-25,7.06-.07c5.51,0,9.48,2.76,9.52,7.66a7,7,0,0,1-4.84,6.89L293.19,362l-5.37,0-7.24-9.59-2.23,0Zm-.21-13.36,2.43,0c2.84,0,4.75-1.45,4.73-3.95s-1.95-3.92-4.8-3.89l-2.43,0Z"/><path class="cls-11" d="M318.19,348.51c0,.44,0,.89.05,1.33.07,7.81-5.37,12.41-12,12.47a12.91,12.91,0,0,1-.23-25.82,11.88,11.88,0,0,1,10.6,6.07l-3.85,2.37a7.54,7.54,0,0,0-6.71-4.09,8.3,8.3,0,0,0-8,8.63,8.43,8.43,0,0,0,8.26,8.63,7,7,0,0,0,7.14-5.71l-6.92.06,0-3.84Z"/><path class="cls-8" d="M212.61,207.53a9.7,9.7,0,0,0,1,2.09,3.25,3.25,0,0,0-1.5.89,4.14,4.14,0,0,0-1,2.93,3.06,3.06,0,0,0-2.11-.79l-.42,0c0-.17,0-.36,0-.52a14.5,14.5,0,0,0-.21-1.55,23.2,23.2,0,0,1,4.22-3.1"/><path class="cls-8" d="M239.87,198.79a4,4,0,0,0-1.15,3,7.35,7.35,0,0,0,.24,1.85h-.3a3.9,3.9,0,0,0-2.75,1.24c-1.13,1.19-1.69,3.08-1.67,5.62a8.16,8.16,0,0,0,1.79,5.6,7.84,7.84,0,0,1-1.59-.74l-1-.64-.63,1a3.47,3.47,0,0,1-1.64,1.16,7.12,7.12,0,0,0,.81-3.68,8.49,8.49,0,0,0-2.28-6.11,4.28,4.28,0,0,0-5.25-1.26,6.06,6.06,0,0,0-1.51-3.67c1.75-1.21,12.94-3.8,16.94-3.33"/><path class="cls-8" d="M278.55,207a10.34,10.34,0,0,1-1,2.11,3.42,3.42,0,0,1,1.52.86,4.11,4.11,0,0,1,1.07,2.91,3.07,3.07,0,0,1,2.11-.82l.41,0c0-.17,0-.36,0-.52a13.4,13.4,0,0,1,.19-1.55,23.22,23.22,0,0,0-4.28-3"/><path class="cls-8" d="M251.13,198.69a4,4,0,0,1,1.22,2.94,7.08,7.08,0,0,1-.22,1.86h.32a3.82,3.82,0,0,1,2.75,1.19c1.16,1.17,1.76,3.05,1.78,5.59a8.2,8.2,0,0,1-1.69,5.63,7.45,7.45,0,0,0,1.58-.77l1-.65.64,1a3.49,3.49,0,0,0,1.66,1.14,7.16,7.16,0,0,1-.88-3.67,8.44,8.44,0,0,1,2.18-6.15,5.1,5.1,0,0,1,3.24-1.74,5,5,0,0,1,2,.39,6.07,6.07,0,0,1,1.43-3.69c-1.76-1.18-13-3.58-17-3"/><path class="cls-9" d="M211.47,244.42c8.64-2.56,20.84-4.21,34.39-4.33s25.79,1.33,34.48,3.73c-.88-3.32-16-6.84-34.5-6.68s-33.52,3.94-34.37,7.28M210,236.47c-.11-1.5.07-2.74.42-2.76s.74,1.15.86,2.65-.09,2.73-.44,2.76h0c-.34,0-.72-1.17-.83-2.65m70.39-.71c.1-1.51.45-2.7.8-2.67s.57,1.25.48,2.75-.44,2.66-.79,2.67h0c-.35,0-.57-1.27-.48-2.75m-65.22-2.93c0-1.78.76-3.22,1.73-3.23s1.77,1.42,1.79,3.2S217.93,236,217,236s-1.77-1.42-1.79-3.19m57.75-.51c0-1.78.75-3.22,1.72-3.23s1.78,1.42,1.79,3.2-.75,3.21-1.73,3.22-1.77-1.42-1.78-3.19m-50.07-1a17.66,17.66,0,0,1,2-4.2,16.37,16.37,0,0,1,2.29,3.64,30.27,30.27,0,0,1-2.11,3.85,26.73,26.73,0,0,1-2.18-3.29m41.58-.88a16.25,16.25,0,0,1,2.24-3.69,18.21,18.21,0,0,1,2.06,4.17,26.86,26.86,0,0,1-2.12,3.33,31.52,31.52,0,0,1-2.18-3.81m-32.83-.82a2.88,2.88,0,1,1,2.9,2.93,2.92,2.92,0,0,1-2.9-2.93m22.59-.19a2.88,2.88,0,1,1,2.92,2.92,2.94,2.94,0,0,1-2.92-2.92m-12,2.88c-.16-.87-.25-5.16-.21-6.21a20.62,20.62,0,0,1,7.62-.07,52.85,52.85,0,0,1-.12,6.21c-.84.08-2.34.14-3.64.15s-2.8,0-3.65-.08m-31.65-2.74-.65.42.3,1.91s-1.47.48-1.44,3.74c0,4.65,2.36,5.15,2.36,5.15l.23.7c4.64-3.54,19-6.22,34.52-6.36s29.94,2.29,34.64,5.75l.21-.7S283,239.68,283,235c0-3.27-1.5-3.72-1.5-3.72l.25-1.91-.65-.41c-.11-.07-11-6.58-35.34-6.36s-35.09,6.9-35.21,7m-5.15-8.91c-.64-1-.88-1.92-.55-2.15s1.1.36,1.74,1.31.88,1.92.55,2.15l-.16.05c-.38,0-1-.54-1.58-1.36m79,.63c-.32-.22-.1-1.19.53-2.16s1.39-1.57,1.71-1.34.11,1.19-.51,2.16-1.17,1.39-1.55,1.39Zm-65.09-7.86c.08-1,.2-3.17.38-4.45a18.09,18.09,0,0,1,3.14,3.67,27.19,27.19,0,0,1-.47,4.47,34.42,34.42,0,0,1-3.05-3.69m49.29-1.18a19,19,0,0,1,3.07-3.73c.21,1.28.36,3.41.47,4.45a33.77,33.77,0,0,1-3,3.74,28.17,28.17,0,0,1-.55-4.46m-25,0s-.1-2.44-.11-3.23,0-3.31,0-3.31a16.7,16.7,0,0,1,2.12-.23,17.59,17.59,0,0,1,2.13.19s.05,2.53.06,3.31-.05,3.24-.05,3.24-1.31.11-2.08.12-2.07-.09-2.07-.09m-3.64-10.56a6.11,6.11,0,0,0,1.16,3.57,7.82,7.82,0,0,0-2.4-.47c-1.14,0-3.27.9-3.23,5.61s2.48,6.06,4.24,6.05a5.65,5.65,0,0,0,.78-.13s-.67,1.17-3,1.19a7.91,7.91,0,0,1-3.62-1.19,5.22,5.22,0,0,1-4.37,2,2.59,2.59,0,0,1-2-.81s3.4.55,3.35-4.41-3.42-6.58-4.35-6.57a5,5,0,0,0-3.26,1.51s.09-1,.08-1.94c0-.67-.19-4.16-3.76-4.13-3.1,0-6,1.74-6,4,0,1.71,2.45,4.72,2.45,4.72a3.12,3.12,0,0,0-.84-.09c-.53,0-2.82-.12-2.79,2.82,0,2.62,2.28,6.3,4.93,6.27a3.59,3.59,0,0,0,2.23-.68S219,221,216.17,221a2.12,2.12,0,0,1-1.92-.75s-.35,2.1-2,2.12-1.72-.49-1.72-.49,3.81-.68,1.59-5c-1.38-2.66-2.32-3.05-3.14-3.05s-2,1.24-2,1.24a13.1,13.1,0,0,0,.4-2.93c0-1.4-.68-3.29-2.65-3.27-2.69,0-6.92,4.34-6.92,4.34s5.19,2.42,6.14,4.1a1.92,1.92,0,0,0-.43,1.31c0,1.22.76,4.74,4.49,4.7a29,29,0,0,1,1.45,4.56s10.91-7.06,36.21-7.28S282,227.3,282,227.3a29.44,29.44,0,0,1,1.38-4.59c3.73,0,4.42-3.56,4.41-4.78a2,2,0,0,0-.45-1.31c.9-1.69,6.06-4.2,6.06-4.2s-4.3-4.24-7-4.22c-2,0-2.61,1.92-2.6,3.32a12.56,12.56,0,0,0,.46,2.92s-1.23-1.21-2-1.2-1.77.42-3.09,3.1c-2.15,4.35,1.68,5,1.68,5s-.11.5-1.72.52-2-2.08-2-2.08a2.11,2.11,0,0,1-1.9.78c-2.8,0-3.36-1.89-3.36-1.89a3.6,3.6,0,0,0,2.23.64c2.66,0,4.86-3.73,4.84-6.35,0-2.94-2.32-2.78-2.85-2.77a2.79,2.79,0,0,0-.83.1s2.39-3.05,2.37-4.77c0-2.26-2.94-3.92-6.05-3.9-3.56,0-3.7,3.53-3.69,4.2a17.2,17.2,0,0,0,.13,1.94,5.08,5.08,0,0,0-3.3-1.46c-.92,0-4.27,1.68-4.22,6.65s3.42,4.35,3.42,4.35a2.62,2.62,0,0,1-2,.84,5.18,5.18,0,0,1-4.39-1.94,7.8,7.8,0,0,1-3.61,1.25c-2.38,0-3.07-1.13-3.07-1.13a5.33,5.33,0,0,0,.8.11c1.75,0,4.17-1.4,4.12-6.12s-2.18-5.56-3.31-5.55a7.83,7.83,0,0,0-2.41.52,6.1,6.1,0,0,0,1.1-3.6c0-2.62-3.09-3.64-5.66-3.62s-5.6,1.1-5.58,3.72m4.11-6.07a2.22,2.22,0,0,1,1.42-3.85,1.89,1.89,0,0,1,.95.24,2.21,2.21,0,0,1,1.23,2,2.18,2.18,0,0,1-2.14,2.24,2.11,2.11,0,0,1-1.46-.59m-1.24-7.25a2.68,2.68,0,0,1,2.61-2.74,2.6,2.6,0,0,1,1,.2,2.72,2.72,0,0,1,1.65,2.49,2.64,2.64,0,1,1-5.27,0m-4.22-2.76a7.18,7.18,0,0,0,2.61,4.63l-.7,8a8.48,8.48,0,0,1,5-1.48,8.59,8.59,0,0,1,5.05,1.39l-.83-8a7.1,7.1,0,0,0,2.52-4.68,18.08,18.08,0,0,0-13.66.12M193.2,207.53h0a1.93,1.93,0,1,1,3.85,0h0a1.93,1.93,0,1,1-3.85,0m-1.74-5.42h0a2,2,0,1,1,4,0h0a2,2,0,1,1-4,0M209,199.86a2.11,2.11,0,0,1,2.05-2.17,2,2,0,0,1,.81.17,2.13,2.13,0,0,1,1.29,2,2.08,2.08,0,1,1-4.15,0m-17.39-3.55a2.16,2.16,0,1,1,2.18,2.2,2.21,2.21,0,0,1-2.18-2.2m16.62-.64-.19-.16-.18-.15-.16-.2-.14-.17-.08-.15a2.47,2.47,0,0,1-.36-1.27h0a2.52,2.52,0,0,1,2.46-2.58h0a2.56,2.56,0,0,1,0,5.11,2.48,2.48,0,0,1-1.39-.43m9.6-4.35a1.71,1.71,0,0,1-.15-.72,2,2,0,0,1,2.16-2.27c3.36,0,11.73,3.83,17,4.51-.48.18-1.09.63-5.42.66s-13.61-2.18-13.61-2.18m-23.28-.44a2.32,2.32,0,1,1,2.34,2.37,2.34,2.34,0,0,1-2.34-2.37m37.55-2.09a2,2,0,0,1-1.19-1.82,1.94,1.94,0,0,1,1.9-2,1.86,1.86,0,0,1,.75.15,2,2,0,0,1,1.19,1.8,2,2,0,0,1-1.91,2,1.81,1.81,0,0,1-.74-.15m-32-1.17h0a2.56,2.56,0,1,1,5.12-.05h0a2.56,2.56,0,1,1-5.12,0m7.24-.55a2.59,2.59,0,0,1,2.53-2.65,2.51,2.51,0,0,1,1,.2,2.65,2.65,0,0,1-1,5.07h0a2.61,2.61,0,0,1-2.58-2.62m18-2.49a2.2,2.2,0,0,1,2.13-2.24,2,2,0,0,1,1.31.48,2.18,2.18,0,1,1-3.44,1.76m-5.9-1.22-.08-.15,0-.1a2.49,2.49,0,0,1-.16-.82h0a2.35,2.35,0,0,1,2.29-2.41,2.25,2.25,0,0,1,1.3.4l.14.11.21.18.13.15.15.2.07.13.15.27v0a2.45,2.45,0,0,1,.18.9h0a2.34,2.34,0,0,1-2.29,2.4h0a2.28,2.28,0,0,1-2.06-1.28m-6,.87-.11-.09h0a2.61,2.61,0,0,1-.74-1.8h0a2.48,2.48,0,1,1,4.95,0h0a2.52,2.52,0,0,1-2.45,2.58h0a2.38,2.38,0,0,1-1.64-.65m-1-4.56a3.83,3.83,0,0,0-1.05,2.68,3.87,3.87,0,0,0,.21,1.23,3.65,3.65,0,0,0-4.33.76,3.81,3.81,0,0,0-1,2,3.81,3.81,0,0,0-.92-1.48,3.63,3.63,0,0,0-2.67-1.12,3.72,3.72,0,0,0-2.65,1.16,3.88,3.88,0,0,0-1.06,2.74V188a3.44,3.44,0,0,0-4.62.35,3.64,3.64,0,0,0-1,2.57,3.75,3.75,0,0,0,.56,2h-.17a3.27,3.27,0,0,0-2.37,1,3.53,3.53,0,0,0,.05,4.89,3.18,3.18,0,0,0,.53.44,3.21,3.21,0,0,0-.75.58,3.36,3.36,0,0,0,0,4.66,3.13,3.13,0,0,0,1.62.88,3.29,3.29,0,0,0,.1,4.48,3.18,3.18,0,0,0,2.21.92c.45,0,1.91-.47,2.59-.48a1.16,1.16,0,0,1,1.09.44l4.21-2.75c-.76-2.62-2.42-5.31-2.45-8.66,0-4,4.12-5.68,5.32-5.69a5.76,5.76,0,0,0,1.09,2.66,3.66,3.66,0,0,0,1.92,1,3.63,3.63,0,0,0-1.15,2.6,3.41,3.41,0,0,0,1,2.38,3.27,3.27,0,0,0,2.33,1c.92,0,2.19-.54,2.84-.55a10.73,10.73,0,0,1,5.35-1.9c-.22-.89-1.24-5.6-1.24-5.6a44.76,44.76,0,0,0,9.38.93c8.69-.08,12.38-2,12.38-2l.25-3s-2.86-.41-3.65-1.05-.45-1.85-.46-3.17a3.21,3.21,0,0,0-.93-2.24,3,3,0,0,0-2.22-.94,3.06,3.06,0,0,0-1.9.7,3.52,3.52,0,0,0-1-2.35,3.27,3.27,0,0,0-4.75,0l-.1.12v0a3.71,3.71,0,0,0-1-2.55,3.47,3.47,0,0,0-5,0,3.35,3.35,0,0,0-.63.95,4,4,0,0,0-.73-1,3.6,3.6,0,0,0-5.21,0m81.68,27h0a2,2,0,0,1,1.9-2,1.86,1.86,0,0,1,.75.15,2,2,0,0,1,1.19,1.81,1.92,1.92,0,1,1-3.84,0m2.44-3.77a2,2,0,1,1,3.05-1.72,2,2,0,0,1-2,2.07,1.8,1.8,0,0,1-1.06-.35m-18-2.13a2,2,0,0,1-.38-.57l-.07-.1a2.23,2.23,0,0,1-.17-.83,2.1,2.1,0,0,1,2.06-2.16,2.21,2.21,0,0,1,.81.16,2.15,2.15,0,0,1,1.28,2,2.1,2.1,0,0,1-2.05,2.15,2,2,0,0,1-1.48-.62m16.53-5.34a2.19,2.19,0,0,1,2.14-2.25h0a2.22,2.22,0,0,1,0,4.44h0a2.18,2.18,0,0,1-2.18-2.19m-14.66-.14a2.55,2.55,0,0,1-1.53-2.33,2.51,2.51,0,0,1,2.46-2.58h0a2.42,2.42,0,0,1,1.35.41h0l.09.08a2.59,2.59,0,0,1,1,2h0a2.52,2.52,0,0,1-2.44,2.57,2.45,2.45,0,0,1-1-.2m-26.32-2.59c5.28-.77,13.58-4.76,16.94-4.79a2,2,0,0,1,2.19,2.22,1.63,1.63,0,0,1-.14.72s-9.24,2.39-13.56,2.43-4.95-.4-5.43-.58M291.7,190a2.34,2.34,0,0,1,2.3-2.4,2.31,2.31,0,0,1,.91.18l0,0,.34.18.19.16.16.13.1.12a2.39,2.39,0,0,1,.59,1.56,2.35,2.35,0,0,1-2.29,2.41h0A2.35,2.35,0,0,1,291.7,190m-34.43-1.46a1.93,1.93,0,0,1-1-1l-.06-.09-.08-.36-.08-.41h0a1.91,1.91,0,0,1,2.65-1.83,2,2,0,0,1,1.18,1.8,2,2,0,0,1-1.89,2,2,2,0,0,1-.75-.15m29.69.61a2.63,2.63,0,0,1-1.41-2.31,2.59,2.59,0,0,1,2.54-2.65,2.55,2.55,0,0,1,1.44.44,2.63,2.63,0,0,1,1.15,2.17,2.59,2.59,0,0,1-2.54,2.65,2.35,2.35,0,0,1-1.18-.3m-8.65-2.73a2.6,2.6,0,0,1,2.54-2.65,2.42,2.42,0,0,1,1,.2,2.65,2.65,0,0,1-1,5.07h0a2.61,2.61,0,0,1-2.58-2.62m-17.23-2.18a2.19,2.19,0,0,1,2.14-2.25,2,2,0,0,1,1.1.36,2.18,2.18,0,1,1-3.24,1.89m6.88-.42,0,0-.09-.08a2.39,2.39,0,0,1-.95-1.88h0a2.37,2.37,0,0,1,2.3-2.42,2.11,2.11,0,0,1,.9.19,2.39,2.39,0,0,1-.86,4.58h0a2.19,2.19,0,0,1-1.26-.37m5.22-2a2.52,2.52,0,0,1,2.46-2.57,2.44,2.44,0,0,1,1.35.41,2.56,2.56,0,0,1,1.15,2.12,2.48,2.48,0,1,1-5,0m-.14-2.67a3.54,3.54,0,0,0-.71,1.05,3.57,3.57,0,0,0-.66-.93,3.45,3.45,0,0,0-5,0,3.72,3.72,0,0,0-1,2.58v0l-.09-.12a3.3,3.3,0,0,0-4.75,0,3.48,3.48,0,0,0-1,2.37,3,3,0,0,0-4.11.32,3.14,3.14,0,0,0-.9,2.26c0,1.31.38,2.52-.39,3.17s-3.63,1.12-3.63,1.12l.29,3s3.73,1.8,12.41,1.73a44.41,44.41,0,0,0,9.36-1.1s-.94,4.74-1.13,5.63a10.62,10.62,0,0,1,5.37,1.81c.66,0,1.94.5,2.86.5a3.28,3.28,0,0,0,2.32-1,3.45,3.45,0,0,0,.93-2.39,3.68,3.68,0,0,0-1.2-2.58,3.62,3.62,0,0,0,1.9-1.06,6.08,6.08,0,0,0,1.06-2.68c1.2,0,5.38,1.56,5.41,5.59,0,3.36-1.58,6.07-2.31,8.7l4.27,2.68a1.15,1.15,0,0,1,1.07-.46c.68,0,2.15.46,2.6.44a3.2,3.2,0,0,0,2.2-1,3.25,3.25,0,0,0,0-4.48,3,3,0,0,0,1.61-.92,3.28,3.28,0,0,0,.92-2.33,3.34,3.34,0,0,0-1-2.32,3,3,0,0,0-.76-.57,4.36,4.36,0,0,0,.53-.45,3.53,3.53,0,0,0,1-2.45,3.47,3.47,0,0,0-1-2.44,3.31,3.31,0,0,0-2.39-1H297a3.64,3.64,0,0,0,.54-2,3.74,3.74,0,0,0-1.05-2.56,3.46,3.46,0,0,0-4.63-.27v-.33a3.75,3.75,0,0,0-1.12-2.72,3.67,3.67,0,0,0-2.67-1.12,3.72,3.72,0,0,0-2.65,1.16,4.07,4.07,0,0,0-.88,1.5,3.82,3.82,0,0,0-1-2,3.71,3.71,0,0,0-4.36-.69,3.51,3.51,0,0,0,.19-1.22,3.84,3.84,0,0,0-1.1-2.67,3.59,3.59,0,0,0-5.2,0m-29-11.47a1,1,0,0,0,.22.74,1.42,1.42,0,0,0-.73-.21,1.27,1.27,0,0,0,0,2.53c.41,0,.51-.11.51-.11l0,2.75-2.66,0s.11-.11.1-.53a1.23,1.23,0,1,0-2.45,0,1.42,1.42,0,0,0,.21.73,1,1,0,0,0-.72-.2,1.27,1.27,0,0,0,0,2.53.93.93,0,0,0,.7-.23,1.47,1.47,0,0,0-.19.74,1.19,1.19,0,0,0,1.23,1.26,1.2,1.2,0,0,0,1.22-1.28c0-.42-.11-.51-.11-.51l2.66,0,0,1.83a7,7,0,0,0-5.4,5.31,20.65,20.65,0,0,1,5.06-1.11l.34-3.92c.41,0,.82,0,1.23,0s.83,0,1.23,0l.42,3.92a20.35,20.35,0,0,1,5.08,1,7,7,0,0,0-5.5-5.21l0-1.83,2.67,0s-.11.1-.1.52a1.23,1.23,0,1,0,2.46,0,1.66,1.66,0,0,0-.21-.74.93.93,0,0,0,.72.22,1.27,1.27,0,0,0,0-2.53,1,1,0,0,0-.72.21,1.47,1.47,0,0,0,.2-.73,1.24,1.24,0,1,0-2.47,0c0,.42.12.52.12.52l-2.67,0,0-2.75s.1.1.51.1a1.27,1.27,0,0,0,0-2.53,1.43,1.43,0,0,0-.72.22,1.1,1.1,0,0,0,.2-.74,1.23,1.23,0,1,0-2.46,0"/></g><g class="cls-12"><rect class="cls-9" x="110.04" y="166.39" width="274.05" height="408.57" transform="translate(-3.24 2.18) rotate(-0.5)"/></g><g class="cls-6"><path class="cls-7" d="M281.33,532.43a2.69,2.69,0,1,1-2.71-2.68,2.69,2.69,0,0,1,2.71,2.68m3.59-2.53,2,0-8,12.17-2,0Zm-7.5,2.57a1.23,1.23,0,1,0,1.21-1.27,1.24,1.24,0,0,0-1.21,1.27m5.15,7a2.68,2.68,0,1,1,2.71,2.67,2.68,2.68,0,0,1-2.71-2.67m3.91,0a1.24,1.24,0,1,0-2.47,0,1.24,1.24,0,1,0,2.47,0"/><path class="cls-7" d="M204.06,491.46l-2.36,0-1.24-2.59-5.16.05-1.2,2.61-2.37,0,6.06-12.63Zm-8-4.25,3.53,0-1.81-3.73Z"/><polygon class="cls-7" points="206.13 479.35 208.37 479.33 208.46 489.57 213.41 489.52 213.43 491.38 206.24 491.44 206.13 479.35"/><polygon class="cls-7" points="225.72 491.27 223.08 491.3 218.07 485.24 218.13 491.34 215.89 491.36 215.78 479.26 218.02 479.24 218.07 484.68 222.61 479.2 225.26 479.18 220.37 484.79 225.72 491.27"/><path class="cls-7" d="M238.79,485.11a6.18,6.18,0,1,1-6.23-6.19,6.19,6.19,0,0,1,6.23,6.19m-10.12.09a4,4,0,1,0,3.91-4.21,4,4,0,0,0-3.91,4.21"/><polygon class="cls-7" points="249.43 485.83 243.8 485.88 243.84 491.11 241.61 491.13 241.5 479.04 243.74 479.02 243.78 484 249.42 483.96 249.37 478.97 251.61 478.95 251.72 491.05 249.48 491.06 249.43 485.83"/><path class="cls-7" d="M266.79,484.86a6.19,6.19,0,1,1-6.24-6.19,6.22,6.22,0,0,1,6.24,6.19m-10.13.09a4,4,0,1,0,3.91-4.21,4,4,0,0,0-3.91,4.21"/><polygon class="cls-7" points="269.49 478.79 271.73 478.77 271.82 489.01 276.77 488.97 276.79 490.83 269.6 490.89 269.49 478.79"/><polygon class="cls-7" points="279.14 478.71 286.4 478.64 286.42 480.5 281.35 480.54 281.37 483.77 286.03 483.73 286.05 485.59 281.39 485.63 281.44 490.79 279.25 490.8 279.14 478.71"/><path class="cls-7" d="M291.4,490.7l-2.23,0-.11-12.1,3.41,0c2.67,0,4.59,1.34,4.61,3.7a3.39,3.39,0,0,1-2.34,3.34l3.81,5-2.61,0-3.5-4.64h-1.08Zm0-6.47h1.17c1.38,0,2.3-.7,2.29-1.91s-.95-1.89-2.32-1.88h-1.18Z"/><rect class="cls-7" x="300.87" y="478.51" width="2.24" height="12.1" transform="translate(-4.24 2.67) rotate(-0.5)"/><path class="cls-7" d="M215.83,503.32l0,4.62-2.24,0-.11-12.1,3.42,0c2.68,0,4.58,1.34,4.61,3.71s-1.86,3.74-4.55,3.77Zm0-1.84H217c1.37,0,2.3-.7,2.29-1.91s-.95-1.9-2.33-1.89h-1.17Z"/><rect class="cls-7" x="224.02" y="495.76" width="2.24" height="12.1" transform="translate(-4.39 1.99) rotate(-0.5)"/><polygon class="cls-7" points="229.61 495.72 231.85 495.7 231.94 505.94 236.89 505.9 236.91 507.76 229.71 507.82 229.61 495.72"/><path class="cls-7" d="M238.37,505.61l1.46-1.54A3.77,3.77,0,0,0,243,506a1.88,1.88,0,0,0,2.06-1.76c0-2.52-5.88-1.13-5.92-5.17a3.72,3.72,0,0,1,3.95-3.68,4.6,4.6,0,0,1,3.71,1.74l-1.33,1.55a2.79,2.79,0,0,0-2.4-1.44,1.62,1.62,0,0,0-1.76,1.63c0,2.25,5.88,1,5.92,5.21,0,2.23-1.91,3.78-4.26,3.8a5.52,5.52,0,0,1-4.58-2.29"/><polygon class="cls-7" points="258.34 495.47 260.53 495.45 260.64 508.02 252.05 499.88 252.12 507.63 249.93 507.64 249.82 495.08 258.41 503.21 258.34 495.47"/><polygon class="cls-7" points="263.95 495.42 271.41 495.36 271.42 497.21 266.15 497.26 266.18 500.39 271.04 500.35 271.05 502.22 266.2 502.26 266.23 505.64 271.53 505.6 271.55 507.46 264.06 507.52 263.95 495.42"/><path class="cls-7" d="M276.69,507.41l-2.24,0-.11-12.1,3.42,0c2.67,0,4.59,1.34,4.61,3.71a3.38,3.38,0,0,1-2.34,3.33l3.8,5-2.6,0-3.51-4.64h-1.07Zm-.06-6.46h1.18c1.38,0,2.3-.7,2.29-1.91s-1-1.9-2.32-1.89H276.6Z"/><path class="cls-7" d="M244.34,530c.06,7.48-4.14,12.85-10,12.9s-10.11-5.25-10.17-12.73,4.17-12.84,9.95-12.9,10.1,5.25,10.17,12.73m-15.6.13c0,4.87,2.25,8.68,5.61,8.66s5.51-3.89,5.47-8.75-2.22-8.68-5.62-8.65-5.5,3.89-5.46,8.74"/><path class="cls-7" d="M251.4,539.64a2.87,2.87,0,0,1-2.87,2.91h-.07a2.87,2.87,0,0,1-.05-5.74h.07a2.87,2.87,0,0,1,2.92,2.83"/><path class="cls-7" d="M272.55,529.7c.07,7.48-4.13,12.85-9.94,12.9s-10.11-5.25-10.18-12.72S256.6,517,262.38,517s10.11,5.25,10.17,12.72m-15.6.14c.05,4.86,2.26,8.68,5.62,8.65s5.5-3.89,5.46-8.75-2.21-8.68-5.61-8.65-5.51,3.89-5.47,8.75"/><polygon class="cls-9" points="170.72 294.08 166.4 290.21 167.04 289.5 170.71 292.79 172.18 291.16 172.82 291.74 170.72 294.08"/><polygon class="cls-9" points="174.37 290.07 170.21 286.02 172.47 283.7 173.1 284.31 171.5 285.94 172.51 286.93 174.05 285.35 174.67 285.96 173.14 287.54 174.42 288.78 176.07 287.09 176.69 287.7 174.37 290.07"/><polygon class="cls-9" points="174.71 281.54 178.89 284.13 176.62 279.77 177.32 279.12 180 284.55 179.21 285.29 173.98 282.22 174.71 281.54"/><polygon class="cls-9" points="182.8 282.02 179.04 277.59 181.51 275.5 182.07 276.16 180.33 277.64 181.25 278.71 182.92 277.29 183.49 277.95 181.81 279.38 182.96 280.74 184.77 279.21 185.33 279.87 182.8 282.02"/><path class="cls-9" d="M187.08,278.47l-3.53-4.61,1.5-1.15a1.54,1.54,0,0,1,2.46.21,1.5,1.5,0,0,1,.09,1.9l2.53,1.32-.82.63-2.26-1.2-.62.48,1.41,1.84Zm-2.24-4.5,1.06,1.39.74-.57a.87.87,0,1,0-1.06-1.39Z"/><path class="cls-9" d="M194.32,273.23l-1.06-.93-1.56,1.06.47,1.33-.79.54-1.9-5.72,1-.7,4.63,3.86Zm-1.74-1.52-2.17-1.92,1,2.73Z"/><polygon class="cls-9" points="199.14 270.2 195.12 267.2 197.51 271.19 196.73 271.65 193.75 266.69 194.88 266 198.9 269 196.51 265.02 197.29 264.55 200.28 269.52 199.14 270.2"/><path class="cls-9" d="M199.78,263.16l1.77-.91c1.17-.61,2.36-.39,3.35,1.53s.49,3-.69,3.62l-1.76.91Zm1.25.34,1.86,3.6.92-.47c.67-.35,1-1,.25-2.42s-1.45-1.53-2.11-1.19Z"/><path class="cls-9" d="M207.81,265.6l.15-.91a3.82,3.82,0,0,1-1.31-1.75c-.8-1.82-.4-3.08.85-3.63a2.12,2.12,0,0,1,1.34-.16l.06-.36.68-.3-.14.91a4,4,0,0,1,1.31,1.74c.79,1.83.4,3.09-.85,3.64a2.13,2.13,0,0,1-1.34.16l-.06.36Zm-.29-3a4.31,4.31,0,0,0,.61,1l.56-3.54a1.08,1.08,0,0,0-.84.05c-.72.32-1,1-.33,2.45m1.74-2.07L208.7,264a1.07,1.07,0,0,0,.84,0c.73-.32,1-1,.33-2.45a4,4,0,0,0-.61-1"/><path class="cls-9" d="M213.9,263l-2-5.46,1.77-.65c1.09-.4,1.89-.16,2.29.93a1.52,1.52,0,0,1-.48,1.85l2,2-1,.36-1.8-1.82-.74.28.8,2.18Zm-.8-5,.6,1.64.88-.33a.77.77,0,0,0,.52-1.11.79.79,0,0,0-1.12-.52Z"/><polygon class="cls-9" points="222.66 260.13 221.37 255.37 220.01 255.73 219.78 254.9 223.42 253.91 223.65 254.75 222.29 255.12 223.58 259.88 222.66 260.13"/><rect class="cls-9" x="226.32" y="253.2" width="0.95" height="5.81" transform="translate(-49.9 54.95) rotate(-12.46)"/><polygon class="cls-9" points="230.48 258.31 229.51 252.58 230.46 252.42 231.28 257.29 233.45 256.93 233.6 257.79 230.48 258.31"/><path class="cls-9" d="M237.63,251.44l2-.15c1.32-.1,2.33.57,2.49,2.72s-.73,3-2.05,3.07l-2,.15Zm1,.8.31,4.05,1-.08c.75,0,1.29-.55,1.17-2.12s-.73-2-1.48-1.93Z"/><polygon class="cls-9" points="244.65 256.87 244.48 251.06 247.72 250.96 247.74 251.83 245.46 251.9 245.5 253.31 247.7 253.25 247.73 254.12 245.53 254.18 245.58 255.97 247.95 255.9 247.97 256.77 244.65 256.87"/><polygon class="cls-9" points="250.69 256.9 250.91 251.98 249.51 251.91 249.55 251.04 253.31 251.22 253.27 252.09 251.87 252.02 251.64 256.94 250.69 256.9"/><polygon class="cls-9" points="257.43 257.43 258.21 251.68 259.15 251.81 258.83 254.17 260.87 252.04 261.98 252.19 259.63 254.57 261.45 257.98 260.28 257.82 258.74 254.85 258.37 257.56 257.43 257.43"/><path class="cls-9" d="M263.12,255.32c.4-1.95,1.45-2.75,2.79-2.48a2.07,2.07,0,0,1,1.74,2.3l-.94-.19c0-.77-.36-1.13-1-1.26-.78-.15-1.37.27-1.69,1.82s.06,2.18.85,2.33,1.26-.16,1.5-1.13l-1.22-.25.17-.86,2.2.45,0,.16c-.36,1.79-1.16,2.82-2.79,2.49-1.34-.28-2-1.34-1.6-3.38"/><polygon class="cls-9" points="268.92 259.55 270.42 253.94 271.34 254.18 270.07 258.95 272.19 259.52 271.97 260.36 268.92 259.55"/><polygon class="cls-9" points="273.92 260.96 274.24 259.94 275.19 260.24 274.86 261.27 273.92 260.96"/><path class="cls-9" d="M280.76,257.15l1.86.73c1.23.49,1.85,1.53,1.05,3.54s-1.95,2.35-3.19,1.86l-1.85-.73Zm.57,1.16-1.49,3.78,1,.38c.7.28,1.41.07,2-1.4s.2-2.11-.49-2.38Z"/><path class="cls-9" d="M287.26,266.23l.25-1.39-1.71-.79-.9,1.08-.87-.4,4-4.57,1.13.53-.95,6Zm.42-2.27.53-2.85-1.84,2.24Z"/><polygon class="cls-9" points="292.3 268.86 292.85 263.87 290.62 267.95 289.83 267.51 292.6 262.42 293.76 263.06 293.21 268.05 295.43 263.97 296.23 264.4 293.46 269.49 292.3 268.86"/><path class="cls-9" d="M296.16,269l.81.51a1,1,0,0,0,.4,1.47.86.86,0,0,0,1.29-.17c.22-.34.15-.63-.17-1.05l-.69-.88a1.52,1.52,0,0,1-.18-1.88,1.62,1.62,0,0,1,2.45-.4,1.83,1.83,0,0,1,.7,2.49l-.81-.51a.93.93,0,0,0-.36-1.3c-.46-.29-.89-.24-1.12.14s-.17.56.19,1l.63.8a1.67,1.67,0,0,1,.2,2,1.74,1.74,0,0,1-2.6.39,1.8,1.8,0,0,1-.74-2.67"/><polygon class="cls-9" points="300.41 273.83 303.73 269.07 304.51 269.62 303.15 271.57 305.94 270.61 306.86 271.25 303.67 272.29 303.74 276.15 302.77 275.48 302.75 272.13 301.19 274.38 300.41 273.83"/><polygon class="cls-9" points="305.33 277.37 308.9 272.78 311.46 274.77 310.92 275.46 309.12 274.06 308.25 275.17 309.99 276.52 309.45 277.21 307.72 275.86 306.62 277.27 308.49 278.72 307.95 279.41 305.33 277.37"/><polygon class="cls-9" points="311.72 282.57 315.62 278.27 316.33 278.91 314.77 280.63 316.31 282.02 317.86 280.3 318.57 280.94 314.68 285.24 313.97 284.6 315.72 282.67 314.18 281.28 312.43 283.21 311.72 282.57"/><path class="cls-9" d="M321.54,287.93c-1.41,1.4-2.73,1.49-3.69.52s-.94-2.23.53-3.69,2.73-1.49,3.69-.52.93,2.23-.53,3.69m-2.49-2.49c-1.11,1.11-1.14,1.84-.59,2.4s1.29.53,2.4-.59,1.15-1.84.59-2.4-1.28-.53-2.4.59"/><polygon class="cls-9" points="325.38 287.79 327.46 290.09 326.82 290.68 325.37 289.08 324.21 290.14 325.58 291.64 324.93 292.23 323.57 290.73 321.73 292.4 321.09 291.69 325.38 287.79"/></g></g><path class="cls-5" d="M405.31,153.29a1338.76,1338.76,0,0,1,1.94,164.18,4.26,4.26,0,0,1-8.21,1.36c-9.4-23.6-28.53-62.62-58.41-83.28a13.24,13.24,0,0,1-5.2-14.69c5-16.59,6.77-50.92-20.4-60.39,0,0-28-9.2-28-18.15,0-7.36,4.18-9.5,24.81-10,19.65-.47,48.72-.34,80,5.78A16.77,16.77,0,0,1,405.31,153.29Z"/><path class="cls-5" d="M411.12,497.3c.32,27.23,2,75.36-1.68,101.27a10.87,10.87,0,0,1-7.89,9c-12.12,3.32-39.85,12-83,10.82-20.54-.59-33.15-2-37.89-3.88-5.28-2.06-5.69-6.55-5.33-8.36.74-3.75,7.26-7.93,18.85-8.58,22.07-1.25,40.71-16.35,55.5-26.78,13.58-9.58,42.64-43.16,50.88-73C402.63,490.41,411.05,491.38,411.12,497.3Z"/><path class="cls-13" d="M144.9,56.54a9.47,9.47,0,0,0-7.48,7.82c-1.45,9.21-7.16,26.54-21,42.65-7.29,8.48,64.17,2.59,71.47-3.78s13.35-36.92,7-45.28C189.63,51.14,159.3,53.64,144.9,56.54Z"/><path class="cls-13" d="M141.16,182.42A65.14,65.14,0,0,1,149,165.08c4.55-7.07,15.07-14.32,7.65-21.62-5.41-5.31-50.59-13.22-60.95,4.74S87.17,250.27,87.49,286s31.69,16.55,38.62-31.88A560.22,560.22,0,0,1,141.16,182.42Z"/><path class="cls-14" d="M102,629.34a379.41,379.41,0,0,0,49.36,5.57c12.38.58,24.2.53,35.4,0"/><path class="cls-4" d="M102.36,627.49c3.5.49,7,1,10.49,1.4s7,.8,10.51,1.19c7,.76,14,1.24,21.07,1.66s14.07.64,21.11.69,14.07.05,21.16.62a1.89,1.89,0,0,1,.17,3.74,117.85,117.85,0,0,1-21.38,1.4c-7.15-.09-14.3-.38-21.42-.92s-14.23-1.36-21.3-2.33c-3.54-.48-7.06-1.06-10.57-1.69s-7-1.3-10.5-2.07a1.88,1.88,0,0,1,.66-3.69Z"/><path class="cls-4" d="M140,648.33c3,2.69,7.29,6.9,9.45,10.46a8.76,8.76,0,0,0,6.23,3.85c9.61,1.54,34.41,1.91,77,.83,2.38-.06,4.21-1.66,3.93-3.48-.66-4.4-2.75-11.67-9.29-12.73-9.23-1.5-46.24,2.83-85.76-1C140,646.08,139,647.42,140,648.33Z"/></g></svg>
