<svg xmlns="http://www.w3.org/2000/svg" viewBox="0 0 660 850"><defs><style>.cls-1{fill:#fac177;}.cls-2{fill:#093a82;}</style></defs><g id="Lag_2" data-name="Lag 2"><rect class="cls-1" x="23" y="4.5" width="614.77" height="840" rx="40.28"/><path class="cls-2" d="M603.3,388.3H57.47a2.87,2.87,0,1,1,0-5.74H603.3a2.87,2.87,0,0,1,0,5.74Z"/><path class="cls-2" d="M173.17,73.53q0,14.2-8,19.79-7.38,5.18-20.27,5.17H125.39V97.18h4.55V51.54h-4.55V50.23H146.7q13.23,0,19.85,5.41T173.17,73.53ZM143.39,97.18H146q7,0,10-4.93t3-16.51v-4q0-15.51-5.93-18.69-2.82-1.52-8-1.51h-1.65Z"/><path class="cls-2" d="M216.33,98.49H200.61l-.76-5a9,9,0,0,1-3.27,4.24q-2.18,1.48-6.45,1.48-10.68,0-10.68-11.51V66.91h-3.87V65.67h16.69V89.32a16,16,0,0,0,.59,5.45,2.31,2.31,0,0,0,2.34,1.31c1.17,0,2.22-.71,3.14-2.14A10.86,10.86,0,0,0,199.72,88V66.91h-3.18V65.67h16V97.25h3.79Z"/><path class="cls-2" d="M235,48a2.64,2.64,0,0,0-2.69-1.42,4.62,4.62,0,0,0-3.24,1.11,3.94,3.94,0,0,0-1.2,3.07,8.69,8.69,0,0,0,1,3.89l5.52,11h8.41v1.24h-8.41V97.25h7.44v1.24H217.71V97.25h3.79V66.91h-4V65.67h4V62.43q0-7.57,3.11-12.41a10.19,10.19,0,0,1,9.17-4.83q4.62,0,7,2.28a7.09,7.09,0,0,1,2.38,5.27,5.33,5.33,0,0,1-5.75,6,5.19,5.19,0,0,1-4-1.52A5.45,5.45,0,0,1,232,53.33a12.35,12.35,0,0,1,.07-1.45l2.62-.41A4,4,0,0,0,235,48Z"/><path class="cls-2" d="M246.6,88.63V66.91h-3.79V65.67h3.79V56.78l12.82-3.17V65.67h9v1.24h-9V90.15a12.75,12.75,0,0,0,.66,4.76,2.64,2.64,0,0,0,2.72,1.51,4.47,4.47,0,0,0,3.62-2.07,12,12,0,0,0,2-5.65l1.17.14a13.36,13.36,0,0,1-3,7.55c-1.65,1.86-4.39,2.79-8.2,2.79s-6.73-.76-8.76-2.28S246.6,92.63,246.6,88.63Z"/><path class="cls-2" d="M287.69,94.77q-4.41-4.41-4.41-12.65T288,69.43Q292.72,65,301.27,65T314,69.08q4.2,4.11,4.21,12.52,0,17.58-17.52,17.58Q292.11,99.18,287.69,94.77ZM305,84.91V79.05a46.33,46.33,0,0,0-.73-9.76c-.48-2-1.59-3.07-3.34-3.07a3.49,3.49,0,0,0-2.45.86A5.27,5.27,0,0,0,297.14,70a51.73,51.73,0,0,0-.62,9.44v5.38q0,7.52.44,9a14.63,14.63,0,0,0,.94,2.48,2.92,2.92,0,0,0,3,1.66c1.79,0,3-1,3.52-3.1Q305,92.64,305,84.91Z"/><path class="cls-2" d="M347.81,62.09l1.93-1.18q.42-2.13-1.65-2.13c-2,0-3,1.51-3,4.55a20.24,20.24,0,0,0,.49,4.13q5.24,3.53,5.24,9a10.29,10.29,0,0,1-3.8,8.52q-3.78,3-10.27,3a29.61,29.61,0,0,1-5.58-.55c-2,1.29-3,2.25-3,2.89s1.47,1,4.42,1h7q15.64,0,15.65,11.24a11.43,11.43,0,0,1-4.72,9.62q-4.73,3.54-14.72,3.55-17,0-17-7.38c0-2.67,1.76-4.51,5.3-5.52l4.14,1.87a14.12,14.12,0,0,0-.55,3.79q0,5.92,8.83,5.93,5.37,0,8.27-2a5.89,5.89,0,0,0,2.89-5c0-2-.58-3.3-1.75-4s-3.51-1-7-1h-6.69q-5.58,0-8-1.86A5.6,5.6,0,0,1,321.82,96a6.38,6.38,0,0,1,1.72-4.55A31.36,31.36,0,0,1,329.68,87q-8-2.28-8-10.48a10.43,10.43,0,0,1,3.73-8.35Q329.13,65,336.57,65a15.85,15.85,0,0,1,7.66,1.73,15.57,15.57,0,0,1-.42-3.38q0-3.87,2.07-5.59A7,7,0,0,1,350.5,56a6.06,6.06,0,0,1,4.1,1.34,4.63,4.63,0,0,1,1.56,3.69,4.47,4.47,0,0,1-1.25,3.48,4.24,4.24,0,0,1-3,1.14,4.43,4.43,0,0,1-2.9-.93A3.42,3.42,0,0,1,347.81,62.09ZM333.2,75V78.7q0,4.62.79,6.28a2.56,2.56,0,0,0,2.41,1.65A2.45,2.45,0,0,0,338.75,85q.72-1.62.72-6.65V75c0-3.59-.23-5.94-.69-7.07a2.39,2.39,0,0,0-2.31-1.69A2.65,2.65,0,0,0,334,68C333.47,69.15,333.2,71.49,333.2,75Z"/><path class="cls-2" d="M370.15,99.18V86.84H371q1.78,6,4.82,8.41a11.81,11.81,0,0,0,7.59,2.41q7,0,7-4.48a3.11,3.11,0,0,0-1.72-2.89,23.26,23.26,0,0,0-6.9-2.35,27.15,27.15,0,0,1-7.86-3.31q-3.79-2.47-3.79-7.86a11.39,11.39,0,0,1,3.31-8.58A12.15,12.15,0,0,1,382.29,65a17.12,17.12,0,0,1,7,1.59,5.65,5.65,0,0,0,2,.55,1.59,1.59,0,0,0,1.17-.48,7.92,7.92,0,0,0,1.17-1.8h.76V75.39h-.83q-3.51-9-10.89-9a8.31,8.31,0,0,0-4.83,1.14,3.42,3.42,0,0,0-1.58,2.86,2.48,2.48,0,0,0,.48,1.62,10.28,10.28,0,0,0,.76.86,3.39,3.39,0,0,0,.89.59c.42.2.76.37,1,.48s.7.27,1.28.45a9.26,9.26,0,0,0,1.27.34,51.18,51.18,0,0,1,6.76,2,22.47,22.47,0,0,1,3.93,2.1q3.78,2.63,3.79,8.45T393,96.18q-3.45,3-9.44,3a18.36,18.36,0,0,1-8.28-2,2.63,2.63,0,0,0-1.31-.55c-1,0-2,.85-3,2.55Z"/><path class="cls-2" d="M398,65.67h16.62V72q2.28-7,10-7t9.41,7.45Q436.48,65,444.2,65q10.14,0,10.13,11.52V97.25h3.87v1.24H439.1V97.25h2.41V74.84c0-3.49-.3-5.54-.9-6.13a1.46,1.46,0,0,0-1.1-.42c-1.33,0-2.51.9-3.52,2.69a13.79,13.79,0,0,0-1.51,6.83V97.25H437v1.24H419.24V97.25h2.41V74.84c0-3.49-.3-5.54-.89-6.13a1.5,1.5,0,0,0-1.11-.42q-1.92,0-3.48,2.93a14.85,14.85,0,0,0-1.55,7v19h2.48v1.24H398V97.25h3.8V66.91H398Z"/><path class="cls-2" d="M475.78,82.29h2V77c0-4.37-.25-7.3-.73-8.79A2.79,2.79,0,0,0,474.26,66a4,4,0,0,0-2.24.65,2,2,0,0,0-1,1.8,7.13,7.13,0,0,0,.41,2.31h1.73a9.93,9.93,0,0,1,.55,3.48A4.51,4.51,0,0,1,472,77.7a6.41,6.41,0,0,1-4.34,1.49q-5.92,0-5.93-5.73,0-8.47,14.41-8.48,8.2,0,11.34,2.79T490.6,78V92c0,2.39.66,3.58,2,3.58,1.56,0,2.48-2.36,2.76-7.1l1,.07q-.27,6.07-2.27,8.34t-6.55,2.28q-8.28,0-9.52-5.1a7.41,7.41,0,0,1-2.69,3.86,9.16,9.16,0,0,1-5.24,1.24q-10.2,0-10.2-8.34,0-4.91,3.89-6.72T475.78,82.29Zm-2.38,13.1a1.42,1.42,0,0,0,1.44,1c.72,0,1.38-.58,2-1.76a10.49,10.49,0,0,0,.94-4.86V83.39h-.49q-4.28,0-4.27,6.28v1.1A16.75,16.75,0,0,0,473.4,95.39Z"/><path class="cls-2" d="M524.38,62.09l1.93-1.18q.42-2.13-1.65-2.13c-2,0-3,1.51-3,4.55a20.88,20.88,0,0,0,.48,4.13q5.24,3.53,5.24,9A10.31,10.31,0,0,1,523.63,85q-3.79,3-10.28,3a29.61,29.61,0,0,1-5.58-.55c-2,1.29-3,2.25-3,2.89s1.48,1,4.42,1h7q15.65,0,15.65,11.24a11.43,11.43,0,0,1-4.72,9.62q-4.73,3.54-14.72,3.55-17,0-17-7.38,0-4,5.31-5.52l4.13,1.87a14.12,14.12,0,0,0-.55,3.79q0,5.92,8.83,5.93,5.37,0,8.27-2a5.91,5.91,0,0,0,2.9-5c0-2-.59-3.3-1.76-4s-3.51-1-7-1H508.8q-5.58,0-8-1.86A5.6,5.6,0,0,1,498.39,96a6.38,6.38,0,0,1,1.72-4.55A31.36,31.36,0,0,1,506.25,87q-8-2.28-8-10.48A10.43,10.43,0,0,1,502,68.15Q505.7,65,513.15,65a15.83,15.83,0,0,1,7.65,1.73,15.57,15.57,0,0,1-.42-3.38q0-3.87,2.07-5.59A7,7,0,0,1,527.07,56a6.06,6.06,0,0,1,4.1,1.34,4.63,4.63,0,0,1,1.56,3.69,4.5,4.5,0,0,1-1.24,3.48,4.29,4.29,0,0,1-3,1.14,4.43,4.43,0,0,1-2.9-.93A3.42,3.42,0,0,1,524.38,62.09ZM509.77,75V78.7q0,4.62.79,6.28A2.56,2.56,0,0,0,513,86.63,2.45,2.45,0,0,0,515.32,85q.72-1.62.72-6.65V75c0-3.59-.23-5.94-.69-7.07A2.39,2.39,0,0,0,513,66.22,2.65,2.65,0,0,0,510.59,68C510,69.15,509.77,71.49,509.77,75Z"/><path class="cls-2" d="M54.57,281.77H72.5l.34,7.17h-.62q-1.27-3.72-2.94-5.06a7.84,7.84,0,0,0-5-1.35h-1v11.21h1.55a3.62,3.62,0,0,0,2.76-1.21,6.8,6.8,0,0,0,1.52-3.31h.51v10.2h-.58a8.11,8.11,0,0,0-1.54-3.68,3.37,3.37,0,0,0-2.67-1.11H63.33v10.52H67.6v.76h-13v-.76h2V282.53h-2Z"/><path class="cls-2" d="M73.4,290.12v-.62h10v.62H81.53l3.76,11.44,4-11.44H87v-.62h4.86v.62H90.12L83.67,308.7a11.24,11.24,0,0,1-2.55,4.53,4.92,4.92,0,0,1-3.45,1.29,5,5,0,0,1-3.21-.93,2.9,2.9,0,0,1-1.17-2.38,3,3,0,0,1,.76-2.2,2.69,2.69,0,0,1,2-.76c1.91,0,2.86.79,2.86,2.38a4.93,4.93,0,0,1-.2,1.24H77.5a1.83,1.83,0,0,0-.07,1.31.9.9,0,0,0,.93.52,3.2,3.2,0,0,0,2.52-1.4A15.25,15.25,0,0,0,83,308l.76-2.13h-3l-5.89-15.79Z"/><path class="cls-2" d="M91.25,280.05H99.7v25.24h1.93v.62H91.39v-.62h1.9V280.67h-2Z"/><path class="cls-2" d="M114,305.91l-.38-2.42q-1.17,2.76-4.76,2.76a5.44,5.44,0,0,1-4.6-2.14c-1.09-1.42-1.64-3.55-1.64-6.37q0-8.6,6.83-8.59c2,0,3.35.56,4,1.69V280.67h-2.1v-.62H120v25.24h1.69v.62Zm-4.35-2.33a1.45,1.45,0,0,0,1.4,1.19,2.23,2.23,0,0,0,1.76-.9,4.1,4.1,0,0,0,.74-2.65V293.7a5,5,0,0,0-.59-2.51,1.87,1.87,0,0,0-1.72-1c-.76,0-1.28.51-1.55,1.52a22.74,22.74,0,0,0-.42,5.31v1.79A19.41,19.41,0,0,0,109.66,303.58Z"/><path class="cls-2" d="M125,304a8.8,8.8,0,0,1-2.22-6.38,7.84,7.84,0,0,1,2.5-6.26,9.36,9.36,0,0,1,6.36-2.17q7.82,0,7.51,7.86h-9.72v1.35a11.87,11.87,0,0,0,.86,5.1,3.08,3.08,0,0,0,3,1.72q4,0,5.24-4.27l.62.1a7.05,7.05,0,0,1-2.36,3.86,8,8,0,0,1-5.12,1.38C128.66,306.25,126.43,305.49,125,304Zm4.47-7.64H133v-1.69a14.47,14.47,0,0,0-.33-3.81,1.3,1.3,0,0,0-1.31-1,1.53,1.53,0,0,0-1.45,1.08,10.55,10.55,0,0,0-.46,3.74Z"/><path class="cls-2" d="M110.41,141.31v-1.84h13.12v1.84h-5.47v14.57h-2.18V141.31Z"/><path class="cls-2" d="M130.91,155.88V154h0a4.13,4.13,0,0,1-1.59,1.62,4.8,4.8,0,0,1-2.28.52,5.46,5.46,0,0,1-2-.31,3.16,3.16,0,0,1-1.26-.89,3.22,3.22,0,0,1-.68-1.37,7.32,7.32,0,0,1-.2-1.75V144h2v8a2.36,2.36,0,0,0,.64,1.75,2.39,2.39,0,0,0,1.77.64,4.05,4.05,0,0,0,1.55-.27,2.9,2.9,0,0,0,1.09-.78,3.45,3.45,0,0,0,.66-1.19,4.94,4.94,0,0,0,.22-1.48V144h1.95v11.88Z"/><path class="cls-2" d="M137.71,139.47v6.14h0a2.93,2.93,0,0,1,1.52-1.44,5.78,5.78,0,0,1,2.27-.44,5.31,5.31,0,0,1,2.4.5,4.86,4.86,0,0,1,1.7,1.37,5.88,5.88,0,0,1,1,2A8.08,8.08,0,0,1,147,150a8.47,8.47,0,0,1-.33,2.39,5.61,5.61,0,0,1-1,2,4.73,4.73,0,0,1-1.7,1.32,5.59,5.59,0,0,1-2.38.49,6.14,6.14,0,0,1-1-.1,6.08,6.08,0,0,1-1.07-.29,4.36,4.36,0,0,1-1-.57,3.18,3.18,0,0,1-.79-.88h0v1.58h-2V139.47Zm7,8.75a4.53,4.53,0,0,0-.67-1.42,3.22,3.22,0,0,0-1.15-1,3.45,3.45,0,0,0-1.64-.37,3.24,3.24,0,0,0-2.81,1.41,4.26,4.26,0,0,0-.63,1.44,6.85,6.85,0,0,0-.19,1.63,6.74,6.74,0,0,0,.2,1.69,4.31,4.31,0,0,0,.66,1.44,3.42,3.42,0,0,0,1.16,1,3.64,3.64,0,0,0,1.72.37,3.33,3.33,0,0,0,1.69-.39,3.08,3.08,0,0,0,1.09-1,4.38,4.38,0,0,0,.6-1.47,8,8,0,0,0,.18-1.7A6.32,6.32,0,0,0,144.74,148.22Z"/><path class="cls-2" d="M149,147.51a5.65,5.65,0,0,1,1.11-2,5.14,5.14,0,0,1,1.81-1.32,6.7,6.7,0,0,1,5,0,5.19,5.19,0,0,1,1.8,1.32,5.65,5.65,0,0,1,1.11,2,8.45,8.45,0,0,1,0,4.88,5.65,5.65,0,0,1-1.11,2,5,5,0,0,1-1.8,1.31,6.7,6.7,0,0,1-5,0,5,5,0,0,1-1.81-1.31,5.65,5.65,0,0,1-1.11-2,8.45,8.45,0,0,1,0-4.88Zm2,4.36a4,4,0,0,0,.79,1.4,3.6,3.6,0,0,0,4.06.87,3.36,3.36,0,0,0,1.18-.87,3.9,3.9,0,0,0,.8-1.4,6.72,6.72,0,0,0,0-3.84,4.12,4.12,0,0,0-.8-1.41,3.36,3.36,0,0,0-1.18-.87,3.52,3.52,0,0,0-4.06.87A4.28,4.28,0,0,0,151,148a6.5,6.5,0,0,0,0,3.84Z"/><path class="cls-2" d="M164.28,144v2.51h.05a5.22,5.22,0,0,1,1.74-2.14,4.34,4.34,0,0,1,2.62-.64v2.06a5.44,5.44,0,0,0-2,.33,3.07,3.07,0,0,0-1.33.94,3.91,3.91,0,0,0-.74,1.5,8.33,8.33,0,0,0-.22,2v5.28h-2V144Z"/><path class="cls-2" d="M178.44,159.24a5.47,5.47,0,0,1-4.19,1.45,8.16,8.16,0,0,1-1.68-.19,5,5,0,0,1-1.57-.6,3.62,3.62,0,0,1-1.16-1.08,3.08,3.08,0,0,1-.5-1.63h1.95a1.54,1.54,0,0,0,.33.9,2.66,2.66,0,0,0,.76.6,3.9,3.9,0,0,0,1,.33,5.16,5.16,0,0,0,1,.1,3.64,3.64,0,0,0,1.63-.33,3,3,0,0,0,1.1-.92,3.65,3.65,0,0,0,.64-1.41,8,8,0,0,0,.19-1.82v-.78h0a3.27,3.27,0,0,1-1.53,1.62,4.69,4.69,0,0,1-2.17.52,5.09,5.09,0,0,1-2.32-.49,4.83,4.83,0,0,1-1.66-1.29,5.62,5.62,0,0,1-1-1.91,8,8,0,0,1-.33-2.31,9.14,9.14,0,0,1,.27-2.17,6,6,0,0,1,.92-2,5.13,5.13,0,0,1,1.7-1.49,5.32,5.32,0,0,1,2.6-.58,4.39,4.39,0,0,1,2.07.49,3.44,3.44,0,0,1,1.47,1.48h0V144h1.84v10.87A6.26,6.26,0,0,1,178.44,159.24Zm-2.5-5.35a3.16,3.16,0,0,0,1.1-1,5,5,0,0,0,.6-1.48,7.31,7.31,0,0,0,.2-1.66,6.68,6.68,0,0,0-.18-1.54,4.55,4.55,0,0,0-.59-1.37,3,3,0,0,0-2.61-1.34,3.48,3.48,0,0,0-1.61.35,3.16,3.16,0,0,0-1.09,1,4.13,4.13,0,0,0-.62,1.38,6.68,6.68,0,0,0-.19,1.63,8,8,0,0,0,.16,1.61,4.42,4.42,0,0,0,.55,1.46,3,3,0,0,0,1,1,3,3,0,0,0,1.61.41A3.14,3.14,0,0,0,175.94,153.89Z"/><path class="cls-2" d="M191.72,139.47l8.64,13.31h0V139.47h2.07v16.41h-2.39l-8.58-13.17h0v13.17H189.4V139.47Z"/><path class="cls-2" d="M213.69,155.88V154h0a4.13,4.13,0,0,1-1.59,1.62,4.8,4.8,0,0,1-2.28.52,5.46,5.46,0,0,1-1.95-.31,3.16,3.16,0,0,1-1.26-.89,3.33,3.33,0,0,1-.68-1.37,7.32,7.32,0,0,1-.2-1.75V144h2v8a2.36,2.36,0,0,0,.64,1.75,2.39,2.39,0,0,0,1.77.64,4.05,4.05,0,0,0,1.55-.27,2.9,2.9,0,0,0,1.09-.78,3.45,3.45,0,0,0,.66-1.19,4.94,4.94,0,0,0,.22-1.48V144h1.95v11.88Z"/><path class="cls-2" d="M220.54,139.47v16.41h-1.95V139.47Z"/><path class="cls-2" d="M231.92,139.47v6.28h0a2.48,2.48,0,0,1,.65-.93,3.29,3.29,0,0,1,.93-.62,4.9,4.9,0,0,1,1.08-.36,5.17,5.17,0,0,1,1.09-.11,5,5,0,0,1,1.95.32,3.16,3.16,0,0,1,1.26.89,3.27,3.27,0,0,1,.68,1.37,7.4,7.4,0,0,1,.2,1.76v7.81h-2v-8a2.36,2.36,0,0,0-.64-1.75,2.39,2.39,0,0,0-1.77-.64,4.05,4.05,0,0,0-1.55.27,2.92,2.92,0,0,0-1.09.79,3.4,3.4,0,0,0-.66,1.18,5,5,0,0,0-.21,1.48v6.71h-2V139.47Z"/><path class="cls-2" d="M253.27,155.83a2.68,2.68,0,0,1-1.41.31,1.69,1.69,0,0,1-1.2-.43,1.84,1.84,0,0,1-.45-1.39,4.71,4.71,0,0,1-1.87,1.39,6.35,6.35,0,0,1-3.84.24,3.5,3.5,0,0,1-1.25-.57,2.59,2.59,0,0,1-.84-1,3.38,3.38,0,0,1-.31-1.52,3.5,3.5,0,0,1,.34-1.66,2.87,2.87,0,0,1,.91-1,3.85,3.85,0,0,1,1.29-.61,13.89,13.89,0,0,1,1.48-.35c.54-.1,1-.19,1.53-.24a8.06,8.06,0,0,0,1.27-.23,2.08,2.08,0,0,0,.88-.44,1.07,1.07,0,0,0,.32-.83,2,2,0,0,0-.24-1,1.69,1.69,0,0,0-.62-.6,2.65,2.65,0,0,0-.85-.27,6,6,0,0,0-.94-.07,4.16,4.16,0,0,0-2.06.47,2,2,0,0,0-.9,1.78h-1.95a4.15,4.15,0,0,1,.46-1.86,3.35,3.35,0,0,1,1.1-1.23,4.74,4.74,0,0,1,1.57-.68,8.27,8.27,0,0,1,1.9-.2,10.67,10.67,0,0,1,1.6.11,4.15,4.15,0,0,1,1.43.47,2.77,2.77,0,0,1,1,1,3.18,3.18,0,0,1,.39,1.67v6.1a4.77,4.77,0,0,0,.08,1c.05.21.23.32.54.32a2.13,2.13,0,0,0,.6-.11Zm-3.18-6.11a2.36,2.36,0,0,1-1,.41c-.4.08-.82.15-1.25.2l-1.32.19a4.57,4.57,0,0,0-1.2.33,2.16,2.16,0,0,0-.86.65,1.87,1.87,0,0,0-.33,1.17,1.57,1.57,0,0,0,.19.81,1.65,1.65,0,0,0,.51.54,2,2,0,0,0,.72.3,4.14,4.14,0,0,0,.87.09,4.78,4.78,0,0,0,1.66-.26,3.47,3.47,0,0,0,1.12-.67,2.61,2.61,0,0,0,.65-.87,2.19,2.19,0,0,0,.2-.89Z"/><path class="cls-2" d="M256.85,144v2.51h0a5.22,5.22,0,0,1,1.74-2.14,4.34,4.34,0,0,1,2.62-.64v2.06a5.44,5.44,0,0,0-2,.33,3.07,3.07,0,0,0-1.33.94,3.76,3.76,0,0,0-.73,1.5,7.85,7.85,0,0,0-.23,2v5.28h-2V144Z"/><path class="cls-2" d="M277.54,155.12a5.37,5.37,0,0,1-3.36,1,6.22,6.22,0,0,1-2.47-.46,4.88,4.88,0,0,1-1.76-1.29,5.55,5.55,0,0,1-1.07-2,9.34,9.34,0,0,1-.4-2.5,7.25,7.25,0,0,1,.41-2.48,6.06,6.06,0,0,1,1.16-2,5.39,5.39,0,0,1,1.77-1.29,5.5,5.5,0,0,1,2.24-.45,4.88,4.88,0,0,1,2.64.65,5.22,5.22,0,0,1,1.67,1.67,6.6,6.6,0,0,1,.88,2.2,9.58,9.58,0,0,1,.19,2.28h-8.89a4.52,4.52,0,0,0,.18,1.48,3.27,3.27,0,0,0,1.84,2.1,3.94,3.94,0,0,0,1.68.32,3.39,3.39,0,0,0,2-.57,2.76,2.76,0,0,0,1.05-1.75h1.93A4.75,4.75,0,0,1,277.54,155.12Zm-.48-7.63a3.14,3.14,0,0,0-.71-1.06,3.29,3.29,0,0,0-2.4-1,3.52,3.52,0,0,0-1.37.26,3.2,3.2,0,0,0-1,.73,3.4,3.4,0,0,0-.69,1.07,3.93,3.93,0,0,0-.3,1.29h6.82A3.92,3.92,0,0,0,277.06,147.49Z"/><path class="cls-2" d="M283.3,144v1.89h.05a4.11,4.11,0,0,1,3.86-2.16,5,5,0,0,1,2,.32,3.2,3.2,0,0,1,1.27.89,3.53,3.53,0,0,1,.68,1.37,7.42,7.42,0,0,1,.19,1.76v7.81h-1.95v-8a2.36,2.36,0,0,0-.65-1.75,2.39,2.39,0,0,0-1.77-.64,4.09,4.09,0,0,0-1.55.27,3,3,0,0,0-1.09.79,3.23,3.23,0,0,0-.65,1.18,4.69,4.69,0,0,0-.22,1.48v6.71h-2V144Z"/><path class="cls-2" d="M299.44,145.72V144h2v-1.77a2.76,2.76,0,0,1,.83-2.19,3.57,3.57,0,0,1,2.45-.75,5.3,5.3,0,0,1,1.27.18v1.7a2.42,2.42,0,0,0-.56-.12,3.56,3.56,0,0,0-.55,0,1.92,1.92,0,0,0-1.1.28,1.22,1.22,0,0,0-.39,1.06V144h2.3v1.72h-2.3v10.16h-1.95V145.72Z"/><path class="cls-2" d="M307.16,147.51a5.48,5.48,0,0,1,1.1-2,5.18,5.18,0,0,1,1.82-1.32,6.67,6.67,0,0,1,5,0,5.23,5.23,0,0,1,1.81,1.32,5.63,5.63,0,0,1,1.1,2,8.23,8.23,0,0,1,0,4.88,5.63,5.63,0,0,1-1.1,2,5.08,5.08,0,0,1-1.81,1.31,6.67,6.67,0,0,1-5,0,5,5,0,0,1-1.82-1.31,5.47,5.47,0,0,1-1.1-2,8.23,8.23,0,0,1,0-4.88Zm2,4.36a3.88,3.88,0,0,0,.79,1.4,3.45,3.45,0,0,0,1.18.87,3.5,3.5,0,0,0,1.44.29,3.56,3.56,0,0,0,1.44-.29,3.45,3.45,0,0,0,1.18-.87,3.88,3.88,0,0,0,.79-1.4,6.5,6.5,0,0,0,0-3.84,4.1,4.1,0,0,0-.79-1.41,3.45,3.45,0,0,0-1.18-.87,3.57,3.57,0,0,0-1.44-.3,3.51,3.51,0,0,0-1.44.3,3.45,3.45,0,0,0-1.18.87,4.1,4.1,0,0,0-.79,1.41,6.5,6.5,0,0,0,0,3.84Z"/><path class="cls-2" d="M322.39,144v2.51h.05a5.31,5.31,0,0,1,1.75-2.14,4.32,4.32,0,0,1,2.62-.64v2.06a5.4,5.4,0,0,0-2,.33,3.11,3.11,0,0,0-1.34.94,3.9,3.9,0,0,0-.73,1.5,8.3,8.3,0,0,0-.23,2v5.28h-1.95V144Z"/><path class="cls-2" d="M327.08,145.72V144h2v-1.77a2.77,2.77,0,0,1,.84-2.19,3.57,3.57,0,0,1,2.45-.75,3.78,3.78,0,0,1,.63.05,3.32,3.32,0,0,1,.63.13v1.7a2.33,2.33,0,0,0-.55-.12,3.65,3.65,0,0,0-.55,0,1.9,1.9,0,0,0-1.1.28,1.22,1.22,0,0,0-.39,1.06V144h2.29v1.72H331v10.16h-2V145.72Z"/><path class="cls-2" d="M336.85,144v2.51h0a5.22,5.22,0,0,1,1.74-2.14,4.34,4.34,0,0,1,2.62-.64v2.06a5.44,5.44,0,0,0-2,.33,3.07,3.07,0,0,0-1.33.94,3.76,3.76,0,0,0-.73,1.5,7.85,7.85,0,0,0-.23,2v5.28h-2V144Z"/><path class="cls-2" d="M342.85,141.86v-2.39h1.95v2.39ZM344.8,144v11.88h-1.95V144Z"/><path class="cls-2" d="M349.33,153.23a2,2,0,0,0,.72.71,3.27,3.27,0,0,0,1,.38,5.5,5.5,0,0,0,1.16.11,8.24,8.24,0,0,0,1-.06,3.35,3.35,0,0,0,.93-.26,1.64,1.64,0,0,0,.7-.54,1.38,1.38,0,0,0,.28-.9,1.29,1.29,0,0,0-.58-1.15,4.86,4.86,0,0,0-1.43-.64c-.58-.16-1.2-.3-1.88-.43a10.46,10.46,0,0,1-1.87-.55,3.88,3.88,0,0,1-1.43-1,2.58,2.58,0,0,1-.58-1.8,2.85,2.85,0,0,1,.4-1.54,3.33,3.33,0,0,1,1-1,4.64,4.64,0,0,1,1.42-.6,6.62,6.62,0,0,1,1.58-.19,9.05,9.05,0,0,1,1.86.17,4.08,4.08,0,0,1,1.5.6,3,3,0,0,1,1.05,1.14,4.5,4.5,0,0,1,.46,1.81h-2a2.13,2.13,0,0,0-.29-1,2,2,0,0,0-.65-.6,2.81,2.81,0,0,0-.86-.34,4.32,4.32,0,0,0-.95-.1,5.42,5.42,0,0,0-.89.07,2.55,2.55,0,0,0-.81.24,1.55,1.55,0,0,0-.6.46,1.18,1.18,0,0,0-.23.75,1.11,1.11,0,0,0,.35.83,2.81,2.81,0,0,0,.91.56,8.75,8.75,0,0,0,1.24.36l1.38.31q.74.16,1.44.39A4.94,4.94,0,0,1,356,150a3,3,0,0,1,.87,1,2.72,2.72,0,0,1,.34,1.42,3.34,3.34,0,0,1-.45,1.8,3.54,3.54,0,0,1-1.17,1.14,4.7,4.7,0,0,1-1.63.61,9.33,9.33,0,0,1-1.81.18,8.14,8.14,0,0,1-1.88-.21,4.56,4.56,0,0,1-1.59-.68,3.38,3.38,0,0,1-1.1-1.24,4.23,4.23,0,0,1-.46-1.87H349A2.29,2.29,0,0,0,349.33,153.23Z"/><path class="cls-2" d="M361.4,139.47v9.73l5.42-5.2h2.62l-4.71,4.32,5,7.56H367.3l-4.07-6.2-1.83,1.7v4.5h-2V139.47Z"/><path class="cls-2" d="M379.67,155.12a5.37,5.37,0,0,1-3.36,1,6.22,6.22,0,0,1-2.47-.46,5,5,0,0,1-1.76-1.29,5.55,5.55,0,0,1-1.07-2,9.76,9.76,0,0,1-.4-2.5,7,7,0,0,1,.42-2.48,5.73,5.73,0,0,1,1.16-2,5.19,5.19,0,0,1,1.77-1.29,5.47,5.47,0,0,1,2.24-.45,4.86,4.86,0,0,1,2.63.65,5.36,5.36,0,0,1,1.68,1.67,6.58,6.58,0,0,1,.87,2.2,9.58,9.58,0,0,1,.19,2.28h-8.89a4.81,4.81,0,0,0,.18,1.48,3.27,3.27,0,0,0,1.84,2.1,4,4,0,0,0,1.68.32,3.36,3.36,0,0,0,2-.57,2.76,2.76,0,0,0,1-1.75h1.93A4.75,4.75,0,0,1,379.67,155.12Zm-.47-7.63a3.31,3.31,0,0,0-.72-1.06,3.25,3.25,0,0,0-2.4-1,3.56,3.56,0,0,0-1.37.26,3.2,3.2,0,0,0-1,.73,3.4,3.4,0,0,0-.69,1.07,3.93,3.93,0,0,0-.3,1.29h6.83A4.48,4.48,0,0,0,379.2,147.49Z"/><path class="cls-2" d="M385.43,144v1.89h.05a4.11,4.11,0,0,1,3.86-2.16,5,5,0,0,1,2,.32,3.13,3.13,0,0,1,1.27.89,3.4,3.4,0,0,1,.68,1.37,7.42,7.42,0,0,1,.19,1.76v7.81h-1.95v-8a2.23,2.23,0,0,0-2.41-2.39,4.11,4.11,0,0,0-1.56.27,3,3,0,0,0-1.09.79,3.23,3.23,0,0,0-.65,1.18,4.69,4.69,0,0,0-.22,1.48v6.71H383.6V144Z"/><path class="cls-2" d="M405,155.88v-1.61H405a2.85,2.85,0,0,1-1.51,1.43,5.83,5.83,0,0,1-2.28.44,5.31,5.31,0,0,1-2.4-.51,5,5,0,0,1-1.7-1.36,5.85,5.85,0,0,1-1-2,8.13,8.13,0,0,1-.35-2.39,8.47,8.47,0,0,1,.33-2.39,5.68,5.68,0,0,1,1-2,4.78,4.78,0,0,1,1.7-1.33,5.37,5.37,0,0,1,2.37-.49,5.87,5.87,0,0,1,1,.09,4.57,4.57,0,0,1,1.06.31,4.16,4.16,0,0,1,1,.57,3.08,3.08,0,0,1,.79.89H405v-6.12H407v16.41Zm-7-4.21a4.25,4.25,0,0,0,.66,1.41,3.44,3.44,0,0,0,1.15,1,3.58,3.58,0,0,0,1.65.36,3.24,3.24,0,0,0,2.8-1.41,4.26,4.26,0,0,0,.63-1.44,6.82,6.82,0,0,0,0-3.32,4.35,4.35,0,0,0-.65-1.43,3.25,3.25,0,0,0-1.17-1,3.61,3.61,0,0,0-1.72-.38,3.37,3.37,0,0,0-1.68.39,3.2,3.2,0,0,0-1.1,1,4.59,4.59,0,0,0-.6,1.47,8,8,0,0,0-.18,1.7A5.94,5.94,0,0,0,398,151.67Z"/><path class="cls-2" d="M418.41,155.12a5.34,5.34,0,0,1-3.35,1,6.19,6.19,0,0,1-2.47-.46,4.88,4.88,0,0,1-1.76-1.29,5.4,5.4,0,0,1-1.07-2,9.34,9.34,0,0,1-.4-2.5,7.25,7.25,0,0,1,.41-2.48,5.89,5.89,0,0,1,1.16-2,5.39,5.39,0,0,1,1.77-1.29,5.5,5.5,0,0,1,2.24-.45,4.88,4.88,0,0,1,2.64.65,5.22,5.22,0,0,1,1.67,1.67,6.82,6.82,0,0,1,.88,2.2,9.58,9.58,0,0,1,.19,2.28h-8.89a4.52,4.52,0,0,0,.18,1.48,3.32,3.32,0,0,0,.67,1.24,3.13,3.13,0,0,0,1.17.86,3.94,3.94,0,0,0,1.68.32,3.41,3.41,0,0,0,2-.57,2.76,2.76,0,0,0,1-1.75h1.93A4.72,4.72,0,0,1,418.41,155.12Zm-.47-7.63a3.14,3.14,0,0,0-.71-1.06,3.29,3.29,0,0,0-2.4-1,3.52,3.52,0,0,0-1.37.26,3.32,3.32,0,0,0-1.73,1.8,3.93,3.93,0,0,0-.3,1.29h6.82A3.92,3.92,0,0,0,417.94,147.49Z"/><path class="cls-2" d="M430.75,144v1.61h.05a2.93,2.93,0,0,1,1.52-1.44,5.78,5.78,0,0,1,2.27-.44,5.31,5.31,0,0,1,2.4.5,4.86,4.86,0,0,1,1.7,1.37,5.88,5.88,0,0,1,1,2,8.08,8.08,0,0,1,.34,2.39,8.47,8.47,0,0,1-.33,2.39,5.61,5.61,0,0,1-1,2,4.73,4.73,0,0,1-1.7,1.32,5.59,5.59,0,0,1-2.38.49,6.14,6.14,0,0,1-1-.1,6.08,6.08,0,0,1-1.07-.29,4.36,4.36,0,0,1-1-.57,3.18,3.18,0,0,1-.79-.88h-.05v6.11H428.8V144Zm7,4.22a4.53,4.53,0,0,0-.67-1.42,3.22,3.22,0,0,0-1.15-1,3.45,3.45,0,0,0-1.64-.37,3.24,3.24,0,0,0-2.81,1.41,4.26,4.26,0,0,0-.63,1.44,6.85,6.85,0,0,0-.19,1.63,6.74,6.74,0,0,0,.2,1.69,4.31,4.31,0,0,0,.66,1.44,3.42,3.42,0,0,0,1.16,1,3.64,3.64,0,0,0,1.72.37,3.33,3.33,0,0,0,1.69-.39,3.08,3.08,0,0,0,1.09-1,4.38,4.38,0,0,0,.6-1.47,8,8,0,0,0,.18-1.7A6.32,6.32,0,0,0,437.78,148.22Z"/><path class="cls-2" d="M442.47,141.86v-2.39h2v2.39Zm2,2.14v11.88h-2V144Z"/><path class="cls-2" d="M449.53,139.47v16.41h-1.95V139.47Z"/><path class="cls-2" d="M454.06,153.23a2,2,0,0,0,.72.71,3.3,3.3,0,0,0,1,.38,5.57,5.57,0,0,0,1.16.11,8.27,8.27,0,0,0,1-.06,3.56,3.56,0,0,0,.93-.26,1.7,1.7,0,0,0,.7-.54,1.44,1.44,0,0,0,.28-.9,1.31,1.31,0,0,0-.58-1.15,4.81,4.81,0,0,0-1.44-.64c-.57-.16-1.19-.3-1.87-.43a10.22,10.22,0,0,1-1.87-.55,3.84,3.84,0,0,1-1.44-1,2.63,2.63,0,0,1-.57-1.8,2.85,2.85,0,0,1,.4-1.54,3.3,3.3,0,0,1,1-1,4.81,4.81,0,0,1,1.43-.6,6.54,6.54,0,0,1,1.57-.19,8.92,8.92,0,0,1,1.86.17,4.13,4.13,0,0,1,1.51.6,3.12,3.12,0,0,1,1.05,1.14,4.5,4.5,0,0,1,.46,1.81h-2a2,2,0,0,0-.3-1,1.93,1.93,0,0,0-.64-.6,2.81,2.81,0,0,0-.86-.34,4.41,4.41,0,0,0-1-.1,5.3,5.3,0,0,0-.88.07,2.69,2.69,0,0,0-.82.24,1.6,1.6,0,0,0-.59.46,1.13,1.13,0,0,0-.24.75,1.08,1.08,0,0,0,.36.83,2.81,2.81,0,0,0,.91.56,8.75,8.75,0,0,0,1.24.36L458,149q.74.16,1.44.39a5.12,5.12,0,0,1,1.24.61,3,3,0,0,1,.87,1,2.81,2.81,0,0,1,.33,1.42,3.43,3.43,0,0,1-.44,1.8,3.48,3.48,0,0,1-1.18,1.14,4.56,4.56,0,0,1-1.63.61,9.23,9.23,0,0,1-1.8.18,8.29,8.29,0,0,1-1.89-.21,4.59,4.59,0,0,1-1.58-.68,3.5,3.5,0,0,1-1.11-1.24,4.37,4.37,0,0,1-.46-1.87h2A2.08,2.08,0,0,0,454.06,153.23Z"/><path class="cls-2" d="M465.89,144v1.89h.05a4.11,4.11,0,0,1,3.86-2.16,5,5,0,0,1,1.95.32,3.2,3.2,0,0,1,1.27.89,3.53,3.53,0,0,1,.68,1.37,7.42,7.42,0,0,1,.19,1.76v7.81h-1.95v-8a2.36,2.36,0,0,0-.65-1.75,2.39,2.39,0,0,0-1.77-.64,4.09,4.09,0,0,0-1.55.27,3,3,0,0,0-1.09.79,3.23,3.23,0,0,0-.65,1.18,4.69,4.69,0,0,0-.22,1.48v6.71h-2V144Z"/><path class="cls-2" d="M485.24,155.12a5.34,5.34,0,0,1-3.35,1,6.19,6.19,0,0,1-2.47-.46,4.88,4.88,0,0,1-1.76-1.29,5.4,5.4,0,0,1-1.07-2,9.34,9.34,0,0,1-.4-2.5,7.25,7.25,0,0,1,.41-2.48,5.89,5.89,0,0,1,1.16-2,5.39,5.39,0,0,1,1.77-1.29,5.5,5.5,0,0,1,2.24-.45,4.88,4.88,0,0,1,2.64.65,5.22,5.22,0,0,1,1.67,1.67,6.82,6.82,0,0,1,.88,2.2,9.58,9.58,0,0,1,.19,2.28h-8.89a4.52,4.52,0,0,0,.18,1.48,3.32,3.32,0,0,0,.67,1.24,3.13,3.13,0,0,0,1.17.86,3.94,3.94,0,0,0,1.68.32,3.41,3.41,0,0,0,2-.57,2.76,2.76,0,0,0,1.05-1.75H487A4.72,4.72,0,0,1,485.24,155.12Zm-.47-7.63a3.14,3.14,0,0,0-.71-1.06,3.29,3.29,0,0,0-2.4-1,3.52,3.52,0,0,0-1.37.26,3.32,3.32,0,0,0-1.73,1.8,3.93,3.93,0,0,0-.3,1.29h6.82A3.92,3.92,0,0,0,484.77,147.49Z"/><path class="cls-2" d="M490.94,144v2.51H491a5.23,5.23,0,0,1,1.75-2.14,4.3,4.3,0,0,1,2.62-.64v2.06a5.37,5.37,0,0,0-2,.33,3,3,0,0,0-1.34.94,3.9,3.9,0,0,0-.73,1.5,7.85,7.85,0,0,0-.23,2v5.28h-2V144Z"/><path class="cls-2" d="M498.32,153.23a2.13,2.13,0,0,0,.72.71,3.27,3.27,0,0,0,1,.38,5.5,5.5,0,0,0,1.16.11,8.24,8.24,0,0,0,1-.06,3.35,3.35,0,0,0,.93-.26,1.64,1.64,0,0,0,.7-.54,1.38,1.38,0,0,0,.28-.9,1.29,1.29,0,0,0-.58-1.15,4.86,4.86,0,0,0-1.43-.64c-.58-.16-1.2-.3-1.87-.43a10.33,10.33,0,0,1-1.88-.55,3.88,3.88,0,0,1-1.43-1,2.58,2.58,0,0,1-.58-1.8,2.94,2.94,0,0,1,.4-1.54,3.33,3.33,0,0,1,1-1,4.64,4.64,0,0,1,1.42-.6,6.62,6.62,0,0,1,1.58-.19,9.05,9.05,0,0,1,1.86.17,4.08,4.08,0,0,1,1.5.6,3,3,0,0,1,1.05,1.14,4.5,4.5,0,0,1,.46,1.81h-2a2.13,2.13,0,0,0-.29-1,2,2,0,0,0-.65-.6,2.81,2.81,0,0,0-.86-.34,4.32,4.32,0,0,0-.95-.1,5.42,5.42,0,0,0-.89.07,2.55,2.55,0,0,0-.81.24,1.55,1.55,0,0,0-.6.46,1.18,1.18,0,0,0-.23.75,1.08,1.08,0,0,0,.36.83,2.76,2.76,0,0,0,.9.56,8.75,8.75,0,0,0,1.24.36l1.38.31q.74.16,1.44.39A4.94,4.94,0,0,1,505,150a3,3,0,0,1,.87,1,2.72,2.72,0,0,1,.34,1.42,3.34,3.34,0,0,1-.45,1.8,3.54,3.54,0,0,1-1.17,1.14,4.7,4.7,0,0,1-1.63.61,9.33,9.33,0,0,1-1.81.18,8.14,8.14,0,0,1-1.88-.21,4.56,4.56,0,0,1-1.59-.68,3.38,3.38,0,0,1-1.1-1.24,4.23,4.23,0,0,1-.46-1.87H498A2.29,2.29,0,0,0,498.32,153.23Z"/><path class="cls-2" d="M510.16,144v1.75h0a4.32,4.32,0,0,1,3.84-2,4.39,4.39,0,0,1,2,.45,2.56,2.56,0,0,1,1.26,1.57,4.21,4.21,0,0,1,1.58-1.5,4.47,4.47,0,0,1,2.15-.52,6.32,6.32,0,0,1,1.62.19,3.35,3.35,0,0,1,1.24.61,2.79,2.79,0,0,1,.8,1.07,3.93,3.93,0,0,1,.29,1.57v8.71h-2v-7.79a4.8,4.8,0,0,0-.1-1,2.1,2.1,0,0,0-.34-.84,1.63,1.63,0,0,0-.7-.56,2.77,2.77,0,0,0-1.16-.21,3,3,0,0,0-2.28.83,3,3,0,0,0-.83,2.2v7.4h-2v-7.79a5.09,5.09,0,0,0-.1-1.06,2.16,2.16,0,0,0-.36-.83,1.63,1.63,0,0,0-.68-.56,2.6,2.6,0,0,0-1.09-.19,3,3,0,0,0-1.46.34,3.42,3.42,0,0,0-1.54,1.83,3,3,0,0,0-.17.86v7.4h-1.95V144Z"/><path class="cls-2" d="M538.45,155.83a2.68,2.68,0,0,1-1.41.31,1.69,1.69,0,0,1-1.2-.43,1.84,1.84,0,0,1-.45-1.39,4.71,4.71,0,0,1-1.87,1.39,6.35,6.35,0,0,1-3.84.24,3.5,3.5,0,0,1-1.25-.57,2.59,2.59,0,0,1-.84-1,3.38,3.38,0,0,1-.31-1.52,3.5,3.5,0,0,1,.34-1.66,2.87,2.87,0,0,1,.91-1,3.94,3.94,0,0,1,1.29-.61,13.89,13.89,0,0,1,1.48-.35c.54-.1,1-.19,1.53-.24a7.85,7.85,0,0,0,1.27-.23,2.08,2.08,0,0,0,.88-.44,1.07,1.07,0,0,0,.32-.83,2,2,0,0,0-.24-1,1.69,1.69,0,0,0-.62-.6,2.65,2.65,0,0,0-.85-.27,6,6,0,0,0-.93-.07,4.17,4.17,0,0,0-2.07.47,2,2,0,0,0-.9,1.78h-2a4.15,4.15,0,0,1,.46-1.86,3.35,3.35,0,0,1,1.1-1.23,4.74,4.74,0,0,1,1.57-.68,8.27,8.27,0,0,1,1.9-.2,10.67,10.67,0,0,1,1.6.11,4.09,4.09,0,0,1,1.43.47,2.77,2.77,0,0,1,1,1,3.18,3.18,0,0,1,.39,1.67v6.1a4.77,4.77,0,0,0,.08,1c.05.21.23.32.54.32a2.13,2.13,0,0,0,.6-.11Zm-3.17-6.11a2.47,2.47,0,0,1-1,.41c-.4.08-.82.15-1.25.2l-1.32.19a4.57,4.57,0,0,0-1.2.33,2.16,2.16,0,0,0-.86.65,1.87,1.87,0,0,0-.33,1.17,1.57,1.57,0,0,0,.19.81,1.65,1.65,0,0,0,.51.54,2,2,0,0,0,.72.3,4.14,4.14,0,0,0,.87.09,4.78,4.78,0,0,0,1.66-.26,3.47,3.47,0,0,0,1.12-.67,2.61,2.61,0,0,0,.65-.87,2.21,2.21,0,0,0,.21-.89Z"/><path class="cls-2" d="M549.18,159.24a5.45,5.45,0,0,1-4.18,1.45,8.18,8.18,0,0,1-1.69-.19,5,5,0,0,1-1.57-.6,3.62,3.62,0,0,1-1.16-1.08,3.08,3.08,0,0,1-.5-1.63H542a1.49,1.49,0,0,0,.34.9,2.48,2.48,0,0,0,.75.6,3.9,3.9,0,0,0,1,.33,5.16,5.16,0,0,0,1,.1,3.64,3.64,0,0,0,1.63-.33,3.1,3.1,0,0,0,1.11-.92,3.8,3.8,0,0,0,.63-1.41,8,8,0,0,0,.19-1.82v-.78h0a3.27,3.27,0,0,1-1.53,1.62,4.69,4.69,0,0,1-2.17.52,5.09,5.09,0,0,1-2.32-.49,4.93,4.93,0,0,1-1.66-1.29,5.62,5.62,0,0,1-1-1.91,8,8,0,0,1-.33-2.31,9.14,9.14,0,0,1,.27-2.17,6,6,0,0,1,.92-2,5.13,5.13,0,0,1,1.7-1.49,5.32,5.32,0,0,1,2.6-.58,4.39,4.39,0,0,1,2.07.49,3.44,3.44,0,0,1,1.47,1.48h0V144h1.84v10.87A6.26,6.26,0,0,1,549.18,159.24Zm-2.49-5.35a3.22,3.22,0,0,0,1.09-1,5,5,0,0,0,.61-1.48,7.29,7.29,0,0,0,.19-1.66,6.68,6.68,0,0,0-.18-1.54,4.55,4.55,0,0,0-.59-1.37,3.12,3.12,0,0,0-1-1,3.07,3.07,0,0,0-1.57-.37,3.48,3.48,0,0,0-1.61.35,3.25,3.25,0,0,0-1.09,1,4.13,4.13,0,0,0-.62,1.38,6.68,6.68,0,0,0-.19,1.63,8,8,0,0,0,.16,1.61,4.65,4.65,0,0,0,.55,1.46,3,3,0,0,0,1,1,3,3,0,0,0,1.61.41A3.18,3.18,0,0,0,546.69,153.89Z"/><path class="cls-2" d="M556.44,153.33v2.32a4.12,4.12,0,0,1-.6,2.26,3.25,3.25,0,0,1-1.93,1.33v-1.15a1.83,1.83,0,0,0,.66-.4,2.31,2.31,0,0,0,.42-.58,2.15,2.15,0,0,0,.22-.63,2.49,2.49,0,0,0,0-.6h-1.36v-2.55Z"/><path class="cls-2" d="M137.29,167.05v6.28h0a2.73,2.73,0,0,1,.65-.94,3.77,3.77,0,0,1,.93-.62,4.87,4.87,0,0,1,1.08-.35,5.66,5.66,0,0,1,3,.2,3.16,3.16,0,0,1,1.95,2.27,7.36,7.36,0,0,1,.19,1.76v7.81h-1.95v-8A2.23,2.23,0,0,0,140.8,173a4.09,4.09,0,0,0-1.55.27,3.1,3.1,0,0,0-1.09.78,3.36,3.36,0,0,0-.65,1.19,4.64,4.64,0,0,0-.22,1.48v6.71h-2V167.05Z"/><path class="cls-2" d="M156.53,182.7a5.37,5.37,0,0,1-3.36,1,6,6,0,0,1-2.47-.46,4.82,4.82,0,0,1-1.76-1.28,5.55,5.55,0,0,1-1.07-2,9.41,9.41,0,0,1-.4-2.5,7.31,7.31,0,0,1,.41-2.49,6.12,6.12,0,0,1,1.16-1.95,5.39,5.39,0,0,1,1.77-1.29,5.54,5.54,0,0,1,2.24-.46,4.88,4.88,0,0,1,2.64.66,5.19,5.19,0,0,1,1.67,1.66,6.44,6.44,0,0,1,.88,2.21,9.58,9.58,0,0,1,.19,2.28h-8.89a4.52,4.52,0,0,0,.18,1.48,3.27,3.27,0,0,0,1.84,2.1,4,4,0,0,0,1.68.32,3.39,3.39,0,0,0,2-.57,2.79,2.79,0,0,0,1-1.75h1.93A4.78,4.78,0,0,1,156.53,182.7Zm-.48-7.63a3.28,3.28,0,0,0-.71-1.07,3.58,3.58,0,0,0-1.06-.71,3.41,3.41,0,0,0-1.34-.26,3.52,3.52,0,0,0-1.37.26,3.2,3.2,0,0,0-1,.73,3.47,3.47,0,0,0-.69,1.06,4,4,0,0,0-.3,1.3h6.82A3.92,3.92,0,0,0,156.05,175.07Z"/><path class="cls-2" d="M162.22,171.58v2.5h.05A5.27,5.27,0,0,1,164,172a4.39,4.39,0,0,1,2.62-.65v2.07a5.63,5.63,0,0,0-2,.32,3.21,3.21,0,0,0-1.34.95,3.9,3.9,0,0,0-.73,1.5,8.28,8.28,0,0,0-.23,2v5.29h-2V171.58Z"/><path class="cls-2" d="M170.18,167.05v16.41h-2V167.05Z"/><path class="cls-2" d="M173.32,169.44v-2.39h2v2.39Zm2,2.14v11.88h-2V171.58Z"/><path class="cls-2" d="M187.23,186.82a5.47,5.47,0,0,1-4.19,1.44,8.14,8.14,0,0,1-1.68-.18,5,5,0,0,1-1.57-.6,3.62,3.62,0,0,1-1.16-1.08,3.11,3.11,0,0,1-.5-1.63h2a1.54,1.54,0,0,0,.33.9,2.47,2.47,0,0,0,.76.59,3.56,3.56,0,0,0,1,.34,5.16,5.16,0,0,0,1,.1,3.64,3.64,0,0,0,1.63-.33,3,3,0,0,0,1.1-.92,3.65,3.65,0,0,0,.64-1.41,8,8,0,0,0,.19-1.82v-.78h0a3.35,3.35,0,0,1-1.53,1.62,4.82,4.82,0,0,1-2.17.52,5.09,5.09,0,0,1-2.32-.49,4.74,4.74,0,0,1-1.66-1.3,5.48,5.48,0,0,1-1-1.9,8,8,0,0,1-.33-2.31,9.14,9.14,0,0,1,.27-2.17,6,6,0,0,1,.92-2,5.13,5.13,0,0,1,1.7-1.49,5.32,5.32,0,0,1,2.6-.59,4.4,4.4,0,0,1,2.07.5,3.44,3.44,0,0,1,1.47,1.48h0v-1.7h1.84v10.87A6.26,6.26,0,0,1,187.23,186.82Zm-2.5-5.35a3.16,3.16,0,0,0,1.1-1.05,5,5,0,0,0,.6-1.49,7.16,7.16,0,0,0,.2-1.65,6.62,6.62,0,0,0-.18-1.54,4.44,4.44,0,0,0-.59-1.37,3.18,3.18,0,0,0-1.05-1,3.13,3.13,0,0,0-1.56-.36,3.48,3.48,0,0,0-1.61.35,3.16,3.16,0,0,0-1.09,1,4.13,4.13,0,0,0-.62,1.38,6.68,6.68,0,0,0-.19,1.63,8.06,8.06,0,0,0,.16,1.61,4.5,4.5,0,0,0,.55,1.46,3,3,0,0,0,1,1.05,3,3,0,0,0,1.61.41A3.14,3.14,0,0,0,184.73,181.47Z"/><path class="cls-2" d="M196.7,173.3v-1.72h2v-1.77a2.79,2.79,0,0,1,.83-2.2,3.62,3.62,0,0,1,2.45-.74,4.84,4.84,0,0,1,.63,0,3.58,3.58,0,0,1,.64.14v1.7a2.42,2.42,0,0,0-.56-.12,3.56,3.56,0,0,0-.55,0,1.85,1.85,0,0,0-1.1.28,1.2,1.2,0,0,0-.39,1v1.66H203v1.72h-2.3v10.16h-2V173.3Z"/><path class="cls-2" d="M206.46,171.58v2.5h0a5.27,5.27,0,0,1,1.75-2.13,4.39,4.39,0,0,1,2.62-.65v2.07a5.59,5.59,0,0,0-2,.32,3.21,3.21,0,0,0-1.34.95,3.9,3.9,0,0,0-.73,1.5,7.82,7.82,0,0,0-.23,2v5.29h-2V171.58Z"/><path class="cls-2" d="M220.34,183.46v-1.88h0a4.07,4.07,0,0,1-1.59,1.62,4.78,4.78,0,0,1-2.27.51,5.3,5.3,0,0,1-2-.31,3.05,3.05,0,0,1-1.26-.88,3.33,3.33,0,0,1-.68-1.37,7.36,7.36,0,0,1-.19-1.76v-7.81h2v8a2.36,2.36,0,0,0,.64,1.75,2.39,2.39,0,0,0,1.77.64,4,4,0,0,0,1.55-.27,3.05,3.05,0,0,0,1.1-.78,3.36,3.36,0,0,0,.65-1.19,4.64,4.64,0,0,0,.22-1.48v-6.71h2v11.88Z"/><path class="cls-2" d="M234,186.82a5.44,5.44,0,0,1-4.18,1.44,8.31,8.31,0,0,1-1.69-.18,5,5,0,0,1-1.56-.6,3.43,3.43,0,0,1-1.16-1.08,3,3,0,0,1-.51-1.63h1.95a1.49,1.49,0,0,0,.34.9,2.35,2.35,0,0,0,.76.59,3.49,3.49,0,0,0,1,.34,5.23,5.23,0,0,0,1,.1,3.69,3.69,0,0,0,1.64-.33,3.07,3.07,0,0,0,1.1-.92,3.8,3.8,0,0,0,.63-1.41,8,8,0,0,0,.2-1.82v-.78h0a3.35,3.35,0,0,1-1.53,1.62,4.79,4.79,0,0,1-2.17.52,5.12,5.12,0,0,1-2.32-.49,4.83,4.83,0,0,1-1.66-1.3,5.65,5.65,0,0,1-1-1.9,8,8,0,0,1-.33-2.31,8.68,8.68,0,0,1,.28-2.17,5.85,5.85,0,0,1,.92-2,5,5,0,0,1,1.7-1.49,5.28,5.28,0,0,1,2.59-.59,4.4,4.4,0,0,1,2.07.5,3.44,3.44,0,0,1,1.47,1.48h0v-1.7h1.84v10.87A6.26,6.26,0,0,1,234,186.82Zm-2.49-5.35a3.22,3.22,0,0,0,1.09-1.05,4.72,4.72,0,0,0,.61-1.49,7.14,7.14,0,0,0,.19-1.65,6.62,6.62,0,0,0-.18-1.54,4.21,4.21,0,0,0-.59-1.37,3.06,3.06,0,0,0-1-1,3.16,3.16,0,0,0-1.56-.36,3.45,3.45,0,0,0-1.61.35,3.07,3.07,0,0,0-1.09,1,3.94,3.94,0,0,0-.62,1.38,6.68,6.68,0,0,0-.2,1.63,8.06,8.06,0,0,0,.16,1.61,4.75,4.75,0,0,0,.55,1.46,3.07,3.07,0,0,0,1,1.05,3,3,0,0,0,1.61.41A3.14,3.14,0,0,0,231.55,181.47Z"/><path class="cls-2" d="M243.4,171.58v1.72H241v7.38a2,2,0,0,0,.06.55.52.52,0,0,0,.21.32.92.92,0,0,0,.45.15,5.11,5.11,0,0,0,.75,0h.9v1.72h-1.5a7,7,0,0,1-1.3-.1,1.94,1.94,0,0,1-.87-.38,1.64,1.64,0,0,1-.49-.78,4.45,4.45,0,0,1-.16-1.34V173.3h-2v-1.72h2V168H241v3.56Z"/><path class="cls-2" d="M245.67,169.44v-2.39h2v2.39Zm2,2.14v11.88h-2V171.58Z"/><path class="cls-2" d="M259.57,186.82a5.43,5.43,0,0,1-4.18,1.44,8.31,8.31,0,0,1-1.69-.18,5.06,5.06,0,0,1-1.56-.6A3.52,3.52,0,0,1,251,186.4a3,3,0,0,1-.51-1.63h2a1.42,1.42,0,0,0,.33.9,2.47,2.47,0,0,0,.76.59,3.44,3.44,0,0,0,1,.34,5.08,5.08,0,0,0,1,.1,3.67,3.67,0,0,0,1.63-.33,3.07,3.07,0,0,0,1.1-.92,3.8,3.8,0,0,0,.63-1.41,8,8,0,0,0,.2-1.82v-.78H259a3.26,3.26,0,0,1-1.53,1.62,4.79,4.79,0,0,1-2.17.52,5.12,5.12,0,0,1-2.32-.49,4.7,4.7,0,0,1-1.65-1.3,5.31,5.31,0,0,1-1-1.9,7.64,7.64,0,0,1-.34-2.31,9.17,9.17,0,0,1,.28-2.17,5.85,5.85,0,0,1,.92-2,5.13,5.13,0,0,1,1.7-1.49,5.29,5.29,0,0,1,2.6-.59,4.4,4.4,0,0,1,2.07.5,3.56,3.56,0,0,1,1.47,1.48h0v-1.7h1.84v10.87A6.26,6.26,0,0,1,259.57,186.82Zm-2.49-5.35a3.13,3.13,0,0,0,1.09-1.05,4.72,4.72,0,0,0,.61-1.49,7.16,7.16,0,0,0,.2-1.65,6.13,6.13,0,0,0-.19-1.54,4.42,4.42,0,0,0-.58-1.37A2.93,2.93,0,0,0,255.6,173a3.45,3.45,0,0,0-1.61.35,3.07,3.07,0,0,0-1.09,1,3.94,3.94,0,0,0-.62,1.38,6.68,6.68,0,0,0-.2,1.63,8.87,8.87,0,0,0,.16,1.61,4.75,4.75,0,0,0,.55,1.46,3.07,3.07,0,0,0,1,1.05,3,3,0,0,0,1.61.41A3.14,3.14,0,0,0,257.08,181.47Z"/><path class="cls-2" d="M280.76,183.41a2.72,2.72,0,0,1-1.4.3,1.67,1.67,0,0,1-1.2-.42,1.86,1.86,0,0,1-.45-1.39,4.76,4.76,0,0,1-1.88,1.39,6.54,6.54,0,0,1-3.83.24,3.55,3.55,0,0,1-1.26-.57,2.85,2.85,0,0,1-.84-1,3.53,3.53,0,0,1-.31-1.53,3.48,3.48,0,0,1,.35-1.65,3,3,0,0,1,.91-1.05,4.33,4.33,0,0,1,1.28-.61c.49-.13,1-.25,1.49-.34a15.33,15.33,0,0,1,1.52-.24,8,8,0,0,0,1.28-.23,2.09,2.09,0,0,0,.87-.44,1,1,0,0,0,.33-.84,2,2,0,0,0-.25-1,1.62,1.62,0,0,0-.62-.6,2.3,2.3,0,0,0-.85-.27A5.82,5.82,0,0,0,275,173a4.09,4.09,0,0,0-2.07.47,2,2,0,0,0-.89,1.78h-2a4.25,4.25,0,0,1,.46-1.86,3.47,3.47,0,0,1,1.11-1.23,4.54,4.54,0,0,1,1.57-.68,8.19,8.19,0,0,1,1.9-.21,10.54,10.54,0,0,1,1.59.12,4.21,4.21,0,0,1,1.44.47,2.67,2.67,0,0,1,1,1,3.06,3.06,0,0,1,.39,1.67v6.1a4.06,4.06,0,0,0,.09,1c.05.21.23.32.54.32a2.13,2.13,0,0,0,.59-.11Zm-3.17-6.11a2.28,2.28,0,0,1-1,.4,11.82,11.82,0,0,1-1.26.21l-1.32.18a4.6,4.6,0,0,0-1.19.34,2.09,2.09,0,0,0-.86.65,1.8,1.8,0,0,0-.34,1.16,1.58,1.58,0,0,0,.2.82,1.73,1.73,0,0,0,.5.54,2.08,2.08,0,0,0,.73.3,4,4,0,0,0,.87.09,4.82,4.82,0,0,0,1.66-.26,3.47,3.47,0,0,0,1.12-.67,2.57,2.57,0,0,0,.64-.87,2.21,2.21,0,0,0,.21-.89Z"/><path class="cls-2" d="M284.35,171.58v2.5h0a5.35,5.35,0,0,1,1.75-2.13,4.39,4.39,0,0,1,2.62-.65v2.07a5.63,5.63,0,0,0-2,.32,3.12,3.12,0,0,0-1.33.95,3.91,3.91,0,0,0-.74,1.5,8.28,8.28,0,0,0-.23,2v5.29h-1.95V171.58Z"/><path class="cls-2" d="M289.54,175.08a5.69,5.69,0,0,1,1.11-2,5.14,5.14,0,0,1,1.81-1.32,6.57,6.57,0,0,1,5,0,5.19,5.19,0,0,1,1.8,1.32,5.52,5.52,0,0,1,1.1,2,7.81,7.81,0,0,1,.37,2.45,7.66,7.66,0,0,1-.37,2.44,5.47,5.47,0,0,1-1.1,2,5,5,0,0,1-1.8,1.31,6.83,6.83,0,0,1-5,0,5,5,0,0,1-1.81-1.31,5.65,5.65,0,0,1-1.11-2,8,8,0,0,1-.37-2.44A8.11,8.11,0,0,1,289.54,175.08Zm2,4.37a4,4,0,0,0,.79,1.4,3.25,3.25,0,0,0,1.19.86,3.58,3.58,0,0,0,2.87,0,3.21,3.21,0,0,0,1.18-.86,3.9,3.9,0,0,0,.8-1.4,6.72,6.72,0,0,0,0-3.84,4,4,0,0,0-.8-1.41,3.36,3.36,0,0,0-1.18-.87,3.58,3.58,0,0,0-2.87,0,3.39,3.39,0,0,0-1.19.87,4.18,4.18,0,0,0-.79,1.41,6.5,6.5,0,0,0,0,3.84Z"/><path class="cls-2" d="M304.85,171.58v1.75h0a4.33,4.33,0,0,1,3.84-2,4.39,4.39,0,0,1,2,.46,2.6,2.6,0,0,1,1.27,1.57,4,4,0,0,1,1.57-1.5,4.47,4.47,0,0,1,2.15-.53,6.19,6.19,0,0,1,1.62.2,3.27,3.27,0,0,1,1.24.61,2.72,2.72,0,0,1,.8,1.07,3.73,3.73,0,0,1,.29,1.57v8.71h-1.95v-7.79a5.56,5.56,0,0,0-.09-1,2,2,0,0,0-.35-.84,1.73,1.73,0,0,0-.7-.57,2.91,2.91,0,0,0-1.16-.2,3.07,3.07,0,0,0-2.27.82,3,3,0,0,0-.83,2.21v7.4h-2v-7.79a5,5,0,0,0-.1-1.06,2.28,2.28,0,0,0-.36-.84,1.66,1.66,0,0,0-.67-.55,2.68,2.68,0,0,0-1.1-.19,2.88,2.88,0,0,0-1.45.34,3.27,3.27,0,0,0-1,.83,3,3,0,0,0-.55,1,2.69,2.69,0,0,0-.18.86v7.4H303V171.58Z"/><path class="cls-2" d="M333.14,183.41a2.77,2.77,0,0,1-1.4.3,1.7,1.7,0,0,1-1.21-.42,1.86,1.86,0,0,1-.45-1.39,4.73,4.73,0,0,1-1.87,1.39,6.57,6.57,0,0,1-3.84.24,3.5,3.5,0,0,1-1.25-.57,2.85,2.85,0,0,1-.84-1,3.39,3.39,0,0,1-.31-1.53,3.48,3.48,0,0,1,.34-1.65,3.09,3.09,0,0,1,.91-1.05,4.51,4.51,0,0,1,1.29-.61c.48-.13,1-.25,1.48-.34s1.05-.19,1.53-.24a8.2,8.2,0,0,0,1.28-.23,2.23,2.23,0,0,0,.87-.44A1.08,1.08,0,0,0,330,175a2,2,0,0,0-.24-1,1.69,1.69,0,0,0-.62-.6,2.36,2.36,0,0,0-.85-.27,6,6,0,0,0-.93-.07,4.07,4.07,0,0,0-2.07.47,2,2,0,0,0-.9,1.78h-1.95a4.11,4.11,0,0,1,.46-1.86,3.44,3.44,0,0,1,1.1-1.23,4.59,4.59,0,0,1,1.58-.68,8.17,8.17,0,0,1,1.89-.21,10.67,10.67,0,0,1,1.6.12,4.21,4.21,0,0,1,1.44.47,2.74,2.74,0,0,1,1,1,3.15,3.15,0,0,1,.39,1.67v6.1a4.77,4.77,0,0,0,.08,1c.06.21.24.32.54.32a2.13,2.13,0,0,0,.6-.11ZM330,177.3a2.33,2.33,0,0,1-1,.4,11.63,11.63,0,0,1-1.25.21l-1.32.18a4.68,4.68,0,0,0-1.2.34,2.16,2.16,0,0,0-.86.65,1.86,1.86,0,0,0-.33,1.16,1.58,1.58,0,0,0,.19.82,1.65,1.65,0,0,0,.51.54,2.11,2.11,0,0,0,.72.3,4.17,4.17,0,0,0,.88.09,4.76,4.76,0,0,0,1.65-.26,3.52,3.52,0,0,0,1.13-.67,2.71,2.71,0,0,0,.64-.87,2.21,2.21,0,0,0,.21-.89Z"/><path class="cls-2" d="M341.07,175.08a5.52,5.52,0,0,1,1.1-2,5.18,5.18,0,0,1,1.82-1.32,6.55,6.55,0,0,1,5,0,5.23,5.23,0,0,1,1.81,1.32,5.67,5.67,0,0,1,1.1,2,8.11,8.11,0,0,1,.37,2.45,8,8,0,0,1-.37,2.44,5.63,5.63,0,0,1-1.1,2,5.08,5.08,0,0,1-1.81,1.31,6.8,6.8,0,0,1-5,0,5,5,0,0,1-1.82-1.31,5.47,5.47,0,0,1-1.1-2,7.66,7.66,0,0,1-.37-2.44A7.81,7.81,0,0,1,341.07,175.08Zm2,4.37a4,4,0,0,0,.8,1.4,3.21,3.21,0,0,0,1.18.86,3.58,3.58,0,0,0,2.87,0,3.25,3.25,0,0,0,1.19-.86,4,4,0,0,0,.79-1.4,6.5,6.5,0,0,0,0-3.84,4.18,4.18,0,0,0-.79-1.41,3.39,3.39,0,0,0-1.19-.87,3.58,3.58,0,0,0-2.87,0,3.36,3.36,0,0,0-1.18.87,4.19,4.19,0,0,0-.8,1.41,6.72,6.72,0,0,0,0,3.84Z"/><path class="cls-2" d="M363.45,186.82a5.44,5.44,0,0,1-4.18,1.44,8.24,8.24,0,0,1-1.69-.18,4.87,4.87,0,0,1-1.56-.6,3.43,3.43,0,0,1-1.16-1.08,3,3,0,0,1-.51-1.63h1.95a1.49,1.49,0,0,0,.34.9,2.35,2.35,0,0,0,.76.59,3.38,3.38,0,0,0,1,.34,5.16,5.16,0,0,0,1,.1,3.69,3.69,0,0,0,1.64-.33,3.07,3.07,0,0,0,1.1-.92,3.8,3.8,0,0,0,.63-1.41,8,8,0,0,0,.2-1.82v-.78h-.05a3.35,3.35,0,0,1-1.53,1.62,4.79,4.79,0,0,1-2.17.52,5.12,5.12,0,0,1-2.32-.49,4.83,4.83,0,0,1-1.66-1.3,5.65,5.65,0,0,1-1-1.9,8,8,0,0,1-.33-2.31,8.68,8.68,0,0,1,.28-2.17,5.85,5.85,0,0,1,.92-2,4.94,4.94,0,0,1,1.7-1.49,5.28,5.28,0,0,1,2.59-.59,4.4,4.4,0,0,1,2.07.5,3.44,3.44,0,0,1,1.47,1.48h0v-1.7h1.83v10.87A6.26,6.26,0,0,1,363.45,186.82ZM361,181.47a3.22,3.22,0,0,0,1.09-1.05,4.72,4.72,0,0,0,.61-1.49,7.14,7.14,0,0,0,.19-1.65,6.62,6.62,0,0,0-.18-1.54,4.21,4.21,0,0,0-.59-1.37,3.06,3.06,0,0,0-1-1,3.16,3.16,0,0,0-1.56-.36,3.45,3.45,0,0,0-1.61.35,3.07,3.07,0,0,0-1.09,1,4,4,0,0,0-.63,1.38,6.68,6.68,0,0,0-.19,1.63,8.06,8.06,0,0,0,.16,1.61,4.75,4.75,0,0,0,.55,1.46,3.07,3.07,0,0,0,1,1.05,2.92,2.92,0,0,0,1.6.41A3.15,3.15,0,0,0,361,181.47Z"/><path class="cls-2" d="M382.53,182.7a5.37,5.37,0,0,1-3.36,1,6,6,0,0,1-2.47-.46,4.82,4.82,0,0,1-1.76-1.28,5.55,5.55,0,0,1-1.07-2,9.83,9.83,0,0,1-.4-2.5,7.31,7.31,0,0,1,.41-2.49,6.12,6.12,0,0,1,1.16-1.95,5.39,5.39,0,0,1,1.77-1.29,5.55,5.55,0,0,1,2.25-.46,4.86,4.86,0,0,1,2.63.66,5.33,5.33,0,0,1,1.68,1.66,6.63,6.63,0,0,1,.87,2.21,9.58,9.58,0,0,1,.19,2.28h-8.89a4.52,4.52,0,0,0,.18,1.48,3.27,3.27,0,0,0,1.84,2.1,4,4,0,0,0,1.68.32,3.36,3.36,0,0,0,2-.57,2.79,2.79,0,0,0,1.05-1.75h1.93A4.78,4.78,0,0,1,382.53,182.7Zm-.48-7.63a3.28,3.28,0,0,0-.71-1.07,3.67,3.67,0,0,0-1-.71,3.49,3.49,0,0,0-1.35-.26,3.56,3.56,0,0,0-1.37.26,3.2,3.2,0,0,0-1,.73,3.47,3.47,0,0,0-.69,1.06,4,4,0,0,0-.3,1.3h6.83A4.19,4.19,0,0,0,382.05,175.07Z"/><path class="cls-2" d="M388.29,171.58v1.88h0a4.11,4.11,0,0,1,3.86-2.16,5.23,5.23,0,0,1,1.95.32,3.16,3.16,0,0,1,2,2.27,7.36,7.36,0,0,1,.19,1.76v7.81h-2v-8a2.23,2.23,0,0,0-2.42-2.39,4.09,4.09,0,0,0-1.55.27,3.1,3.1,0,0,0-1.09.78,3.36,3.36,0,0,0-.65,1.19,4.64,4.64,0,0,0-.22,1.48v6.71h-2V171.58Z"/><path class="cls-2" d="M407.12,180.81a2,2,0,0,0,.72.71,3.3,3.3,0,0,0,1,.38A6.34,6.34,0,0,0,410,182a6.61,6.61,0,0,0,1-.07,3.54,3.54,0,0,0,.93-.25,1.77,1.77,0,0,0,.7-.54,1.47,1.47,0,0,0,.27-.91,1.32,1.32,0,0,0-.57-1.15,4.8,4.8,0,0,0-1.44-.63c-.57-.16-1.2-.3-1.87-.43a9.49,9.49,0,0,1-1.87-.56,3.73,3.73,0,0,1-1.44-1,2.58,2.58,0,0,1-.57-1.79,2.83,2.83,0,0,1,.4-1.54,3.2,3.2,0,0,1,1-1,4.7,4.7,0,0,1,1.43-.6,6.56,6.56,0,0,1,1.57-.2,8.89,8.89,0,0,1,1.86.18,4.3,4.3,0,0,1,1.51.59,3.12,3.12,0,0,1,1,1.15,4.19,4.19,0,0,1,.46,1.81h-1.95a2,2,0,0,0-.3-1,2.07,2.07,0,0,0-.64-.61,3.07,3.07,0,0,0-.86-.33,4.41,4.41,0,0,0-1-.1,5.3,5.3,0,0,0-.88.07,2.69,2.69,0,0,0-.82.24,1.6,1.6,0,0,0-.59.46,1.12,1.12,0,0,0-.24.74,1.09,1.09,0,0,0,.36.84,2.8,2.8,0,0,0,.91.55,7.58,7.58,0,0,0,1.24.37l1.38.31q.74.16,1.44.39a5.12,5.12,0,0,1,1.24.61,3,3,0,0,1,.87,1A2.79,2.79,0,0,1,415,180a3.22,3.22,0,0,1-1.62,2.94,4.75,4.75,0,0,1-1.63.61,9.21,9.21,0,0,1-1.8.17,8.9,8.9,0,0,1-1.89-.2,4.79,4.79,0,0,1-1.58-.68,3.59,3.59,0,0,1-1.11-1.24,4.38,4.38,0,0,1-.46-1.88h2A2.12,2.12,0,0,0,407.12,180.81Z"/><path class="cls-2" d="M419,171.58v1.75H419a4.33,4.33,0,0,1,3.84-2,4.42,4.42,0,0,1,2,.46,2.62,2.62,0,0,1,1.26,1.57,4.11,4.11,0,0,1,1.57-1.5,4.5,4.5,0,0,1,2.15-.53,6.19,6.19,0,0,1,1.62.2,3.2,3.2,0,0,1,1.24.61,2.65,2.65,0,0,1,.81,1.07,3.89,3.89,0,0,1,.29,1.57v8.71h-2v-7.79a5.56,5.56,0,0,0-.09-1,2.12,2.12,0,0,0-.34-.84,1.76,1.76,0,0,0-.71-.57,2.88,2.88,0,0,0-1.16-.2,3.07,3.07,0,0,0-2.27.82,3,3,0,0,0-.83,2.21v7.4h-1.95v-7.79a5,5,0,0,0-.11-1.06,2.26,2.26,0,0,0-.35-.84,1.76,1.76,0,0,0-.68-.55,2.63,2.63,0,0,0-1.09-.19,2.89,2.89,0,0,0-1.46.34,3.27,3.27,0,0,0-1,.83,3.19,3.19,0,0,0-.55,1,2.64,2.64,0,0,0-.17.86v7.4h-2V171.58Z"/><path class="cls-2" d="M444.71,183.46v-1.88h0a4.07,4.07,0,0,1-1.59,1.62,4.78,4.78,0,0,1-2.27.51,5.34,5.34,0,0,1-2-.31,3.05,3.05,0,0,1-1.26-.88,3.33,3.33,0,0,1-.68-1.37,7.36,7.36,0,0,1-.19-1.76v-7.81h1.95v8a2.36,2.36,0,0,0,.64,1.75,2.39,2.39,0,0,0,1.77.64,4,4,0,0,0,1.55-.27,3.05,3.05,0,0,0,1.1-.78,3.36,3.36,0,0,0,.65-1.19,4.64,4.64,0,0,0,.22-1.48v-6.71h1.95v11.88Z"/><path class="cls-2" d="M451.56,167.05v9.72l5.43-5.19h2.62l-4.71,4.32,5.05,7.56h-2.48l-4.07-6.2-1.84,1.7v4.5h-1.95V167.05Z"/><path class="cls-2" d="M476.73,186.82a5.44,5.44,0,0,1-4.18,1.44,8.16,8.16,0,0,1-1.69-.18,5,5,0,0,1-1.57-.6,3.62,3.62,0,0,1-1.16-1.08,3.11,3.11,0,0,1-.5-1.63h1.95a1.49,1.49,0,0,0,.34.9,2.31,2.31,0,0,0,.75.59,3.56,3.56,0,0,0,1,.34,5.16,5.16,0,0,0,1,.1,3.64,3.64,0,0,0,1.63-.33,3.1,3.1,0,0,0,1.11-.92A3.8,3.8,0,0,0,476,184a8,8,0,0,0,.19-1.82v-.78h0a3.35,3.35,0,0,1-1.53,1.62,4.82,4.82,0,0,1-2.17.52,5.09,5.09,0,0,1-2.32-.49,4.83,4.83,0,0,1-1.66-1.3,5.48,5.48,0,0,1-1-1.9,8,8,0,0,1-.33-2.31,9.14,9.14,0,0,1,.27-2.17,6,6,0,0,1,.92-2,5.13,5.13,0,0,1,1.7-1.49,5.32,5.32,0,0,1,2.6-.59,4.4,4.4,0,0,1,2.07.5,3.44,3.44,0,0,1,1.47,1.48h0v-1.7h1.84v10.87A6.26,6.26,0,0,1,476.73,186.82Zm-2.49-5.35a3.22,3.22,0,0,0,1.09-1.05,5,5,0,0,0,.61-1.49,7.14,7.14,0,0,0,.19-1.65,6.62,6.62,0,0,0-.18-1.54,4.44,4.44,0,0,0-.59-1.37,3.25,3.25,0,0,0-1-1,3.17,3.17,0,0,0-1.57-.36,3.48,3.48,0,0,0-1.61.35,3.25,3.25,0,0,0-1.09,1,4.13,4.13,0,0,0-.62,1.38,6.68,6.68,0,0,0-.19,1.63,8.06,8.06,0,0,0,.16,1.61,4.5,4.5,0,0,0,.55,1.46,3,3,0,0,0,1,1.05,3,3,0,0,0,1.61.41A3.18,3.18,0,0,0,474.24,181.47Z"/><path class="cls-2" d="M485.67,185.05a13.08,13.08,0,0,1-.68,1.47,3.81,3.81,0,0,1-.74,1,2.39,2.39,0,0,1-.89.56,3.6,3.6,0,0,1-1.14.17,5.34,5.34,0,0,1-.69-.05,2.89,2.89,0,0,1-.66-.16v-1.79a3.29,3.29,0,0,0,.58.19,2.14,2.14,0,0,0,.56.08,1.66,1.66,0,0,0,1-.28,1.71,1.71,0,0,0,.61-.82l.81-2-4.71-11.81h2.2l3.47,9.72h.05l3.33-9.72h2.07Z"/><path class="cls-2" d="M494.56,167.05v16.41h-1.95V167.05Z"/><path class="cls-2" d="M506.26,183.46v-1.61h-.05a2.85,2.85,0,0,1-1.51,1.43,5.83,5.83,0,0,1-2.28.43,5.44,5.44,0,0,1-2.4-.5,5,5,0,0,1-1.7-1.36,5.85,5.85,0,0,1-1-2,8.18,8.18,0,0,1-.35-2.39,8.08,8.08,0,0,1,.34-2.39,5.41,5.41,0,0,1,1-2,4.87,4.87,0,0,1,1.7-1.33,5.38,5.38,0,0,1,2.38-.5,5,5,0,0,1,1,.1,4.57,4.57,0,0,1,1.06.31,4.16,4.16,0,0,1,1,.57,3,3,0,0,1,.79.89h.05v-6.12h1.95v16.41Zm-7-4.22a4.32,4.32,0,0,0,.67,1.42,3.31,3.31,0,0,0,1.14,1,3.58,3.58,0,0,0,1.65.36,3.37,3.37,0,0,0,1.68-.39,3.43,3.43,0,0,0,1.12-1,4.26,4.26,0,0,0,.63-1.44,6.82,6.82,0,0,0,0-3.32,4.16,4.16,0,0,0-.65-1.43,3.31,3.31,0,0,0-1.16-1,3.57,3.57,0,0,0-1.73-.38,3.33,3.33,0,0,0-1.67.39,3.14,3.14,0,0,0-1.11,1,4.58,4.58,0,0,0-.59,1.47,7.38,7.38,0,0,0-.19,1.7A5.92,5.92,0,0,0,499.24,179.24Z"/><path class="cls-2" d="M519.64,182.7a5.37,5.37,0,0,1-3.36,1,6,6,0,0,1-2.47-.46,4.82,4.82,0,0,1-1.76-1.28,5.55,5.55,0,0,1-1.07-2,9.83,9.83,0,0,1-.4-2.5A7.31,7.31,0,0,1,511,175a6.12,6.12,0,0,1,1.16-1.95,5.39,5.39,0,0,1,1.77-1.29,5.55,5.55,0,0,1,2.25-.46,4.86,4.86,0,0,1,2.63.66,5.19,5.19,0,0,1,1.67,1.66,6.44,6.44,0,0,1,.88,2.21,9.58,9.58,0,0,1,.19,2.28h-8.89a4.52,4.52,0,0,0,.18,1.48,3.27,3.27,0,0,0,1.84,2.1,4,4,0,0,0,1.68.32,3.39,3.39,0,0,0,2-.57,2.79,2.79,0,0,0,1-1.75h1.93A4.78,4.78,0,0,1,519.64,182.7Zm-.48-7.63a3.28,3.28,0,0,0-.71-1.07,3.58,3.58,0,0,0-1.06-.71,3.41,3.41,0,0,0-1.34-.26,3.52,3.52,0,0,0-1.37.26,3.2,3.2,0,0,0-1,.73,3.47,3.47,0,0,0-.69,1.06,4,4,0,0,0-.3,1.3h6.82A3.92,3.92,0,0,0,519.16,175.07Z"/><path class="cls-2" d="M525.4,171.58v1.88h.05a4.11,4.11,0,0,1,3.86-2.16,5.23,5.23,0,0,1,2,.32,3.16,3.16,0,0,1,2,2.27,7.36,7.36,0,0,1,.19,1.76v7.81h-1.95v-8A2.23,2.23,0,0,0,529,173a4.09,4.09,0,0,0-1.55.27,3.1,3.1,0,0,0-1.09.78,3.36,3.36,0,0,0-.65,1.19,4.64,4.64,0,0,0-.22,1.48v6.71h-2V171.58Z"/><path class="cls-2" d="M145.87,200.88v-1.72h2v-1.77a2.79,2.79,0,0,1,.84-2.2,3.62,3.62,0,0,1,2.45-.74,5.06,5.06,0,0,1,.63,0,3.28,3.28,0,0,1,.63.14v1.7a2.33,2.33,0,0,0-.55-.12,3.65,3.65,0,0,0-.55,0,1.83,1.83,0,0,0-1.1.28,1.2,1.2,0,0,0-.39,1.05v1.66h2.29v1.72h-2.29V211h-2V200.88Z"/><path class="cls-2" d="M164.4,211a2.79,2.79,0,0,1-1.41.3,1.69,1.69,0,0,1-1.2-.42,1.86,1.86,0,0,1-.45-1.39,4.8,4.8,0,0,1-1.87,1.39,6.57,6.57,0,0,1-3.84.24,3.51,3.51,0,0,1-1.25-.58,2.63,2.63,0,0,1-.84-1,3.39,3.39,0,0,1-.31-1.53,3.48,3.48,0,0,1,.34-1.65,3,3,0,0,1,.91-1.05,4,4,0,0,1,1.29-.61c.48-.13,1-.25,1.48-.34s1-.19,1.53-.24a9.4,9.4,0,0,0,1.27-.23,2.2,2.2,0,0,0,.88-.44,1.08,1.08,0,0,0,.32-.84,1.94,1.94,0,0,0-.24-1,1.69,1.69,0,0,0-.62-.6,2.66,2.66,0,0,0-.85-.28,7.54,7.54,0,0,0-.94-.06,4.05,4.05,0,0,0-2.06.47,2,2,0,0,0-.9,1.78h-1.95a4.11,4.11,0,0,1,.46-1.86,3.35,3.35,0,0,1,1.1-1.23,4.54,4.54,0,0,1,1.57-.68,8.19,8.19,0,0,1,1.9-.21,10.67,10.67,0,0,1,1.6.12,4,4,0,0,1,1.43.47,2.74,2.74,0,0,1,1,1,3.21,3.21,0,0,1,.39,1.68v6.1a4.84,4.84,0,0,0,.08,1c.05.21.23.32.54.32a1.87,1.87,0,0,0,.6-.12Zm-3.18-6.11a2.36,2.36,0,0,1-1,.4,12.06,12.06,0,0,1-1.25.21q-.66.07-1.32.18a4.57,4.57,0,0,0-1.2.34,2.16,2.16,0,0,0-.86.65,1.86,1.86,0,0,0-.34,1.16,1.61,1.61,0,0,0,.2.82,1.65,1.65,0,0,0,.51.54,2,2,0,0,0,.72.3,4.14,4.14,0,0,0,.87.09,4.55,4.55,0,0,0,1.66-.27,3.29,3.29,0,0,0,1.12-.66,2.54,2.54,0,0,0,.65-.88,2.11,2.11,0,0,0,.2-.88Z"/><path class="cls-2" d="M168,199.16v2.5H168a5.25,5.25,0,0,1,1.74-2.13,4.41,4.41,0,0,1,2.62-.65V201a5.67,5.67,0,0,0-2,.32,3.25,3.25,0,0,0-1.33.94,3.87,3.87,0,0,0-.73,1.51,7.82,7.82,0,0,0-.23,2V211h-2V199.16Z"/><path class="cls-2" d="M177.13,211l-4.42-11.88h2.19l3.33,9.9h.05l3.24-9.9h2L179.22,211Z"/><path class="cls-2" d="M193.77,210.28a5.37,5.37,0,0,1-3.36,1,6,6,0,0,1-2.47-.46,4.82,4.82,0,0,1-1.76-1.28,5.64,5.64,0,0,1-1.07-2,9.84,9.84,0,0,1-.4-2.51,7.05,7.05,0,0,1,.42-2.48,5.78,5.78,0,0,1,1.16-2,5.19,5.19,0,0,1,1.77-1.29,5.47,5.47,0,0,1,2.24-.46,4.86,4.86,0,0,1,2.63.66,5.33,5.33,0,0,1,1.68,1.66,6.63,6.63,0,0,1,.87,2.21,9,9,0,0,1,.19,2.28h-8.89a4.81,4.81,0,0,0,.18,1.48,3.4,3.4,0,0,0,.67,1.24,3.3,3.3,0,0,0,1.17.86,4,4,0,0,0,1.68.32,3.36,3.36,0,0,0,2-.57,2.81,2.81,0,0,0,1.05-1.75h1.93A4.73,4.73,0,0,1,193.77,210.28Zm-.47-7.63a3.47,3.47,0,0,0-.72-1.07,3.36,3.36,0,0,0-1.05-.71,3.32,3.32,0,0,0-1.35-.26,3.38,3.38,0,0,0-1.37.26,3.34,3.34,0,0,0-1,.72,3.64,3.64,0,0,0-.69,1.07,4,4,0,0,0-.3,1.3h6.83A4.18,4.18,0,0,0,193.3,202.65Z"/><path class="cls-2" d="M200.68,208.49V211h-2.55v-2.55Z"/><path class="cls-2" d="M216.43,194.63a8.16,8.16,0,0,1,5.83,1.93q2.06,1.94,2.05,5.88a13.15,13.15,0,0,1-.46,3.67,6.81,6.81,0,0,1-1.43,2.69,6.22,6.22,0,0,1-2.45,1.67,10,10,0,0,1-3.54.57H210.8V194.63Zm.18,14.57a8.91,8.91,0,0,0,.92-.06,4.91,4.91,0,0,0,1.17-.27,5.73,5.73,0,0,0,1.23-.63,4.21,4.21,0,0,0,1.09-1.13,6.4,6.4,0,0,0,.8-1.78,9.67,9.67,0,0,0,.31-2.59,11.08,11.08,0,0,0-.29-2.63,5.08,5.08,0,0,0-.94-2,4.18,4.18,0,0,0-1.69-1.25,6.8,6.8,0,0,0-2.55-.42H213V209.2Z"/><path class="cls-2" d="M235.07,210.28a5.37,5.37,0,0,1-3.36,1,6,6,0,0,1-2.47-.46,4.82,4.82,0,0,1-1.76-1.28,5.64,5.64,0,0,1-1.07-2,9.42,9.42,0,0,1-.4-2.51,7.29,7.29,0,0,1,.41-2.48,6.12,6.12,0,0,1,1.16-2,5.39,5.39,0,0,1,1.77-1.29,5.54,5.54,0,0,1,2.24-.46,4.88,4.88,0,0,1,2.64.66,5.19,5.19,0,0,1,1.67,1.66,6.44,6.44,0,0,1,.88,2.21,9.53,9.53,0,0,1,.19,2.28h-8.89a4.52,4.52,0,0,0,.18,1.48,3.4,3.4,0,0,0,.67,1.24,3.3,3.3,0,0,0,1.17.86,4,4,0,0,0,1.68.32,3.39,3.39,0,0,0,2-.57,2.81,2.81,0,0,0,1.05-1.75h1.93A4.78,4.78,0,0,1,235.07,210.28Zm-.48-7.63a3.28,3.28,0,0,0-.71-1.07,3.4,3.4,0,0,0-1.06-.71,3.24,3.24,0,0,0-1.34-.26,3.2,3.2,0,0,0-2.41,1,3.64,3.64,0,0,0-.69,1.07,4,4,0,0,0-.3,1.3h6.82A3.92,3.92,0,0,0,234.59,202.65Z"/><path class="cls-2" d="M244.07,199.16v1.72h-2.36v7.38a2.64,2.64,0,0,0,0,.55.58.58,0,0,0,.22.32.92.92,0,0,0,.45.15,7,7,0,0,0,.75,0h.89V211h-1.49a6.94,6.94,0,0,1-1.3-.1,1.94,1.94,0,0,1-.87-.38,1.73,1.73,0,0,1-.5-.78,4.85,4.85,0,0,1-.16-1.34v-7.56h-2v-1.72h2V195.6h2v3.56Z"/><path class="cls-2" d="M261,210.28a5.34,5.34,0,0,1-3.35,1,6,6,0,0,1-2.47-.46,4.74,4.74,0,0,1-1.76-1.28,5.48,5.48,0,0,1-1.07-2,9.42,9.42,0,0,1-.4-2.51,7.29,7.29,0,0,1,.41-2.48,5.94,5.94,0,0,1,1.16-2,5.39,5.39,0,0,1,1.77-1.29,5.5,5.5,0,0,1,2.24-.46,4.88,4.88,0,0,1,2.64.66,5.19,5.19,0,0,1,1.67,1.66,6.87,6.87,0,0,1,.88,2.21,9.53,9.53,0,0,1,.19,2.28h-8.89a4.52,4.52,0,0,0,.18,1.48,3.4,3.4,0,0,0,.67,1.24,3.13,3.13,0,0,0,1.17.86,3.94,3.94,0,0,0,1.68.32,3.41,3.41,0,0,0,2-.57,2.81,2.81,0,0,0,1.05-1.75h1.93A4.74,4.74,0,0,1,261,210.28Zm-.47-7.63a3.28,3.28,0,0,0-.71-1.07,3.4,3.4,0,0,0-1.06-.71,3.24,3.24,0,0,0-1.34-.26,3.35,3.35,0,0,0-1.37.26,3.22,3.22,0,0,0-1,.72,3.28,3.28,0,0,0-.69,1.07,4,4,0,0,0-.3,1.3h6.82A3.92,3.92,0,0,0,260.56,202.65Z"/><path class="cls-2" d="M266.73,199.16v2.5h0a5.27,5.27,0,0,1,1.75-2.13,4.37,4.37,0,0,1,2.62-.65V201a5.59,5.59,0,0,0-2,.32,3.22,3.22,0,0,0-1.34.94,4,4,0,0,0-.73,1.51,7.82,7.82,0,0,0-.23,2V211h-2V199.16Z"/><path class="cls-2" d="M287.42,210.28a5.37,5.37,0,0,1-3.36,1,6,6,0,0,1-2.47-.46,4.82,4.82,0,0,1-1.76-1.28,5.64,5.64,0,0,1-1.07-2,9.84,9.84,0,0,1-.4-2.51,7.05,7.05,0,0,1,.42-2.48,5.78,5.78,0,0,1,1.16-2,5.19,5.19,0,0,1,1.77-1.29,5.47,5.47,0,0,1,2.24-.46,4.86,4.86,0,0,1,2.63.66,5.33,5.33,0,0,1,1.68,1.66,6.63,6.63,0,0,1,.87,2.21,9.53,9.53,0,0,1,.19,2.28h-8.89a4.81,4.81,0,0,0,.18,1.48,3.4,3.4,0,0,0,.67,1.24,3.3,3.3,0,0,0,1.17.86,4,4,0,0,0,1.68.32,3.36,3.36,0,0,0,2-.57,2.81,2.81,0,0,0,1-1.75h1.93A4.78,4.78,0,0,1,287.42,210.28Zm-.47-7.63a3.35,3.35,0,0,0-1.77-1.78,3.32,3.32,0,0,0-1.35-.26,3.38,3.38,0,0,0-1.37.26,3.34,3.34,0,0,0-1,.72,3.64,3.64,0,0,0-.69,1.07,4,4,0,0,0-.3,1.3h6.83A4.48,4.48,0,0,0,287,202.65Z"/><path class="cls-2" d="M293.18,199.16V201h.05a4.11,4.11,0,0,1,3.86-2.16,5.23,5.23,0,0,1,2,.32,3.25,3.25,0,0,1,1.27.9,3.33,3.33,0,0,1,.68,1.37,7.36,7.36,0,0,1,.19,1.76V211h-1.95v-8a2.23,2.23,0,0,0-2.41-2.39,4.11,4.11,0,0,0-1.56.27,3.1,3.1,0,0,0-1.09.78,3.36,3.36,0,0,0-.65,1.19,4.64,4.64,0,0,0-.22,1.48V211h-1.95V199.16Z"/><path class="cls-2" d="M312.58,194.63V211h-1.95V194.63Z"/><path class="cls-2" d="M324,210.28a5.37,5.37,0,0,1-3.36,1,6,6,0,0,1-2.47-.46,4.82,4.82,0,0,1-1.76-1.28,5.64,5.64,0,0,1-1.07-2,9.84,9.84,0,0,1-.4-2.51,7.29,7.29,0,0,1,.41-2.48,6.12,6.12,0,0,1,1.16-2,5.39,5.39,0,0,1,1.77-1.29,5.55,5.55,0,0,1,2.25-.46,4.86,4.86,0,0,1,2.63.66,5.33,5.33,0,0,1,1.68,1.66,6.63,6.63,0,0,1,.87,2.21,9.53,9.53,0,0,1,.19,2.28H317a4.52,4.52,0,0,0,.18,1.48,3.4,3.4,0,0,0,.67,1.24,3.3,3.3,0,0,0,1.17.86,4,4,0,0,0,1.68.32,3.36,3.36,0,0,0,2-.57,2.81,2.81,0,0,0,1.05-1.75h1.93A4.78,4.78,0,0,1,324,210.28Zm-.48-7.63a3.28,3.28,0,0,0-.71-1.07,3.47,3.47,0,0,0-1-.71,3.32,3.32,0,0,0-1.35-.26,3.38,3.38,0,0,0-1.37.26,3.34,3.34,0,0,0-1,.72,3.64,3.64,0,0,0-.69,1.07,4,4,0,0,0-.3,1.3h6.83A4.19,4.19,0,0,0,323.55,202.65Z"/><path class="cls-2" d="M333,199.16v1.72h-2.36v7.38a2.64,2.64,0,0,0,.05.55.58.58,0,0,0,.22.32.92.92,0,0,0,.45.15,7,7,0,0,0,.75,0H333V211h-1.49a7,7,0,0,1-1.3-.1,1.94,1.94,0,0,1-.87-.38,1.64,1.64,0,0,1-.49-.78,4.46,4.46,0,0,1-.17-1.34v-7.56h-2v-1.72h2V195.6h2v3.56Z"/><path class="cls-2" d="M350.25,211v-1.61h-.05a2.87,2.87,0,0,1-1.52,1.43,5.74,5.74,0,0,1-2.27.43,5.44,5.44,0,0,1-2.4-.5,5,5,0,0,1-1.7-1.36,6,6,0,0,1-1-2,8.19,8.19,0,0,1-.34-2.4,8.52,8.52,0,0,1,.33-2.39,5.78,5.78,0,0,1,1-2,5,5,0,0,1,1.7-1.33,5.44,5.44,0,0,1,2.38-.5,5.87,5.87,0,0,1,1,.09,6.06,6.06,0,0,1,1.06.31,4.81,4.81,0,0,1,1,.58,3.18,3.18,0,0,1,.79.88h.05v-6.11h1.95V211Zm-7-4.22a4.3,4.3,0,0,0,.66,1.42,3.22,3.22,0,0,0,1.15,1,3.46,3.46,0,0,0,1.65.37,3.24,3.24,0,0,0,2.8-1.41,4.26,4.26,0,0,0,.63-1.44,6.82,6.82,0,0,0,0-3.32,4.17,4.17,0,0,0-.66-1.43,3.14,3.14,0,0,0-1.16-1,3.53,3.53,0,0,0-1.72-.38,3.37,3.37,0,0,0-1.68.39,3.11,3.11,0,0,0-1.1,1,4.38,4.38,0,0,0-.6,1.47,8,8,0,0,0-.18,1.7A5.92,5.92,0,0,0,343.23,206.82Z"/><path class="cls-2" d="M357,199.16v2.5h0a5.25,5.25,0,0,1,1.74-2.13,4.41,4.41,0,0,1,2.62-.65V201a5.67,5.67,0,0,0-2,.32,3.25,3.25,0,0,0-1.33.94,3.87,3.87,0,0,0-.73,1.51,7.82,7.82,0,0,0-.23,2V211h-2V199.16Z"/><path class="cls-2" d="M363,197v-2.39h1.95V197Zm1.95,2.14V211H363V199.16Z"/><path class="cls-2" d="M370,194.63v9.72l5.43-5.19h2.62l-4.71,4.32,5.05,7.56h-2.48l-4.07-6.21L370,206.54V211h-1.95V194.63Z"/><path class="cls-2" d="M382,194.63v9.72l5.43-5.19H390l-4.72,4.32,5.06,7.56h-2.48l-4.07-6.21L382,206.54V211H380V194.63Z"/><path class="cls-2" d="M400.23,210.28a5.34,5.34,0,0,1-3.35,1,6,6,0,0,1-2.47-.46,4.74,4.74,0,0,1-1.76-1.28,5.48,5.48,0,0,1-1.07-2,9.42,9.42,0,0,1-.4-2.51,7.29,7.29,0,0,1,.41-2.48,5.94,5.94,0,0,1,1.16-2,5.39,5.39,0,0,1,1.77-1.29,5.5,5.5,0,0,1,2.24-.46,4.82,4.82,0,0,1,2.63.66,5.13,5.13,0,0,1,1.68,1.66,6.87,6.87,0,0,1,.88,2.21,9.53,9.53,0,0,1,.19,2.28h-8.89a4.52,4.52,0,0,0,.18,1.48,3.4,3.4,0,0,0,.67,1.24,3.13,3.13,0,0,0,1.17.86,3.94,3.94,0,0,0,1.68.32,3.41,3.41,0,0,0,2-.57,2.81,2.81,0,0,0,1-1.75H402A4.74,4.74,0,0,1,400.23,210.28Zm-.47-7.63a3.28,3.28,0,0,0-.71-1.07,3.4,3.4,0,0,0-1.06-.71,3.24,3.24,0,0,0-1.34-.26,3.25,3.25,0,0,0-2.42,1,3.64,3.64,0,0,0-.69,1.07,4.32,4.32,0,0,0-.29,1.3h6.82A3.92,3.92,0,0,0,399.76,202.65Z"/><path class="cls-2" d="M406.23,194.63V211h-2V194.63Z"/><path class="cls-2" d="M409.38,197v-2.39h1.95V197Zm1.95,2.14V211h-1.95V199.16Z"/><path class="cls-2" d="M423.28,214.4a5.44,5.44,0,0,1-4.18,1.44,8.31,8.31,0,0,1-1.69-.18,5,5,0,0,1-1.56-.6,3.43,3.43,0,0,1-1.16-1.08,3,3,0,0,1-.51-1.63h1.95a1.49,1.49,0,0,0,.34.9,2.35,2.35,0,0,0,.76.59,3.49,3.49,0,0,0,1,.34,5.23,5.23,0,0,0,1,.1,3.69,3.69,0,0,0,1.64-.33A3.17,3.17,0,0,0,422,213a3.77,3.77,0,0,0,.63-1.42,7.84,7.84,0,0,0,.2-1.81V209h0a3.35,3.35,0,0,1-1.53,1.62,4.79,4.79,0,0,1-2.17.52,5.25,5.25,0,0,1-2.32-.49,4.83,4.83,0,0,1-1.66-1.3,5.75,5.75,0,0,1-1-1.9,8,8,0,0,1-.33-2.31A8.81,8.81,0,0,1,414,203a5.89,5.89,0,0,1,.92-2,5,5,0,0,1,1.7-1.49,5.28,5.28,0,0,1,2.59-.59,4.4,4.4,0,0,1,2.07.5,3.44,3.44,0,0,1,1.47,1.48h0v-1.7h1.84V210A6.28,6.28,0,0,1,423.28,214.4Zm-2.49-5.35a3.32,3.32,0,0,0,1.09-1.05,4.82,4.82,0,0,0,.61-1.49,7.14,7.14,0,0,0,.19-1.65,6.62,6.62,0,0,0-.18-1.54,4.42,4.42,0,0,0-.58-1.37,3.08,3.08,0,0,0-1.05-1,3.16,3.16,0,0,0-1.56-.36,3.33,3.33,0,0,0-1.61.35,3.07,3.07,0,0,0-1.09,1,3.82,3.82,0,0,0-.62,1.37,6.82,6.82,0,0,0-.2,1.64,8.06,8.06,0,0,0,.16,1.61,4.75,4.75,0,0,0,.55,1.46,3.16,3.16,0,0,0,1,1.05,3,3,0,0,0,1.61.4A3.14,3.14,0,0,0,420.79,209.05Z"/><path class="cls-2" d="M433.67,202.66a5.58,5.58,0,0,1,1.1-2,5.18,5.18,0,0,1,1.82-1.32,6.55,6.55,0,0,1,5,0,5.14,5.14,0,0,1,1.81,1.32,5.43,5.43,0,0,1,1.1,2,7.81,7.81,0,0,1,.37,2.45,7.7,7.7,0,0,1-.37,2.44,5.47,5.47,0,0,1-1.1,2,5,5,0,0,1-1.81,1.31,6.8,6.8,0,0,1-5,0,5,5,0,0,1-1.82-1.31,5.63,5.63,0,0,1-1.1-2,7.7,7.7,0,0,1-.37-2.44A7.81,7.81,0,0,1,433.67,202.66Zm2,4.37a3.88,3.88,0,0,0,.79,1.4,3.42,3.42,0,0,0,1.18.86,3.61,3.61,0,0,0,2.88,0,3.42,3.42,0,0,0,1.18-.86,3.88,3.88,0,0,0,.79-1.4,6.5,6.5,0,0,0,0-3.84,4,4,0,0,0-.79-1.41,3.32,3.32,0,0,0-1.18-.87,3.61,3.61,0,0,0-2.88,0,3.32,3.32,0,0,0-1.18.87,4,4,0,0,0-.79,1.41,6.5,6.5,0,0,0,0,3.84Z"/><path class="cls-2" d="M456.05,214.4a5.43,5.43,0,0,1-4.18,1.44,8.31,8.31,0,0,1-1.69-.18,5.06,5.06,0,0,1-1.56-.6,3.43,3.43,0,0,1-1.16-1.08,3,3,0,0,1-.51-1.63h2a1.42,1.42,0,0,0,.33.9,2.47,2.47,0,0,0,.76.59,3.49,3.49,0,0,0,1,.34,5.26,5.26,0,0,0,1,.1,3.67,3.67,0,0,0,1.63-.33,3.17,3.17,0,0,0,1.1-.92,3.77,3.77,0,0,0,.63-1.42,7.84,7.84,0,0,0,.2-1.81V209h-.05a3.26,3.26,0,0,1-1.53,1.62,4.79,4.79,0,0,1-2.17.52,5.25,5.25,0,0,1-2.32-.49,4.7,4.7,0,0,1-1.65-1.3,5.4,5.4,0,0,1-1-1.9,7.64,7.64,0,0,1-.34-2.31,8.81,8.81,0,0,1,.28-2.18,5.89,5.89,0,0,1,.92-2,5,5,0,0,1,1.7-1.49,5.29,5.29,0,0,1,2.6-.59,4.33,4.33,0,0,1,2.06.5,3.52,3.52,0,0,1,1.48,1.48h0v-1.7h1.84V210A6.28,6.28,0,0,1,456.05,214.4Zm-2.49-5.35a3.22,3.22,0,0,0,1.09-1.05,4.82,4.82,0,0,0,.61-1.49,7.16,7.16,0,0,0,.2-1.65,6.13,6.13,0,0,0-.19-1.54,4.42,4.42,0,0,0-.58-1.37,3.08,3.08,0,0,0-1.05-1,3.16,3.16,0,0,0-1.56-.36,3.33,3.33,0,0,0-1.61.35,3.07,3.07,0,0,0-1.09,1,3.82,3.82,0,0,0-.62,1.37,6.82,6.82,0,0,0-.2,1.64,8.87,8.87,0,0,0,.16,1.61,4.75,4.75,0,0,0,.55,1.46,3.16,3.16,0,0,0,1,1.05,3,3,0,0,0,1.61.4A3.14,3.14,0,0,0,453.56,209.05Z"/><path class="cls-2" d="M468.21,208.39a2.22,2.22,0,0,0,.72.71,3.54,3.54,0,0,0,1,.38,6.25,6.25,0,0,0,1.16.11,6.58,6.58,0,0,0,1-.07,3.34,3.34,0,0,0,.93-.25,1.64,1.64,0,0,0,.7-.54,1.41,1.41,0,0,0,.28-.91,1.3,1.3,0,0,0-.58-1.15A4.85,4.85,0,0,0,472,206c-.58-.16-1.2-.3-1.87-.44a9.59,9.59,0,0,1-1.88-.55,3.77,3.77,0,0,1-1.43-1,2.55,2.55,0,0,1-.58-1.79,2.92,2.92,0,0,1,.4-1.54,3.23,3.23,0,0,1,1-1,4.64,4.64,0,0,1,1.42-.6,6.64,6.64,0,0,1,1.58-.2,9.81,9.81,0,0,1,1.86.17,4.37,4.37,0,0,1,1.5.6,3.15,3.15,0,0,1,1.05,1.15,4.45,4.45,0,0,1,.46,1.81h-1.95a2,2,0,0,0-.3-1,2.11,2.11,0,0,0-.65-.61,3,3,0,0,0-.86-.33,4.32,4.32,0,0,0-.95-.1,6.77,6.77,0,0,0-.89.06,2.84,2.84,0,0,0-.81.25,1.46,1.46,0,0,0-.6.46,1.17,1.17,0,0,0-.23.74,1.09,1.09,0,0,0,.36.84,2.74,2.74,0,0,0,.9.55,7.71,7.71,0,0,0,1.25.37l1.37.31q.73.17,1.44.39a4.94,4.94,0,0,1,1.24.61,2.93,2.93,0,0,1,.87.95,2.75,2.75,0,0,1,.34,1.43,3.28,3.28,0,0,1-.45,1.79,3.48,3.48,0,0,1-1.17,1.15,4.83,4.83,0,0,1-1.63.61,9.32,9.32,0,0,1-1.81.17,8.81,8.81,0,0,1-1.88-.2,4.75,4.75,0,0,1-1.59-.68,3.46,3.46,0,0,1-1.1-1.24,4.27,4.27,0,0,1-.46-1.88h2A2.33,2.33,0,0,0,468.21,208.39Z"/><path class="cls-2" d="M486.21,211v-1.88h0a4,4,0,0,1-1.59,1.62,4.78,4.78,0,0,1-2.27.51,5.24,5.24,0,0,1-1.95-.31,3,3,0,0,1-1.27-.88,3.4,3.4,0,0,1-.68-1.37,7.36,7.36,0,0,1-.19-1.76v-7.81h2v8a2.22,2.22,0,0,0,2.42,2.39,4.09,4.09,0,0,0,1.55-.27,3.1,3.1,0,0,0,1.09-.78,3.36,3.36,0,0,0,.65-1.19,4.64,4.64,0,0,0,.22-1.48v-6.71h2V211Z"/><path class="cls-2" d="M493,199.16v1.61h0a3,3,0,0,1,1.52-1.44,5.66,5.66,0,0,1,2.28-.45,5.31,5.31,0,0,1,2.4.51,4.86,4.86,0,0,1,1.7,1.37,6,6,0,0,1,1,2,8.45,8.45,0,0,1,0,4.78,5.66,5.66,0,0,1-1,2,4.73,4.73,0,0,1-1.7,1.32,5.52,5.52,0,0,1-2.38.48,5.93,5.93,0,0,1-1-.09,5.18,5.18,0,0,1-1.07-.3,4.12,4.12,0,0,1-1-.56,3.12,3.12,0,0,1-.8-.89h0v6.12h-1.95V199.16Zm7,4.22a4.53,4.53,0,0,0-.67-1.42,3.35,3.35,0,0,0-1.15-1,3.51,3.51,0,0,0-1.64-.36,3.37,3.37,0,0,0-1.68.39,3.33,3.33,0,0,0-1.12,1,4.26,4.26,0,0,0-.63,1.44,6.38,6.38,0,0,0-.2,1.63,6.8,6.8,0,0,0,.21,1.69,4.16,4.16,0,0,0,.65,1.43,3.31,3.31,0,0,0,1.16,1,3.57,3.57,0,0,0,1.73.38,3.38,3.38,0,0,0,1.69-.39,3.16,3.16,0,0,0,1.09-1,4.58,4.58,0,0,0,.59-1.47,7.45,7.45,0,0,0,.19-1.7A5.81,5.81,0,0,0,500,203.38Z"/><path class="cls-2" d="M513,210.28a5.37,5.37,0,0,1-3.36,1,6,6,0,0,1-2.47-.46,4.82,4.82,0,0,1-1.76-1.28,5.64,5.64,0,0,1-1.07-2,9.84,9.84,0,0,1-.4-2.51,7.29,7.29,0,0,1,.41-2.48,6.12,6.12,0,0,1,1.16-2,5.39,5.39,0,0,1,1.77-1.29,5.55,5.55,0,0,1,2.25-.46,4.86,4.86,0,0,1,2.63.66,5.33,5.33,0,0,1,1.68,1.66,6.63,6.63,0,0,1,.87,2.21,9.53,9.53,0,0,1,.19,2.28H506a4.52,4.52,0,0,0,.18,1.48,3.4,3.4,0,0,0,.67,1.24,3.3,3.3,0,0,0,1.17.86,4,4,0,0,0,1.68.32,3.36,3.36,0,0,0,2-.57,2.81,2.81,0,0,0,1.05-1.75h1.93A4.78,4.78,0,0,1,513,210.28Zm-.48-7.63a3.28,3.28,0,0,0-.71-1.07,3.47,3.47,0,0,0-1-.71,3.32,3.32,0,0,0-1.35-.26,3.38,3.38,0,0,0-1.37.26,3.34,3.34,0,0,0-1,.72,3.64,3.64,0,0,0-.69,1.07,4,4,0,0,0-.3,1.3h6.83A4.19,4.19,0,0,0,512.55,202.65Z"/><path class="cls-2" d="M518.72,199.16v2.5h0a5.35,5.35,0,0,1,1.75-2.13,4.39,4.39,0,0,1,2.62-.65V201a5.63,5.63,0,0,0-2,.32,3.28,3.28,0,0,0-1.34.94,4,4,0,0,0-.73,1.51,8.28,8.28,0,0,0-.23,2V211h-2V199.16Z"/><path class="cls-2" d="M137.31,238.62l-4.41-11.88h2.18l3.34,9.9h0l3.24-9.9h2.05l-4.35,11.88Z"/><path class="cls-2" d="M154,237.86a5.36,5.36,0,0,1-3.35,1,6.1,6.1,0,0,1-2.48-.46,4.7,4.7,0,0,1-1.75-1.29,5.36,5.36,0,0,1-1.07-2,9.42,9.42,0,0,1-.4-2.51,7.05,7.05,0,0,1,.41-2.48,5.78,5.78,0,0,1,1.16-1.95,5.39,5.39,0,0,1,1.77-1.29,5.5,5.5,0,0,1,2.24-.46,4.84,4.84,0,0,1,2.63.66,5.13,5.13,0,0,1,1.68,1.66,6.63,6.63,0,0,1,.87,2.21,9.52,9.52,0,0,1,.2,2.27H147a4.84,4.84,0,0,0,.19,1.49,3.53,3.53,0,0,0,.66,1.24,3.37,3.37,0,0,0,1.18.86,4.08,4.08,0,0,0,1.67.32,3.42,3.42,0,0,0,2-.57,2.76,2.76,0,0,0,1-1.75h1.93A4.73,4.73,0,0,1,154,237.86Zm-.47-7.63a3.45,3.45,0,0,0-.71-1.07,3.4,3.4,0,0,0-1.06-.71,3.27,3.27,0,0,0-1.34-.26,3.32,3.32,0,0,0-1.37.26,3.27,3.27,0,0,0-1.05.72,3.64,3.64,0,0,0-.69,1.07,4.33,4.33,0,0,0-.3,1.3h6.83A3.87,3.87,0,0,0,153.48,230.23Z"/><path class="cls-2" d="M160,222.21v16.41H158V222.21Z"/><path class="cls-2" d="M164.48,236a2.07,2.07,0,0,0,.72.72,3.47,3.47,0,0,0,1,.38,6.34,6.34,0,0,0,1.16.11,6.61,6.61,0,0,0,1-.07,3.54,3.54,0,0,0,.93-.25,1.77,1.77,0,0,0,.7-.54,1.47,1.47,0,0,0,.27-.91,1.31,1.31,0,0,0-.57-1.15,4.8,4.8,0,0,0-1.44-.63c-.57-.16-1.2-.31-1.87-.44a9.49,9.49,0,0,1-1.87-.55,3.84,3.84,0,0,1-1.44-1,2.6,2.6,0,0,1-.57-1.79,2.83,2.83,0,0,1,.4-1.54,3.33,3.33,0,0,1,1-1.05,5,5,0,0,1,1.43-.59,6.56,6.56,0,0,1,1.57-.2,9.66,9.66,0,0,1,1.86.17,4.51,4.51,0,0,1,1.51.6,3.21,3.21,0,0,1,1,1.15,4.25,4.25,0,0,1,.46,1.8h-1.95a1.94,1.94,0,0,0-.3-1,2.07,2.07,0,0,0-.64-.61,3.07,3.07,0,0,0-.86-.33,4.47,4.47,0,0,0-1-.1,6.62,6.62,0,0,0-.88.06,3,3,0,0,0-.82.25,1.61,1.61,0,0,0-.6.46,1.17,1.17,0,0,0-.23.74,1.09,1.09,0,0,0,.36.84,2.8,2.8,0,0,0,.91.55,7.58,7.58,0,0,0,1.24.37l1.38.31q.73.16,1.44.39a4.78,4.78,0,0,1,1.24.61,2.93,2.93,0,0,1,.87.95,2.85,2.85,0,0,1,.33,1.43,3.28,3.28,0,0,1-.45,1.79,3.39,3.39,0,0,1-1.17,1.15,5,5,0,0,1-1.63.61,10.06,10.06,0,0,1-1.8.17,8.9,8.9,0,0,1-1.89-.2,4.7,4.7,0,0,1-1.58-.68,3.59,3.59,0,0,1-1.11-1.24,4.41,4.41,0,0,1-.46-1.88h2A2.06,2.06,0,0,0,164.48,236Z"/><path class="cls-2" d="M176.31,226.74v1.74h.05a4.34,4.34,0,0,1,3.84-2,4.42,4.42,0,0,1,2,.46,2.63,2.63,0,0,1,1.26,1.56A4.15,4.15,0,0,1,185,227a4.47,4.47,0,0,1,2.15-.53,6.19,6.19,0,0,1,1.62.2,3.2,3.2,0,0,1,1.24.61,2.69,2.69,0,0,1,.81,1.06,4,4,0,0,1,.28,1.58v8.71h-1.95v-7.79a5.75,5.75,0,0,0-.09-1,2.14,2.14,0,0,0-.34-.83,1.76,1.76,0,0,0-.71-.57,2.72,2.72,0,0,0-1.16-.2,3.07,3.07,0,0,0-2.27.82,3,3,0,0,0-.83,2.21v7.4h-1.95v-7.79a5,5,0,0,0-.11-1.06,2.26,2.26,0,0,0-.35-.84,1.68,1.68,0,0,0-.68-.55,2.63,2.63,0,0,0-1.09-.19,2.89,2.89,0,0,0-1.46.34,3.27,3.27,0,0,0-1,.83,3.19,3.19,0,0,0-.55,1,2.64,2.64,0,0,0-.17.86v7.4h-2V226.74Z"/><path class="cls-2" d="M204.6,238.57a2.75,2.75,0,0,1-1.4.3,1.7,1.7,0,0,1-1.21-.42,1.9,1.9,0,0,1-.44-1.39,4.83,4.83,0,0,1-1.88,1.39,6.24,6.24,0,0,1-2.31.42,6.41,6.41,0,0,1-1.53-.18,3.51,3.51,0,0,1-1.25-.58,2.81,2.81,0,0,1-.84-1,3.53,3.53,0,0,1-.31-1.53,3.48,3.48,0,0,1,.35-1.65,3,3,0,0,1,.91-1,4.1,4.1,0,0,1,1.28-.61c.49-.13,1-.25,1.49-.34a15.33,15.33,0,0,1,1.52-.24,9.28,9.28,0,0,0,1.28-.23,2.09,2.09,0,0,0,.87-.44,1,1,0,0,0,.32-.84,1.94,1.94,0,0,0-.24-1,1.69,1.69,0,0,0-.62-.6,2.5,2.5,0,0,0-.85-.28,7.26,7.26,0,0,0-.93-.06,4.07,4.07,0,0,0-2.07.47,2,2,0,0,0-.89,1.78h-2a4.25,4.25,0,0,1,.46-1.86,3.47,3.47,0,0,1,1.11-1.23,4.54,4.54,0,0,1,1.57-.68,8.19,8.19,0,0,1,1.9-.21,10.64,10.64,0,0,1,1.59.12,4,4,0,0,1,1.44.47,2.72,2.72,0,0,1,1,1,3.21,3.21,0,0,1,.39,1.68v6.1a4.84,4.84,0,0,0,.08,1c.06.21.24.32.54.32a1.87,1.87,0,0,0,.6-.12Zm-3.17-6.11a2.42,2.42,0,0,1-1,.4,11.82,11.82,0,0,1-1.26.21l-1.32.18a4.6,4.6,0,0,0-1.19.34,2.19,2.19,0,0,0-.87.65,1.84,1.84,0,0,0-.33,1.16,1.61,1.61,0,0,0,.2.82,1.73,1.73,0,0,0,.5.54,2.08,2.08,0,0,0,.73.3,4,4,0,0,0,.87.09,4.53,4.53,0,0,0,1.65-.27,3.34,3.34,0,0,0,1.13-.66,2.51,2.51,0,0,0,.64-.88,2.13,2.13,0,0,0,.21-.88Z"/><path class="cls-2" d="M215.33,242a5.39,5.39,0,0,1-4.18,1.45,8.31,8.31,0,0,1-1.69-.18,5.06,5.06,0,0,1-1.56-.6,3.53,3.53,0,0,1-1.16-1.08,3,3,0,0,1-.51-1.63h2a1.42,1.42,0,0,0,.33.9,2.47,2.47,0,0,0,.76.59,3.49,3.49,0,0,0,1,.34,5.26,5.26,0,0,0,1,.1,3.67,3.67,0,0,0,1.63-.33,3.17,3.17,0,0,0,1.1-.92,3.77,3.77,0,0,0,.63-1.42,7.84,7.84,0,0,0,.2-1.81v-.78h-.05a3.26,3.26,0,0,1-1.53,1.62,4.78,4.78,0,0,1-2.17.51,5.25,5.25,0,0,1-2.32-.48,4.7,4.7,0,0,1-1.65-1.3,5.36,5.36,0,0,1-1-1.91,7.53,7.53,0,0,1-.34-2.3,9.31,9.31,0,0,1,.28-2.18,5.89,5.89,0,0,1,.92-2,5,5,0,0,1,1.7-1.49,5.29,5.29,0,0,1,2.6-.59,4.33,4.33,0,0,1,2.06.5,3.52,3.52,0,0,1,1.48,1.48h0v-1.7h1.84v10.87A6.23,6.23,0,0,1,215.33,242Zm-2.49-5.34a3.16,3.16,0,0,0,1.09-1.06,4.66,4.66,0,0,0,.61-1.48,7.16,7.16,0,0,0,.2-1.65,6.13,6.13,0,0,0-.19-1.54,4.42,4.42,0,0,0-.58-1.37,3.08,3.08,0,0,0-1.05-1,3.16,3.16,0,0,0-1.56-.36,3.33,3.33,0,0,0-1.61.35,3.07,3.07,0,0,0-1.09,1,3.82,3.82,0,0,0-.62,1.37,6.82,6.82,0,0,0-.2,1.64,8.68,8.68,0,0,0,.16,1.6,4.56,4.56,0,0,0,.55,1.46,3.1,3.1,0,0,0,1,1.06,3,3,0,0,0,1.61.4A3.14,3.14,0,0,0,212.84,236.63Z"/><path class="cls-2" d="M228,237.86a5.36,5.36,0,0,1-3.35,1,6.07,6.07,0,0,1-2.48-.46,4.7,4.7,0,0,1-1.75-1.29,5.22,5.22,0,0,1-1.07-2,9.83,9.83,0,0,1-.41-2.51,7.05,7.05,0,0,1,.42-2.48,5.78,5.78,0,0,1,1.16-1.95,5.39,5.39,0,0,1,1.77-1.29,5.5,5.5,0,0,1,2.24-.46,4.84,4.84,0,0,1,2.63.66,5.13,5.13,0,0,1,1.68,1.66,6.63,6.63,0,0,1,.87,2.21,9.52,9.52,0,0,1,.2,2.27H221a4.84,4.84,0,0,0,.19,1.49,3.53,3.53,0,0,0,.66,1.24,3.37,3.37,0,0,0,1.18.86,4.08,4.08,0,0,0,1.67.32,3.42,3.42,0,0,0,2-.57,2.8,2.8,0,0,0,1-1.75h1.93A4.73,4.73,0,0,1,228,237.86Zm-.47-7.63a3.63,3.63,0,0,0-.71-1.07,3.4,3.4,0,0,0-1.06-.71,3.66,3.66,0,0,0-2.71,0,3.27,3.27,0,0,0-1,.72,3.64,3.64,0,0,0-.69,1.07,4,4,0,0,0-.3,1.3h6.83A4.12,4.12,0,0,0,227.55,230.23Z"/><path class="cls-2" d="M233.79,226.74v1.88h0a4.13,4.13,0,0,1,3.87-2.16,5.23,5.23,0,0,1,2,.32,3.29,3.29,0,0,1,1.26.9,3.33,3.33,0,0,1,.68,1.37,7.34,7.34,0,0,1,.2,1.76v7.81h-2v-8a2.36,2.36,0,0,0-.64-1.75,2.39,2.39,0,0,0-1.77-.64,4,4,0,0,0-1.55.27,2.9,2.9,0,0,0-1.09.78,3.45,3.45,0,0,0-.66,1.19,4.94,4.94,0,0,0-.22,1.48v6.71h-2V226.74Z"/><path class="cls-2" d="M253.39,238.62V237h0a3,3,0,0,1-1.52,1.43,5.83,5.83,0,0,1-2.28.43,5.44,5.44,0,0,1-2.4-.5,5,5,0,0,1-1.7-1.36,5.9,5.9,0,0,1-1-2,8.08,8.08,0,0,1-.35-2.39,8.47,8.47,0,0,1,.34-2.39,5.61,5.61,0,0,1,1-2,4.87,4.87,0,0,1,1.7-1.33,5.38,5.38,0,0,1,2.38-.5,6.06,6.06,0,0,1,1,.09,6,6,0,0,1,1.05.31,4.35,4.35,0,0,1,1,.58,3.21,3.21,0,0,1,.8.88h0v-6.11h2v16.41Zm-7-4.22a4.53,4.53,0,0,0,.67,1.42,3.22,3.22,0,0,0,1.15,1,3.82,3.82,0,0,0,3.32,0,3.33,3.33,0,0,0,1.12-1,4.49,4.49,0,0,0,.64-1.44,6.85,6.85,0,0,0,.19-1.63,6.75,6.75,0,0,0-.21-1.69,4.11,4.11,0,0,0-.65-1.44,3.52,3.52,0,0,0-1.16-1,3.68,3.68,0,0,0-1.73-.37,3.35,3.35,0,0,0-1.67.39,3.14,3.14,0,0,0-1.11,1,4.58,4.58,0,0,0-.59,1.47,7.38,7.38,0,0,0-.19,1.7A6.33,6.33,0,0,0,246.37,234.4Z"/><path class="cls-2" d="M266.77,237.86a5.37,5.37,0,0,1-3.36,1,6,6,0,0,1-2.47-.46,4.74,4.74,0,0,1-1.76-1.29,5.51,5.51,0,0,1-1.07-2,9.84,9.84,0,0,1-.4-2.51,7.05,7.05,0,0,1,.42-2.48,5.78,5.78,0,0,1,1.16-1.95,5.19,5.19,0,0,1,1.77-1.29,5.47,5.47,0,0,1,2.24-.46,4.86,4.86,0,0,1,2.63.66,5.33,5.33,0,0,1,1.68,1.66,6.63,6.63,0,0,1,.87,2.21,9,9,0,0,1,.19,2.27h-8.89a4.84,4.84,0,0,0,.18,1.49,3.27,3.27,0,0,0,1.84,2.1,4.16,4.16,0,0,0,1.68.32,3.36,3.36,0,0,0,2-.57,2.81,2.81,0,0,0,1.05-1.75h1.93A4.73,4.73,0,0,1,266.77,237.86Zm-.47-7.63a3.47,3.47,0,0,0-.72-1.07,3.36,3.36,0,0,0-1.05-.71,3.32,3.32,0,0,0-1.35-.26,3.38,3.38,0,0,0-1.37.26,3.34,3.34,0,0,0-1,.72,3.64,3.64,0,0,0-.69,1.07,4,4,0,0,0-.3,1.3h6.83A4.12,4.12,0,0,0,266.3,230.23Z"/><path class="cls-2" d="M279.11,226.74v1.61h0a3,3,0,0,1,1.52-1.44,5.66,5.66,0,0,1,2.28-.45,5.31,5.31,0,0,1,2.4.51,4.83,4.83,0,0,1,1.7,1.36,6.15,6.15,0,0,1,1,2,8.13,8.13,0,0,1,.35,2.39,8.42,8.42,0,0,1-.34,2.39,5.66,5.66,0,0,1-1,2,4.73,4.73,0,0,1-1.7,1.32,5.52,5.52,0,0,1-2.38.48,6.14,6.14,0,0,1-1-.09,5.09,5.09,0,0,1-1.06-.3,3.94,3.94,0,0,1-1-.56,3.12,3.12,0,0,1-.8-.89h0v6.12h-2V226.74Zm7,4.21a4.59,4.59,0,0,0-.67-1.41,3.35,3.35,0,0,0-1.15-1,3.51,3.51,0,0,0-1.64-.36,3.37,3.37,0,0,0-1.68.39,3.33,3.33,0,0,0-1.12,1,4.28,4.28,0,0,0-.64,1.44,7,7,0,0,0,0,3.32,4,4,0,0,0,.65,1.43,3.31,3.31,0,0,0,1.16,1,3.68,3.68,0,0,0,1.73.38,3.31,3.31,0,0,0,1.68-.39,3.11,3.11,0,0,0,1.1-1,4.58,4.58,0,0,0,.59-1.47,7.45,7.45,0,0,0,.19-1.7A6.34,6.34,0,0,0,286.13,231Z"/><path class="cls-2" d="M290.83,224.6v-2.39h1.95v2.39Zm1.95,2.14v11.88h-1.95V226.74Z"/><path class="cls-2" d="M297.88,222.21v16.41h-1.95V222.21Z"/><path class="cls-2" d="M302.41,236a2.07,2.07,0,0,0,.72.72,3.54,3.54,0,0,0,1,.38,6.25,6.25,0,0,0,1.16.11,6.58,6.58,0,0,0,1-.07,3.34,3.34,0,0,0,.93-.25,1.64,1.64,0,0,0,.7-.54,1.41,1.41,0,0,0,.28-.91,1.3,1.3,0,0,0-.58-1.15,4.85,4.85,0,0,0-1.43-.63c-.58-.16-1.2-.31-1.88-.44a9.69,9.69,0,0,1-1.87-.55,3.88,3.88,0,0,1-1.43-1,2.55,2.55,0,0,1-.58-1.79,2.83,2.83,0,0,1,.4-1.54,3.36,3.36,0,0,1,1-1.05,4.88,4.88,0,0,1,1.42-.59,6.64,6.64,0,0,1,1.58-.2,9.81,9.81,0,0,1,1.86.17,4.45,4.45,0,0,1,1.5.6,3.15,3.15,0,0,1,1.05,1.15,4.4,4.4,0,0,1,.46,1.8h-2a2,2,0,0,0-.29-1,2.11,2.11,0,0,0-.65-.61,3.07,3.07,0,0,0-.86-.33,4.32,4.32,0,0,0-.95-.1,6.77,6.77,0,0,0-.89.06,2.84,2.84,0,0,0-.81.25,1.46,1.46,0,0,0-.6.46,1.17,1.17,0,0,0-.23.74,1.12,1.12,0,0,0,.35.84,2.91,2.91,0,0,0,.91.55,7.58,7.58,0,0,0,1.24.37l1.38.31q.74.16,1.44.39a4.63,4.63,0,0,1,1.24.61,2.93,2.93,0,0,1,.87.95,2.75,2.75,0,0,1,.34,1.43,3.28,3.28,0,0,1-.45,1.79,3.48,3.48,0,0,1-1.17,1.15,5.14,5.14,0,0,1-1.63.61,10.17,10.17,0,0,1-1.81.17,8.74,8.74,0,0,1-1.88-.2,4.75,4.75,0,0,1-1.59-.68,3.46,3.46,0,0,1-1.1-1.24,4.27,4.27,0,0,1-.46-1.88h1.95A2.25,2.25,0,0,0,302.41,236Z"/><path class="cls-2" d="M314.25,226.74v1.88h0a4.11,4.11,0,0,1,3.86-2.16,5.32,5.32,0,0,1,2,.32,3.29,3.29,0,0,1,1.26.9,3.33,3.33,0,0,1,.68,1.37,7.36,7.36,0,0,1,.19,1.76v7.81h-1.95v-8a2.36,2.36,0,0,0-.64-1.75,2.39,2.39,0,0,0-1.77-.64,4,4,0,0,0-1.55.27,3,3,0,0,0-1.1.78,3.27,3.27,0,0,0-.65,1.19,4.64,4.64,0,0,0-.22,1.48v6.71h-1.95V226.74Z"/><path class="cls-2" d="M333.6,237.86a5.37,5.37,0,0,1-3.36,1,6,6,0,0,1-2.47-.46,4.74,4.74,0,0,1-1.76-1.29,5.51,5.51,0,0,1-1.07-2,9.84,9.84,0,0,1-.4-2.51,7.05,7.05,0,0,1,.42-2.48,5.78,5.78,0,0,1,1.16-1.95,5.19,5.19,0,0,1,1.77-1.29,5.47,5.47,0,0,1,2.24-.46,4.86,4.86,0,0,1,2.63.66,5.23,5.23,0,0,1,1.68,1.66,6.63,6.63,0,0,1,.87,2.21,9,9,0,0,1,.19,2.27h-8.89a4.84,4.84,0,0,0,.18,1.49,3.27,3.27,0,0,0,1.84,2.1,4.16,4.16,0,0,0,1.68.32,3.36,3.36,0,0,0,2-.57,2.81,2.81,0,0,0,1.05-1.75h1.93A4.73,4.73,0,0,1,333.6,237.86Zm-.47-7.63a3.47,3.47,0,0,0-.72-1.07,3.36,3.36,0,0,0-1.05-.71,3.32,3.32,0,0,0-1.35-.26,3.38,3.38,0,0,0-1.37.26,3.34,3.34,0,0,0-1,.72,3.64,3.64,0,0,0-.69,1.07,4,4,0,0,0-.3,1.3h6.83A4.12,4.12,0,0,0,333.13,230.23Z"/><path class="cls-2" d="M339.3,226.74v2.5h0a5.28,5.28,0,0,1,1.75-2.13,4.39,4.39,0,0,1,2.62-.65v2.07a5.63,5.63,0,0,0-2,.32,3.18,3.18,0,0,0-1.33.94,3.88,3.88,0,0,0-.74,1.51,8.28,8.28,0,0,0-.23,2v5.29h-2V226.74Z"/><path class="cls-2" d="M346.05,236.07v2.32a4.19,4.19,0,0,1-.59,2.25,3.27,3.27,0,0,1-1.93,1.33v-1.14a1.8,1.8,0,0,0,.65-.41,2.14,2.14,0,0,0,.43-.57,2.22,2.22,0,0,0,.21-.63,2.55,2.55,0,0,0,0-.6H343.5v-2.55Z"/><path class="cls-2" d="M357.8,222.21v6.27h0a2.79,2.79,0,0,1,.65-.93,3.51,3.51,0,0,1,.93-.62,4.4,4.4,0,0,1,1.08-.35,5.66,5.66,0,0,1,3,.2,3.4,3.4,0,0,1,1.27.9,3.32,3.32,0,0,1,.67,1.37,7.34,7.34,0,0,1,.2,1.76v7.81h-1.95v-8a2.36,2.36,0,0,0-.65-1.75,2.39,2.39,0,0,0-1.77-.64,4.05,4.05,0,0,0-1.55.27,3,3,0,0,0-1.09.78,3.45,3.45,0,0,0-.66,1.19,5,5,0,0,0-.21,1.48v6.71h-2V222.21Z"/><path class="cls-2" d="M377,237.86a5.34,5.34,0,0,1-3.35,1,6,6,0,0,1-2.47-.46,4.66,4.66,0,0,1-1.76-1.29,5.36,5.36,0,0,1-1.07-2,9.42,9.42,0,0,1-.4-2.51,7.29,7.29,0,0,1,.41-2.48,5.94,5.94,0,0,1,1.16-1.95,5.39,5.39,0,0,1,1.77-1.29,5.5,5.5,0,0,1,2.24-.46,4.82,4.82,0,0,1,2.63.66,5.13,5.13,0,0,1,1.68,1.66,6.87,6.87,0,0,1,.88,2.21,9.49,9.49,0,0,1,.19,2.27h-8.89a4.55,4.55,0,0,0,.18,1.49,3.4,3.4,0,0,0,.67,1.24,3.24,3.24,0,0,0,1.17.86,4.09,4.09,0,0,0,1.68.32,3.41,3.41,0,0,0,2-.57,2.81,2.81,0,0,0,1.05-1.75h1.93A4.74,4.74,0,0,1,377,237.86Zm-.47-7.63a3.28,3.28,0,0,0-.71-1.07,3.4,3.4,0,0,0-1.06-.71,3.24,3.24,0,0,0-1.34-.26,3.25,3.25,0,0,0-2.42,1,3.64,3.64,0,0,0-.69,1.07,4.32,4.32,0,0,0-.29,1.3h6.82A3.87,3.87,0,0,0,376.56,230.23Z"/><path class="cls-2" d="M383,222.21v16.41h-1.95V222.21Z"/><path class="cls-2" d="M391.14,226.74v1.72h-2.36v7.38a2.1,2.1,0,0,0,.05.55.57.57,0,0,0,.22.32.92.92,0,0,0,.45.15,7,7,0,0,0,.75,0h.89v1.72h-1.49a7.9,7.9,0,0,1-1.3-.1,1.94,1.94,0,0,1-.87-.38,1.65,1.65,0,0,1-.5-.78,4.85,4.85,0,0,1-.16-1.34v-7.56h-2v-1.72h2v-3.57h2v3.57Z"/><path class="cls-2" d="M407.69,238.62v-1.89h-.05a3.92,3.92,0,0,1-1.58,1.62,4.71,4.71,0,0,1-2.28.52,5.24,5.24,0,0,1-1.95-.31,3.25,3.25,0,0,1-1.27-.88,3.38,3.38,0,0,1-.67-1.37,7.4,7.4,0,0,1-.2-1.76v-7.81h2v8a2.36,2.36,0,0,0,.64,1.75,2.39,2.39,0,0,0,1.77.64,4.05,4.05,0,0,0,1.55-.27,2.92,2.92,0,0,0,1.09-.79,3.4,3.4,0,0,0,.66-1.18,5,5,0,0,0,.21-1.48v-6.71h2v11.88Z"/><path class="cls-2" d="M421.13,238.62V237h0a2.91,2.91,0,0,1-1.52,1.43,5.81,5.81,0,0,1-2.27.43,5.52,5.52,0,0,1-2.41-.5,5,5,0,0,1-1.7-1.36,5.9,5.9,0,0,1-1-2,8.08,8.08,0,0,1-.34-2.39,8.47,8.47,0,0,1,.33-2.39,5.61,5.61,0,0,1,1-2,4.87,4.87,0,0,1,1.7-1.33,5.41,5.41,0,0,1,2.38-.5,5.87,5.87,0,0,1,1,.09,6.32,6.32,0,0,1,1.06.31,4.5,4.5,0,0,1,1,.58,3.21,3.21,0,0,1,.8.88h0v-6.11h2v16.41Zm-7-4.22a4.53,4.53,0,0,0,.67,1.42,3.22,3.22,0,0,0,1.15,1,3.42,3.42,0,0,0,1.64.37,3.37,3.37,0,0,0,1.68-.39,3.46,3.46,0,0,0,1.13-1,4.26,4.26,0,0,0,.63-1.44,6.85,6.85,0,0,0,.19-1.63A7.24,7.24,0,0,0,421,231a4.31,4.31,0,0,0-.66-1.44,3.42,3.42,0,0,0-1.16-1,3.64,3.64,0,0,0-1.72-.37,3.37,3.37,0,0,0-1.68.39,3,3,0,0,0-1.1,1,4.38,4.38,0,0,0-.6,1.47,8,8,0,0,0-.19,1.7A6.33,6.33,0,0,0,414.11,234.4Z"/><path class="cls-2" d="M434.51,237.86a5.37,5.37,0,0,1-3.36,1,6,6,0,0,1-2.47-.46,4.82,4.82,0,0,1-1.76-1.29,5.34,5.34,0,0,1-1.06-2,9.42,9.42,0,0,1-.41-2.51,7.05,7.05,0,0,1,.42-2.48,5.78,5.78,0,0,1,1.16-1.95,5.39,5.39,0,0,1,1.77-1.29,5.5,5.5,0,0,1,2.24-.46,4.84,4.84,0,0,1,2.63.66,5.13,5.13,0,0,1,1.68,1.66,6.63,6.63,0,0,1,.87,2.21,9.52,9.52,0,0,1,.2,2.27h-8.9a4.84,4.84,0,0,0,.19,1.49,3.37,3.37,0,0,0,.66,1.24,3.42,3.42,0,0,0,1.17.86,4.16,4.16,0,0,0,1.68.32,3.42,3.42,0,0,0,2-.57,2.8,2.8,0,0,0,1-1.75h1.93A4.73,4.73,0,0,1,434.51,237.86Zm-.47-7.63a3.63,3.63,0,0,0-.71-1.07,3.52,3.52,0,0,0-1.06-.71,3.66,3.66,0,0,0-2.71,0,3.27,3.27,0,0,0-1.05.72,3.64,3.64,0,0,0-.69,1.07,4,4,0,0,0-.3,1.3h6.83A4.12,4.12,0,0,0,434,230.23Z"/><path class="cls-2" d="M440.28,226.74v1.88h0a4.11,4.11,0,0,1,3.86-2.16,5.25,5.25,0,0,1,2,.32,3.29,3.29,0,0,1,1.26.9,3.33,3.33,0,0,1,.68,1.37,7.34,7.34,0,0,1,.2,1.76v7.81h-2v-8a2.36,2.36,0,0,0-.64-1.75,2.39,2.39,0,0,0-1.77-.64,4,4,0,0,0-1.55.27,2.9,2.9,0,0,0-1.09.78,3.29,3.29,0,0,0-.66,1.19,4.64,4.64,0,0,0-.22,1.48v6.71h-1.95V226.74Z"/><path class="cls-2" d="M468.13,238.57a2.75,2.75,0,0,1-1.4.3,1.7,1.7,0,0,1-1.21-.42,1.86,1.86,0,0,1-.44-1.39,4.83,4.83,0,0,1-1.88,1.39,6.24,6.24,0,0,1-2.31.42,6.41,6.41,0,0,1-1.53-.18,3.51,3.51,0,0,1-1.25-.58,2.81,2.81,0,0,1-.84-1,3.53,3.53,0,0,1-.31-1.53,3.48,3.48,0,0,1,.35-1.65,3.07,3.07,0,0,1,.9-1,4.26,4.26,0,0,1,1.29-.61c.48-.13,1-.25,1.48-.34s1-.19,1.53-.24a9.28,9.28,0,0,0,1.28-.23,2.09,2.09,0,0,0,.87-.44,1,1,0,0,0,.32-.84,1.94,1.94,0,0,0-.24-1,1.69,1.69,0,0,0-.62-.6,2.58,2.58,0,0,0-.85-.28,7.26,7.26,0,0,0-.93-.06,4.07,4.07,0,0,0-2.07.47,2,2,0,0,0-.89,1.78h-2a4.25,4.25,0,0,1,.46-1.86,3.54,3.54,0,0,1,1.1-1.23,4.59,4.59,0,0,1,1.58-.68,8.19,8.19,0,0,1,1.9-.21,10.64,10.64,0,0,1,1.59.12,4,4,0,0,1,1.44.47,2.72,2.72,0,0,1,1,1,3.21,3.21,0,0,1,.39,1.68v6.1a4.84,4.84,0,0,0,.08,1c.06.21.24.32.54.32a1.87,1.87,0,0,0,.6-.12ZM465,232.46a2.48,2.48,0,0,1-1,.4,11.82,11.82,0,0,1-1.26.21l-1.32.18a4.6,4.6,0,0,0-1.19.34,2.19,2.19,0,0,0-.87.65,1.84,1.84,0,0,0-.33,1.16,1.57,1.57,0,0,0,.7,1.36,2.08,2.08,0,0,0,.73.3,4,4,0,0,0,.87.09,4.53,4.53,0,0,0,1.65-.27,3.34,3.34,0,0,0,1.13-.66,2.51,2.51,0,0,0,.64-.88,2.13,2.13,0,0,0,.21-.88Z"/><path class="cls-2" d="M472,222.21v16.41h-1.95V222.21Z"/><path class="cls-2" d="M477.12,222.21v9.72l5.42-5.19h2.62l-4.71,4.32,5.05,7.56H483L479,232.41l-1.84,1.7v4.51h-2V222.21Z"/><path class="cls-2" d="M486.7,230.24a5.58,5.58,0,0,1,1.1-2,5.33,5.33,0,0,1,1.82-1.33,6.67,6.67,0,0,1,5,0,5.29,5.29,0,0,1,1.81,1.33,5.43,5.43,0,0,1,1.1,2,7.81,7.81,0,0,1,.37,2.45,7.7,7.7,0,0,1-.37,2.44,5.47,5.47,0,0,1-1.1,2,5,5,0,0,1-1.81,1.31,6.8,6.8,0,0,1-5,0,5,5,0,0,1-1.82-1.31,5.63,5.63,0,0,1-1.1-2,8,8,0,0,1-.37-2.44A8.11,8.11,0,0,1,486.7,230.24Zm2,4.37a3.88,3.88,0,0,0,.79,1.4,3.42,3.42,0,0,0,1.18.86,3.61,3.61,0,0,0,2.88,0,3.42,3.42,0,0,0,1.18-.86,3.88,3.88,0,0,0,.79-1.4,6.5,6.5,0,0,0,0-3.84,4,4,0,0,0-.79-1.41,3.35,3.35,0,0,0-1.18-.88,3.72,3.72,0,0,0-2.88,0,3.35,3.35,0,0,0-1.18.88,4,4,0,0,0-.79,1.41,6.5,6.5,0,0,0,0,3.84Z"/><path class="cls-2" d="M502.12,222.21v6.27h.05a2.62,2.62,0,0,1,.64-.93,3.87,3.87,0,0,1,.93-.62,4.7,4.7,0,0,1,1.08-.35,5.27,5.27,0,0,1,1.09-.12,5.32,5.32,0,0,1,2,.32,3.29,3.29,0,0,1,1.26.9,3.33,3.33,0,0,1,.68,1.37,7.36,7.36,0,0,1,.19,1.76v7.81h-1.95v-8a2.21,2.21,0,0,0-2.41-2.39,4,4,0,0,0-1.55.27,3,3,0,0,0-1.1.78,3.27,3.27,0,0,0-.65,1.19,4.64,4.64,0,0,0-.22,1.48v6.71h-1.95V222.21Z"/><path class="cls-2" d="M512.67,230.24a5.58,5.58,0,0,1,1.1-2,5.33,5.33,0,0,1,1.82-1.33,6.67,6.67,0,0,1,5,0,5.29,5.29,0,0,1,1.81,1.33,5.43,5.43,0,0,1,1.1,2,7.81,7.81,0,0,1,.37,2.45,7.7,7.7,0,0,1-.37,2.44,5.47,5.47,0,0,1-1.1,2,5,5,0,0,1-1.81,1.31,6.8,6.8,0,0,1-5,0,5,5,0,0,1-1.82-1.31,5.63,5.63,0,0,1-1.1-2,7.7,7.7,0,0,1-.37-2.44A7.81,7.81,0,0,1,512.67,230.24Zm2,4.37a3.88,3.88,0,0,0,.79,1.4,3.42,3.42,0,0,0,1.18.86,3.61,3.61,0,0,0,2.88,0,3.42,3.42,0,0,0,1.18-.86,3.88,3.88,0,0,0,.79-1.4,6.5,6.5,0,0,0,0-3.84,4,4,0,0,0-.79-1.41,3.35,3.35,0,0,0-1.18-.88,3.72,3.72,0,0,0-2.88,0,3.35,3.35,0,0,0-1.18.88,4,4,0,0,0-.79,1.41,6.5,6.5,0,0,0,0,3.84Z"/><path class="cls-2" d="M528.21,222.21v16.41h-2V222.21Z"/><path class="cls-2" d="M534.23,236.07v2.55h-2.56v-2.55Z"/><path class="cls-2" d="M59.72,330.23V343.6h8v3H56.11v-16.4Z"/><path class="cls-2" d="M84.28,330.23v3H75.62v3.52h7.95v2.8H75.62v4h8.85v3H72v-16.4Z"/><path class="cls-2" d="M87.89,333.26v-3h13.45v3H96.42v13.37H92.81V333.26Z"/><path class="cls-2" d="M498,330.23V337l6.42-6.8H509l-6.41,6.48,7,9.92h-4.53l-4.94-7.37L498,341.35v5.28h-3.6v-16.4Z"/><path class="cls-2" d="M522.15,330.23a5.23,5.23,0,0,1,2,.35,4.52,4.52,0,0,1,1.52,1,4.14,4.14,0,0,1,1,1.44,4.59,4.59,0,0,1,.34,1.75,5,5,0,0,1-.61,2.51,3.88,3.88,0,0,1-2,1.61v0a2.8,2.8,0,0,1,1.1.57,3.07,3.07,0,0,1,.71.89,4.3,4.3,0,0,1,.41,1.14,10.55,10.55,0,0,1,.17,1.24c0,.26,0,.57,0,.92s.05.71.09,1.08a5.75,5.75,0,0,0,.18,1.05,2.19,2.19,0,0,0,.38.83h-3.61a6.45,6.45,0,0,1-.37-1.86c0-.72-.11-1.41-.21-2.06a3.25,3.25,0,0,0-.78-1.89,2.66,2.66,0,0,0-2-.6h-3.61v6.41H513.3v-16.4Zm-1.29,7.42a2.8,2.8,0,0,0,1.87-.55,2.32,2.32,0,0,0,.62-1.8,2.2,2.2,0,0,0-.62-1.73,2.8,2.8,0,0,0-1.87-.54h-4v4.62Z"/><path class="cls-2" d="M540.35,330.23l6.14,16.4h-3.75L541.5,343h-6.13l-1.29,3.65h-3.63l6.2-16.4Zm.21,10.06-2.07-6h0l-2.14,6Z"/><path class="cls-2" d="M561.73,330.23v3H553.8v3.79h6.87v2.81H553.8v6.77h-3.61v-16.4Z"/><path class="cls-2" d="M564.81,333.26v-3h13.44v3h-4.92v13.37h-3.61V333.26Z"/><path class="cls-2" d="M586,330.23v16.4h-3.61v-16.4Z"/><path class="cls-2" d="M601.19,346.51a6.06,6.06,0,0,1-2.37.49,8.5,8.5,0,0,1-3.39-.65,7.31,7.31,0,0,1-2.54-1.81,7.91,7.91,0,0,1-1.59-2.7,10.09,10.09,0,0,1-.55-3.34,10.42,10.42,0,0,1,.55-3.41,8.24,8.24,0,0,1,1.59-2.75,7.38,7.38,0,0,1,2.54-1.84,8.34,8.34,0,0,1,3.39-.67,8.09,8.09,0,0,1,2.45.38,7,7,0,0,1,2.13,1.12,6.13,6.13,0,0,1,1.58,1.81,6.32,6.32,0,0,1,.76,2.49h-3.45a3.49,3.49,0,0,0-1.24-2.07,3.61,3.61,0,0,0-2.23-.69,4.28,4.28,0,0,0-2.07.47,3.89,3.89,0,0,0-1.38,1.26,5.56,5.56,0,0,0-.77,1.81,9,9,0,0,0-.24,2.09,8.38,8.38,0,0,0,.24,2,5.48,5.48,0,0,0,.77,1.76,3.87,3.87,0,0,0,1.38,1.25,4.28,4.28,0,0,0,2.07.47,3.9,3.9,0,0,0,2.77-.91,4,4,0,0,0,1.14-2.63h-3.64v-2.69H606v8.87h-2.3l-.37-1.86A5.37,5.37,0,0,1,601.19,346.51Z"/><path class="cls-2" d="M603.3,576.76H57.47a2.88,2.88,0,0,1,0-5.75H603.3a2.88,2.88,0,0,1,0,5.75Z"/><path class="cls-2" d="M54.57,470.23H67V471H63.33V493.6h1.24a6.23,6.23,0,0,0,4.67-1.79,21.59,21.59,0,0,0,3.54-5.52h.72l-.66,8.07H54.57v-.76h2V471h-2Z"/><path class="cls-2" d="M74.6,478h8.45v15.79H85v.62H74.74v-.62h1.9V478.57h-2Zm5.21-2.38a3.2,3.2,0,0,1-2.6-.93,3.47,3.47,0,0,1-.78-2.31,3.17,3.17,0,0,1,.84-2.27,3.38,3.38,0,0,1,2.57-.9,3.79,3.79,0,0,1,2.62.81,3,3,0,0,1,.9,2.31,3.3,3.3,0,0,1-.86,2.39A3.58,3.58,0,0,1,79.81,475.57Z"/><path class="cls-2" d="M84.29,478.57V478H94.6v.62H92.42L96.56,490l3.73-11.45H98V478h4.66v.62h-1.52L96,494.36H92.08L85.7,478.57Z"/><path class="cls-2" d="M102.32,468.5h8.44v25.24h1.94v.62H102.46v-.62h1.89V469.12h-2Z"/><path class="cls-2" d="M113.21,478h8.45v15.79h1.93v.62H113.35v-.62h1.9V478.57h-2Zm5.21-2.38a3.2,3.2,0,0,1-2.6-.93,3.47,3.47,0,0,1-.78-2.31,3.17,3.17,0,0,1,.84-2.27,3.38,3.38,0,0,1,2.57-.9,3.79,3.79,0,0,1,2.62.81,3,3,0,0,1,.9,2.31,3.3,3.3,0,0,1-.86,2.39A3.58,3.58,0,0,1,118.42,475.57Z"/><path class="cls-2" d="M138.1,476.16l1-.59c.14-.71-.14-1.07-.83-1.07-1,0-1.48.76-1.48,2.28a10.45,10.45,0,0,0,.24,2.07,5.23,5.23,0,0,1,2.62,4.49,5.13,5.13,0,0,1-1.9,4.26,8,8,0,0,1-5.13,1.52,14.52,14.52,0,0,1-2.8-.28c-1,.65-1.51,1.13-1.51,1.45s.73.48,2.2.48H134q7.83,0,7.83,5.62a5.68,5.68,0,0,1-2.37,4.81Q137.1,503,132.1,503q-8.5,0-8.51-3.69c0-1.33.88-2.25,2.65-2.76l2.07.93a7.31,7.31,0,0,0-.27,1.9q0,3,4.41,3a7.18,7.18,0,0,0,4.13-1,2.92,2.92,0,0,0,1.45-2.48,2.06,2.06,0,0,0-.88-2,8.08,8.08,0,0,0-3.49-.5h-3.35a6.67,6.67,0,0,1-4-.93,2.81,2.81,0,0,1-1.2-2.29,3.17,3.17,0,0,1,.86-2.28A15.39,15.39,0,0,1,129,488.6a5,5,0,0,1-4-5.24,5.22,5.22,0,0,1,1.86-4.17c1.24-1.06,3.1-1.58,5.58-1.58a7.85,7.85,0,0,1,3.83.86,7.78,7.78,0,0,1-.21-1.69,3.42,3.42,0,0,1,1-2.79,3.5,3.5,0,0,1,2.31-.87,3,3,0,0,1,2.05.68,2.31,2.31,0,0,1,.77,1.84,2.23,2.23,0,0,1-.62,1.74,2.13,2.13,0,0,1-1.5.57,2.19,2.19,0,0,1-1.44-.47A1.7,1.7,0,0,1,138.1,476.16Zm-7.31,6.44v1.87a8.3,8.3,0,0,0,.4,3.13,1.29,1.29,0,0,0,1.21.83,1.21,1.21,0,0,0,1.17-.81,9.79,9.79,0,0,0,.36-3.33V482.6a11.38,11.38,0,0,0-.34-3.53,1.19,1.19,0,0,0-1.16-.84,1.3,1.3,0,0,0-1.22.87A9.51,9.51,0,0,0,130.79,482.6Z"/><path class="cls-2" d="M142.27,468.5h8.31v12.62a5.7,5.7,0,0,1,1.69-2.55,5.26,5.26,0,0,1,3.45-1c3.56,0,5.34,1.91,5.34,5.75v10.38H163v.62h-9.75v-.62h1.41v-11.2a7.84,7.84,0,0,0-.28-2.68,1,1,0,0,0-1-.6c-.73,0-1.38.48-1.94,1.45a6.79,6.79,0,0,0-.85,3.51v9.52h1.48v.62h-9.79v-.62h1.9V469.12h-1.9Z"/><path class="cls-2" d="M165.9,492.41a8.78,8.78,0,0,1-2.22-6.38,7.81,7.81,0,0,1,2.5-6.25,9.35,9.35,0,0,1,6.36-2.17q7.83,0,7.52,7.85h-9.73v1.35a11.7,11.7,0,0,0,.87,5.1,3.07,3.07,0,0,0,3,1.73q4,0,5.24-4.28l.62.1a7.15,7.15,0,0,1-2.37,3.87,8,8,0,0,1-5.11,1.37C169.61,494.7,167.39,493.94,165.9,492.41Zm4.47-7.63h3.55v-1.69a14.42,14.42,0,0,0-.33-3.81,1.29,1.29,0,0,0-1.31-1,1.53,1.53,0,0,0-1.45,1.09,10.51,10.51,0,0,0-.46,3.74Z"/><path class="cls-2" d="M193,494.36l-.38-2.41c-.78,1.84-2.37,2.75-4.76,2.75a5.46,5.46,0,0,1-4.6-2.13c-1.09-1.43-1.64-3.55-1.64-6.38q0-8.58,6.83-8.58c2,0,3.35.56,4,1.68V469.12h-2.11v-.62H199v25.24h1.69v.62ZM188.67,492c.26.8.72,1.19,1.4,1.19a2.24,2.24,0,0,0,1.76-.89,4.13,4.13,0,0,0,.74-2.66v-7.51a5,5,0,0,0-.59-2.52,1.86,1.86,0,0,0-1.72-1c-.76,0-1.28.5-1.55,1.51a22.74,22.74,0,0,0-.42,5.31v1.79A19.35,19.35,0,0,0,188.67,492Z"/><path class="cls-2" d="M65,518.68a5.21,5.21,0,0,1,2,.36,4.35,4.35,0,0,1,2.49,2.41,4.63,4.63,0,0,1,.33,1.76,4.88,4.88,0,0,1-.61,2.5,3.83,3.83,0,0,1-2,1.61v0a2.72,2.72,0,0,1,1.1.56,3,3,0,0,1,.72.9,4.44,4.44,0,0,1,.4,1.13,10.72,10.72,0,0,1,.17,1.25c0,.26,0,.56,0,.91s0,.72.08,1.08a8.2,8.2,0,0,0,.18,1,2.5,2.5,0,0,0,.38.84H66.63a6.14,6.14,0,0,1-.36-1.86q-.08-1.08-.21-2.07a3.25,3.25,0,0,0-.78-1.89,2.73,2.73,0,0,0-2-.59h-3.6v6.41H56.11V518.68Zm-1.29,7.42a2.7,2.7,0,0,0,1.86-.55,2.3,2.3,0,0,0,.62-1.79,2.21,2.21,0,0,0-.62-1.74,2.75,2.75,0,0,0-1.86-.54h-4v4.62Z"/><path class="cls-2" d="M74.81,523.54a8.34,8.34,0,0,1,1.59-2.75A7.23,7.23,0,0,1,78.94,519a8.94,8.94,0,0,1,6.79,0,7.19,7.19,0,0,1,2.53,1.83,8.14,8.14,0,0,1,1.58,2.75A10.21,10.21,0,0,1,90.4,527a9.9,9.9,0,0,1-.56,3.35,7.92,7.92,0,0,1-1.58,2.7,7.25,7.25,0,0,1-2.53,1.8,9.06,9.06,0,0,1-6.79,0A7.29,7.29,0,0,1,76.4,533a8.1,8.1,0,0,1-1.59-2.7,10.15,10.15,0,0,1-.55-3.35A10.46,10.46,0,0,1,74.81,523.54Zm3.3,5.42a5.39,5.39,0,0,0,.77,1.76A3.87,3.87,0,0,0,80.26,532a4.7,4.7,0,0,0,4.14,0,4,4,0,0,0,1.38-1.25,5.39,5.39,0,0,0,.77-1.76,8.38,8.38,0,0,0,.24-2,9.05,9.05,0,0,0-.24-2.09,5.6,5.6,0,0,0-.77-1.8,4.1,4.1,0,0,0-1.38-1.27,4.79,4.79,0,0,0-4.14,0,3.92,3.92,0,0,0-1.38,1.27,5.6,5.6,0,0,0-.77,1.8,9.05,9.05,0,0,0-.24,2.09A8.38,8.38,0,0,0,78.11,529Z"/><path class="cls-2" d="M98.74,518.68v13.38h8v3H95.13V518.68Z"/><path class="cls-2" d="M114.64,518.68v16.41H111V518.68Z"/><path class="cls-2" d="M129.81,535a6,6,0,0,1-2.37.5,8.4,8.4,0,0,1-3.39-.66,7.29,7.29,0,0,1-2.54-1.8,7.92,7.92,0,0,1-1.58-2.7,9.89,9.89,0,0,1-.55-3.35,10.2,10.2,0,0,1,.55-3.41,8.14,8.14,0,0,1,1.58-2.75,7.23,7.23,0,0,1,2.54-1.83,8.24,8.24,0,0,1,3.39-.67,8.09,8.09,0,0,1,2.45.38,6.92,6.92,0,0,1,2.14,1.11,6.07,6.07,0,0,1,2.33,4.3h-3.45a3.45,3.45,0,0,0-1.24-2.07,3.59,3.59,0,0,0-2.23-.69,4.28,4.28,0,0,0-2.07.47,4,4,0,0,0-1.37,1.27,5.62,5.62,0,0,0-.78,1.8A9.05,9.05,0,0,0,123,527a8.38,8.38,0,0,0,.24,2,5.4,5.4,0,0,0,.78,1.76,3.92,3.92,0,0,0,1.37,1.25,4.17,4.17,0,0,0,2.07.48,3.53,3.53,0,0,0,3.91-3.54h-3.63v-2.69h6.89v8.87h-2.3l-.36-1.86A5.52,5.52,0,0,1,129.81,535Z"/><path class="cls-2" d="M528.4,518.68v13.38h8v3H524.79V518.68Z"/><path class="cls-2" d="M544.31,518.68v16.41H540.7V518.68Z"/><path class="cls-2" d="M553.32,535.09,548,518.68h3.7l3.65,11.54h0l3.7-11.54h3.72l-5.45,16.41Z"/><path class="cls-2" d="M570.12,518.68v13.38h8v3h-11.6V518.68Z"/><path class="cls-2" d="M586,518.68v16.41h-3.61V518.68Z"/><path class="cls-2" d="M601.19,535a6.11,6.11,0,0,1-2.37.5,8.34,8.34,0,0,1-3.39-.66,7.19,7.19,0,0,1-2.54-1.8,8.1,8.1,0,0,1-1.59-2.7,10.15,10.15,0,0,1-.55-3.35,10.46,10.46,0,0,1,.55-3.41,8.34,8.34,0,0,1,1.59-2.75,7.14,7.14,0,0,1,2.54-1.83,8.17,8.17,0,0,1,3.39-.67,8.09,8.09,0,0,1,2.45.38,6.87,6.87,0,0,1,2.13,1.11A6.17,6.17,0,0,1,605,521.6a6.33,6.33,0,0,1,.76,2.48h-3.45a3.49,3.49,0,0,0-1.24-2.07,3.63,3.63,0,0,0-2.23-.69,4.28,4.28,0,0,0-2.07.47,3.92,3.92,0,0,0-1.38,1.27,5.6,5.6,0,0,0-.77,1.8,9.05,9.05,0,0,0-.24,2.09,8.38,8.38,0,0,0,.24,2,5.39,5.39,0,0,0,.77,1.76,3.87,3.87,0,0,0,1.38,1.25,4.17,4.17,0,0,0,2.07.48,3.51,3.51,0,0,0,3.9-3.54h-3.63v-2.69H606v8.87h-2.3l-.37-1.86A5.43,5.43,0,0,1,601.19,535Z"/><path class="cls-2" d="M603.3,765.21H57.47a2.87,2.87,0,1,1,0-5.74H603.3a2.87,2.87,0,0,1,0,5.74Z"/><path class="cls-2" d="M54.57,658.68H64.88c3.2,0,5.59.43,7.19,1.29a4.56,4.56,0,0,1,2.39,4.37c0,3.14-1.89,5-5.68,5.65v.07q6.89.86,6.89,6,0,3.75-2.83,5.25t-8.13,1.5H54.57v-.65h2.24V659.34H54.57Zm9,.66V670h.89a2.76,2.76,0,0,0,2.5-1.09,6.2,6.2,0,0,0,.71-3.33v-1.62a7.4,7.4,0,0,0-.62-3.57,2.59,2.59,0,0,0-2.38-1Zm0,11.27v11.55h1.62a2.81,2.81,0,0,0,2.65-1.31,7.79,7.79,0,0,0,.76-3.86v-1.83a5.3,5.3,0,0,0-.93-3.41,4.07,4.07,0,0,0-3.31-1.14Z"/><path class="cls-2" d="M76.77,666.4h8.45v15.79h1.93v.62H76.91v-.62h1.9V667h-2ZM82,664a3.2,3.2,0,0,1-2.6-.94,3.46,3.46,0,0,1-.78-2.3,3.17,3.17,0,0,1,.85-2.28,3.34,3.34,0,0,1,2.56-.9,3.77,3.77,0,0,1,2.62.81,3,3,0,0,1,.9,2.31,3.34,3.34,0,0,1-.86,2.4A3.58,3.58,0,0,1,82,664Z"/><path class="cls-2" d="M89.22,677.88V667h-1.9v-.62h1.9V662l6.41-1.59v6h5V662l6.42-1.59v6h4.48V667h-4.48v11.62a6.38,6.38,0,0,0,.32,2.38,1.33,1.33,0,0,0,1.37.76,2.26,2.26,0,0,0,1.81-1,6.09,6.09,0,0,0,1-2.83l.59.07a6.71,6.71,0,0,1-1.52,3.77,4.91,4.91,0,0,1-3.86,1.4,9,9,0,0,1-4-.74,3.78,3.78,0,0,1-1.88-2.64q-1.25,3.38-5.62,3.38A7.48,7.48,0,0,1,90.79,682C89.74,681.26,89.22,679.88,89.22,677.88Zm11.44,0V667h-5v11.62A5.27,5.27,0,0,0,96,681a1.65,1.65,0,0,0,1.57.74,2.48,2.48,0,0,0,2-1A5.77,5.77,0,0,0,100.66,677.88Z"/><path class="cls-2" d="M114.92,680.87a8.8,8.8,0,0,1-2.22-6.38,7.86,7.86,0,0,1,2.49-6.26,9.35,9.35,0,0,1,6.36-2.17q7.83,0,7.52,7.86h-9.72v1.34a11.89,11.89,0,0,0,.86,5.11,3.06,3.06,0,0,0,3,1.72c2.67,0,4.41-1.42,5.24-4.28l.62.11a7.15,7.15,0,0,1-2.36,3.86,8,8,0,0,1-5.12,1.38C118.62,683.16,116.4,682.39,114.92,680.87Zm4.46-7.64h3.55v-1.69a15.07,15.07,0,0,0-.32-3.81,1.3,1.3,0,0,0-1.31-1,1.54,1.54,0,0,0-1.45,1.09,10.46,10.46,0,0,0-.47,3.74Z"/><path class="cls-2" d="M141.82,667.37a2.72,2.72,0,0,0-2.24,1.65,7.73,7.73,0,0,0-1,3.93v9.24h2.45v.62H130.31v-.62h1.9V667h-1.9v-.62h8.31v3.31a4.67,4.67,0,0,1,1.72-2.7,4.76,4.76,0,0,1,2.9-1,3.8,3.8,0,0,1,2.64.91,3.32,3.32,0,0,1,1,2.59,3.86,3.86,0,0,1-.76,2.57,2.89,2.89,0,0,1-2.32.89,2.64,2.64,0,0,1-2.31-1,3.16,3.16,0,0,1-.19-2.86h1.24C143.12,668,142.88,667.37,141.82,667.37Z"/><path class="cls-2" d="M147,657h8.31v12.62A5.79,5.79,0,0,1,157,667a5.23,5.23,0,0,1,3.44-1q5.35,0,5.35,5.76v10.37h1.93v.62H158v-.62h1.42V671a8,8,0,0,0-.28-2.67,1,1,0,0,0-1-.61c-.74,0-1.38.49-1.95,1.45a6.92,6.92,0,0,0-.84,3.52v9.51h1.48v.62H147v-.62h1.9V657.58H147Z"/><path class="cls-2" d="M170.66,680.87a8.8,8.8,0,0,1-2.22-6.38,7.83,7.83,0,0,1,2.5-6.26,9.31,9.31,0,0,1,6.36-2.17q7.81,0,7.51,7.86h-9.72v1.34a11.89,11.89,0,0,0,.86,5.11,3.08,3.08,0,0,0,3,1.72c2.67,0,4.42-1.42,5.24-4.28l.62.11a7.09,7.09,0,0,1-2.36,3.86,8,8,0,0,1-5.12,1.38C174.37,683.16,172.14,682.39,170.66,680.87Zm4.47-7.64h3.55v-1.69a14.47,14.47,0,0,0-.33-3.81,1.3,1.3,0,0,0-1.31-1,1.54,1.54,0,0,0-1.45,1.09,10.51,10.51,0,0,0-.46,3.74Z"/><path class="cls-2" d="M197.77,682.81l-.37-2.41c-.79,1.84-2.37,2.76-4.76,2.76A5.44,5.44,0,0,1,188,681c-1.1-1.42-1.64-3.55-1.64-6.38q0-8.58,6.82-8.58c2,0,3.36.56,4,1.69V657.58h-2.1V657h8.62v25.23h1.69v.62Zm-4.34-2.32a1.44,1.44,0,0,0,1.4,1.19,2.21,2.21,0,0,0,1.75-.9,4.06,4.06,0,0,0,.75-2.66v-7.51a5,5,0,0,0-.59-2.52,1.86,1.86,0,0,0-1.72-1c-.76,0-1.28.51-1.55,1.52a22.7,22.7,0,0,0-.42,5.3v1.8A19.46,19.46,0,0,0,193.43,680.49Z"/><path class="cls-2" d="M59.72,707.13v13.38h8v3H56.11V707.13Z"/><path class="cls-2" d="M75.62,707.13v16.41H72V707.13Z"/><path class="cls-2" d="M88.14,707.13a8.4,8.4,0,0,1,3,.51,6.31,6.31,0,0,1,2.36,1.52A7,7,0,0,1,95,711.68a10.41,10.41,0,0,1,.56,3.57,11.32,11.32,0,0,1-.46,3.31,7.39,7.39,0,0,1-1.39,2.62,6.51,6.51,0,0,1-2.32,1.73,7.9,7.9,0,0,1-3.28.63H81.07V707.13Zm-.25,13.38a4.89,4.89,0,0,0,1.52-.25,3.42,3.42,0,0,0,1.31-.84,4.25,4.25,0,0,0,.92-1.53,6.72,6.72,0,0,0,.34-2.3,9.62,9.62,0,0,0-.24-2.24,4.35,4.35,0,0,0-.79-1.71,3.5,3.5,0,0,0-1.46-1.09,5.7,5.7,0,0,0-2.24-.38H84.67v10.34Z"/><path class="cls-2" d="M99.08,710.17v-3h13.45v3h-4.92v13.37H104V710.17Z"/><path class="cls-2" d="M522.77,707.13l3.84,11.29h0l3.63-11.29h5.08v16.41H532V711.91h0l-4,11.63h-2.78l-4-11.51h0v11.51h-3.38V707.13Z"/><path class="cls-2" d="M553.08,707.13v3h-8.66v3.51h8v2.81h-8v4h8.85v3H540.81V707.13Z"/><path class="cls-2" d="M567.7,723.42a6,6,0,0,1-2.37.49,8.57,8.57,0,0,1-3.39-.65,7.18,7.18,0,0,1-2.53-1.81,7.91,7.91,0,0,1-1.59-2.7,9.84,9.84,0,0,1-.55-3.34,10.22,10.22,0,0,1,.55-3.42,8.29,8.29,0,0,1,1.59-2.74,7.13,7.13,0,0,1,2.53-1.84,8.24,8.24,0,0,1,3.39-.67,8,8,0,0,1,2.45.38,7.17,7.17,0,0,1,2.14,1.12,6.1,6.1,0,0,1,1.57,1.81,6,6,0,0,1,.76,2.48H568.8a3.4,3.4,0,0,0-1.24-2.06,3.59,3.59,0,0,0-2.23-.69,4.1,4.1,0,0,0-2.06.47,3.8,3.8,0,0,0-1.38,1.26,5.36,5.36,0,0,0-.77,1.81,9,9,0,0,0-.24,2.09,8.38,8.38,0,0,0,.24,2,5.27,5.27,0,0,0,.77,1.76,3.87,3.87,0,0,0,1.38,1.25,4.21,4.21,0,0,0,2.06.47,3.89,3.89,0,0,0,2.77-.91,4,4,0,0,0,1.14-2.63h-3.63v-2.69h6.89v8.87h-2.29l-.37-1.86A5.4,5.4,0,0,1,567.7,723.42Z"/><path class="cls-2" d="M590,707.13v3h-8.66v3.51h8v2.81h-8v4h8.85v3H577.7V707.13Z"/><path class="cls-2" d="M593.58,710.17v-3H607v3h-4.91v13.37H598.5V710.17Z"/><path class="cls-2" d="M78.43,365.29a6.68,6.68,0,0,0,2.08-4.84c-.32-4.06-6.13-7.21-11.09-6.94-3.92.22-9.37,2.7-9.71,6.94a6.37,6.37,0,0,0,2,4.87C54.82,368.93,50,376.87,50,386.1,50,398.74,59,409,70.11,409s20.11-10.25,20.11-22.89C90.22,376.85,85.38,368.89,78.43,365.29Z"/><path class="cls-2" d="M339.28,554.89a6.66,6.66,0,0,0,2.08-4.84c-.32-4.06-6.13-7.21-11.09-6.93-3.92.21-9.38,2.69-9.71,6.93a6.34,6.34,0,0,0,2,4.87c-6.92,3.62-11.74,11.55-11.74,20.79,0,12.64,9,22.88,20.11,22.88s20.11-10.24,20.11-22.88C351.07,566.45,346.23,558.49,339.28,554.89Z"/><path class="cls-2" d="M245.05,741.05a6.72,6.72,0,0,0,2.09-4.84c-.33-4.06-6.14-7.22-11.1-6.94-3.92.22-9.37,2.69-9.71,6.94a6.37,6.37,0,0,0,2,4.87c-6.92,3.61-11.73,11.55-11.73,20.78,0,12.64,9,22.89,20.1,22.89s20.11-10.25,20.11-22.89C256.84,752.6,252,744.65,245.05,741.05Z"/></g></svg>
