<svg xmlns="http://www.w3.org/2000/svg" xmlns:xlink="http://www.w3.org/1999/xlink" viewBox="0 0 250 250"><defs><style>.cls-1,.cls-4{fill:none;}.cls-2{clip-path:url(#clip-path);}.cls-3{fill:#093a83;}.cls-4{stroke:#9d9fa1;stroke-miterlimit:10;stroke-width:3.43px;}.cls-5{fill:#fff;}.cls-6{fill:#1b1045;}.cls-7{fill:#9d9fa1;}.cls-8{fill:#bfe1da;}</style><clipPath id="clip-path"><rect class="cls-1" x="-45.14" y="-48.42" width="347" height="347"/></clipPath></defs><title>logo</title><g id="_2_mennesker" data-name="2 mennesker"><g class="cls-2"><g class="cls-2"><path class="cls-3" d="M232.45,125.08A104.09,104.09,0,1,1,128.36,21,104.08,104.08,0,0,1,232.45,125.08"/><circle class="cls-4" cx="128.36" cy="125.08" r="109.8"/></g><polygon class="cls-5" points="160.44 108.24 160.44 183.75 201.41 183.75 201.41 170.24 174.59 170.24 174.59 108.24 160.44 108.24"/><g class="cls-2"><path class="cls-5" d="M128.31,39.29a24.11,24.11,0,0,0-10.55,2.1c-7.91,3.8-9.87,12.11-9.87,19.38V76h15v-17c0-3.81,2.21-6.27,5.64-6.27a5.37,5.37,0,0,1,3.91,1.53,6.54,6.54,0,0,1,1.74,4.74V76h15V60.77c0-13.65-7.6-21.48-20.85-21.48"/><path class="cls-5" d="M107.89,108.24v55.94c0,9.3,3.23,15.62,9.43,18.76a24.14,24.14,0,0,0,11,2.3c13.44,0,20.85-7.48,20.85-21.06V108.24h-15v57.63a6.52,6.52,0,0,1-1.73,4.75,5.37,5.37,0,0,1-3.91,1.53c-3.42,0-5.64-2.46-5.64-6.28V108.24Z"/><polygon class="cls-5" points="85.22 108.24 85.22 156.4 84.49 156.4 70.53 109.64 57.03 109.64 57.03 185.16 68.42 185.16 68.42 137 69.14 137 83.11 183.75 96.61 183.75 96.61 108.24 85.22 108.24"/><rect class="cls-6" x="175.99" y="108.24" width="2.81" height="60.6"/><polygon class="cls-6" points="201.42 168.84 201.42 168.84 201.42 168.84 201.42 185.16 204.22 185.16 204.22 168.84 201.42 168.84"/><path class="cls-6" d="M126.32,54.76a3.59,3.59,0,0,0-1.42,1.47,6,6,0,0,0-.62,2.85V76h2.81v-17c0-2.41,1-4.1,2.84-4.66a4.79,4.79,0,0,0-1.41-.22,4.35,4.35,0,0,0-2.2.56"/><path class="cls-6" d="M131.12,37.88c-.49,0-.94,0-1.4.06,13.31.57,20.84,9.12,20.84,22.83V76h2.81V60.77c0-14.2-8.06-22.89-22.25-22.89"/><path class="cls-6" d="M128.52,170.75a4.56,4.56,0,0,0,1.26-.18l.15,0c-1.85-.56-2.84-2.25-2.84-4.66V108.24h-2.8v57.63c0,3,1.48,4.88,4.23,4.88"/><path class="cls-6" d="M150.56,108.24h0v55.94c0,6.78-1.86,12.39-5.56,16.31-3.48,3.68-8.6,5.83-15.32,6.1.48,0,.94,0,1.44,0,14.83,0,22.25-8.9,22.25-22.46V108.24Z"/><polygon class="cls-6" points="83.81 148.42 83.81 139.81 74.38 108.24 71.57 108.24 83.57 148.42 83.81 148.42"/><polygon class="cls-6" points="69.83 144.98 69.83 185.16 72.63 185.16 72.63 153.58 70.06 144.98 69.83 144.98"/><rect class="cls-6" x="98.01" y="108.24" width="2.81" height="76.92"/><polygon class="cls-7" points="175.99 168.84 175.99 108.24 174.59 108.24 174.59 170.24 201.41 170.24 201.41 168.84 175.99 168.84"/><polygon class="cls-7" points="160.44 183.75 160.44 108.24 159.04 108.24 159.04 185.16 201.41 185.16 201.41 183.75 160.44 183.75"/><path class="cls-7" d="M129.72,37.94c-.47,0-.93-.06-1.41-.06-7.31,0-12.6,2.16-16.15,5.88-3.87,4.05-5.67,9.94-5.67,17V76h1.4V60.77c0-7.27,2-15.58,9.88-19.38a24,24,0,0,1,10.54-2.1c13.25,0,20.85,7.83,20.85,21.48V76h1.4V60.77c0-13.72-7.53-22.26-20.84-22.83"/><path class="cls-7" d="M128.52,52.8c-3.42,0-5.64,2.46-5.64,6.28V76h1.4v-17a6,6,0,0,1,.62-2.85,3.66,3.66,0,0,1,1.42-1.47,4.35,4.35,0,0,1,2.2-.56,4.79,4.79,0,0,1,1.41.22c1.84.56,2.83,2.25,2.83,4.66V76h1.4v-17a6.51,6.51,0,0,0-1.73-4.75,5.37,5.37,0,0,0-3.91-1.53"/><path class="cls-7" d="M150.56,108.24h-1.4v55.94c0,13.58-7.41,21.06-20.85,21.06a24.14,24.14,0,0,1-11-2.3c-6.2-3.14-9.43-9.46-9.43-18.76V108.24h-1.4v55.94c0,14,7,22.46,21.82,22.46.47,0,.91,0,1.36,0h0c6.72-.27,11.84-2.43,15.32-6.1,3.7-3.92,5.56-9.53,5.56-16.31Z"/><path class="cls-7" d="M128.52,172.15a5.37,5.37,0,0,0,3.91-1.53,6.52,6.52,0,0,0,1.73-4.75V108.24h-1.4v57.63c0,2.41-1,4.1-2.83,4.66l-.15,0a4.56,4.56,0,0,1-1.26.18c-2.75,0-4.24-1.91-4.24-4.88V108.24h-1.4v57.63c0,3.82,2.22,6.28,5.64,6.28"/><polygon class="cls-7" points="84.49 156.4 85.22 156.4 85.22 108.23 83.81 108.23 83.81 108.23 83.81 148.42 83.81 148.42 83.57 148.42 71.57 108.23 55.63 108.23 55.63 185.16 57.03 185.16 57.03 109.64 70.53 109.64 84.49 156.4"/><polygon class="cls-7" points="96.61 108.24 96.61 183.75 83.11 183.75 69.14 137 68.42 137 68.42 185.16 69.83 185.16 69.83 144.98 70.06 144.98 82.06 185.16 98.01 185.16 98.01 108.24 96.61 108.24"/><polygon class="cls-8" points="81.07 84.98 81.07 102.15 77.32 102.15 77.32 84.98 70.82 84.98 70.82 81.86 87.55 81.86 87.55 84.98 81.07 84.98"/><path class="cls-8" d="M97.94,99.17c2.58,0,4.33-1.77,4.33-5V81.86H106V94.15c0,5.28-3.53,8.33-8.08,8.33s-8.09-3-8.09-8.33V81.86H93.6V94.12c0,3.28,1.78,5,4.34,5"/><path class="cls-8" d="M109.94,81.86h5.83c4.53,0,6.89,2.12,6.89,5.37a4.53,4.53,0,0,1-2.83,4.22,5.08,5.08,0,0,1,4.09,4.92c0,3.58-2.79,5.78-7.17,5.78h-6.81Zm5.61,8.59c2.11,0,3.45-1,3.45-2.72S117.66,85,115.55,85h-2v5.47Zm1,8.59c2.14,0,3.59-1.12,3.59-2.92s-1.45-2.89-3.59-2.89H113.6V99Z"/><path class="cls-8" d="M146.86,92A10.37,10.37,0,1,1,136.5,81.53,10.41,10.41,0,0,1,146.86,92m-17,0a6.62,6.62,0,1,0,6.61-7,6.72,6.72,0,0,0-6.61,7"/><path class="cls-8" d="M153.88,102.15h-3.75V81.86h5.72c4.48,0,7.67,2.31,7.67,6.28a5.67,5.67,0,0,1-4,5.56l6.3,8.45h-4.36l-5.81-7.84h-1.8Zm-.07-10.84h2c2.31,0,3.86-1.14,3.86-3.17S158.09,85,155.78,85h-2Z"/><path class="cls-8" d="M186.23,91.37c0,.36,0,.72,0,1.08,0,6.34-4.45,10-9.81,10a10.48,10.48,0,0,1,0-21,9.65,9.65,0,0,1,8.56,5l-3.14,1.89a6.13,6.13,0,0,0-5.42-3.36,6.74,6.74,0,0,0-6.59,7,6.84,6.84,0,0,0,6.65,7,5.67,5.67,0,0,0,5.83-4.58h-5.61V91.37Z"/></g></g></g></svg>
