<svg xmlns="http://www.w3.org/2000/svg" xmlns:xlink="http://www.w3.org/1999/xlink" viewBox="0 0 800 650"><defs><style>.cls-1{fill:none;}.cls-2{fill:#bedfd9;}.cls-3{fill:#eabc86;}.cls-4{fill:#9b9c9d;}.cls-17,.cls-20,.cls-5{fill:#1d3e7b;}.cls-17,.cls-5{stroke:#1d3e7b;stroke-linecap:round;stroke-linejoin:round;}.cls-5{stroke-width:1.37px;}.cls-6{fill:#b3b3b2;}.cls-7{fill:#3860a0;}.cls-8{clip-path:url(#clip-path);}.cls-9{fill:#fff;}.cls-10{fill:#093a83;}.cls-11{fill:#9d9fa1;}.cls-12{fill:#1a0a43;}.cls-13{fill:#bfe1da;}.cls-14{clip-path:url(#clip-path-3);}.cls-15{fill:#e6e6e6;}.cls-16{fill:#f9c177;}.cls-17{stroke-width:1.4px;}.cls-18{clip-path:url(#clip-path-5);}.cls-19{clip-path:url(#clip-path-7);}.cls-21{fill:#ceefe8;}</style><clipPath id="clip-path"><rect class="cls-1" x="473.35" y="169.57" width="172.95" height="227.89" transform="translate(-34.36 81.69) rotate(-8.1)"/></clipPath><clipPath id="clip-path-3"><path class="cls-1" d="M537.26,230.69a64.39,64.39,0,0,1,29.51-4.2c-.56-1.37-7.24-2-15.18-.89s-14.16,3.61-14.33,5.09m-1.09-3.33c-.13-.64-.12-1.18,0-1.21s.38.46.52,1.09.12,1.18,0,1.21h0c-.15,0-.37-.46-.51-1.09M566.34,223c-.05-.65,0-1.19.18-1.19s.32.5.37,1.15,0,1.17-.19,1.19h0c-.15,0-.32-.51-.36-1.15m-28.15,2.47c-.11-.76.13-1.42.55-1.48s.84.51,1,1.27-.14,1.42-.56,1.48-.84-.51-.94-1.27M562.93,222c-.11-.76.14-1.42.56-1.48s.84.5,1,1.27-.14,1.42-.56,1.48-.84-.51-1-1.27m-21.54,2.46a8,8,0,0,1,.62-1.92A6.85,6.85,0,0,1,543.2,224a11.92,11.92,0,0,1-.68,1.77,13.48,13.48,0,0,1-1.13-1.28m17.79-2.76a7.24,7.24,0,0,1,.75-1.71,7.54,7.54,0,0,1,1.13,1.67,12.27,12.27,0,0,1-.72,1.55,14.16,14.16,0,0,1-1.16-1.51m-14.13,1.53a1.25,1.25,0,1,1,1.42,1.08,1.26,1.26,0,0,1-1.42-1.08m9.68-1.38a1.27,1.27,0,0,1,1.06-1.45,1.28,1.28,0,0,1,.36,2.54,1.27,1.27,0,0,1-1.42-1.09m-5,1.92a25.69,25.69,0,0,1-.44-2.65,5.89,5.89,0,0,1,1.6-.38,6,6,0,0,1,1.66-.08,21.39,21.39,0,0,1,.3,2.67c-.35.08-1,.19-1.55.27s-1.2.15-1.57.17m-13.73.64-.26.22.24.8s-.6.29-.41,1.69c.29,2,1.31,2.07,1.31,2.07l.14.29c1.79-1.79,7.8-3.76,14.45-4.71s13-.72,15.19.49l.05-.31s1-.37.68-2.36c-.2-1.4-.85-1.51-.85-1.51v-.83l-.3-.14c-.05,0-5.1-2.19-15.53-.71s-14.66,5-14.7,5m-2.73-3.53c-.32-.37-.48-.77-.35-.89s.49.09.82.46.49.78.36.89l-.07,0c-.16,0-.48-.17-.76-.49m33.92-4.24c-.15-.08-.11-.51.1-1s.51-.76.66-.68.12.51-.09,1-.43.66-.59.69Zm-28.37.35c0-.46-.1-1.37-.1-1.94a8.17,8.17,0,0,1,1.56,1.4,11.61,11.61,0,0,1,.05,1.95,14,14,0,0,1-1.51-1.41m21.07-3.33a8.66,8.66,0,0,1,1.11-1.78c.16.54.35,1.44.45,1.88a12.51,12.51,0,0,1-1.07,1.78,14,14,0,0,1-.49-1.88m-10.7,1.43s-.19-1-.24-1.38-.19-1.42-.19-1.42a8.22,8.22,0,0,1,.9-.22,7.56,7.56,0,0,1,.93,0l.21,1.42c.05.34.16,1.39.16,1.39s-.55.13-.88.17-.89.08-.89.08M547,210.75a2.67,2.67,0,0,0,.7,1.47,3.28,3.28,0,0,0-1.06-.07c-.48.07-1.35.57-1.06,2.59s1.41,2.46,2.16,2.35a1.47,1.47,0,0,0,.33-.1s-.22.54-1.23.69a3.38,3.38,0,0,1-1.63-.3,2.24,2.24,0,0,1-1.75,1.11,1.13,1.13,0,0,1-.91-.23s1.49,0,1.18-2.08-1.84-2.63-2.24-2.57a2.13,2.13,0,0,0-1.31.83s0-.43-.08-.84a1.64,1.64,0,0,0-1.85-1.55c-1.33.19-2.47,1.09-2.33,2.06.1.73,1.32,1.88,1.32,1.88a1.42,1.42,0,0,0-.36,0,1.08,1.08,0,0,0-1,1.38c.16,1.12,1.34,2.56,2.47,2.4a1.56,1.56,0,0,0,.92-.42s-.11.86-1.31,1a.93.93,0,0,1-.87-.21s0,.92-.72,1-.77-.11-.77-.11,1.6-.51.4-2.24c-.74-1.06-1.17-1.17-1.52-1.12s-.8.64-.8.64a5.67,5.67,0,0,0,0-1.28c-.09-.6-.48-1.37-1.33-1.25-1.15.16-2.72,2.26-2.72,2.26s2.37.74,2.87,1.4a.94.94,0,0,0-.11.6,2,2,0,0,0,2.2,1.76,12.43,12.43,0,0,1,.88,1.87s4.28-3.66,15.12-5.2,16,.78,16,.78a12.84,12.84,0,0,1,.33-2.05,2,2,0,0,0,1.62-2.3.86.86,0,0,0-.27-.54c.3-.78,2.36-2.15,2.36-2.15s-2.08-1.58-3.24-1.41a1.24,1.24,0,0,0-.92,1.57,5.26,5.26,0,0,0,.36,1.23s-.59-.45-.94-.4-.74.28-1.15,1.51c-.68,2,1,2,1,2s0,.22-.7.32-1-.78-1-.78a.93.93,0,0,1-.77.45,1.37,1.37,0,0,1-1.55-.62,1.62,1.62,0,0,0,1,.15c1.14-.17,1.87-1.89,1.71-3a1.25,1.25,0,0,0-1.72-.93,5.18,5.18,0,0,0,.74-2.18c-.14-1-1.49-1.52-2.82-1.33a1.64,1.64,0,0,0-1.35,2c.06.41.17.83.17.83a2.21,2.21,0,0,0-1.5-.44c-.39.06-1.73,1-1.43,3.09s1.72,1.68,1.72,1.68a1.13,1.13,0,0,1-.81.47,2.26,2.26,0,0,1-2-.58,3.43,3.43,0,0,1-1.47.74c-1,.15-1.38-.31-1.38-.31a1.89,1.89,0,0,0,.35,0c.75-.1,1.7-.84,1.41-2.86s-1.25-2.26-1.74-2.19a3.48,3.48,0,0,0-1,.36,2.66,2.66,0,0,0,.27-1.61c-.16-1.12-1.54-1.38-2.64-1.23s-2.34.8-2.18,1.92m1.42-2.84a1,1,0,0,1-.4-.65.94.94,0,0,1,.78-1.08.79.79,0,0,1,.43,0,.92.92,0,0,1,.63.77.91.91,0,0,1-1.44.91m-1-3a1.15,1.15,0,0,1,1-1.32,1,1,0,0,1,.45,0,1.2,1.2,0,0,1,.85,1,1.17,1.17,0,0,1-1,1.33,1.15,1.15,0,0,1-1.29-1m-2-.94a3.16,3.16,0,0,0,1.38,1.84l.16,3.46a4.1,4.1,0,0,1,4.31-.62l-.81-3.36a3.08,3.08,0,0,0,.81-2.15,7.58,7.58,0,0,0-3-.16,7.69,7.69,0,0,0-2.84,1m-18.21,12h0a.83.83,0,1,1,1.65-.24h0a.83.83,0,1,1-1.65.24m-1.06-2.23h0a.87.87,0,1,1,1.72-.25h0a.87.87,0,1,1-1.72.25m7.39-2a.91.91,0,0,1,.75-1,.86.86,0,0,1,.36,0,.93.93,0,0,1,.67.77.9.9,0,1,1-1.78.25m-7.66-.52A.94.94,0,1,1,527,212a.94.94,0,0,1-1.06-.81m7.09-1.23-.09-.06-.08-.05-.09-.08-.07-.07,0,0a1.21,1.21,0,0,1-.23-.53h0a1.1,1.1,0,0,1,.91-1.25h0a1.1,1.1,0,0,1,1.22.95,1.07,1.07,0,0,1-1.53,1.14m3.87-2.42a.6.6,0,0,1-.1-.3.88.88,0,0,1,.79-1.09c1.44-.21,5.26,1,7.56.95-.19.11-.43.34-2.28.6a36.42,36.42,0,0,1-6-.16m-10,1.15a1,1,0,0,1,.84-1.16,1,1,0,1,1-.84,1.16m16-3.05a.86.86,0,0,1-.62-.71.85.85,0,0,1,.7-1,.77.77,0,0,1,.34,0,.87.87,0,0,1,.61.71.84.84,0,0,1-.7,1,.72.72,0,0,1-.33,0M529.14,207h0a1.11,1.11,0,1,1,2.2-.32h0a1.11,1.11,0,1,1-2.2.31m3.08-.65a1.11,1.11,0,0,1,.93-1.28.93.93,0,0,1,.44,0,1.14,1.14,0,0,1,.82.95,1.12,1.12,0,0,1-.93,1.28h0a1.12,1.12,0,0,1-1.25-1m7.58-2.1a1,1,0,0,1,.79-1.09.94.94,0,0,1,.59.14,1,1,0,0,1,.47.69.93.93,0,1,1-1.85.26m-2.6-.19-.05-.06v0a1,1,0,0,1-.12-.34h0a1,1,0,0,1,.85-1.17,1,1,0,0,1,.58.1l.06,0,.1.06.06.06.08.08,0,.05.08.11h0a1,1,0,0,1,.14.37h0a1,1,0,0,1-.85,1.16h0a1,1,0,0,1-1-.43m-2.54.72-.06,0h0a1.14,1.14,0,0,1-.41-.73h0a1.07,1.07,0,0,1,.9-1.24,1.09,1.09,0,0,1,1.22.94h0a1.1,1.1,0,0,1-.91,1.25h0a1.06,1.06,0,0,1-.74-.19m-.69-1.9a1.63,1.63,0,0,0-.3,1.21,1.5,1.5,0,0,0,.16.52,1.58,1.58,0,0,0-.75-.08,1.62,1.62,0,0,0-1.07.65.5.5,0,1,1-.8.33,1.61,1.61,0,0,0-1.21-.33,1.64,1.64,0,0,0-1.07.65,1.75,1.75,0,0,0-.3,1.24l0,.14a1.52,1.52,0,0,0-1-.18,1.45,1.45,0,0,0-1,.6,1.59,1.59,0,0,0-.29,1.16,1.63,1.63,0,0,0,.36.8h-.08a1.43,1.43,0,0,0-1,.58,1.51,1.51,0,0,0-.28,1.11,1.57,1.57,0,0,0,.57,1,1.74,1.74,0,0,0,.26.15,1.38,1.38,0,0,0-.29.3,1.41,1.41,0,0,0-.26,1.05,1.44,1.44,0,0,0,.54.94,1.32,1.32,0,0,0,.75.29,1.43,1.43,0,0,0,.3,1.92,1.43,1.43,0,0,0,1,.27c.19,0,.79-.32,1.08-.36a.51.51,0,0,1,.5.13l1.64-1.43a12.82,12.82,0,0,1-1.54-3.57,2.6,2.6,0,0,1,2-2.74,2.5,2.5,0,0,0,.63,1.07,1.49,1.49,0,0,0,.88.33,1.61,1.61,0,0,0-.35,1.19,1.47,1.47,0,0,0,.56,1,1.42,1.42,0,0,0,1.05.28c.4-.06.91-.36,1.19-.4a4.69,4.69,0,0,1,2.19-1.12c-.15-.37-.85-2.33-.85-2.33a18.94,18.94,0,0,0,4.07-.14,13.24,13.24,0,0,0,5.2-1.54l-.06-1.3a5.11,5.11,0,0,1-1.63-.24c-.37-.23-.29-.77-.37-1.34a1.49,1.49,0,0,0-.53-.91,1.36,1.36,0,0,0-1-.27,1.32,1.32,0,0,0-.78.41,1.53,1.53,0,0,0-.56-1,1.44,1.44,0,0,0-2,.29l0,.06h0a1.61,1.61,0,0,0-.6-1,1.47,1.47,0,0,0-1.13-.3,1.52,1.52,0,0,0-1,.61,1.4,1.4,0,0,0-.22.44,1.81,1.81,0,0,0-.37-.41,1.59,1.59,0,0,0-1.19-.31,1.53,1.53,0,0,0-1,.63m36.58,6.9h0a.84.84,0,0,1,.71-1,.74.74,0,0,1,.33,0,.87.87,0,0,1,.61.71.84.84,0,0,1-.7,1,.86.86,0,0,1-1-.74m.83-1.75a.9.9,0,0,1-.5-.67.88.88,0,0,1,.73-1,.84.84,0,0,1,.39,0,.88.88,0,1,1-.62,1.63m-7.85.12a.9.9,0,0,1-.2-.23l0,0a1,1,0,0,1-.12-.34.91.91,0,0,1,.76-1,.82.82,0,0,1,.35,0,.93.93,0,0,1-.09,1.81.91.91,0,0,1-.67-.18m6.79-3.24a.94.94,0,0,1,.78-1.09h0a1,1,0,0,1,1.06.82,1,1,0,0,1-.79,1.08h0a.93.93,0,0,1-1-.81m-6.3.78a1.11,1.11,0,0,1,.11-2.16h0a1.12,1.12,0,0,1,.6.09h0l0,0a1.11,1.11,0,0,1,.55.81h0a1.1,1.1,0,0,1-.9,1.25,1.22,1.22,0,0,1-.43,0m-11.44.39c2.22-.63,5.55-2.82,7-3a.88.88,0,0,1,1.07.83.8.8,0,0,1,0,.31,35.48,35.48,0,0,1-5.68,1.82,5.12,5.12,0,0,1-2.36.06m16-3.29a1,1,0,0,1,.85-1.16.9.9,0,0,1,.4,0h0l.16.07.09.05.08.05.05,0a1.11,1.11,0,0,1,.34.64,1,1,0,0,1-.85,1.16h0a1,1,0,0,1-1.14-.88m-14.86,1.34a.85.85,0,0,1-.47-.35l0,0-.05-.16-.06-.17h0a.85.85,0,0,1,.7-1,.73.73,0,0,1,.33,0,.84.84,0,0,1,.61.7.85.85,0,0,1-.7,1,.93.93,0,0,1-.33,0m12.78-1.43a1.13,1.13,0,0,1-.74-.91,1.11,1.11,0,0,1,.94-1.28,1,1,0,0,1,.64.1,1.17,1.17,0,0,1,.62.87,1.12,1.12,0,0,1-.94,1.28,1,1,0,0,1-.52-.06m-3.87-.68a1.12,1.12,0,0,1,.94-1.28,1.08,1.08,0,0,1,.44,0,1.12,1.12,0,0,1,.81.94,1.13,1.13,0,0,1-.93,1.29h0a1.13,1.13,0,0,1-1.26-1m-7.52,0a1,1,0,0,1,.79-1.08.86.86,0,0,1,.5.08,1,1,0,0,1,.56.74.93.93,0,1,1-1.85.26m2.93-.57h0l0,0a1,1,0,0,1-.51-.75h0a1,1,0,0,1,.84-1.17.9.9,0,0,1,.4,0,1,1,0,0,1-.11,2h0a1.06,1.06,0,0,1-.56-.09m2.12-1.17a1.1,1.1,0,0,1,.91-1.25,1,1,0,0,1,.6.1,1.09,1.09,0,1,1-1.51,1.15m-.21-1.14a1.49,1.49,0,0,0-.24.49,1.67,1.67,0,0,0-.34-.36,1.54,1.54,0,0,0-1.13-.31,1.49,1.49,0,0,0-1,.61,1.59,1.59,0,0,0-.29,1.16h0l-.05,0a1.42,1.42,0,0,0-2,.29,1.5,1.5,0,0,0-.28,1.07,1.27,1.27,0,0,0-.85-.18,1.29,1.29,0,0,0-.89.55,1.37,1.37,0,0,0-.26,1c.08.56.31,1.06,0,1.38a4.93,4.93,0,0,1-1.49.69l.3,1.26a13.26,13.26,0,0,0,5.42,0,18.89,18.89,0,0,0,4-1s-.14,2.08-.17,2.48a4.55,4.55,0,0,1,2.41.47c.28,0,.86.1,1.25.05a1.44,1.44,0,0,0,.94-.57,1.48,1.48,0,0,0,.26-1.08,1.57,1.57,0,0,0-.66-1,1.55,1.55,0,0,0,.76-.56,2.67,2.67,0,0,0,.3-1.21,2.62,2.62,0,0,1,2.64,2.09,13,13,0,0,1-.49,3.87l2,.9c.06-.11.15-.21.44-.26s.94.08,1.13,0a1.35,1.35,0,0,0,.89-.54,1.38,1.38,0,0,0,.26-1,1.4,1.4,0,0,0-.51-.9,1.27,1.27,0,0,0,.64-.48,1.46,1.46,0,0,0-.28-2,1.27,1.27,0,0,0-.36-.2,2.09,2.09,0,0,0,.2-.22,1.54,1.54,0,0,0-.3-2.1,1.45,1.45,0,0,0-1.08-.29l-.08,0a1.52,1.52,0,0,0,.12-.87,1.6,1.6,0,0,0-.59-1,1.49,1.49,0,0,0-2,.15l0-.15a1.67,1.67,0,0,0-.64-1.1,1.56,1.56,0,0,0-1.21-.32,1.63,1.63,0,0,0-1.07.65,1.84,1.84,0,0,0-.29.69,1.65,1.65,0,0,0-.56-.79,1.6,1.6,0,0,0-1.21-.32,1.52,1.52,0,0,0-.7.28,1.4,1.4,0,0,0,0-.54,1.64,1.64,0,0,0-.62-1.08,1.54,1.54,0,0,0-1.19-.32,1.53,1.53,0,0,0-1,.64m-13.12-3.26a.51.51,0,0,0,.14.3.63.63,0,0,0-.32,0,.55.55,0,0,0,.15,1.09c.18,0,.21-.08.21-.08l.17,1.18-1.14.16s0-.05,0-.23a.54.54,0,1,0-1.06.15.69.69,0,0,0,.13.3.38.38,0,0,0-.31,0,.55.55,0,0,0,.15,1.08.4.4,0,0,0,.29-.14.76.76,0,0,0,0,.33.52.52,0,0,0,.6.47.51.51,0,0,0,.45-.62c0-.18-.07-.21-.07-.21l1.14-.16.11.78a3,3,0,0,0-2,2.59,8.78,8.78,0,0,1,2.1-.77l-.08-1.7.53-.09.53-.06.41,1.66a8.7,8.7,0,0,1,2.23.14,3,3,0,0,0-2.66-1.92l-.11-.78,1.14-.17s0,0,0,.23a.53.53,0,1,0,1-.15.58.58,0,0,0-.13-.3.44.44,0,0,0,.32.05.52.52,0,0,0,.45-.62.51.51,0,0,0-.6-.47.47.47,0,0,0-.3.13.63.63,0,0,0,.05-.32.54.54,0,1,0-1.06.15c0,.18.08.22.08.22l-1.14.16-.17-1.18s.05,0,.23,0a.52.52,0,0,0,.45-.61.54.54,0,0,0-.61-.47.58.58,0,0,0-.29.14.52.52,0,0,0,0-.33.52.52,0,0,0-.61-.47.53.53,0,0,0-.45.62"/></clipPath><clipPath id="clip-path-5"><rect class="cls-1" x="180.74" y="332.82" width="233.52" height="177.23" transform="translate(-137.6 698.58) rotate(-87.28)"/></clipPath><clipPath id="clip-path-7"><path class="cls-1" d="M285,363.93a66.17,66.17,0,0,1,30.51,1.45c-.3-1.48-6.9-3.42-15.11-3.81s-14.94.9-15.4,2.36m-.46-3.56c0-.66.11-1.21.26-1.21s.3.53.31,1.2-.1,1.21-.26,1.21h0c-.15,0-.29-.54-.31-1.2m31.2,1.45c.08-.67.26-1.19.42-1.17s.22.57.14,1.23-.26,1.17-.41,1.17h0c-.15,0-.22-.58-.14-1.23m-28.81-2.93c0-.79.41-1.41.84-1.39s.75.68.72,1.47-.42,1.4-.85,1.38-.75-.67-.71-1.46m25.58,1.22c0-.79.41-1.41.85-1.39s.75.67.71,1.46-.41,1.41-.85,1.39-.74-.68-.71-1.46m-22.15-1.68a8.14,8.14,0,0,1,1-1.81,7.6,7.6,0,0,1,.92,1.67,13.51,13.51,0,0,1-1,1.65,11.62,11.62,0,0,1-.89-1.51m18.44.65a7.44,7.44,0,0,1,1.08-1.58,7.66,7.66,0,0,1,.81,1.9,11.83,11.83,0,0,1-1,1.42,14.08,14.08,0,0,1-.87-1.74m-14.52-1.18a1.28,1.28,0,1,1,1.22,1.37,1.3,1.3,0,0,1-1.22-1.37m10,.48a1.31,1.31,0,0,1,1.34-1.26,1.31,1.31,0,1,1-1.34,1.26m-5.4,1a25.63,25.63,0,0,1,.06-2.75,6,6,0,0,1,1.69-.08,6.21,6.21,0,0,1,1.68.24,24.19,24.19,0,0,1-.2,2.75c-.38,0-1,0-1.62,0s-1.24-.08-1.61-.13m-13.95-2-.3.17.08.85s-.66.18-.73,1.62c-.09,2.06.92,2.34.92,2.34l.09.32c2.14-1.45,8.57-2.28,15.44-2s13.2,1.77,15.2,3.41l.11-.3s1-.18,1.14-2.24c.07-1.45-.57-1.68-.57-1.68l.16-.85-.28-.19s-4.71-3.19-15.49-3.7-15.72,2.18-15.77,2.21m-2.06-4.08c-.26-.44-.34-.87-.19-1s.48.19.74.62.34.88.19,1l-.08,0c-.16,0-.44-.27-.66-.65m34.95,2.26c-.14-.11,0-.53.29-.95s.66-.66.8-.55,0,.53-.29,1-.55.58-.72.57Zm-28.62-5.11c0-.46.16-1.4.27-2a7.73,7.73,0,0,1,1.3,1.7,12.46,12.46,0,0,1-.32,2,14.82,14.82,0,0,1-1.25-1.71m21.85.71a8.71,8.71,0,0,1,1.45-1.58c.07.57.08,1.52.1,2a14,14,0,0,1-1.42,1.59,13,13,0,0,1-.13-2M300,350.51s0-1.09,0-1.43.08-1.47.08-1.47a7.28,7.28,0,0,1,.95-.05,8.76,8.76,0,0,1,.94.14s0,1.12-.06,1.47-.11,1.43-.11,1.43-.58,0-.92,0-.91-.09-.91-.09m-1.35-4.77a2.68,2.68,0,0,0,.42,1.61,3.65,3.65,0,0,0-1-.27c-.5,0-1.47.32-1.57,2.41s.95,2.74,1.73,2.78a1.65,1.65,0,0,0,.35,0s-.33.5-1.38.45a3.37,3.37,0,0,1-1.57-.61,2.31,2.31,0,0,1-2,.78,1.17,1.17,0,0,1-.87-.4s1.49.32,1.6-1.87-1.35-3-1.77-3a2.24,2.24,0,0,0-1.48.58s.07-.43.09-.85a1.7,1.7,0,0,0-1.57-1.93c-1.37-.06-2.69.62-2.74,1.63a5.14,5.14,0,0,0,1,2.15,1.28,1.28,0,0,0-.37-.06,1.09,1.09,0,0,0-1.31,1.18c-.06,1.16.85,2.85,2,2.9a1.63,1.63,0,0,0,1-.24,1.4,1.4,0,0,1-1.52.78,1,1,0,0,1-.83-.38s-.21.92-.92.88-.75-.25-.75-.25,1.7-.21.83-2.17c-.54-1.22-.95-1.41-1.31-1.43s-.93.5-.93.5a5.87,5.87,0,0,0,.25-1.29c0-.62-.22-1.48-1.09-1.52-1.19-.06-3.17,1.75-3.17,1.75s2.23,1.2,2.61,2a.87.87,0,0,0-.22.57,2,2,0,0,0,1.87,2.2,12.09,12.09,0,0,1,.53,2.05s5-2.85,16.22-2.32,15.92,3.85,15.92,3.85a12.71,12.71,0,0,1,.73-2,2,2,0,0,0,2.07-2,.88.88,0,0,0-.17-.59c.45-.73,2.79-1.71,2.79-1.71s-1.79-2-3-2.05c-.87,0-1.2.79-1.23,1.41a5.55,5.55,0,0,0,.13,1.3s-.51-.56-.87-.58-.8.14-1.45,1.3c-1.06,1.87.62,2.24.62,2.24s-.06.22-.77.18-.84-1-.84-1a.93.93,0,0,1-.86.3,1.4,1.4,0,0,1-1.44-.92,1.62,1.62,0,0,0,1,.34c1.18.06,2.25-1.53,2.3-2.69a1.09,1.09,0,0,0-1.19-1.3,1.53,1.53,0,0,0-.37,0s1.14-1.29,1.17-2.05c0-1-1.2-1.81-2.58-1.88a1.68,1.68,0,0,0-1.74,1.77,8.59,8.59,0,0,0,0,.86,2.25,2.25,0,0,0-1.43-.73c-.41,0-1.93.64-2,2.84s1.4,2,1.4,2a1.18,1.18,0,0,1-.9.32,2.31,2.31,0,0,1-1.9-1,3.47,3.47,0,0,1-1.63.46c-1.05,0-1.33-.58-1.33-.58a1.7,1.7,0,0,0,.35.07c.78,0,1.88-.52,2-2.6s-.83-2.52-1.33-2.55a3.65,3.65,0,0,0-1.08.17,2.7,2.7,0,0,0,.58-1.56c.05-1.16-1.28-1.69-2.41-1.75s-2.51.35-2.57,1.51m2-2.59a.94.94,0,0,1-.27-.73,1,1,0,0,1,1-.93.74.74,0,0,1,.41.13,1,1,0,0,1-.51,1.83.88.88,0,0,1-.63-.3m-.37-3.24a1.18,1.18,0,0,1,1.23-1.14.93.93,0,0,1,.44.11,1.22,1.22,0,0,1,.67,1.14,1.17,1.17,0,1,1-2.34-.11m-1.8-1.32a3.19,3.19,0,0,0,1,2.11l-.51,3.52a3.76,3.76,0,0,1,2.26-.53,3.81,3.81,0,0,1,2.2.74l-.17-3.55a3.11,3.11,0,0,0,1.23-2,7.89,7.89,0,0,0-3-.74,8,8,0,0,0-3.06.45m-20.63,8.55h0a.86.86,0,0,1,.89-.84.87.87,0,0,1,.81.92h0a.85.85,0,1,1-1.7-.08m-.64-2.45h0a.89.89,0,0,1,.93-.86.9.9,0,0,1,.85.95h0a.89.89,0,1,1-1.78-.09m7.82-.55a.92.92,0,0,1,1-.91.87.87,0,0,1,.36.09,1,1,0,0,1,.52.9.94.94,0,0,1-1,.9.92.92,0,0,1-.87-1m-7.62-2a1,1,0,1,1,.92,1,1,1,0,0,1-.92-1m7.38.13-.08-.07-.07-.07-.07-.1-.06-.08,0-.06a1.11,1.11,0,0,1-.13-.57h0a1.12,1.12,0,0,1,1.15-1.08h0a1.14,1.14,0,0,1-.11,2.27,1.16,1.16,0,0,1-.61-.23m4.36-1.69a.69.69,0,0,1-.05-.32.91.91,0,0,1,1-.95c1.48.07,5.1,2,7.42,2.42a5.34,5.34,0,0,1-2.42.16,36.73,36.73,0,0,1-6-1.31m-10.3-.77a1.05,1.05,0,0,1,1.08-1,1.06,1.06,0,0,1-.1,2.12,1.05,1.05,0,0,1-1-1.11m16.68,0A.89.89,0,0,1,295,339a.87.87,0,0,1,.89-.84.9.9,0,0,1,.33.09.87.87,0,0,1,.48.83.85.85,0,0,1-.89.83.73.73,0,0,1-.33-.08m-14.11-1.31h0a1.13,1.13,0,1,1,2.26.11h0a1.13,1.13,0,1,1-2.26-.1m3.22-.07a1.15,1.15,0,0,1,1.18-1.11,1.24,1.24,0,0,1,.44.11,1.16,1.16,0,0,1,.64,1.11,1.15,1.15,0,0,1-1.19,1.12h0a1.16,1.16,0,0,1-1.07-1.23m8-.65a1,1,0,0,1,1-.94.93.93,0,0,1,.57.25,1,1,0,0,1,.34.78,1,1,0,0,1-1,.94,1,1,0,0,1-.91-1m-2.59-.69,0-.07v0a1.5,1.5,0,0,1-.05-.37h0a1,1,0,0,1,1.08-1,1,1,0,0,1,.57.21l.05.05.09.08.05.07.07.1,0,.05.05.13h0a1.1,1.1,0,0,1,.05.41h0a1,1,0,0,1-1.07,1h0a1,1,0,0,1-.89-.62m-2.69.24-.05,0h0a1.19,1.19,0,0,1-.28-.81h0a1.1,1.1,0,1,1,2.19.1h0a1.11,1.11,0,0,1-1.15,1.08h0a1,1,0,0,1-.71-.32m-.33-2.05a1.7,1.7,0,0,0-.53,1.16,1.66,1.66,0,0,0,.06.55,1.68,1.68,0,0,0-.74-.22,1.63,1.63,0,0,0-1.2.45,1.71,1.71,0,0,0-.5.86,1.56,1.56,0,0,0-.37-.68,1.59,1.59,0,0,0-1.15-.56,1.63,1.63,0,0,0-1.2.44,1.72,1.72,0,0,0-.54,1.19v.15a1.47,1.47,0,0,0-.93-.37,1.53,1.53,0,0,0-1.13.41,1.63,1.63,0,0,0-.51,1.12,1.72,1.72,0,0,0,.2.87h-.07a1.49,1.49,0,0,0-1.08.39,1.59,1.59,0,0,0-.48,1.07,1.53,1.53,0,0,0,.38,1.1,1.15,1.15,0,0,0,.23.21,1.21,1.21,0,0,0-.35.24,1.47,1.47,0,0,0-.1,2.06,1.36,1.36,0,0,0,.7.43,1.47,1.47,0,0,0-.43,1,1.4,1.4,0,0,0,1.31,1.48c.2,0,.86-.16,1.16-.15a.51.51,0,0,1,.47.23l1.94-1.12a13.06,13.06,0,0,1-.87-3.9,2.67,2.67,0,0,1,2.49-2.38,2.73,2.73,0,0,0,.42,1.21.82.82,0,0,1,.25,1.62,1.53,1.53,0,0,0,.38,1.08,1.44,1.44,0,0,0,1,.48c.41,0,1-.18,1.28-.17a4.77,4.77,0,0,1,2.41-.71c-.07-.4-.41-2.51-.41-2.51a19.55,19.55,0,0,0,4.14.65c3.84.18,5.52-.56,5.52-.56l.19-1.31a5.32,5.32,0,0,1-1.59-.56c-.33-.3-.15-.83-.12-1.42a1.44,1.44,0,0,0-.36-1,1.31,1.31,0,0,0-1-.47,1.33,1.33,0,0,0-.86.26,1.58,1.58,0,0,0-.38-1.07,1.5,1.5,0,0,0-1-.5,1.45,1.45,0,0,0-1.07.4l0,.05h0a1.69,1.69,0,0,0-.4-1.16,1.59,1.59,0,0,0-1.08-.52,1.53,1.53,0,0,0-1.13.42,1.35,1.35,0,0,0-.31.4,1.66,1.66,0,0,0-.29-.48,1.6,1.6,0,0,0-2.31-.11m35.5,14h0a.86.86,0,0,1,.89-.84,1.14,1.14,0,0,1,.33.08.88.88,0,0,1,.48.84.85.85,0,1,1-1.7-.08m1.17-1.61a.91.91,0,0,1,.55-1.64,1,1,0,0,1,.39.12.91.91,0,0,1,.46.83.9.9,0,0,1-.94.87.88.88,0,0,1-.46-.18m-7.93-1.39a1.35,1.35,0,0,1-.15-.26l0-.05a1,1,0,0,1,.91-1.28,1.06,1.06,0,0,1,.36.09,1,1,0,0,1,.51.91.93.93,0,0,1-1,.9,1,1,0,0,1-.64-.31m7.46-2a1,1,0,0,1,1-.94h0a1,1,0,0,1-.09,2h0a1,1,0,0,1-.91-1m-6.49-.42a1.14,1.14,0,0,1,.53-2.15h0a1,1,0,0,1,.59.21h0l0,0a1.14,1.14,0,0,1,.4.93h0a1.12,1.12,0,0,1-1.15,1.08,1.19,1.19,0,0,1-.42-.11m-11.59-1.81c2.35-.21,6.13-1.77,7.62-1.7a.9.9,0,0,1,.91,1,.76.76,0,0,1-.08.32,37,37,0,0,1-6.06.73c-1.92-.09-2.19-.29-2.39-.39m16.73-.23a1,1,0,0,1,1.08-1,1.24,1.24,0,0,1,.39.1l0,0,.15.09.08.07.07.06,0,.06a1.07,1.07,0,0,1-.85,1.72h0a1,1,0,0,1-1-1.11m-15.21-1.51a.82.82,0,0,1-.41-.45l0,0,0-.16,0-.18h0a.87.87,0,0,1,.9-.83.72.72,0,0,1,.32.08.87.87,0,0,1,.48.83.86.86,0,0,1-.89.84.85.85,0,0,1-.32-.09m13.13,1a1.16,1.16,0,1,1,1.25-1.94,1.18,1.18,0,0,1,.45,1,1.15,1.15,0,0,1-1.19,1.12,1,1,0,0,1-.51-.17M316,339.93a1.14,1.14,0,0,1,1.19-1.11.92.92,0,0,1,.43.11,1.17,1.17,0,0,1-.54,2.22h0a1.15,1.15,0,0,1-1.08-1.22m-7.58-1.4a1,1,0,0,1,1-.94,1,1,0,0,1,.48.18,1,1,0,1,1-1.48.76m3.06,0h0l0,0a1,1,0,0,1-.37-.86h0a1.05,1.05,0,0,1,1.08-1,.88.88,0,0,1,.39.11,1.06,1.06,0,0,1-.49,2h0a1,1,0,0,1-.55-.2m2.36-.77a1.09,1.09,0,0,1,1.74-.87,1.15,1.15,0,0,1,.46,1,1.1,1.1,0,1,1-2.2-.1m0-1.19a1.67,1.67,0,0,0-.34.45,1.21,1.21,0,0,0-.27-.43,1.51,1.51,0,0,0-1.08-.52,1.56,1.56,0,0,0-1.12.41,1.63,1.63,0,0,0-.51,1.12h0l0-.06a1.47,1.47,0,0,0-1-.5,1.54,1.54,0,0,0-1.08.4,1.6,1.6,0,0,0-.48,1,1.29,1.29,0,0,0-.83-.34,1.32,1.32,0,0,0-1,.38,1.43,1.43,0,0,0-.45,1c0,.59.1,1.13-.26,1.4a5.12,5.12,0,0,1-1.63.4l0,1.33a13.73,13.73,0,0,0,5.46,1.08,19.6,19.6,0,0,0,4.17-.25l-.64,2.46a4.7,4.7,0,0,1,2.33.93c.29,0,.85.28,1.25.3a1.53,1.53,0,0,0,1.06-.39,1.55,1.55,0,0,0,.47-1,.82.82,0,0,1,.4-1.59,2.69,2.69,0,0,0,.53-1.16,2.66,2.66,0,0,1,2.26,2.61,13.05,13.05,0,0,1-1.24,3.8l1.82,1.29a.53.53,0,0,1,.49-.18c.3,0,.94.26,1.14.26a1.46,1.46,0,0,0,1-.37,1.44,1.44,0,0,0,.46-1,1.54,1.54,0,0,0-.34-1,1.3,1.3,0,0,0,.73-.36,1.47,1.47,0,0,0,.1-2.06,1.18,1.18,0,0,0-.32-.27,2.23,2.23,0,0,0,.24-.19,1.53,1.53,0,0,0,.49-1.06,1.6,1.6,0,0,0-.38-1.11,1.46,1.46,0,0,0-1-.49h-.08a1.68,1.68,0,0,0-.12-2,1.55,1.55,0,0,0-1.08-.52,1.58,1.58,0,0,0-1,.29v-.15a1.68,1.68,0,0,0-1.58-1.79,1.63,1.63,0,0,0-1.2.44,1.76,1.76,0,0,0-.43.65,1.73,1.73,0,0,0-.41-.9,1.63,1.63,0,0,0-1.16-.56,1.73,1.73,0,0,0-.75.14,1.78,1.78,0,0,0,.11-.53,1.71,1.71,0,0,0-.42-1.21,1.57,1.57,0,0,0-1.13-.55,1.6,1.6,0,0,0-1.18.44m-12.57-5.8a.48.48,0,0,0,.08.33A.62.62,0,0,0,301,331a.56.56,0,0,0,0,1.12c.18,0,.23,0,.23,0l-.06,1.22-1.18-.06s0,0,.06-.23a.53.53,0,0,0-.52-.59.54.54,0,0,0-.57.54.61.61,0,0,0,.08.33.45.45,0,0,0-.31-.11.57.57,0,0,0-.06,1.13.41.41,0,0,0,.32-.09.74.74,0,0,0-.1.33.54.54,0,1,0,1.08.05c0-.19,0-.23,0-.23l1.18,0,0,.81a3.12,3.12,0,0,0-2.53,2.22,9,9,0,0,1,2.27-.36l.25-1.73h.55l.54,0,.09,1.74a9.26,9.26,0,0,1,2.23.58,3.14,3.14,0,0,0-2.31-2.45l0-.81,1.18.06s-.05,0-.06.23a.55.55,0,1,0,1.09.05.66.66,0,0,0-.07-.33.42.42,0,0,0,.31.11.53.53,0,0,0,.57-.54.53.53,0,0,0-.52-.58.47.47,0,0,0-.32.07.62.62,0,0,0,.11-.32.54.54,0,0,0-.52-.59.53.53,0,0,0-.57.54c0,.19,0,.24,0,.24l-1.18-.06.06-1.21s0,0,.22.05a.54.54,0,0,0,.58-.53.55.55,0,0,0-.52-.59.55.55,0,0,0-.32.08.5.5,0,0,0,.1-.32.53.53,0,0,0-.52-.59.54.54,0,0,0-.57.54"/></clipPath></defs><title>skaal</title><g id="skål_illu" data-name="skål illu"><rect class="cls-2" x="37.5" y="16.64" width="732" height="613.36"/><path class="cls-3" d="M709.83,352.16s-14.28,7.6-40.79,8.63c-16.24.64-24.72,0-62.35-18.42S501,335.84,501,335.84l-8.45-2.38s-8.18.7-9.38-1.26-2.48-4.95-1.54-6.06.85-2.13,6-2.56,4.86-3.5,4.86-3.5l-2.87-.7a1.89,1.89,0,0,0-.58,0l-1.75.15s-9.21.77-11.43-1.1-3.41-3.83-2.65-7,5.53-7.68,8.6-7.94l11.26-.95-5.47-3.66-2.89,2.31-11.34-.08s-7.25-.41-8.53-3.4-.7-8.18,8.17-13.05,13-4.2,13-4.2l-7.25-.41s-8.27-.34-8.71-5.45,1.36-8.36,7.15-13,20.38-2.76,20.38-2.76l186.17,20.33,30.44,64.12A6.31,6.31,0,0,1,709.83,352.16Z"/><path class="cls-4" d="M603.45,140.73s1.88-1.08,1.62-2.89l-.45-3.15s.07-2.6-8.17-2.51c-48.66.48-110,15.64-110,15.64-8,2.06-7.14,4.69-7.14,4.69l.44,3.16c.26,1.8,2.37,2.31,2.37,2.31Z"/><path class="cls-4" d="M499.82,399.69s1,4,8.68,6.12,8.82,3.8,8.82,3.8a53.92,53.92,0,0,1,4.37,4.9c1.16,1.67,6,3.28,60.06-4.41s53.62-10.85,53.62-10.85a34.17,34.17,0,0,1,3.22-6.44,19.67,19.67,0,0,1,7.86-6.17c6.69-3,6.18-8.24,6.18-8.24S516.11,385,499.82,399.69Z"/><path class="cls-5" d="M652.51,378.23,623.1,174.74a16.5,16.5,0,0,0-3.19-7.6c-3.32-4.36-9.64-12.11-11.95-14.73-4.09-4.65-5.53-13-5.53-13-36.56-2.41-86.7,7-121,16.27-.31.08.12,8.11-1.68,14-1.09,3.6-6.06,14.06-7.89,18.85a10.84,10.84,0,0,0-.61,5.41l28.71,205S577,397.51,652.51,378.23Z"/><path class="cls-6" d="M493.4,148.13a4.68,4.68,0,0,0,.33,2.25.42.42,0,0,0,.43.24s15.18-4.56,26.22-5.3a.76.76,0,0,0,.6-.64,2.68,2.68,0,0,0-.63-2.61c-.71-.66-22.34,3.85-26.42,5.26A.86.86,0,0,0,493.4,148.13Z"/><path class="cls-7" d="M617,169.64c-6,.12-12,.26-17.93.55s-11.94.6-17.9,1.06c-11.91.91-23.79,2.13-35.57,4s-23.65,3.74-35.39,6c-5.88,1.09-11.73,2.28-17.55,3.62s-11.6,2.78-17.32,4.46a1.08,1.08,0,0,1-.67-2.06c5.68-2,11.49-3.67,17.31-5.22s11.7-2.82,17.58-4.06c11.78-2.45,23.63-4.42,35.48-6.31S569,168.62,581,168q9-.49,18-.65c6-.05,12,0,18,.17a1.08,1.08,0,0,1,1.05,1.12A1.1,1.1,0,0,1,617,169.64Z"/><g class="cls-8"><g class="cls-8"><path class="cls-9" d="M572.44,372.14a5.07,5.07,0,0,1,4.67,1.85,4,4,0,0,0,3.73,1.47c31.82-9.3,52.26-46.42,46.46-87.17-4.34-30.52-22.18-55.17-44.91-65.4a6.07,6.07,0,0,1-3.09-8,15.18,15.18,0,0,0,1.43-8.34c-1.58-11.13-16.84-18.16-34.09-15.7s-29.94,13.46-28.36,24.58a15.43,15.43,0,0,0,3.7,7.62,6.06,6.06,0,0,1-.73,8.53c-19,16.17-29.23,44.82-24.88,75.34,5.79,40.75,35.77,70.7,68.93,70.75a4,4,0,0,0,3.17-2.46,5.08,5.08,0,0,1,4-3.07"/><path class="cls-9" d="M580.84,375.46c31.26-11,52.26-46.42,46.46-87.17-4.34-30.52-22.18-55.17-44.91-65.4a6,6,0,0,1-3.08-8,15.26,15.26,0,0,0,1.42-8.34c-1.58-11.13-16.84-18.16-34.09-15.7s-29.94,13.46-28.36,24.58a15.43,15.43,0,0,0,3.7,7.62,6.06,6.06,0,0,1-.73,8.53c-19,16.17-29.23,44.82-24.89,75.34,5.8,40.75,35.78,70.7,68.94,70.75,0,0,9.76-.17,15.54-2.21"/><path class="cls-10" d="M552,228.49c-30.31,4.31-50.57,38.8-45.15,76.88s34.49,65.56,64.8,61.25,50.56-38.81,45.14-76.89S582.33,224.18,552,228.49"/><path class="cls-11" d="M569.82,227.65l.26.07c23.94,6.12,44.09,30.43,48.55,61.75,5.56,39.08-15.39,74.5-46.69,79s-61.31-23.72-66.87-62.8c-4.45-31.32,8.12-60.29,29.4-72.85l.23-.13-6-12.62,4.14,11.41c-22.21,13.49-34.17,43.42-29.75,74.47,5.71,40.15,36.7,69.06,69.08,64.46s54.08-41,48.36-81.17c-4.42-31.05-24.25-56.46-49.34-63.22l.8-12.11Z"/><polygon class="cls-9" points="576.65 280.09 582.33 319.97 603.97 316.89 602.95 309.76 588.78 311.77 584.12 279.03 576.65 280.09"/><path class="cls-9" d="M554.5,246.09a12.91,12.91,0,0,0-5.41,1.9c-3.89,2.61-4.31,7.14-3.76,11l1.15,8.06,7.91-1.13L553.12,257c-.29-2,.7-3.48,2.51-3.74a2.84,2.84,0,0,1,2.17.51,3.46,3.46,0,0,1,1.28,2.38l1.27,8.95,7.92-1.12-1.15-8.06c-1-7.21-5.62-10.78-12.62-9.78"/><path class="cls-9" d="M548.9,284l4.2,29.54c.7,4.91,2.88,8,6.39,9.2a12.75,12.75,0,0,0,6,.39c7.1-1,10.44-5.52,9.42-12.69l-4.2-29.54-7.92,1.12,4.33,30.44a3.44,3.44,0,0,1-.56,2.64,2.84,2.84,0,0,1-1.94,1.1c-1.81.26-3.17-.87-3.46-2.89l-4.33-30.44Z"/><polygon class="cls-9" points="536.92 285.74 540.54 311.18 540.16 311.23 529.27 287.59 522.14 288.6 527.82 328.49 533.83 327.63 530.21 302.19 530.6 302.14 541.48 325.78 548.61 324.77 542.94 284.89 536.92 285.74"/><rect class="cls-12" x="587.13" y="278.65" width="1.5" height="32.33" transform="matrix(0.99, -0.14, 0.14, 0.99, -35.67, 85.76)"/><polygon class="cls-12" points="602.84 309.02 602.84 309.02 602.85 309.02 604.07 317.63 605.55 317.42 604.33 308.81 602.84 309.02"/><path class="cls-12" d="M554.61,254.41a2,2,0,0,0-.64.88,3.26,3.26,0,0,0-.11,1.55l1.27,9,1.49-.22-1.28-8.95a2.33,2.33,0,0,1,1.15-2.67,2.4,2.4,0,0,0-.76,0,2.37,2.37,0,0,0-1.12.46"/><path class="cls-12" d="M555.88,245.14l-.74.13c7.07-.7,11.69,3.25,12.72,10.49l1.15,8.06,1.48-.21-1.14-8.06c-1.07-7.49-6-11.48-13.47-10.41"/><path class="cls-12" d="M564.49,315.5a2.59,2.59,0,0,0,.65-.18l.08,0a2.31,2.31,0,0,1-1.85-2.24L559,282.6l-1.48.21,4.33,30.44c.22,1.56,1.14,2.46,2.6,2.25"/><path class="cls-12" d="M571.43,280.83h0l4.21,29.55c.5,3.58,0,6.68-1.72,9-1.55,2.2-4.1,3.73-7.63,4.37.26,0,.5,0,.77-.08,7.83-1.11,11.08-6.37,10.06-13.53l-4.21-29.55Z"/><polygon class="cls-12" points="539.2 307.07 538.55 302.53 531.2 286.56 529.72 286.77 539.07 307.09 539.2 307.07"/><polygon class="cls-12" points="531.55 306.3 534.57 327.52 536.06 327.31 533.68 310.63 531.68 306.29 531.55 306.3"/><rect class="cls-12" x="546.56" y="284.47" width="1.5" height="41.03" transform="translate(-37.51 80.14) rotate(-8.1)"/><rect class="cls-12" x="538.88" y="302.5" height="4.59" transform="matrix(0.99, -0.14, 0.14, 0.99, -37.56, 78.95)"/><path class="cls-12" d="M531.55,306.3l3,21.22Z"/><polygon class="cls-11" points="589.42 310.93 584.86 278.92 584.12 279.03 588.78 311.77 602.95 309.76 602.84 309.02 589.42 310.93"/><polygon class="cls-11" points="582.32 319.97 576.65 280.09 575.91 280.19 581.69 320.82 604.07 317.63 603.97 316.89 582.32 319.97"/><path class="cls-11" d="M555.14,245.27c-.25,0-.49,0-.75.08-3.85.55-6.49,2.09-8.09,4.32-1.73,2.42-2.24,5.67-1.71,9.41l1.14,8.05.74-.1L545.33,259c-.55-3.84-.13-8.37,3.76-11a12.91,12.91,0,0,1,5.41-1.9c7-1,11.6,2.57,12.62,9.78l1.15,8.06.74-.11-1.15-8.06c-1-7.24-5.65-11.19-12.72-10.49"/><path class="cls-11" d="M555.63,253.21c-1.81.26-2.8,1.72-2.51,3.74l1.27,8.95.74-.1-1.27-9a3.26,3.26,0,0,1,.11-1.55,2,2,0,0,1,.64-.88,2.37,2.37,0,0,1,1.12-.46,2.4,2.4,0,0,1,.76,0,2.33,2.33,0,0,1,1.85,2.25l1.27,9,.74-.11-1.27-8.95a3.46,3.46,0,0,0-1.28-2.38,2.84,2.84,0,0,0-2.17-.51"/><path class="cls-11" d="M571.43,280.83l-.74.11,4.2,29.54c1,7.17-2.32,11.68-9.42,12.69a12.75,12.75,0,0,1-6-.39c-3.51-1.19-5.69-4.29-6.39-9.2L548.9,284l-.75.1,4.21,29.55c1,7.39,5.38,11.34,13.21,10.22.25,0,.48-.09.72-.13h0c3.53-.64,6.08-2.17,7.63-4.37,1.67-2.35,2.22-5.45,1.72-9Z"/><path class="cls-11" d="M564.6,316.24a2.84,2.84,0,0,0,1.94-1.1,3.44,3.44,0,0,0,.56-2.64l-4.33-30.44-.74.11,4.33,30.44a2.32,2.32,0,0,1-1.14,2.67l-.08,0a2.59,2.59,0,0,1-.65.18h0c-1.45.21-2.38-.69-2.6-2.25l-4.34-30.44-.74.1,4.33,30.44c.29,2,1.65,3.15,3.46,2.89"/><polygon class="cls-11" points="540.16 311.23 540.54 311.18 536.92 285.74 536.18 285.85 536.18 285.85 539.2 307.07 539.2 307.07 539.07 307.09 529.72 286.77 521.29 287.97 521.29 287.97 527.08 328.59 527.08 328.59 527.82 328.48 522.14 288.6 529.27 287.59 540.16 311.23"/><polygon class="cls-11" points="542.94 284.89 548.61 324.77 541.48 325.78 530.6 302.14 530.21 302.19 533.83 327.63 534.57 327.52 531.55 306.3 531.68 306.29 541.04 326.6 549.46 325.41 543.68 284.78 542.94 284.89"/><polygon class="cls-12" points="611.21 347.48 609.79 346.54 610.06 346.13 609.81 345.96 609.09 347.05 609.34 347.22 609.61 346.81 611.03 347.76 611.21 347.48"/><path class="cls-12" d="M612.2,346a.63.63,0,0,0-.23-.95l-1.14-.71-.18.28,1.14.7c.23.15.28.31.15.52s-.3.24-.53.09l-1.13-.7-.18.28,1.15.71a.61.61,0,0,0,1-.22"/><path class="cls-12" d="M612.52,343.67a.3.3,0,0,1,.52.3l-.18.31-.52-.3Zm-.74-.34c.09-.14.21-.23.39-.12s.17.25.08.4l-.13.23-.48-.27Zm1.33-.05a.44.44,0,0,0-.59.08.42.42,0,0,0-.21-.45.5.5,0,0,0-.76.22l-.33.57,1.73,1,.35-.6a.55.55,0,0,0-.19-.84"/><path class="cls-12" d="M612.77,341.52c.13-.24.38-.3.86,0s.56.51.43.75-.38.3-.86,0-.56-.5-.43-.74m-.26-.14c-.23.41-.07.84.53,1.17s1.05.24,1.28-.18.07-.85-.53-1.18-1-.23-1.28.19"/><path class="cls-12" d="M613.78,339.68a.3.3,0,0,1,.54.27l-.15.29-.54-.27Zm1.37,1.07-.71-.37.12-.24.89,0,.16-.32-1,0a.51.51,0,0,0-.31-.58c-.36-.18-.61-.06-.8.3l-.3.58L615,341Z"/><path class="cls-12" d="M616.2,338.7c.25-.52,0-.87-.6-1.14l-.05,0-.33.7.27.13.19-.39c.3.16.36.37.25.6s-.36.32-.85.09-.59-.47-.47-.72a.39.39,0,0,1,.5-.22l.15-.3a.72.72,0,0,0-.92.39c-.21.42,0,.85.59,1.14s1.07.18,1.27-.25"/><rect class="cls-12" x="616.44" y="337.11" width="0.35" height="0.37" transform="translate(53.37 757.7) rotate(-65.42)"/><path class="cls-12" d="M615.84,335.31c.1-.23.32-.35.82-.14s.57.46.47.7l-.15.33-1.28-.56Zm1.29,1.31.27-.63c.18-.42.05-.84-.61-1.12s-1-.1-1.23.33l-.27.63Z"/><polygon class="cls-12" points="618.11 334.31 617.23 333.96 618.36 333.69 618.51 333.31 617.21 333.63 616.61 332.64 616.47 333 617.01 333.87 616.24 333.56 616.12 333.87 617.99 334.61 618.11 334.31"/><path class="cls-12" d="M517.66,348.1c.36.45.8.36,1.29,0l0,0-.48-.61-.24.18.27.34c-.28.2-.49.17-.65,0s-.13-.47.3-.81.68-.31.85-.1a.4.4,0,0,1,0,.55l.21.26a.71.71,0,0,0,.06-1c-.29-.38-.75-.4-1.29,0s-.63.88-.34,1.25"/><path class="cls-12" d="M520.32,348.63a.28.28,0,0,1,0,.43.27.27,0,0,1-.42,0l-.21-.25.46-.39Zm-1.53.84.62-.51.18.21-.39.8.23.27.42-.89a.52.52,0,0,0,.66-.06.53.53,0,0,0,0-.85l-.42-.5-1.55,1.28Z"/><path class="cls-12" d="M520.24,351.23a.62.62,0,0,0,1,.07l1-.88-.22-.25-1,.87c-.21.18-.38.18-.54,0s-.14-.36.07-.54l1-.87-.21-.25-1,.88a.61.61,0,0,0-.07,1"/><polygon class="cls-12" points="522.2 353.37 523.67 352.01 523.46 351.78 522.28 352.86 523.01 351.29 522.71 350.95 521.23 352.31 521.44 352.54 522.63 351.46 521.89 353.03 522.2 353.37"/><path class="cls-12" d="M524.47,353.26c.18.19.21.44-.19.82s-.64.35-.82.16l-.25-.25,1-1Zm-1.71.7.48.49c.33.33.76.37,1.28-.13s.49-.94.16-1.27l-.48-.49Z"/><polygon class="cls-12" points="525.1 356.3 525.31 356.08 524.76 355.55 525.95 354.33 525.72 354.1 524.31 355.53 525.1 356.3"/><path class="cls-12" d="M526.43,356.48l.84-.55-.48.89Zm.24,1.27.94-1.86-.32-.29-1.78,1.09.24.22.42-.26.48.44-.23.43Z"/><path class="cls-12" d="M527.64,358.65c.43.37.85.2,1.26-.28l0,0-.59-.51-.2.23.33.28c-.24.25-.45.26-.65.09s-.21-.44.15-.85.61-.44.82-.26a.41.41,0,0,1,.07.55l.25.21a.71.71,0,0,0-.13-1c-.35-.31-.81-.24-1.26.28s-.45,1-.09,1.29"/><polygon class="cls-12" points="529.28 360 530.37 358.68 530.75 358.99 530.94 358.76 529.93 357.93 529.74 358.16 530.11 358.47 529.03 359.79 529.28 360"/><rect class="cls-12" x="530.44" y="360.26" width="2.01" height="0.33" transform="translate(-78.47 561.29) rotate(-52.37)"/><polygon class="cls-12" points="532.51 362.48 533.04 361.75 533.62 362.16 533.1 362.9 533.37 363.09 534.54 361.46 534.27 361.26 533.8 361.92 533.22 361.5 533.68 360.85 533.41 360.65 532.24 362.29 532.51 362.48"/><polygon class="cls-12" points="535.05 364.23 535.22 363.98 534.54 363.52 534.88 363.01 535.52 363.44 535.68 363.18 535.05 362.76 535.32 362.35 535.98 362.79 536.15 362.54 535.22 361.92 534.1 363.59 535.05 364.23"/><polygon class="cls-12" points="536.6 365.21 536.76 364.96 536.12 364.55 537.02 363.1 536.75 362.93 535.68 364.63 536.6 365.21"/><polygon class="cls-12" points="538.14 366.13 538.29 365.87 537.63 365.49 538.51 364.01 538.22 363.85 537.2 365.57 538.14 366.13"/><polygon class="cls-12" points="539.75 367.03 539.89 366.77 539.18 366.37 539.48 365.83 540.14 366.2 540.29 365.93 539.62 365.56 539.86 365.14 540.55 365.52 540.7 365.26 539.72 364.71 538.74 366.47 539.75 367.03"/><path class="cls-12" d="M541.78,366.16a.3.3,0,0,1-.27.54l-.29-.15.27-.54Zm-1.07,1.37.37-.71.24.12,0,.89.32.16,0-1a.52.52,0,0,0,.58-.31.53.53,0,0,0-.3-.8l-.58-.3-.92,1.79Z"/><path class="cls-12" d="M542.81,368.59a.63.63,0,0,0,.92-.33l.57-1.22-.3-.14-.57,1.21c-.11.25-.27.32-.49.21s-.27-.27-.16-.51l.57-1.21-.3-.14-.57,1.22a.6.6,0,0,0,.33.91"/><path class="cls-12" d="M545.53,367.91a.27.27,0,0,1,.16.39.27.27,0,0,1-.4.16l-.33-.14.24-.56Zm-1,1.43.32-.74.33.14a.58.58,0,0,0,.82-.31.54.54,0,0,0-.35-.8l-.63-.27-.79,1.85Z"/><polygon class="cls-13" points="532.99 273.77 534.28 282.84 532.29 283.12 531 274.05 527.57 274.54 527.34 272.9 536.17 271.64 536.4 273.28 532.99 273.77"/><path class="cls-13" d="M543,280c1.36-.19,2.15-1.26,1.91-3l-.92-6.48,2-.28.92,6.49a4.31,4.31,0,1,1-8.54,1.21l-.92-6.48,2-.29.92,6.48c.25,1.73,1.32,2.53,2.67,2.34"/><path class="cls-13" d="M548,270l3.08-.44c2.39-.34,3.8.6,4,2.31a2.42,2.42,0,0,1-1.18,2.45,2.71,2.71,0,0,1,2.53,2.29c.27,1.89-1,3.26-3.35,3.59l-3.6.51Zm3.61,4.11c1.11-.16,1.74-.76,1.61-1.7s-.91-1.35-2-1.19l-1,.14.41,2.9Zm1.15,4.46c1.13-.16,1.81-.86,1.68-1.81s-1-1.42-2.11-1.26l-1.54.22.43,3.07Z"/><path class="cls-13" d="M568.26,272.54a5.53,5.53,0,1,1-6.26-4.76,5.55,5.55,0,0,1,6.26,4.76m-9,1.27a3.54,3.54,0,1,0,3-4.19,3.59,3.59,0,0,0-3,4.19"/><path class="cls-13" d="M572.73,277.37l-2,.28-1.53-10.71,3-.43c2.37-.34,4.23.64,4.53,2.74a3,3,0,0,1-1.68,3.23l4,4-2.3.33-3.66-3.71-1,.14Zm-.85-5.72,1-.15c1.21-.17,2-.89,1.8-2s-1.06-1.57-2.28-1.4l-1,.15Z"/><path class="cls-13" d="M589,269.24a5.67,5.67,0,0,1,.1.57,5.06,5.06,0,0,1-4.43,6,5.59,5.59,0,0,1-1.57-11.07,5.13,5.13,0,0,1,4.89,2L586.48,268a3.25,3.25,0,0,0-3.12-1.36,3.59,3.59,0,0,0-3,4.16,3.65,3.65,0,0,0,4,3.23,3,3,0,0,0,2.73-2.86l-3,.42L584,270Z"/><path class="cls-10" d="M535.64,214.8a4.45,4.45,0,0,0,.56.83,1.5,1.5,0,0,0-.59.47,1.78,1.78,0,0,0-.27,1.32,1.32,1.32,0,0,0-1-.22l-.18,0,0-.22a4.52,4.52,0,0,0-.18-.65,9.94,9.94,0,0,1,1.64-1.57"/><path class="cls-10" d="M546.83,209.49a1.7,1.7,0,0,0-.32,1.33,3.15,3.15,0,0,0,.21.78l-.13,0a1.68,1.68,0,0,0-1.11.69,3.37,3.37,0,0,0-.39,2.51,3.49,3.49,0,0,0,1.08,2.29,2.82,2.82,0,0,1-.72-.22l-.47-.22-.21.47a1.59,1.59,0,0,1-.64.59,3.13,3.13,0,0,0,.14-1.63,3.69,3.69,0,0,0-1.33-2.49,2.21,2.21,0,0,0-1.5-.53,2.15,2.15,0,0,0-.83.29,2.66,2.66,0,0,0-.85-1.49,20.7,20.7,0,0,1,7.07-2.39"/><path class="cls-10" d="M563.9,210.77a4.81,4.81,0,0,1-.31,1,1.33,1.33,0,0,1,.7.28,1.73,1.73,0,0,1,.62,1.19,1.37,1.37,0,0,1,.86-.48H566c0-.08,0-.16,0-.23a4.85,4.85,0,0,1,0-.67,10.17,10.17,0,0,0-2-1.06"/><path class="cls-10" d="M551.66,208.8a1.71,1.71,0,0,1,.69,1.19,3.16,3.16,0,0,1,0,.81l.14,0a1.62,1.62,0,0,1,1.25.35,3.4,3.4,0,0,1,1.08,2.3,3.56,3.56,0,0,1-.4,2.51,3.19,3.19,0,0,0,.63-.42l.39-.34.34.39a1.41,1.41,0,0,0,.77.39,3.07,3.07,0,0,1-.59-1.52,3.66,3.66,0,0,1,.59-2.77,2.18,2.18,0,0,1,1.29-.93,2.47,2.47,0,0,1,.87,0,2.57,2.57,0,0,1,.41-1.66,20.57,20.57,0,0,0-7.47-.33"/><path class="cls-11" d="M537.26,230.69a64.4,64.4,0,0,1,29.52-4.2c-.57-1.37-7.25-2-15.19-.89s-14.16,3.61-14.33,5.09m-1.09-3.33c-.13-.64-.12-1.18,0-1.21s.38.46.52,1.09.12,1.18,0,1.21h0c-.15,0-.37-.46-.51-1.09M566.34,223c-.05-.65,0-1.19.18-1.19s.32.5.37,1.15,0,1.17-.19,1.19h0c-.15,0-.32-.51-.36-1.15m-28.15,2.47c-.11-.76.14-1.42.55-1.48s.84.51,1,1.27-.14,1.42-.56,1.48-.84-.51-.94-1.27M562.93,222c-.11-.76.14-1.42.56-1.48s.84.51,1,1.27-.14,1.42-.56,1.48-.84-.51-1-1.27m-21.54,2.46a8,8,0,0,1,.62-1.92A6.85,6.85,0,0,1,543.2,224a11.92,11.92,0,0,1-.68,1.77,13.48,13.48,0,0,1-1.13-1.28m17.79-2.76a7.24,7.24,0,0,1,.75-1.71,7.54,7.54,0,0,1,1.13,1.67,12.27,12.27,0,0,1-.72,1.55,14.16,14.16,0,0,1-1.16-1.51m-14.13,1.53a1.25,1.25,0,1,1,1.41,1.08,1.26,1.26,0,0,1-1.41-1.08m9.68-1.38a1.25,1.25,0,1,1,1.42,1.09,1.27,1.27,0,0,1-1.42-1.09m-5,1.92a25.69,25.69,0,0,1-.44-2.65,5.78,5.78,0,0,1,1.6-.38,6,6,0,0,1,1.66-.08,23.54,23.54,0,0,1,.31,2.67c-.36.08-1,.19-1.56.27s-1.2.15-1.57.17m-13.73.64-.26.22.24.8s-.6.29-.41,1.69c.29,2,1.31,2.07,1.31,2.07l.14.29c1.79-1.79,7.8-3.76,14.45-4.71s13-.72,15.19.49l.05-.31s1-.37.68-2.36c-.2-1.4-.85-1.51-.85-1.51v-.84l-.3-.13c-.05,0-5.1-2.19-15.53-.71s-14.66,5-14.7,5m-2.73-3.53c-.32-.37-.48-.77-.35-.89s.49.09.82.46.49.78.36.89l-.07,0c-.16,0-.48-.17-.76-.49m33.92-4.25c-.15-.07-.11-.5.1-1s.51-.76.66-.68.12.51-.09,1-.43.66-.59.68Zm-28.38.36c0-.46-.09-1.37-.09-1.94a8.17,8.17,0,0,1,1.56,1.4,12.79,12.79,0,0,1,.06,1.95,14.1,14.1,0,0,1-1.53-1.41m21.08-3.33a8.66,8.66,0,0,1,1.11-1.78c.16.54.35,1.44.45,1.88a12.51,12.51,0,0,1-1.07,1.78,14,14,0,0,1-.49-1.88m-10.7,1.43s-.19-1-.24-1.38-.19-1.42-.19-1.42a8.22,8.22,0,0,1,.9-.22,7.56,7.56,0,0,1,.93,0l.21,1.42c.05.34.16,1.39.16,1.39s-.55.13-.88.17-.89.08-.89.08M547,210.75a2.62,2.62,0,0,0,.7,1.47,3.28,3.28,0,0,0-1.06-.07c-.48.07-1.35.57-1.06,2.59s1.41,2.46,2.16,2.35a1.47,1.47,0,0,0,.33-.1s-.22.54-1.23.69a3.38,3.38,0,0,1-1.63-.3,2.24,2.24,0,0,1-1.75,1.11,1.13,1.13,0,0,1-.91-.23s1.49,0,1.18-2.08-1.84-2.63-2.24-2.57a2.13,2.13,0,0,0-1.31.83s0-.43-.08-.84a1.64,1.64,0,0,0-1.85-1.55c-1.33.19-2.47,1.09-2.33,2.06.1.73,1.32,1.88,1.32,1.88a1.42,1.42,0,0,0-.36,0,1.08,1.08,0,0,0-1,1.38c.16,1.12,1.34,2.56,2.47,2.4a1.56,1.56,0,0,0,.92-.42s-.11.86-1.31,1a.93.93,0,0,1-.87-.21s0,.92-.72,1-.77-.11-.77-.11,1.6-.51.4-2.24c-.74-1.06-1.17-1.17-1.52-1.12s-.8.64-.8.64a5.67,5.67,0,0,0,0-1.28c-.09-.6-.48-1.37-1.33-1.25-1.15.16-2.72,2.26-2.72,2.26s2.37.74,2.87,1.41a.89.89,0,0,0-.11.59,2,2,0,0,0,2.2,1.76,12.43,12.43,0,0,1,.88,1.87s4.28-3.66,15.12-5.2,16,.78,16,.78a12.84,12.84,0,0,1,.33-2.05,2,2,0,0,0,1.62-2.3.86.86,0,0,0-.27-.54c.3-.78,2.36-2.15,2.36-2.15s-2.08-1.58-3.24-1.41a1.24,1.24,0,0,0-.92,1.57,5.26,5.26,0,0,0,.36,1.23s-.6-.45-.94-.4-.74.28-1.15,1.51c-.67,2,1,2,1,2s0,.22-.7.32-1-.78-1-.78-.14.36-.77.45a1.37,1.37,0,0,1-1.55-.62,1.62,1.62,0,0,0,1,.15c1.14-.17,1.87-1.89,1.71-3a1.25,1.25,0,0,0-1.72-.93,5.18,5.18,0,0,0,.74-2.18c-.14-1-1.49-1.52-2.82-1.33a1.64,1.64,0,0,0-1.35,2c.06.41.17.83.17.83a2.21,2.21,0,0,0-1.5-.44c-.39.06-1.73,1-1.43,3.09s1.72,1.68,1.72,1.68a1.13,1.13,0,0,1-.81.47,2.26,2.26,0,0,1-2-.58,3.31,3.31,0,0,1-1.47.74c-1,.15-1.38-.31-1.38-.31a1.8,1.8,0,0,0,.34,0c.76-.1,1.71-.84,1.42-2.86s-1.25-2.26-1.74-2.19a3.48,3.48,0,0,0-1,.36,2.66,2.66,0,0,0,.27-1.61c-.16-1.12-1.54-1.38-2.64-1.23s-2.34.8-2.18,1.92m1.42-2.84a1,1,0,0,1-.4-.65.94.94,0,0,1,.78-1.08.78.78,0,0,1,.43,0,.92.92,0,0,1,.63.77.91.91,0,0,1-1.44.91m-1-3a1.15,1.15,0,0,1,1-1.32,1,1,0,0,1,.45,0,1.2,1.2,0,0,1,.85,1,1.17,1.17,0,0,1-1,1.33,1.15,1.15,0,0,1-1.29-1m-2-.94a3.16,3.16,0,0,0,1.38,1.84l.16,3.46a4.1,4.1,0,0,1,4.31-.62l-.81-3.36a3.08,3.08,0,0,0,.81-2.15,7.58,7.58,0,0,0-3-.16,7.69,7.69,0,0,0-2.84,1m-18.21,12h0a.83.83,0,1,1,1.65-.24h0a.83.83,0,1,1-1.65.24m-1.06-2.23h0a.87.87,0,1,1,1.72-.25h0a.87.87,0,1,1-1.72.25m7.39-2a.91.91,0,0,1,.75-1,.86.86,0,0,1,.36,0,.93.93,0,0,1,.67.77.9.9,0,1,1-1.78.25m-7.66-.52A.94.94,0,1,1,527,212a.94.94,0,0,1-1.06-.81m7.09-1.23-.09-.06-.08-.05-.09-.08-.07-.07,0,0a1.21,1.21,0,0,1-.23-.53h0a1.1,1.1,0,0,1,.91-1.25h0a1.1,1.1,0,0,1,1.22.95,1.07,1.07,0,0,1-1.53,1.14m3.87-2.42a.6.6,0,0,1-.1-.3.88.88,0,0,1,.79-1.09c1.44-.21,5.26,1,7.56.95-.19.11-.43.34-2.28.6a36.37,36.37,0,0,1-6-.16m-10,1.15a1,1,0,0,1,.84-1.16,1,1,0,1,1-.84,1.16m16-3.05a.86.86,0,0,1-.62-.71.85.85,0,0,1,.7-1,.77.77,0,0,1,.34,0,.87.87,0,0,1,.61.71.84.84,0,0,1-.7,1,.72.72,0,0,1-.33,0M529.14,207h0a1.11,1.11,0,1,1,2.2-.32h0a1.11,1.11,0,1,1-2.2.32m3.08-.65a1.13,1.13,0,0,1,.93-1.29,1.07,1.07,0,0,1,.44,0,1.14,1.14,0,0,1,.82.94,1.12,1.12,0,0,1-.93,1.29h0a1.12,1.12,0,0,1-1.25-1m7.58-2.1a1,1,0,0,1,.79-1.09.88.88,0,0,1,.59.14,1,1,0,0,1,.47.69.93.93,0,1,1-1.85.26m-2.6-.19,0-.06,0,0a1,1,0,0,1-.12-.34h0a1,1,0,0,1,.85-1.17,1,1,0,0,1,.58.1l.06,0,.1.06.07.06.07.08,0,.05.08.11h0a1,1,0,0,1,.14.37h0a1,1,0,0,1-.85,1.16h0a1,1,0,0,1-1-.43m-2.54.72,0,0h0a1.14,1.14,0,0,1-.41-.73h0a1.07,1.07,0,0,1,.9-1.24,1.09,1.09,0,0,1,1.22.94h0a1.09,1.09,0,0,1-.91,1.24h0a1.06,1.06,0,0,1-.74-.19m-.69-1.9a1.63,1.63,0,0,0-.3,1.21,1.5,1.5,0,0,0,.16.52,1.58,1.58,0,0,0-.75-.08,1.62,1.62,0,0,0-1.07.65,1.67,1.67,0,0,0-.32.91,1.58,1.58,0,0,0-.48-.58,1.61,1.61,0,0,0-1.21-.33,1.64,1.64,0,0,0-1.07.65,1.75,1.75,0,0,0-.3,1.24l0,.14a1.52,1.52,0,0,0-1-.18,1.45,1.45,0,0,0-1,.6,1.55,1.55,0,0,0-.29,1.16,1.63,1.63,0,0,0,.36.8h-.08a1.48,1.48,0,0,0-1,.58,1.55,1.55,0,0,0-.27,1.11,1.52,1.52,0,0,0,.57,1,1.22,1.22,0,0,0,.26.16,1.38,1.38,0,0,0-.29.3,1.41,1.41,0,0,0-.26,1.05,1.44,1.44,0,0,0,.54.94,1.32,1.32,0,0,0,.75.29,1.43,1.43,0,0,0,.3,1.92,1.43,1.43,0,0,0,1,.27c.19,0,.79-.32,1.08-.36a.51.51,0,0,1,.5.13l1.65-1.43a12.54,12.54,0,0,1-1.55-3.57,2.63,2.63,0,0,1,2-2.75,2.48,2.48,0,0,0,.63,1.08,1.49,1.49,0,0,0,.88.33,1.61,1.61,0,0,0-.35,1.19,1.47,1.47,0,0,0,.56,1,1.42,1.42,0,0,0,1.05.28c.4-.06.91-.36,1.19-.4a4.69,4.69,0,0,1,2.19-1.12c-.15-.37-.86-2.33-.86-2.33a19.85,19.85,0,0,0,4.08-.14,13.24,13.24,0,0,0,5.2-1.54l-.06-1.3a5.11,5.11,0,0,1-1.63-.24c-.37-.23-.3-.77-.38-1.34a1.44,1.44,0,0,0-.52-.91,1.36,1.36,0,0,0-1-.27,1.32,1.32,0,0,0-.78.41,1.53,1.53,0,0,0-.56-1,1.44,1.44,0,0,0-2,.29l0,.06h0a1.61,1.61,0,0,0-.6-1,1.47,1.47,0,0,0-1.13-.3,1.52,1.52,0,0,0-1,.61,1.4,1.4,0,0,0-.22.44,1.81,1.81,0,0,0-.37-.41,1.59,1.59,0,0,0-1.19-.31,1.53,1.53,0,0,0-1,.63m36.58,6.9h0a.84.84,0,0,1,.71-1,.74.74,0,0,1,.33,0,.87.87,0,0,1,.61.71.84.84,0,0,1-.7,1,.86.86,0,0,1-1-.74m.83-1.75a.9.9,0,0,1-.5-.67.87.87,0,0,1,.73-1,.84.84,0,0,1,.39,0,.88.88,0,1,1-.62,1.63m-7.85.12a.9.9,0,0,1-.2-.23l0,0a1,1,0,0,1-.12-.34.91.91,0,0,1,.76-1,.69.69,0,0,1,.35,0,.93.93,0,0,1-.09,1.81.91.91,0,0,1-.67-.18m6.79-3.24a.94.94,0,0,1,.78-1.09h0a1,1,0,0,1,1.06.82,1,1,0,0,1-.79,1.08h0a.93.93,0,0,1-1-.81m-6.3.78a1.11,1.11,0,0,1,.11-2.16h0a1.1,1.1,0,0,1,.6.09h0l0,0a1.11,1.11,0,0,1,.55.81h0a1.1,1.1,0,0,1-.9,1.25,1.22,1.22,0,0,1-.43,0m-11.44.39c2.22-.63,5.55-2.82,7-3a.88.88,0,0,1,1.07.82.84.84,0,0,1,0,.32,35.48,35.48,0,0,1-5.68,1.82,5.12,5.12,0,0,1-2.36.06m16-3.29a1,1,0,0,1,.85-1.16.9.9,0,0,1,.4,0h0l.16.07.09.05.08.05.05,0a1.06,1.06,0,0,1,.34.64,1,1,0,0,1-.85,1.16h0a1,1,0,0,1-1.14-.88m-14.86,1.34a.85.85,0,0,1-.47-.35l0,0-.05-.15-.06-.17h0a.85.85,0,0,1,.7-1,.93.93,0,0,1,.33,0,.84.84,0,0,1,.61.7.85.85,0,0,1-.7,1,.93.93,0,0,1-.33,0m12.78-1.43a1.13,1.13,0,0,1-.74-.91,1.11,1.11,0,0,1,.94-1.28,1,1,0,0,1,.64.1,1.17,1.17,0,0,1,.62.87,1.12,1.12,0,0,1-.94,1.28,1,1,0,0,1-.52-.06m-3.87-.68a1.12,1.12,0,0,1,.94-1.28,1.08,1.08,0,0,1,.44,0,1.12,1.12,0,0,1,.81.94,1.13,1.13,0,0,1-.93,1.29h0a1.14,1.14,0,0,1-1.26-1m-7.52,0a1,1,0,0,1,.79-1.08.86.86,0,0,1,.5.08,1,1,0,0,1,.56.74.93.93,0,1,1-1.85.26m2.93-.57h0l0,0a1,1,0,0,1-.51-.75h0a1,1,0,0,1,.84-1.17.9.9,0,0,1,.4,0,1,1,0,0,1-.11,2h0a1.06,1.06,0,0,1-.56-.09m2.12-1.18a1.1,1.1,0,0,1,.91-1.24,1,1,0,0,1,.6.1,1.09,1.09,0,1,1-1.51,1.14m-.21-1.13a1.49,1.49,0,0,0-.24.49,1.67,1.67,0,0,0-.34-.36,1.54,1.54,0,0,0-1.13-.31,1.52,1.52,0,0,0-1,.61,1.59,1.59,0,0,0-.29,1.16h0l-.05,0a1.42,1.42,0,0,0-2,.29,1.5,1.5,0,0,0-.28,1.07,1.26,1.26,0,0,0-.85-.18,1.29,1.29,0,0,0-.89.55,1.37,1.37,0,0,0-.26,1c.08.56.31,1.06,0,1.38a4.93,4.93,0,0,1-1.49.69l.3,1.26a13.26,13.26,0,0,0,5.42,0,18.89,18.89,0,0,0,4-1s-.14,2.08-.17,2.48a4.55,4.55,0,0,1,2.41.47c.28,0,.86.1,1.25.05a1.44,1.44,0,0,0,.94-.57,1.48,1.48,0,0,0,.26-1.08,1.57,1.57,0,0,0-.66-1,1.55,1.55,0,0,0,.76-.56,2.67,2.67,0,0,0,.3-1.21,2.62,2.62,0,0,1,2.64,2.09,13,13,0,0,1-.49,3.87l2,.9c.06-.11.14-.21.44-.26s.94.08,1.13,0a1.35,1.35,0,0,0,.89-.54,1.38,1.38,0,0,0,.26-1,1.4,1.4,0,0,0-.51-.9,1.33,1.33,0,0,0,.64-.48,1.48,1.48,0,0,0,.26-1.06,1.44,1.44,0,0,0-.54-.94,1.27,1.27,0,0,0-.36-.2,2.09,2.09,0,0,0,.2-.22,1.51,1.51,0,0,0,.27-1.11,1.48,1.48,0,0,0-.57-1,1.45,1.45,0,0,0-1.08-.29l-.07,0a1.64,1.64,0,0,0-.48-1.91,1.49,1.49,0,0,0-2,.15l0-.15a1.63,1.63,0,0,0-.64-1.1,1.55,1.55,0,0,0-1.21-.32,1.63,1.63,0,0,0-1.07.65,1.84,1.84,0,0,0-.29.69,1.72,1.72,0,0,0-.56-.79,1.6,1.6,0,0,0-1.21-.32,1.52,1.52,0,0,0-.7.28,1.4,1.4,0,0,0,0-.54,1.64,1.64,0,0,0-.62-1.08,1.54,1.54,0,0,0-1.19-.32,1.53,1.53,0,0,0-1,.64m-13.12-3.26a.51.51,0,0,0,.14.3.57.57,0,0,0-.32,0,.51.51,0,0,0-.45.61.52.52,0,0,0,.6.47c.18,0,.21-.08.21-.08l.17,1.18-1.14.16s0-.05,0-.23a.54.54,0,1,0-1.06.15.69.69,0,0,0,.13.3.38.38,0,0,0-.31,0,.55.55,0,0,0,.15,1.08.4.4,0,0,0,.29-.14.76.76,0,0,0,0,.33.52.52,0,0,0,.6.47.51.51,0,0,0,.45-.62c0-.18-.07-.21-.07-.21l1.14-.16.11.78a3,3,0,0,0-2,2.59,8.78,8.78,0,0,1,2.1-.77l-.08-1.7.53-.09.53-.06.4,1.66a8.75,8.75,0,0,1,2.24.14,3,3,0,0,0-2.66-1.92l-.11-.78,1.14-.17s0,0,0,.23a.53.53,0,1,0,1-.15.58.58,0,0,0-.13-.3.44.44,0,0,0,.32.05.55.55,0,0,0-.15-1.09.47.47,0,0,0-.3.13.63.63,0,0,0,.05-.32.54.54,0,1,0-1.06.15c0,.18.08.22.08.22l-1.14.16-.17-1.18s.05,0,.23,0a.52.52,0,0,0,.45-.61.54.54,0,0,0-.61-.47.58.58,0,0,0-.29.14.52.52,0,0,0,0-.33.52.52,0,0,0-.61-.47.53.53,0,0,0-.45.62"/></g><g class="cls-14"><rect class="cls-11" x="500.44" y="194.4" width="118.62" height="176.85" transform="translate(-34.26 81.67) rotate(-8.1)"/></g><g class="cls-8"><path class="cls-9" d="M583.71,350.27a1.16,1.16,0,1,1-1.31-1,1.17,1.17,0,0,1,1.31,1m1.4-1.3.85-.12-2.72,5.68-.85.12ZM582,350.5a.55.55,0,0,0,.61.47.54.54,0,0,0,.45-.62.55.55,0,0,0-.61-.46.54.54,0,0,0-.45.61m2.62,2.73a1.16,1.16,0,1,1,1.31,1,1.16,1.16,0,0,1-1.31-1m1.67-.24a.54.54,0,0,0-.6-.46.53.53,0,0,0-.45.61.54.54,0,0,0,.61.47.53.53,0,0,0,.44-.62"/><path class="cls-9" d="M548.21,337.11l-1,.14-.69-1-2.21.32-.36,1.19-1,.14,1.88-5.77Zm-3.65-1.37,1.51-.22-1-1.5Z"/><polygon class="cls-9" points="548.41 331.79 549.37 331.65 549.99 336.04 552.12 335.74 552.23 336.54 549.15 336.98 548.41 331.79"/><polygon class="cls-9" points="557.5 335.79 556.37 335.95 553.87 333.64 554.24 336.25 553.28 336.39 552.54 331.2 553.5 331.06 553.84 333.39 555.47 330.79 556.61 330.62 554.83 333.31 557.5 335.79"/><path class="cls-9" d="M562.75,332.39a2.67,2.67,0,1,1-3-2.3,2.69,2.69,0,0,1,3,2.3m-4.34.62a1.71,1.71,0,1,0,1.44-2,1.75,1.75,0,0,0-1.44,2"/><polygon class="cls-9" points="567.36 332.09 564.95 332.44 565.26 334.68 564.31 334.82 563.57 329.63 564.53 329.5 564.83 331.63 567.25 331.29 566.94 329.15 567.9 329.02 568.64 334.2 567.68 334.34 567.36 332.09"/><path class="cls-9" d="M574.75,330.69a2.68,2.68,0,1,1-3-2.3,2.69,2.69,0,0,1,3,2.3m-4.34.61a1.71,1.71,0,1,0,1.44-2,1.73,1.73,0,0,0-1.44,2"/><polygon class="cls-9" points="575.56 327.93 576.52 327.79 577.15 332.18 579.27 331.88 579.38 332.67 576.3 333.11 575.56 327.93"/><polygon class="cls-9" points="579.7 327.34 582.81 326.89 582.92 327.69 580.75 328 580.95 329.38 582.94 329.1 583.06 329.9 581.06 330.18 581.37 332.39 580.44 332.52 579.7 327.34"/><path class="cls-9" d="M585.65,331.78l-1,.14-.74-5.19,1.46-.2c1.15-.17,2.05.31,2.19,1.32a1.48,1.48,0,0,1-.81,1.57l1.92,1.93-1.12.15-1.77-1.79-.46.07Zm-.4-2.77.51-.07c.58-.08.94-.43.87-.95s-.52-.76-1.11-.68l-.5.08Z"/><rect class="cls-9" x="589.35" y="325.92" width="0.97" height="5.24" transform="translate(-40.4 86.37) rotate(-8.1)"/><path class="cls-9" d="M553.94,341.52l.28,2-1,.14-.73-5.19,1.46-.2c1.15-.17,2,.31,2.19,1.32s-.58,1.72-1.73,1.88Zm-.11-.79.5-.07c.59-.08.95-.43.88-1s-.52-.76-1.11-.68l-.5.08Z"/><rect class="cls-9" x="557.37" y="337.72" width="0.97" height="5.24" transform="translate(-42.38 81.98) rotate(-8.1)"/><polygon class="cls-9" points="559.42 337.47 560.38 337.34 561 341.73 563.13 341.42 563.24 342.22 560.16 342.66 559.42 337.47"/><path class="cls-9" d="M563.74,341.21l.54-.74a1.63,1.63,0,0,0,1.47.65.8.8,0,0,0,.78-.87c-.16-1.08-2.59-.14-2.84-1.88a1.62,1.62,0,0,1,1.49-1.8,2,2,0,0,1,1.69.53l-.48.74a1.19,1.19,0,0,0-1.11-.47.7.7,0,0,0-.67.79c.14,1,2.58.08,2.84,1.9a1.72,1.72,0,0,1-1.61,1.88,2.43,2.43,0,0,1-2.1-.73"/><polygon class="cls-9" points="571.73 335.72 572.67 335.59 573.44 340.97 569.29 337.98 569.76 341.29 568.82 341.43 568.05 336.04 572.21 339.04 571.73 335.72"/><polygon class="cls-9" points="574.14 335.38 577.33 334.93 577.45 335.72 575.19 336.04 575.38 337.38 577.46 337.09 577.57 337.89 575.49 338.19 575.7 339.63 577.97 339.31 578.09 340.11 574.88 340.56 574.14 335.38"/><path class="cls-9" d="M580.29,339.79l-1,.14-.74-5.18,1.47-.21c1.14-.16,2,.31,2.18,1.32a1.46,1.46,0,0,1-.81,1.57l1.92,1.93-1.12.16-1.76-1.79-.47.06ZM579.9,337l.5-.07c.59-.08,1-.43.87-.95s-.51-.76-1.1-.67l-.51.07Z"/><path class="cls-9" d="M567.7,351.32c.45,3.2-1,5.74-3.53,6.1s-4.64-1.67-5.09-4.88,1-5.75,3.53-6.1,4.63,1.67,5.09,4.88m-6.69.95c.3,2.08,1.47,3.59,2.91,3.39s2.14-2,1.84-4.07-1.45-3.6-2.9-3.39-2.14,2-1.85,4.07"/><path class="cls-9" d="M571.28,355.07a1.23,1.23,0,0,1-1.06,1.41h0a1.23,1.23,0,0,1-1.4-1.07,1.22,1.22,0,0,1,1.05-1.39h0a1.25,1.25,0,0,1,1.41,1.05"/><path class="cls-9" d="M579.79,349.59c.45,3.21-1,5.75-3.53,6.11s-4.64-1.67-5.09-4.88,1.05-5.75,3.53-6.1,4.63,1.67,5.09,4.87m-6.69,1c.3,2.08,1.47,3.59,2.91,3.39s2.14-2,1.84-4.07-1.45-3.6-2.9-3.39-2.14,2-1.85,4.07"/><polygon class="cls-11" points="522.62 254.33 520.54 252.91 520.77 252.57 522.54 253.78 523.07 252.99 523.38 253.2 522.62 254.33"/><polygon class="cls-11" points="523.96 252.4 521.94 250.9 522.77 249.77 523.08 250 522.49 250.79 522.98 251.16 523.54 250.39 523.85 250.62 523.28 251.38 523.9 251.84 524.51 251.02 524.81 251.25 523.96 252.4"/><polygon class="cls-11" points="523.61 248.72 525.55 249.59 524.33 247.85 524.59 247.53 526.05 249.71 525.75 250.07 523.34 249.05 523.61 248.72"/><polygon class="cls-11" points="527.11 248.46 525.24 246.78 526.18 245.74 526.46 245.99 525.8 246.72 526.25 247.13 526.89 246.43 527.17 246.68 526.53 247.38 527.11 247.9 527.79 247.14 528.07 247.4 527.11 248.46"/><path class="cls-11" d="M528.74,246.69,527,244.92l.57-.58a.67.67,0,0,1,1.07-.05.65.65,0,0,1,.15.81l1.16.42-.32.31-1-.38-.25.24.72.71Zm-1.22-1.8.54.53.28-.28a.38.38,0,1,0-.53-.54Z"/><path class="cls-11" d="M531.55,244l-.51-.34-.61.55.28.54-.31.28-1.14-2.35.4-.36,2.21,1.39Zm-.83-.55-1.05-.7.58,1.11Z"/><polygon class="cls-11" points="533.45 242.46 531.55 241.4 532.8 242.97 532.49 243.22 530.93 241.26 531.38 240.9 533.27 241.96 532.02 240.38 532.33 240.14 533.89 242.1 533.45 242.46"/><path class="cls-11" d="M533.32,239.4l.7-.49c.47-.33,1-.3,1.53.46s.38,1.26-.09,1.59l-.7.5Zm.55.07,1,1.44.36-.26c.27-.18.36-.49,0-1s-.71-.58-1-.4Z"/><path class="cls-11" d="M536.9,240v-.4a1.72,1.72,0,0,1-.66-.68c-.45-.73-.35-1.3.16-1.6a.84.84,0,0,1,.56-.15V237l.27-.17v.4a1.74,1.74,0,0,1,.67.68c.44.73.34,1.3-.16,1.6a.88.88,0,0,1-.57.15v.16Zm-.3-1.29a1.88,1.88,0,0,0,.32.41l0-1.55a.47.47,0,0,0-.36.07c-.29.18-.35.49,0,1.07m.63-1,0,1.55a.47.47,0,0,0,.36-.07c.29-.18.36-.49,0-1.07a1.88,1.88,0,0,0-.32-.41"/><path class="cls-11" d="M539.37,238.53l-1.17-2.23.72-.38c.45-.23.8-.18,1,.27a.65.65,0,0,1-.1.82l1,.74-.4.21-.87-.67-.31.16.47.89Zm-.63-2.09.35.67.36-.19a.34.34,0,0,0,.16-.51.35.35,0,0,0-.51-.16Z"/><polygon class="cls-11" points="542.96 236.79 542.13 234.82 541.57 235.05 541.42 234.71 542.93 234.07 543.08 234.42 542.51 234.66 543.34 236.63 542.96 236.79"/><rect class="cls-11" x="544.3" y="233.57" width="0.41" height="2.52" transform="translate(-47.51 200.94) rotate(-20.05)"/><polygon class="cls-11" points="546.21 235.56 545.47 233.16 545.86 233.04 546.5 235.08 547.4 234.8 547.52 235.16 546.21 235.56"/><path class="cls-11" d="M548.89,232.21l.84-.18c.56-.12,1,.11,1.22,1s-.14,1.32-.7,1.44l-.84.17Zm.48.28.36,1.72.44-.09c.32-.07.52-.32.38-1s-.43-.81-.74-.74Z"/><polygon class="cls-11" points="552.21 234.13 551.8 231.65 553.18 231.42 553.25 231.79 552.27 231.95 552.37 232.56 553.31 232.4 553.37 232.78 552.43 232.93 552.55 233.69 553.57 233.53 553.63 233.9 552.21 234.13"/><polygon class="cls-11" points="554.8 233.8 554.62 231.67 554.01 231.73 553.98 231.35 555.6 231.21 555.63 231.59 555.03 231.64 555.21 233.76 554.8 233.8"/><polygon class="cls-11" points="557.72 233.64 557.73 231.13 558.14 231.13 558.14 232.16 558.89 231.13 559.38 231.13 558.5 232.29 559.48 233.65 558.97 233.64 558.14 232.46 558.13 233.64 557.72 233.64"/><path class="cls-11" d="M560,232.41c.06-.86.47-1.26,1.06-1.22a.88.88,0,0,1,.87.88l-.41,0c-.07-.33-.22-.47-.49-.49s-.57.2-.62.88.16.93.5.95.53-.14.58-.57l-.54,0,0-.38,1,.07v.07c-.05.79-.34,1.28-1.06,1.23s-.94-.46-.88-1.36"/><polygon class="cls-11" points="562.78 233.89 563.1 231.4 563.5 231.45 563.23 233.57 564.18 233.69 564.13 234.06 562.78 233.89"/><polygon class="cls-11" points="565 234.21 565.08 233.75 565.5 233.83 565.42 234.29 565 234.21"/><path class="cls-11" d="M567.72,232.19l.83.2c.56.14.89.55.66,1.46s-.7,1.12-1.26,1l-.84-.2Zm.31.46-.43,1.71.44.11c.31.07.61-.06.77-.72s0-.91-.35-1Z"/><path class="cls-11" d="M571,235.71l0-.61-.78-.24-.32.51-.4-.12,1.44-2.18.51.16-.06,2.61Zm0-1,.07-1.25-.66,1.06Z"/><polygon class="cls-11" points="573.34 236.55 573.29 234.38 572.57 236.25 572.2 236.11 573.1 233.77 573.63 233.98 573.68 236.15 574.4 234.27 574.77 234.41 573.87 236.75 573.34 236.55"/><path class="cls-11" d="M575,236.39l.38.17a.43.43,0,0,0,.26.61.37.37,0,0,0,.54-.15c.07-.15,0-.28-.14-.44l-.34-.34a.66.66,0,0,1-.19-.79.71.71,0,0,1,1-.32.79.79,0,0,1,.44,1l-.37-.17a.4.4,0,0,0-.23-.53c-.22-.1-.39-.06-.47.12s0,.25.14.43l.31.31a.7.7,0,0,1,.2.86.74.74,0,0,1-1.09.31.78.78,0,0,1-.47-1.1"/><polygon class="cls-11" points="577.1 238.22 578.25 235.99 578.62 236.18 578.15 237.09 579.29 236.52 579.72 236.74 578.41 237.37 578.66 239.03 578.21 238.79 578.01 237.36 577.47 238.41 577.1 238.22"/><polygon class="cls-11" points="579.41 239.45 580.69 237.28 581.9 237.99 581.71 238.32 580.85 237.82 580.54 238.34 581.37 238.83 581.17 239.15 580.35 238.67 579.96 239.34 580.85 239.85 580.66 240.18 579.41 239.45"/><polygon class="cls-11" points="582.46 241.32 583.88 239.25 584.22 239.49 583.65 240.31 584.39 240.82 584.96 240 585.3 240.23 583.88 242.3 583.54 242.06 584.18 241.13 583.44 240.63 582.8 241.56 582.46 241.32"/><path class="cls-11" d="M587,243.06c-.52.68-1.08.79-1.55.43s-.53-.9,0-1.61,1.08-.79,1.55-.43.53.9,0,1.61m-1.21-.93c-.41.54-.38.86-.11,1.06s.58.16,1-.38.38-.86.11-1.07-.58-.15-1,.39"/><polygon class="cls-11" points="588.61 242.78 589.64 243.65 589.4 243.94 588.68 243.33 588.25 243.85 588.92 244.42 588.67 244.71 588 244.14 587.31 244.97 587 244.7 588.61 242.78"/></g></g><path class="cls-7" d="M615.21,180.5a579.9,579.9,0,0,1,10.23,70.33,1.84,1.84,0,0,1-3.44,1c-5.39-9.58-15.83-25.23-29.83-32.39a5.7,5.7,0,0,1-3.07-6c1.19-7.41,0-22.24-12.21-24.74,0,0-12.54-2.35-13.06-6.19-.43-3.16,1.25-4.32,10.07-5.71a160.46,160.46,0,0,1,34.66-2.09A7.23,7.23,0,0,1,615.21,180.5Z"/><path class="cls-7" d="M637.39,327.76c1.69,11.67,5.15,32.23,5.07,43.55a4.71,4.71,0,0,1-2.87,4.31,111.52,111.52,0,0,1-35,9.39c-8.84.92-14.34,1-16.48.5a3.3,3.3,0,0,1-2.76-3.28c.1-1.65,2.66-3.82,7.59-4.76,9.4-1.8,16.54-9.34,22.28-14.66,5.28-4.89,15.83-21,17.66-34.24C633.35,325.29,637,325.23,637.39,327.76Z"/><path class="cls-2" d="M498,153.89a4.08,4.08,0,0,0-2.76,3.78,39.8,39.8,0,0,1-6.58,19.5c-2.64,4.06,27.68-2.56,30.45-5.71s3.61-16.6.4-19.82C516.83,149,504,151.82,498,153.89Z"/><path class="cls-2" d="M503.55,208.11a27.69,27.69,0,0,1,2.39-7.89c1.54-3.29,5.64-7,2-9.71-2.63-2-22.46-2.78-25.88,5.52s2.16,44.28,4.34,59.6,14.55,5.29,14.75-15.89A241.41,241.41,0,0,1,503.55,208.11Z"/><path class="cls-15" d="M512.33,402.1a164,164,0,0,0,21.5-.43c5.34-.46,10.41-1.16,15.18-2"/><path class="cls-6" d="M512.36,401.29c3.06,0,6.11,0,9.16-.09s6.1-.28,9.14-.49,6.07-.52,9.09-.91,6-.79,9.12-.95a.81.81,0,0,1,.29,1.59,49.73,49.73,0,0,1-9.1,1.82c-3.07.37-6.16.64-9.24.83s-6.18.24-9.27.23-6.18-.16-9.26-.41a.81.81,0,0,1,.07-1.62Z"/><path class="cls-6" d="M529.71,408.08a23.87,23.87,0,0,1,4.65,3.94,3.82,3.82,0,0,0,2.9,1.3c4.21.11,14.87-1.15,33.09-4.05,1-.16,1.71-1,1.49-1.72-.54-1.85-1.85-4.85-4.72-4.93-4-.12-19.68,3.86-36.85,4.47C529.59,407.11,529.23,407.74,529.71,408.08Z"/><rect class="cls-16" x="208.12" y="375.29" width="51.43" height="39.74" rx="17.27"/><path class="cls-4" d="M368.88,286.12s2.09-.73,2.18-2.59l.16-3.26s.57-2.6-7.74-4.1c-49.07-8.87-113.67-5.41-113.67-5.41-8.43.53-8.1,3.35-8.1,3.35l-.16,3.26c-.08,1.86,1.94,2.78,1.94,2.78Z"/><path class="cls-4" d="M214.75,526.83s.26,4.21,7.56,7.83,8.14,5.52,8.14,5.52a54.6,54.6,0,0,1,3.46,5.77c.85,1.91,5.4,4.46,61.3,7.12s56.06-.6,56.06-.6a34.71,34.71,0,0,1,4.48-5.86,20,20,0,0,1,9.09-4.7c7.32-1.76,7.81-7.1,7.81-7.1S234,515.14,214.75,526.83Z"/><path class="cls-17" d="M372.56,534.6l9.55-210.46a16.86,16.86,0,0,0-1.74-8.26c-2.51-5-7.38-14.05-9.2-17.13-3.22-5.47-3.06-14.16-3.06-14.16-36.33-9.46-88.62-9.62-124.94-6.91-.32,0-1.43,8.19-4.39,13.8-1.79,3.42-8.8,13-11.57,17.45a11.31,11.31,0,0,0-1.66,5.33L215,526.14S292.85,539.48,372.56,534.6Z"/><path class="cls-6" d="M256.69,272.4a4.75,4.75,0,0,0-.1,2.33.42.42,0,0,0,.39.32s16.15-1.67,27.41-.29a.77.77,0,0,0,.72-.53,2.71,2.71,0,0,0-.13-2.74c-.59-.81-23.23-.43-27.61.2A.89.89,0,0,0,256.69,272.4Z"/><path class="cls-7" d="M377,317.83c-6-1-12.09-2-18.15-2.89s-12.13-1.7-18.22-2.38c-12.16-1.37-24.35-2.43-36.58-2.78S279.5,309,267.25,309c-6.12,0-12.24,0-18.35.27s-12.22.56-18.29,1.15a1.1,1.1,0,0,1-1.22-1,1.12,1.12,0,0,1,.93-1.21c6.12-.94,12.27-1.48,18.43-1.92s12.32-.59,18.48-.7c12.32-.21,24.63.09,36.92.47s24.65,1.52,36.87,3.16q9.17,1.23,18.27,2.81c6.06,1.11,12.11,2.27,18.12,3.64a1.11,1.11,0,0,1-.44,2.18Z"/><g class="cls-18"><g class="cls-18"><path class="cls-9" d="M293.14,513.08a5.2,5.2,0,0,1,4.35,2.75A4.1,4.1,0,0,0,301,518c33.82-3.23,61.53-36.67,63.53-78.79,1.5-31.56-11.71-59.81-32.62-74.48a6.21,6.21,0,0,1-1.56-8.64,15.7,15.7,0,0,0,3-8.12c.55-11.5-13.46-21.52-31.29-22.36s-32.73,7.78-33.27,19.29A15.65,15.65,0,0,0,271,353.3a6.12,6.12,0,0,1,.79,3.32,6.22,6.22,0,0,1-3.17,5.13c-22.2,12.63-38,39.49-39.54,71.05-2,42.12,22.41,78,55.77,84.46a4.13,4.13,0,0,0,3.67-1.86,5.21,5.21,0,0,1,4.58-2.32"/><path class="cls-9" d="M301,518c33.59-5.11,61.53-36.67,63.53-78.79,1.5-31.56-11.71-59.81-32.62-74.48a6.21,6.21,0,0,1-1.56-8.64,15.7,15.7,0,0,0,3-8.12c.55-11.5-13.46-21.52-31.29-22.36s-32.73,7.78-33.27,19.29A15.65,15.65,0,0,0,271,353.3a6.14,6.14,0,0,1,.79,3.32,6.22,6.22,0,0,1-3.17,5.13c-22.2,12.63-38,39.49-39.54,71.05-2,42.12,22.41,78,55.77,84.46,0,0,9.86,1.71,16.07.77"/><path class="cls-10" d="M300.23,364.56c-31.33-1.49-58.35,29.33-60.22,68.7s22.09,72.61,53.43,74.11S351.8,478,353.67,438.66s-22.1-72.61-53.44-74.1"/><path class="cls-11" d="M318.31,367.14l.24.11c22.92,10.78,38.53,39.12,37,71.5-1.92,40.41-29.82,72-62.19,70.49s-57.14-35.67-55.22-76.07c1.54-32.38,19.77-59.12,43.61-67.67l.26-.08-3.58-13.85,2,12.27c-24.95,9.31-42.75,37.13-44.27,69.23-2,41.52,23.65,76.58,57.13,78.18s62.31-30.89,64.29-72.4c1.52-32.1-13.55-61.49-37.5-73.12l3.13-12Z"/><polygon class="cls-9" points="315.09 421.23 313.13 462.47 335.5 463.53 335.85 456.15 321.2 455.46 322.81 421.6 315.09 421.23"/><path class="cls-9" d="M299.34,382.75a13.15,13.15,0,0,0-5.81.88c-4.42,1.87-5.71,6.35-5.9,10.32l-.4,8.33,8.19.39.44-9.26c.1-2.08,1.37-3.36,3.24-3.28a3,3,0,0,1,2.1.94,3.59,3.59,0,0,1,.82,2.64l-.44,9.25,8.19.39.39-8.33c.36-7.45-3.59-11.92-10.82-12.27"/><path class="cls-9" d="M286.4,419.87l-1.46,30.54c-.24,5.08,1.36,8.62,4.66,10.49a13.14,13.14,0,0,0,5.95,1.54c7.34.35,11.57-3.54,11.93-10.95l1.45-30.55-8.19-.39L299.25,452a3.6,3.6,0,0,1-1.08,2.55,2.94,2.94,0,0,1-2.17.73c-1.87-.09-3-1.49-2.91-3.57l1.49-31.47Z"/><polygon class="cls-9" points="274.02 419.28 272.76 445.57 272.37 445.56 265.96 419.66 258.59 419.31 256.63 460.55 262.85 460.84 264.1 434.55 264.5 434.57 270.9 460.46 278.27 460.81 280.24 419.57 274.02 419.28"/><rect class="cls-12" x="307" y="437.45" width="33.13" height="1.53" transform="translate(-129.54 740.59) rotate(-87.28)"/><polygon class="cls-12" points="335.89 455.39 335.89 455.39 335.89 455.39 335.47 464.3 337 464.37 337.42 455.46 335.89 455.39"/><path class="cls-12" d="M297.85,391.15a1.91,1.91,0,0,0-.81.76,3.24,3.24,0,0,0-.41,1.54l-.44,9.26,1.53.07.44-9.26a2.37,2.37,0,0,1,1.67-2.46,2.28,2.28,0,0,0-.76-.16,2.34,2.34,0,0,0-1.22.25"/><path class="cls-12" d="M300.91,382.06h-.77c7.25.66,11.15,5.52,10.79,13l-.4,8.33,1.54.07.39-8.33c.37-7.75-3.8-12.7-11.55-13.07"/><path class="cls-12" d="M296,454.54a2.52,2.52,0,0,0,.69-.07l.08,0a2.37,2.37,0,0,1-1.42-2.61l1.49-31.47-1.53-.08-1.5,31.48c-.07,1.62.68,2.7,2.19,2.77"/><path class="cls-12" d="M309.7,421h0l-1.46,30.54c-.17,3.7-1.33,6.72-3.46,8.77s-4.84,3-8.52,2.93c.26,0,.51,0,.78.06,8.1.39,12.38-4.28,12.74-11.68l1.45-30.55Z"/><polygon class="cls-12" points="272.21 441.18 272.43 436.49 268.1 419 266.57 418.93 272.08 441.18 272.21 441.18"/><polygon class="cls-12" points="264.66 438.94 263.62 460.88 265.15 460.95 265.97 443.71 264.79 438.95 264.66 438.94"/><rect class="cls-12" x="259.74" y="439.88" width="42.05" height="1.53" transform="translate(-172.72 700.16) rotate(-87.28)"/><rect class="cls-12" x="269.97" y="438.83" width="4.7" transform="translate(-178.96 689.99) rotate(-87.28)"/><path class="cls-12" d="M264.66,438.94l-1,21.94Z"/><polygon class="cls-11" points="322.01 454.73 323.58 421.64 322.81 421.6 321.2 455.46 335.85 456.15 335.89 455.39 322.01 454.73"/><polygon class="cls-11" points="313.13 462.47 315.09 421.23 314.32 421.2 312.33 463.2 335.47 464.3 335.5 463.53 313.13 462.47"/><path class="cls-11" d="M300.14,382.05l-.77-.07c-4-.18-6.93.86-9,2.79-2.22,2.11-3.35,5.29-3.54,9.14l-.39,8.33.76,0,.4-8.33c.19-4,1.48-8.45,5.9-10.32a13.15,13.15,0,0,1,5.81-.88c7.23.35,11.18,4.82,10.82,12.27l-.39,8.33.76,0,.4-8.33c.36-7.49-3.54-12.35-10.79-13"/><path class="cls-11" d="M299.1,390.13c-1.87-.09-3.14,1.2-3.24,3.28l-.44,9.26.77,0,.44-9.26a3.24,3.24,0,0,1,.41-1.54,1.91,1.91,0,0,1,.81-.76,2.34,2.34,0,0,1,1.22-.25,2.28,2.28,0,0,1,.76.16,2.37,2.37,0,0,1,1.42,2.61l-.44,9.26.77,0,.44-9.25a3.59,3.59,0,0,0-.82-2.64,3,3,0,0,0-2.1-.94"/><path class="cls-11" d="M309.7,421l-.77,0-1.45,30.55c-.36,7.41-4.59,11.3-11.93,10.95a13.14,13.14,0,0,1-5.95-1.54c-3.3-1.87-4.9-5.41-4.66-10.49l1.46-30.54-.77,0-1.45,30.55c-.37,7.63,3.23,12.44,11.33,12.83h.75c3.68,0,6.53-1,8.52-2.93s3.29-5.06,3.46-8.77Z"/><path class="cls-11" d="M296,455.3a2.94,2.94,0,0,0,2.17-.73,3.6,3.6,0,0,0,1.08-2.55l1.49-31.47-.76,0L298.48,452a2.37,2.37,0,0,1-1.67,2.46l-.08,0a2.52,2.52,0,0,1-.69.07h0c-1.5-.07-2.26-1.15-2.19-2.77l1.5-31.48-.77,0-1.49,31.47c-.1,2.08,1,3.48,2.91,3.57"/><polygon class="cls-11" points="272.37 445.56 272.76 445.57 274.02 419.28 273.25 419.24 273.25 419.24 272.21 441.18 272.21 441.18 272.08 441.18 266.57 418.93 257.86 418.51 257.86 418.51 255.86 460.51 255.86 460.51 256.63 460.55 258.59 419.31 265.96 419.66 272.37 445.56"/><polygon class="cls-11" points="280.24 419.57 278.27 460.81 270.9 460.46 264.49 434.57 264.1 434.55 262.85 460.84 263.62 460.88 264.66 438.94 264.79 438.95 270.3 461.2 279 461.61 281 419.61 280.24 419.57"/><polygon class="cls-12" points="336.91 495.71 335.66 494.49 336.01 494.13 335.79 493.91 334.86 494.87 335.08 495.09 335.43 494.73 336.68 495.95 336.91 495.71"/><path class="cls-12" d="M338.19,494.41a.64.64,0,0,0,0-1l-1-.93-.23.25,1,.92c.2.19.22.37,0,.55s-.35.18-.55,0l-1-.92-.23.25,1,.93a.63.63,0,0,0,1,0"/><path class="cls-12" d="M339,492.13a.31.31,0,0,1,.47.4l-.25.28-.46-.41Zm-.68-.48c.12-.13.25-.2.42,0s.12.28,0,.42l-.18.21-.42-.37Zm1.35.2a.45.45,0,0,0-.61,0,.41.41,0,0,0-.12-.49.51.51,0,0,0-.81.07l-.44.51,1.54,1.36.47-.53a.57.57,0,0,0,0-.89"/><path class="cls-12" d="M339.63,490c.18-.21.44-.23.87.13s.46.62.29.83-.44.23-.87-.13-.47-.61-.29-.83m-.24-.19c-.31.37-.23.83.31,1.28s1,.44,1.33.07.23-.84-.31-1.29-1-.44-1.33-.06"/><path class="cls-12" d="M341,488.35a.28.28,0,0,1,.43-.05.28.28,0,0,1,.06.43l-.21.27-.48-.39Zm1.17,1.34-.64-.51.17-.22.88.21.23-.28-1-.23a.54.54,0,0,0-.2-.65.55.55,0,0,0-.86.15l-.42.53L342,490Z"/><path class="cls-12" d="M343.62,487.84c.35-.48.14-.89-.38-1.27l0,0-.48.64.25.19.26-.36c.28.22.3.44.14.65s-.42.25-.87-.08-.5-.58-.33-.81.29-.22.55-.12l.2-.28a.74.74,0,0,0-1,.22c-.29.39-.19.85.38,1.27s1,.38,1.32,0"/><rect class="cls-12" x="344.13" y="486.31" width="0.35" height="0.38" transform="translate(-251.71 485.28) rotate(-54.59)"/><path class="cls-12" d="M343.91,484.36c.15-.22.4-.3.86,0s.48.58.33.79l-.21.31-1.19-.81Zm1,1.56.39-.58c.27-.39.21-.83-.39-1.25s-1-.29-1.31.09l-.39.59Z"/><polygon class="cls-12" points="346.39 483.78 345.57 483.26 346.76 483.2 346.98 482.85 345.61 482.93 345.2 481.82 344.99 482.15 345.36 483.13 344.65 482.67 344.47 482.96 346.2 484.06 346.39 483.78"/><path class="cls-12" d="M242.63,478.34c.27.52.73.52,1.31.22l.05,0-.36-.7-.28.14.21.39c-.32.15-.53.07-.65-.16s0-.5.46-.75.74-.19.87.06a.42.42,0,0,1-.13.55l.16.3a.74.74,0,0,0,.25-1c-.23-.43-.68-.55-1.31-.22s-.8.76-.58,1.19"/><path class="cls-12" d="M245.21,479.38a.28.28,0,0,1-.13.42.26.26,0,0,1-.41-.12l-.16-.29.54-.3Zm-1.7.56.72-.4.14.24-.54.73.17.32.6-.81a.53.53,0,0,0,.67.07.54.54,0,0,0,.21-.85l-.33-.59-1.8,1Z"/><path class="cls-12" d="M244.63,482a.63.63,0,0,0,1,.25l1.19-.69-.17-.29-1.18.68c-.24.14-.41.11-.54-.11s-.07-.38.18-.52l1.18-.69-.17-.29-1.2.69a.63.63,0,0,0-.25,1"/><polygon class="cls-12" points="246.19 484.51 247.93 483.43 247.76 483.15 246.36 484.02 247.41 482.58 247.16 482.18 245.41 483.26 245.58 483.54 246.99 482.67 245.94 484.11 246.19 484.51"/><path class="cls-12" d="M248.49,484.84c.15.22.13.48-.34.79s-.71.23-.86,0l-.2-.31,1.2-.8Zm-1.85.38.39.59c.26.39.69.51,1.31.1s.67-.85.41-1.24l-.39-.59Z"/><polygon class="cls-12" points="248.54 488.01 248.79 487.84 248.35 487.2 249.78 486.2 249.59 485.92 247.9 487.1 248.54 488.01"/><path class="cls-12" d="M249.84,488.46l1-.39-.65.8Zm0,1.33,1.3-1.7-.26-.35-2,.75.2.27.47-.18.4.53-.32.39Z"/><path class="cls-12" d="M250.65,490.87c.36.46.81.37,1.32,0l.05,0-.5-.62-.24.19.28.35c-.29.2-.51.17-.67,0s-.13-.48.31-.82.69-.33.87-.11a.4.4,0,0,1,0,.56l.21.27a.73.73,0,0,0,.06-1c-.3-.38-.77-.41-1.32,0s-.65.9-.34,1.28"/><polygon class="cls-12" points="252.04 492.55 253.39 491.43 253.71 491.82 253.95 491.62 253.09 490.59 252.85 490.79 253.17 491.17 251.83 492.29 252.04 492.55"/><rect class="cls-12" x="253.1" y="493.23" width="2.06" height="0.34" transform="translate(-263.32 292.72) rotate(-41.55)"/><polygon class="cls-12" points="254.81 495.67 255.49 495.03 256 495.56 255.32 496.2 255.56 496.45 257.05 495.03 256.82 494.78 256.22 495.35 255.71 494.82 256.31 494.25 256.07 494 254.58 495.42 254.81 495.67"/><polygon class="cls-12" points="257.04 497.92 257.25 497.7 256.65 497.11 257.1 496.66 257.66 497.21 257.87 496.99 257.32 496.44 257.67 496.08 258.25 496.65 258.46 496.43 257.64 495.62 256.2 497.09 257.04 497.92"/><polygon class="cls-12" points="258.41 499.2 258.62 498.98 258.04 498.45 259.24 497.16 258.99 496.93 257.59 498.44 258.41 499.2"/><polygon class="cls-12" points="259.77 500.43 259.98 500.19 259.39 499.68 260.55 498.37 260.3 498.14 258.93 499.68 259.77 500.43"/><polygon class="cls-12" points="261.22 501.64 261.42 501.4 260.78 500.87 261.18 500.38 261.78 500.88 261.98 500.64 261.38 500.14 261.7 499.76 262.32 500.27 262.52 500.04 261.64 499.3 260.32 500.88 261.22 501.64"/><path class="cls-12" d="M263.44,501.15a.29.29,0,0,1,.05.44.27.27,0,0,1-.43.05l-.27-.2.38-.49Zm-1.34,1.18.51-.65.21.17-.2.89.29.22.22-1a.6.6,0,0,0,.5-1.07l-.53-.41-1.27,1.62Z"/><path class="cls-12" d="M264,503.8a.64.64,0,0,0,1-.15l.81-1.12-.28-.2-.8,1.11c-.16.22-.33.26-.53.11s-.23-.32-.06-.55l.8-1.1-.28-.2-.8,1.12a.62.62,0,0,0,.15,1"/><path class="cls-12" d="M266.87,503.63a.27.27,0,0,1,.08.43.29.29,0,0,1-.43.09l-.3-.21.34-.51Zm-1.28,1.25.46-.68.3.2a.57.57,0,0,0,.88-.15.55.55,0,0,0-.19-.87l-.58-.4-1.15,1.71Z"/><polygon class="cls-13" points="272.36 406.47 271.91 415.85 269.87 415.75 270.31 406.37 266.76 406.2 266.84 404.5 275.98 404.94 275.89 406.64 272.36 406.47"/><path class="cls-13" d="M281.2,414.66c1.41.07,2.41-.86,2.5-2.65l.31-6.69,2.05.1-.32,6.71a4.42,4.42,0,1,1-8.83-.42l.32-6.71,2,.1-.32,6.69c-.08,1.79.84,2.81,2.24,2.87"/><path class="cls-13" d="M288.2,405.52l3.19.15c2.47.12,3.7,1.34,3.62,3.11a2.46,2.46,0,0,1-1.66,2.23,2.79,2.79,0,0,1,2.11,2.79c-.1,2-1.67,3.09-4.07,3l-3.72-.17Zm2.84,4.84c1.16.05,1.91-.43,1.95-1.4s-.65-1.54-1.81-1.59l-1.06-.05-.14,3Zm.31,4.71c1.17.05,2-.52,2-1.5s-.71-1.62-1.88-1.67l-1.59-.08-.15,3.17Z"/><path class="cls-13" d="M308.1,412a5.67,5.67,0,1,1-5.39-6,5.69,5.69,0,0,1,5.39,6m-9.27-.44a3.62,3.62,0,1,0,3.79-3.65,3.67,3.67,0,0,0-3.79,3.65"/><path class="cls-13" d="M311.67,417.74l-2.05-.1.52-11.08,3.13.15c2.44.12,4.13,1.46,4,3.63a3.1,3.1,0,0,1-2.32,2.93l3.23,4.78-2.39-.11-3-4.43-1-.05Zm.24-5.92,1.08.05c1.26.06,2.13-.52,2.19-1.63s-.77-1.78-2-1.84l-1.08,0Z"/><path class="cls-13" d="M329.61,412.69a5.76,5.76,0,0,1,0,.59,5.19,5.19,0,0,1-5.62,5.23,5.73,5.73,0,0,1,.55-11.44,5.26,5.26,0,0,1,4.54,2.95l-1.76,1a3.36,3.36,0,0,0-2.87-2,3.69,3.69,0,0,0-3.78,3.63,3.73,3.73,0,0,0,3.44,4,3.11,3.11,0,0,0,3.31-2.35l-3.07-.15.08-1.69Z"/><path class="cls-10" d="M286.37,347.62a4.47,4.47,0,0,0,.41,1,1.42,1.42,0,0,0-.69.35,1.83,1.83,0,0,0-.52,1.27,1.38,1.38,0,0,0-.92-.4h-.19a1.79,1.79,0,0,0,0-.23,5.35,5.35,0,0,0-.05-.69,10,10,0,0,1,1.94-1.27"/><path class="cls-10" d="M298.66,344.43a1.79,1.79,0,0,0-.58,1.29,3.51,3.51,0,0,0,.06.82H298a1.75,1.75,0,0,0-1.25.48,3.49,3.49,0,0,0-.88,2.45,3.64,3.64,0,0,0,.65,2.52,3.08,3.08,0,0,1-.68-.36l-.43-.31-.31.43a1.55,1.55,0,0,1-.75.47,3.2,3.2,0,0,0,.45-1.61,3.77,3.77,0,0,0-.86-2.76,2.32,2.32,0,0,0-1.41-.83,2.09,2.09,0,0,0-.88.14,2.72,2.72,0,0,0-.58-1.66,20.92,20.92,0,0,1,7.58-1.06"/><path class="cls-10" d="M315.59,349a4.13,4.13,0,0,1-.5.91,1.51,1.51,0,0,1,.66.42,1.85,1.85,0,0,1,.4,1.32,1.4,1.4,0,0,1,1-.32l.19,0v-.23a6.67,6.67,0,0,1,.12-.68,10.16,10.16,0,0,0-1.82-1.45"/><path class="cls-10" d="M303.66,344.67a1.76,1.76,0,0,1,.46,1.33,3.26,3.26,0,0,1-.14.82h.14a1.74,1.74,0,0,1,1.19.6,3.52,3.52,0,0,1,.65,2.52,3.72,3.72,0,0,1-.89,2.45,3.89,3.89,0,0,0,.72-.3l.45-.26.27.45a1.47,1.47,0,0,0,.7.54,3.11,3.11,0,0,1-.3-1.64,3.77,3.77,0,0,1,1.12-2.67,2.21,2.21,0,0,1,1.48-.69,2.15,2.15,0,0,1,.87.22,2.71,2.71,0,0,1,.73-1.6,21.08,21.08,0,0,0-7.45-1.77"/><path class="cls-11" d="M285,363.93a58.74,58.74,0,0,1,15.33-1.06,58.07,58.07,0,0,1,15.18,2.52c-.3-1.49-6.9-3.43-15.11-3.82s-14.94.9-15.4,2.36m-.46-3.56c0-.66.11-1.21.26-1.21s.3.53.31,1.2-.1,1.21-.26,1.21h0c-.15,0-.29-.54-.31-1.2m31.2,1.45c.08-.67.26-1.19.42-1.17s.22.57.14,1.23-.26,1.17-.41,1.17h0c-.15,0-.22-.58-.14-1.23m-28.81-2.93c0-.79.41-1.41.84-1.39s.75.68.72,1.46-.42,1.41-.85,1.39-.75-.67-.71-1.46m25.58,1.22c0-.79.41-1.41.85-1.39s.75.67.71,1.46-.41,1.41-.85,1.39-.74-.68-.71-1.46m-22.15-1.68a8.14,8.14,0,0,1,1-1.81,7.6,7.6,0,0,1,.92,1.67,13.51,13.51,0,0,1-1,1.65,11.62,11.62,0,0,1-.89-1.51m18.44.65a7.44,7.44,0,0,1,1.08-1.58,7.66,7.66,0,0,1,.81,1.9,11.83,11.83,0,0,1-1,1.42,14.08,14.08,0,0,1-.87-1.74m-14.52-1.18a1.28,1.28,0,1,1,2.55.12,1.28,1.28,0,1,1-2.55-.12m10,.48a1.31,1.31,0,0,1,1.34-1.26,1.31,1.31,0,1,1-1.34,1.26m-5.4,1a25.63,25.63,0,0,1,.06-2.75,6,6,0,0,1,1.69-.08,6.21,6.21,0,0,1,1.68.24,24.19,24.19,0,0,1-.2,2.75c-.38,0-1,0-1.62,0s-1.24-.08-1.61-.13m-13.95-2-.3.17.08.85s-.66.18-.73,1.62c-.09,2.06.92,2.34.92,2.34l.09.32c2.14-1.45,8.57-2.28,15.44-2s13.2,1.77,15.2,3.41l.11-.3s1-.18,1.14-2.24c.07-1.45-.57-1.68-.57-1.68l.16-.85-.28-.19s-4.71-3.19-15.49-3.7-15.72,2.18-15.77,2.21m-2.06-4.08c-.26-.44-.34-.87-.19-1s.48.19.74.62.34.88.19,1l-.08,0c-.16,0-.44-.27-.66-.65m34.95,2.26c-.14-.11,0-.53.29-.95s.66-.66.79-.55,0,.53-.28,1-.55.58-.72.57Zm-28.62-5.11c0-.46.16-1.4.27-2a7.73,7.73,0,0,1,1.3,1.7,12.46,12.46,0,0,1-.32,2,14.82,14.82,0,0,1-1.25-1.71m21.85.71a8.71,8.71,0,0,1,1.45-1.58c.07.57.08,1.52.1,2a14,14,0,0,1-1.42,1.59,13,13,0,0,1-.13-2M300,350.51s0-1.08,0-1.43.08-1.47.08-1.47a7.28,7.28,0,0,1,.95-.05,8.76,8.76,0,0,1,.94.14s0,1.12-.06,1.47-.11,1.43-.11,1.43-.58,0-.92,0-.91-.09-.91-.09m-1.35-4.77a2.68,2.68,0,0,0,.42,1.61,3.65,3.65,0,0,0-1-.27c-.5,0-1.47.32-1.57,2.41s.95,2.74,1.73,2.78a1.65,1.65,0,0,0,.35,0s-.33.5-1.38.45a3.37,3.37,0,0,1-1.57-.61,2.31,2.31,0,0,1-2,.78,1.17,1.17,0,0,1-.87-.4s1.49.32,1.6-1.87-1.35-3-1.77-3a2.24,2.24,0,0,0-1.48.58s.07-.43.09-.85a1.7,1.7,0,0,0-1.57-1.93c-1.37-.06-2.69.62-2.74,1.63a5.14,5.14,0,0,0,1,2.15,1.28,1.28,0,0,0-.37-.06,1.09,1.09,0,0,0-1.31,1.18c-.06,1.16.85,2.85,2,2.9a1.63,1.63,0,0,0,1-.24,1.4,1.4,0,0,1-1.52.78,1,1,0,0,1-.83-.38s-.21.92-.92.88-.75-.25-.75-.25,1.7-.21.83-2.18c-.54-1.21-.95-1.4-1.31-1.42s-.93.5-.93.5a5.87,5.87,0,0,0,.25-1.29c0-.62-.22-1.48-1.09-1.52-1.19-.06-3.17,1.75-3.17,1.75s2.23,1.2,2.61,2a.87.87,0,0,0-.22.57,2,2,0,0,0,1.87,2.2,12.09,12.09,0,0,1,.53,2.05s5-2.85,16.22-2.32,15.92,3.85,15.92,3.85a13.11,13.11,0,0,1,.73-2,2,2,0,0,0,2.07-2,.88.88,0,0,0-.17-.59c.45-.73,2.79-1.71,2.79-1.71s-1.79-2-3-2.05c-.87,0-1.2.79-1.23,1.41a5.55,5.55,0,0,0,.13,1.3s-.51-.56-.88-.58-.79.14-1.44,1.3c-1.06,1.87.62,2.24.62,2.24s-.06.22-.77.18-.84-1-.84-1a.93.93,0,0,1-.86.3,1.4,1.4,0,0,1-1.44-.92,1.62,1.62,0,0,0,1,.34c1.18.06,2.25-1.53,2.3-2.69a1.09,1.09,0,0,0-1.19-1.3,1.53,1.53,0,0,0-.37,0s1.14-1.29,1.17-2.05c0-1-1.2-1.81-2.58-1.88a1.68,1.68,0,0,0-1.74,1.77,8.59,8.59,0,0,0,0,.86,2.25,2.25,0,0,0-1.43-.73c-.41,0-1.93.64-2,2.84s1.4,2,1.4,2a1.18,1.18,0,0,1-.9.32,2.31,2.31,0,0,1-1.9-1,3.47,3.47,0,0,1-1.63.46c-1.05,0-1.33-.58-1.33-.58a1.7,1.7,0,0,0,.35.07c.78,0,1.88-.52,2-2.6s-.83-2.52-1.33-2.55a3.65,3.65,0,0,0-1.08.17,2.7,2.7,0,0,0,.58-1.56c.05-1.16-1.28-1.69-2.42-1.75s-2.51.35-2.56,1.51m2-2.59a1,1,0,0,1,.73-1.67.84.84,0,0,1,.41.14,1,1,0,0,1-.51,1.83.88.88,0,0,1-.63-.3m-.37-3.24a1.18,1.18,0,0,1,1.22-1.14,1,1,0,0,1,.45.11,1.2,1.2,0,1,1-1.67,1m-1.8-1.32a3.19,3.19,0,0,0,1,2.11l-.51,3.52a3.75,3.75,0,0,1,2.26-.53,3.81,3.81,0,0,1,2.2.74l-.17-3.55a3.11,3.11,0,0,0,1.23-2,7.89,7.89,0,0,0-3-.74,8,8,0,0,0-3,.45m-20.63,8.55h0a.85.85,0,1,1,1.7.08h0a.85.85,0,1,1-1.7-.08m-.64-2.45h0a.89.89,0,0,1,.93-.86.9.9,0,0,1,.85.95h0a.89.89,0,1,1-1.78-.09m7.82-.55a.92.92,0,0,1,1-.91.87.87,0,0,1,.36.09,1,1,0,0,1,.52.9.94.94,0,0,1-1,.9.92.92,0,0,1-.87-1m-7.62-2a1,1,0,1,1,.92,1,1,1,0,0,1-.92-1m7.38.13-.08-.07-.07-.07-.07-.1-.06-.08,0-.06a1.13,1.13,0,0,1-.13-.58h0a1.12,1.12,0,0,1,1.15-1.08h0a1.13,1.13,0,0,1-.11,2.26,1.08,1.08,0,0,1-.61-.22m4.36-1.69a1,1,0,0,1,1-1.27c1.48.07,5.1,2,7.42,2.42a5.34,5.34,0,0,1-2.42.16,36.73,36.73,0,0,1-6-1.31m-10.3-.77a1,1,0,1,1,1,1.11,1.05,1.05,0,0,1-1-1.11m16.68,0a.88.88,0,0,1,.41-1.67.9.9,0,0,1,.33.09.87.87,0,0,1,.48.83.85.85,0,0,1-.89.83.73.73,0,0,1-.33-.08m-14.11-1.32h0a1.13,1.13,0,1,1,2.26.11h0a1.13,1.13,0,1,1-2.26-.11m3.22-.06a1.15,1.15,0,0,1,1.18-1.11,1.24,1.24,0,0,1,.44.11,1.16,1.16,0,0,1,.64,1.11,1.15,1.15,0,0,1-1.19,1.12h0a1.16,1.16,0,0,1-1.07-1.23m8-.65a1,1,0,0,1,1-.94.93.93,0,0,1,.57.25,1,1,0,0,1,.34.78,1,1,0,0,1-1,.94,1,1,0,0,1-.91-1m-2.58-.69,0-.07v0a1.5,1.5,0,0,1-.05-.37h0a1,1,0,0,1,1.08-1,.92.92,0,0,1,.56.21l.06.05.09.08.05.07.07.09,0,.06.05.13h0a1.35,1.35,0,0,1,.06.41h0a1,1,0,0,1-1.08,1h0a1,1,0,0,1-.88-.62m-2.7.24-.05,0h0a1.19,1.19,0,0,1-.28-.81h0a1.1,1.1,0,1,1,2.19.1h0a1.1,1.1,0,0,1-1.15,1.08h0a1,1,0,0,1-.71-.32m-.33-2.05a1.7,1.7,0,0,0-.53,1.16,1.66,1.66,0,0,0,.06.55,1.56,1.56,0,0,0-.74-.22,1.63,1.63,0,0,0-1.2.45,1.71,1.71,0,0,0-.5.86,1.56,1.56,0,0,0-.37-.68,1.59,1.59,0,0,0-1.15-.56,1.63,1.63,0,0,0-1.2.44,1.72,1.72,0,0,0-.54,1.19v.15a1.44,1.44,0,0,0-.92-.37,1.53,1.53,0,0,0-1.13.41,1.62,1.62,0,0,0-.51,1.11,1.73,1.73,0,0,0,.2.88h-.07a1.49,1.49,0,0,0-1.08.39,1.59,1.59,0,0,0-.48,1.07,1.53,1.53,0,0,0,.38,1.1,1.15,1.15,0,0,0,.23.21,1.21,1.21,0,0,0-.35.24,1.47,1.47,0,0,0-.1,2.06,1.36,1.36,0,0,0,.7.43,1.47,1.47,0,0,0-.43,1,1.4,1.4,0,0,0,1.31,1.48c.2,0,.86-.16,1.16-.15a.51.51,0,0,1,.47.23l1.94-1.12a13.06,13.06,0,0,1-.87-3.9,2.67,2.67,0,0,1,2.49-2.38,2.73,2.73,0,0,0,.42,1.21.82.82,0,0,1,.25,1.62,1.54,1.54,0,0,0,.38,1.08,1.44,1.44,0,0,0,1,.48c.41,0,1-.18,1.28-.17a4.77,4.77,0,0,1,2.41-.71c-.07-.4-.41-2.51-.41-2.51a19.34,19.34,0,0,0,4.14.64c3.84.19,5.52-.55,5.52-.55l.19-1.31a5.32,5.32,0,0,1-1.59-.56c-.33-.3-.15-.83-.12-1.42a1.43,1.43,0,0,0-.36-1,1.31,1.31,0,0,0-1-.47,1.33,1.33,0,0,0-.86.26,1.58,1.58,0,0,0-.38-1.07,1.49,1.49,0,0,0-1-.5,1.46,1.46,0,0,0-1.08.4l0,.05h0a1.69,1.69,0,0,0-.4-1.16,1.57,1.57,0,0,0-1.08-.52,1.53,1.53,0,0,0-1.13.42,1.17,1.17,0,0,0-.3.4,2,2,0,0,0-.3-.48,1.63,1.63,0,0,0-1.13-.55,1.59,1.59,0,0,0-1.18.44m35.5,14h0a.86.86,0,0,1,.89-.84,1.14,1.14,0,0,1,.33.08.88.88,0,0,1,.48.84.87.87,0,0,1-.89.84.88.88,0,0,1-.81-.92m1.17-1.61a.89.89,0,0,1,.94-1.52.91.91,0,0,1,.46.83.89.89,0,0,1-.94.87.85.85,0,0,1-.46-.18m-7.93-1.39a1,1,0,0,1-.15-.26l0-.05a1,1,0,0,1,.91-1.28,1.06,1.06,0,0,1,.36.09,1,1,0,0,1,.51.91.93.93,0,0,1-1,.9,1,1,0,0,1-.64-.31m7.46-2a1,1,0,0,1,1-.94h0a1,1,0,0,1,.91,1,1,1,0,0,1-1,.94h0a1,1,0,0,1-.9-1m-6.49-.42a1.14,1.14,0,0,1,.53-2.15h0a1,1,0,0,1,.59.21h0l0,0a1.14,1.14,0,0,1,.4.93h0a1.12,1.12,0,0,1-1.15,1.08,1.19,1.19,0,0,1-.42-.11m-11.59-1.81c2.35-.21,6.13-1.77,7.62-1.7a.9.9,0,0,1,.91,1,.76.76,0,0,1-.08.32,37,37,0,0,1-6.06.73,5.2,5.2,0,0,1-2.39-.39m16.73-.23a1,1,0,0,1,1.08-1,1.24,1.24,0,0,1,.39.1l0,0,.15.09.08.07.07.06,0,.06a1.07,1.07,0,0,1-.85,1.72h0a1,1,0,0,1-1-1.11m-15.21-1.51a.82.82,0,0,1-.41-.45l0,0,0-.16,0-.18h0a.87.87,0,0,1,.89-.83.73.73,0,0,1,.33.08.87.87,0,0,1,.48.83.86.86,0,0,1-.89.84.85.85,0,0,1-.32-.09m13.13,1a1.16,1.16,0,1,1,1.25-1.94,1.18,1.18,0,0,1,.45,1,1.15,1.15,0,0,1-1.19,1.12,1,1,0,0,1-.51-.17M316,339.93a1.14,1.14,0,0,1,1.19-1.11.92.92,0,0,1,.43.11,1.17,1.17,0,0,1-.54,2.22h0a1.15,1.15,0,0,1-1.08-1.22m-7.58-1.4a1,1,0,0,1,1-.94,1,1,0,0,1,.48.18,1,1,0,0,1,.43.85,1,1,0,1,1-1.91-.09m3.06,0h0l0,0a1,1,0,0,1-.37-.86h0a1.05,1.05,0,0,1,1.08-1,1,1,0,0,1,.39.1,1.07,1.07,0,0,1,.58,1,1,1,0,0,1-1.07,1h0a1,1,0,0,1-.55-.2m2.36-.77a1.09,1.09,0,0,1,1.74-.87,1.15,1.15,0,0,1,.46,1,1.1,1.1,0,1,1-2.2-.1m0-1.19a1.67,1.67,0,0,0-.34.45,1.21,1.21,0,0,0-.27-.43,1.49,1.49,0,0,0-1.08-.52,1.56,1.56,0,0,0-1.12.41,1.63,1.63,0,0,0-.51,1.12h0l0-.06a1.47,1.47,0,0,0-1-.5,1.54,1.54,0,0,0-1.08.4,1.58,1.58,0,0,0-.48,1,1.29,1.29,0,0,0-.83-.34,1.32,1.32,0,0,0-1,.38,1.43,1.43,0,0,0-.45,1c0,.59.1,1.13-.26,1.4a5.12,5.12,0,0,1-1.63.4l.06,1.33s1.6.89,5.45,1.08a19.6,19.6,0,0,0,4.17-.25l-.64,2.46a4.7,4.7,0,0,1,2.33.93c.29,0,.85.28,1.25.3a1.53,1.53,0,0,0,1.06-.39,1.55,1.55,0,0,0,.47-1,.82.82,0,0,1,.4-1.59,2.82,2.82,0,0,0,.54-1.16,2.66,2.66,0,0,1,2.25,2.61,12.89,12.89,0,0,1-1.24,3.79l1.83,1.3a.49.49,0,0,1,.48-.18c.3,0,.94.26,1.14.26a1.46,1.46,0,0,0,1-.37,1.44,1.44,0,0,0,.46-1,1.54,1.54,0,0,0-.34-1,1.3,1.3,0,0,0,.73-.36,1.47,1.47,0,0,0,.1-2.06,1.18,1.18,0,0,0-.32-.27,2.23,2.23,0,0,0,.24-.19,1.55,1.55,0,0,0,.49-1.06,1.6,1.6,0,0,0-.38-1.11,1.46,1.46,0,0,0-1-.49h-.08a1.68,1.68,0,0,0-.12-2,1.55,1.55,0,0,0-1.08-.52,1.58,1.58,0,0,0-1,.29v-.15a1.62,1.62,0,0,0-.43-1.23,1.57,1.57,0,0,0-1.15-.56,1.63,1.63,0,0,0-1.2.44,1.76,1.76,0,0,0-.43.65,1.73,1.73,0,0,0-.41-.9,1.63,1.63,0,0,0-1.16-.56,1.59,1.59,0,0,0-.75.14,1.78,1.78,0,0,0,.11-.53,1.71,1.71,0,0,0-.42-1.21,1.57,1.57,0,0,0-1.13-.55,1.6,1.6,0,0,0-1.18.44m-12.57-5.8a.48.48,0,0,0,.08.33A.62.62,0,0,0,301,331a.56.56,0,0,0,0,1.12c.18,0,.23,0,.23,0l-.06,1.22-1.18-.06s0,0,.06-.23a.53.53,0,0,0-.52-.59.54.54,0,0,0-.57.54.61.61,0,0,0,.08.33.45.45,0,0,0-.31-.11.57.57,0,0,0-.06,1.13.41.41,0,0,0,.32-.09.74.74,0,0,0-.1.33.52.52,0,0,0,.51.58.53.53,0,0,0,.58-.53c0-.19,0-.23,0-.23l1.18,0,0,.81a3.1,3.1,0,0,0-2.52,2.22,8.89,8.89,0,0,1,2.26-.36l.25-1.73h.55l.54,0,.09,1.74a9.26,9.26,0,0,1,2.23.58,3.14,3.14,0,0,0-2.31-2.45l0-.81,1.18.06s-.05,0-.06.23a.55.55,0,1,0,1.09.05.66.66,0,0,0-.07-.33.42.42,0,0,0,.31.11.53.53,0,0,0,.57-.54.53.53,0,0,0-.52-.58.5.5,0,0,0-.32.07.62.62,0,0,0,.11-.32.54.54,0,0,0-.52-.59.53.53,0,0,0-.57.54c0,.19,0,.24,0,.24l-1.18-.06.06-1.21s0,0,.22.05a.54.54,0,0,0,.58-.53.55.55,0,0,0-.52-.59.55.55,0,0,0-.32.08.5.5,0,0,0,.1-.32.53.53,0,0,0-.52-.59.54.54,0,0,0-.57.54"/></g><g class="cls-19"><rect class="cls-11" x="206.95" y="359.96" width="181.22" height="121.56" transform="translate(-136.84 697.97) rotate(-87.28)"/></g><g class="cls-18"><path class="cls-9" d="M308.7,493.22a1.19,1.19,0,1,1-1.14-1.25,1.19,1.19,0,0,1,1.14,1.25m1.65-1,.88,0-3.83,5.19-.87,0Zm-3.39.95a.55.55,0,0,0,.52.58.56.56,0,0,0,0-1.11.55.55,0,0,0-.57.53m2.11,3.25a1.19,1.19,0,1,1,1.13,1.25,1.19,1.19,0,0,1-1.13-1.25m1.73.08a.54.54,0,0,0-.52-.58.56.56,0,0,0,0,1.12.56.56,0,0,0,.57-.54"/><path class="cls-9" d="M275.5,473.15l-1,0-.49-1.18-2.28-.11-.6,1.13-1-.05,3-5.44Zm-3.42-2.08,1.57.07-.71-1.69Z"/><polygon class="cls-9" points="276.72 467.84 277.71 467.88 277.5 472.42 279.69 472.53 279.65 473.35 276.47 473.2 276.72 467.84"/><polygon class="cls-9" points="285.1 473.61 283.93 473.55 281.86 470.75 281.73 473.45 280.74 473.4 281 468.04 281.99 468.09 281.87 470.5 284.02 468.18 285.2 468.24 282.89 470.6 285.1 473.61"/><path class="cls-9" d="M291,471.2a2.74,2.74,0,1,1-2.61-2.89A2.75,2.75,0,0,1,291,471.2m-4.48-.21a1.75,1.75,0,1,0,3.49.17,1.75,1.75,0,1,0-3.49-.17"/><polygon class="cls-9" points="295.74 471.79 293.24 471.67 293.13 473.99 292.14 473.94 292.39 468.58 293.38 468.63 293.28 470.84 295.77 470.96 295.88 468.75 296.87 468.8 296.62 474.16 295.63 474.11 295.74 471.79"/><path class="cls-9" d="M303.44,471.79a2.74,2.74,0,1,1-2.6-2.89,2.75,2.75,0,0,1,2.6,2.89m-4.48-.21a1.75,1.75,0,1,0,1.83-1.77,1.77,1.77,0,0,0-1.83,1.77"/><polygon class="cls-9" points="304.79 469.17 305.79 469.22 305.57 473.76 307.76 473.86 307.73 474.68 304.54 474.53 304.79 469.17"/><polygon class="cls-9" points="309.07 469.38 312.29 469.53 312.25 470.35 310 470.24 309.93 471.68 312 471.77 311.96 472.6 309.89 472.5 309.78 474.78 308.81 474.74 309.07 469.38"/><path class="cls-9" d="M314.2,475l-1,0,.25-5.37,1.52.08c1.18,0,2,.7,1.94,1.75a1.49,1.49,0,0,1-1.12,1.42l1.57,2.31-1.16-.05-1.43-2.15-.48,0Zm.14-2.86.52,0c.61,0,1-.25,1.06-.79s-.37-.86-1-.89l-.52,0Z"/><rect class="cls-9" x="316.36" y="472.04" width="5.37" height="0.99" transform="translate(-168.12 768.76) rotate(-87.28)"/><path class="cls-9" d="M280.42,478.7l-.1,2-1,0,.25-5.36,1.51.07c1.19.06,2,.71,2,1.75s-.91,1.62-2.1,1.56Zm0-.82.53,0c.61,0,1-.26,1.06-.79s-.37-.87-1-.9l-.53,0Z"/><rect class="cls-9" x="281.9" y="477.76" width="5.37" height="0.99" transform="translate(-206.66 739.79) rotate(-87.28)"/><polygon class="cls-9" points="286.71 475.68 287.7 475.72 287.48 480.26 289.68 480.37 289.64 481.19 286.45 481.04 286.71 475.68"/><path class="cls-9" d="M290.34,480.27l.69-.64a1.68,1.68,0,0,0,1.34.94.84.84,0,0,0,1-.73c.05-1.12-2.58-.64-2.49-2.44a1.65,1.65,0,0,1,1.84-1.53,2.09,2.09,0,0,1,1.6.86l-.63.66a1.24,1.24,0,0,0-1-.7.72.72,0,0,0-.82.68c0,1,2.58.57,2.49,2.46a1.76,1.76,0,0,1-2,1.57,2.45,2.45,0,0,1-2-1.13"/><polygon class="cls-9" points="299.44 476.28 300.41 476.33 300.14 481.89 296.54 478.08 296.38 481.51 295.41 481.46 295.68 475.9 299.28 479.71 299.44 476.28"/><polygon class="cls-9" points="301.92 476.4 305.23 476.56 305.19 477.38 302.85 477.27 302.79 478.66 304.94 478.76 304.9 479.59 302.75 479.49 302.68 480.98 305.03 481.1 304.99 481.92 301.67 481.76 301.92 476.4"/><path class="cls-9" d="M307.27,482l-1,0,.25-5.36,1.51.07c1.19.06,2,.71,1.95,1.76a1.49,1.49,0,0,1-1.12,1.41l1.56,2.32-1.15-.06L307.84,480l-.47,0Zm.13-2.87.52,0c.61,0,1-.26,1.07-.79s-.38-.87-1-.89l-.52,0Z"/><path class="cls-9" d="M292.38,491.2c-.16,3.31-2.16,5.59-4.73,5.46s-4.34-2.57-4.19-5.88,2.17-5.59,4.73-5.47,4.34,2.58,4.19,5.89m-6.91-.33c-.11,2.15.78,3.9,2.27,4s2.53-1.58,2.64-3.74-.77-3.89-2.28-4-2.53,1.59-2.63,3.74"/><path class="cls-9" d="M295.26,495.67a1.27,1.27,0,0,1-1.34,1.22h0a1.28,1.28,0,0,1,.12-2.55h0a1.27,1.27,0,0,1,1.22,1.33"/><path class="cls-9" d="M304.88,491.79c-.16,3.32-2.15,5.59-4.73,5.47s-4.34-2.58-4.19-5.89,2.17-5.59,4.73-5.46,4.35,2.57,4.19,5.88m-6.91-.32c-.11,2.15.78,3.9,2.27,4s2.53-1.59,2.64-3.74-.77-3.9-2.27-4-2.54,1.58-2.64,3.74"/><polygon class="cls-11" points="265.66 384.91 263.85 383.08 264.15 382.79 265.69 384.34 266.38 383.65 266.65 383.92 265.66 384.91"/><polygon class="cls-11" points="267.38 383.23 265.64 381.32 266.7 380.35 266.96 380.64 266.21 381.32 266.64 381.79 267.36 381.13 267.62 381.41 266.9 382.07 267.43 382.65 268.21 381.94 268.47 382.23 267.38 383.23"/><polygon class="cls-11" points="267.74 379.45 269.53 380.7 268.63 378.72 268.96 378.44 270.01 380.92 269.64 381.23 267.4 379.74 267.74 379.45"/><polygon class="cls-11" points="271.31 379.87 269.76 377.81 270.9 376.95 271.14 377.25 270.33 377.87 270.71 378.36 271.49 377.78 271.72 378.08 270.94 378.67 271.42 379.31 272.25 378.67 272.49 378.98 271.31 379.87"/><path class="cls-11" d="M273.3,378.4l-1.45-2.13.69-.47a.69.69,0,0,1,1.09.15.67.67,0,0,1,0,.85l1.09.65-.38.25-1-.58-.29.19.58.85Zm-.88-2,.43.63.35-.23a.36.36,0,0,0,.1-.54.36.36,0,0,0-.54-.1Z"/><path class="cls-11" d="M276.64,376.26l-.45-.44-.72.44.18.6-.37.22-.69-2.58.47-.29L277,376Zm-.74-.72-.91-.9.37,1.23Z"/><polygon class="cls-11" points="278.85 375.04 277.14 373.61 278.1 375.44 277.74 375.63 276.54 373.35 277.06 373.08 278.77 374.51 277.81 372.68 278.17 372.5 279.37 374.77 278.85 375.04"/><path class="cls-11" d="M279.31,371.94l.8-.36c.54-.24,1.06-.11,1.45.76s.14,1.35-.4,1.59l-.8.36Zm.54.18.74,1.64.41-.19c.31-.13.46-.42.17-1.06s-.6-.71-.9-.58Z"/><path class="cls-11" d="M282.8,373.22l.09-.4a1.75,1.75,0,0,1-.54-.8c-.31-.83-.1-1.38.47-1.59a.9.9,0,0,1,.6,0l0-.16.31-.11-.09.4a1.7,1.7,0,0,1,.54.8c.31.83.1,1.38-.47,1.59a.93.93,0,0,1-.59,0l0,.15Zm-.05-1.35a1.85,1.85,0,0,0,.24.47l.34-1.55a.5.5,0,0,0-.38,0c-.32.12-.45.42-.2,1.08m.82-.87-.34,1.55a.5.5,0,0,0,.38,0c.33-.13.45-.43.2-1.08a1.69,1.69,0,0,0-.24-.47"/><path class="cls-11" d="M285.56,372.23l-.75-2.47.81-.24c.49-.15.84,0,1,.47a.68.68,0,0,1-.26.8l.84.94-.44.14L286,371l-.33.1.3,1Zm-.23-2.22.23.74.39-.12a.39.39,0,0,0-.22-.74Z"/><polygon class="cls-11" points="289.51 371.17 289.06 369.03 288.45 369.16 288.37 368.78 290.01 368.43 290.08 368.81 289.47 368.94 289.93 371.08 289.51 371.17"/><rect class="cls-11" x="291.23" y="368.2" width="0.42" height="2.58" transform="translate(-55.5 51.54) rotate(-9.23)"/><polygon class="cls-11" points="293.02 370.56 292.74 368 293.16 367.95 293.4 370.13 294.37 370.02 294.41 370.4 293.02 370.56"/><path class="cls-11" d="M296.36,367.7l.88,0c.59,0,1,.31,1,1.27s-.4,1.29-1,1.3l-.88,0Zm.43.37,0,1.81h.46c.33,0,.58-.22.57-.92s-.28-.89-.61-.89Z"/><polygon class="cls-11" points="299.33 370.27 299.4 367.7 300.84 367.73 300.83 368.12 299.81 368.09 299.8 368.72 300.77 368.75 300.76 369.13 299.79 369.11 299.77 369.9 300.82 369.93 300.81 370.31 299.33 370.27"/><polygon class="cls-11" points="302 370.44 302.23 368.26 301.61 368.2 301.65 367.81 303.31 367.99 303.27 368.37 302.65 368.31 302.43 370.48 302 370.44"/><polygon class="cls-11" points="304.98 370.84 305.46 368.31 305.88 368.39 305.68 369.43 306.64 368.54 307.12 368.64 306.02 369.63 306.74 371.18 306.23 371.08 305.62 369.73 305.39 370.92 304.98 370.84"/><path class="cls-11" d="M307.55,370.05c.22-.86.71-1.18,1.3-1a.92.92,0,0,1,.71,1.06l-.41-.11c0-.34-.13-.51-.4-.58s-.61.09-.79.77,0,1,.31,1,.57,0,.7-.47l-.54-.14.1-.37,1,.25,0,.07c-.2.79-.58,1.22-1.29,1s-.86-.64-.63-1.53"/><polygon class="cls-11" points="310.01 372.07 310.82 369.62 311.22 369.75 310.54 371.83 311.46 372.13 311.34 372.5 310.01 372.07"/><polygon class="cls-11" points="312.19 372.82 312.36 372.37 312.77 372.53 312.6 372.98 312.19 372.82"/><path class="cls-11" d="M315.32,371.3l.8.37c.54.25.78.72.38,1.59s-.92,1-1.46.75l-.8-.37Zm.22.53-.75,1.63.41.2c.3.14.62.06.92-.58s.14-.92-.16-1.06Z"/><path class="cls-11" d="M318,375.48l.15-.61-.74-.39-.43.46-.38-.2,1.87-1.93.49.27-.57,2.61Zm.24-1,.31-1.25-.87.94Z"/><polygon class="cls-11" points="320.13 376.77 320.5 374.58 319.42 376.33 319.07 376.12 320.43 373.93 320.93 374.24 320.56 376.44 321.64 374.68 321.99 374.9 320.63 377.08 320.13 376.77"/><path class="cls-11" d="M321.84,376.93l.35.25a.44.44,0,0,0,.14.66c.23.16.45.14.57,0s.09-.28,0-.47l-.28-.41a.66.66,0,0,1,0-.84.72.72,0,0,1,1.09-.12.81.81,0,0,1,.25,1.12l-.35-.24a.41.41,0,0,0-.12-.58c-.2-.14-.39-.13-.5,0s-.09.24.06.46l.25.37a.71.71,0,0,1,0,.9.76.76,0,0,1-1.16.11.8.8,0,0,1-.26-1.2"/><polygon class="cls-11" points="323.6 379.18 325.19 377.15 325.52 377.41 324.87 378.24 326.13 377.89 326.52 378.2 325.09 378.58 325.02 380.29 324.61 379.97 324.68 378.48 323.93 379.44 323.6 379.18"/><polygon class="cls-11" points="325.69 380.87 327.39 378.93 328.47 379.87 328.22 380.16 327.45 379.5 327.04 379.97 327.78 380.61 327.52 380.9 326.79 380.26 326.27 380.85 327.06 381.54 326.8 381.83 325.69 380.87"/><polygon class="cls-11" points="328.39 383.33 330.23 381.52 330.52 381.82 329.79 382.55 330.44 383.2 331.17 382.48 331.47 382.78 329.63 384.59 329.34 384.29 330.16 383.47 329.52 382.82 328.69 383.63 328.39 383.33"/><path class="cls-11" d="M332.61,386c-.66.58-1.25.59-1.65.14s-.36-1,.33-1.62,1.24-.6,1.64-.14.36,1-.32,1.62m-1-1.17c-.52.47-.56.79-.32,1.05s.55.27,1.07-.2.56-.79.33-1.05-.56-.26-1.08.2"/><polygon class="cls-11" points="334.31 385.98 335.18 387.05 334.88 387.3 334.28 386.55 333.74 387 334.3 387.69 334 387.94 333.44 387.24 332.58 387.93 332.31 387.6 334.31 385.98"/></g></g><path class="cls-7" d="M373.06,328.41a593.33,593.33,0,0,1-3.23,72.76,1.89,1.89,0,0,1-3.67.4c-3.57-10.69-11.07-28.45-23.79-38.34a5.88,5.88,0,0,1-1.94-6.64c2.62-7.22,4.27-22.38-7.52-27.25,0,0-12.18-4.77-12-8.74.18-3.26,2.09-4.1,11.23-3.81a164.46,164.46,0,0,1,35.3,4.57A7.41,7.41,0,0,1,373.06,328.41Z"/><path class="cls-7" d="M367.05,480.9c-.53,12.07-1,33.43-3.27,44.81a4.8,4.8,0,0,1-3.72,3.78,114.25,114.25,0,0,1-37,2.72c-9.08-.77-14.63-1.72-16.68-2.66a3.39,3.39,0,0,1-2.16-3.84c.43-1.64,3.42-3.32,8.57-3.32,9.8,0,18.43-6.23,25.24-10.48,6.26-3.9,20-18.05,24.36-31.05C363.46,477.64,367.17,478.28,367.05,480.9Z"/><path class="cls-2" d="M260.16,279.07a4.19,4.19,0,0,0-3.51,3.27,40.63,40.63,0,0,1-10.37,18.37c-3.44,3.57,28.35,2.75,31.75.11s6.83-16,4.21-19.88C280.1,277.79,266.61,278.14,260.16,279.07Z"/><path class="cls-2" d="M255.36,334.72a28.88,28.88,0,0,1,3.92-7.48c2.19-3,7-6,3.93-9.39-2.26-2.48-22.08-7.12-27.11.58s-6.34,45-7.1,60.83,13.62,8.12,17.91-13.15A246.68,246.68,0,0,1,255.36,334.72Z"/><path class="cls-15" d="M226.87,531.66a167.17,167.17,0,0,0,21.73,3.7c5.46.57,10.7.84,15.67.89"/><path class="cls-6" d="M227.07,530.86q4.6.92,9.23,1.66c3.09.52,6.19.9,9.29,1.27s6.22.64,9.33.83,6.23.37,9.36.8a.84.84,0,0,1,.72.94.85.85,0,0,1-.74.72,51.1,51.1,0,0,1-9.5.08c-3.17-.22-6.32-.54-9.47-.94s-6.26-1-9.37-1.56-6.19-1.35-9.24-2.19a.83.83,0,0,1,.39-1.61Z"/><path class="cls-6" d="M243.23,541a25.44,25.44,0,0,1,3.92,4.87,3.89,3.89,0,0,0,2.66,1.86c4.22.92,15.19,1.7,34.09,2.29,1.05,0,1.9-.63,1.82-1.44-.18-2-.92-5.24-3.79-5.87-4.06-.9-20.55.1-38-2.6C243.29,540,242.8,540.59,243.23,541Z"/><path class="cls-16" d="M757.09,295.29l-69.36-44.94s-8.79-9.77-14.65-11.72-25.4-2.94-35.17-4.89S593,225,593,225s-14.66-5.86-36.15,2-46.89,11.73-46.89,11.73-29.31,3.9-31.26,8.79S485.52,266,492.35,267s49.83-1,74.25-8.8c3.91-1,12.7-2.93,17.58,0s44,21.5,48.85,22.47,8.79,2.93,9.77,15.63,2,32.24,22.47,45.92,33.21,10.74,42,19.54A61.76,61.76,0,0,1,720,380.28l18.56,6.83,17.59-69.36Z"/><path class="cls-20" d="M769.5,285.43V468.15c-3.39,2-6.55,3.17-9.23,3-14.7-1.17-37.8-34-44.1-58.68-2.69-10.53-1.55-21.7,2.44-35.06,5.35-17.92,15.83-39.8,29.06-69.39a55.77,55.77,0,0,1,8.19-13.48C760.17,289.43,764.81,286.62,769.5,285.43Z"/><path class="cls-16" d="M397.68,457.11c-1.8,5.4-12.58,7.19-18,7.19-.71,0-2.09,0-4,.09-12.25.35-45.61,1.7-52.63,1.7-8.08,0-32.34-3.58-34.13-3.58s-24.26-4.5-24.26-3.6,0,1.8,3.6,1.8,34.21,6.53,36.83,7.18c3.59.91,22.34,1.8,26.05,1.8,4.33,0,31.19-1.67,44.39-1.79H377c12.57,0,12.57,5.4,13.47,9s-6.29,8.09-8.08,9c-.47.23-3.37.47-7.68.7-2.29.12-5,.25-7.93.37l-7.22.29c-11.64.44-24.82.89-32,1.33a122.16,122.16,0,0,1-27.18-1.66,5.14,5.14,0,0,0-1.24-.07c-8,.58-34.49-4.53-35.37-3.65s1.8,1.8,1.8,1.8c5.39,0,44.91,9,56.6,10.77,10,1.54,22.53-.85,33.82-2.7,1.95-.32,3.85-.63,5.7-.89a28.51,28.51,0,0,1,4.88-.3c3.7.12,6.32,1.16,7.76,2.72,1.8,1.95,1.74,4.74-.35,7.59a8.57,8.57,0,0,1-.61.77c-1.27,1.48-4,2.76-7.55,3.89-7.45,2.33-18.59,3.95-28,5.16-5.18.68-9.82,1.24-13,1.73-11.68,1.8-43.12,0-79.05-3.59-9.55-1-19.85-2.42-29.84-4.05-22.93-3.75-44.19-8.39-50.74-9.86a5.21,5.21,0,0,0-3.89.66L97.9,536.15a287.2,287.2,0,0,0-60.4,49.94V440.16C88,430,144.26,417.54,152.43,411.3c11.33-8.68,44.48-23.79,60.79-31l.68-.3a5.21,5.21,0,0,1,6.85,6.93.37.37,0,0,1-.05.11c-.52,1,0,2.38,1.05,3.77,2.5,3.39,7.94,7,7.94,7,1,1.95,13.13,4.61,28.25,7.21,26.64,4.57,62.48,9,62.48,9s46.71,3.6,53.9,2.7c1.17-.14,2.38-.25,3.6-.3,6.34-.29,13,.59,15.27,2.09,2.69,1.8,4.49,8.09,1.8,12.58-1.88,3.12-11.12,4.94-16.59,5.76-.47.07-.94.14-1.41.19a54,54,0,0,1-5.67.39c-12,.16-56.38.73-62.58,0-2.68-.33-15.27-1.8-22.46-3.59s-19.76-1.8-19.76,0,20.66,2.69,21.56,3.59,38.63,5.39,42.22,5.39,32.41.82,34.87.89h.33c.94,0,5.81-.21,11.2-.22,6.29,0,13.29.21,15.58,1.13A10,10,0,0,1,397.68,457.11Z"/><path class="cls-21" d="M362.35,258.37c2.92-7.81,15.65-4.87,20.61-17.27,3.24-8.12,15.63-14.78,19.69-9.49,4.88,6.37,2.75,16.91-10.11,27.12C387.82,262.48,358.57,268.5,362.35,258.37Z"/><path class="cls-21" d="M343.73,163.91A34.51,34.51,0,0,0,332.12,195,42,42,0,0,1,327,221.44c-11.14,20.16-13.36,35.47-6.68,40.25,6,4.25,13.07-5.51,16.45-17.46s17.22-29.2,31.34-26.12c8.72,1.9,18.05,2.6,18.93-3.49s-9.23-11.43-21.38-10.89c-11.51.52.22-16.92,5.73-22.49,6.73-6.8,5.18-18.69-6.54-22.73C358.07,156.19,350.75,157.9,343.73,163.91Z"/><path class="cls-21" d="M423.27,180.8c-1.38-2.76-11.26,1-15.39,7.54s-5.35,13.15-2.74,14.8,8.08-2.29,12.2-8.81S425.51,185.28,423.27,180.8Z"/><path class="cls-21" d="M474.76,79.18c2.36-2-3.69-10.69-11-13.13s-14.05-2-15,.9,4.16,7.28,11.48,9.72S471,82.43,474.76,79.18Z"/><path class="cls-21" d="M453.55,114.85a87.29,87.29,0,0,0,11.32-.38,23.93,23.93,0,0,1,17.35,5.14c11.19,9,7.46,23.14,20.15,20.15s-1.49-14.18,1.49-18.65,7.46,8.2,13.43,6.71,6-14.17-2.24-18.65-15.67-3-15.67-9-6-14.17-11.94-7.46-22.38,4.48-29.84,3.73S429.24,89.77,421,95s-22.39,24.62-7.47,30.59C426.9,130.91,440.22,114.23,453.55,114.85Z"/></g></svg>
